<?xml version="1.0" standalone="no"?>
<!DOCTYPE svg PUBLIC "-//W3C//DTD SVG 20010904//EN"
 "http://www.w3.org/TR/2001/REC-SVG-20010904/DTD/svg10.dtd">
<svg version="1.0" xmlns="http://www.w3.org/2000/svg"
 width="100.000000pt" height="100.000000pt" viewBox="0 0 100.000000 100.000000"
 preserveAspectRatio="xMidYMid meet">
<metadata>
Created by potrace 1.14, written by Peter Selinger 2001-2017
</metadata>
<g transform="translate(0.000000,100.000000) scale(0.100000,-0.100000)"
fill="#000000" stroke="none">
<path d="M213 980 c-35 -14 -68 -38 -100 -74 -110 -120 -110 -271 1 -394 104
-115 301 -115 414 1 43 44 82 138 82 198 0 108 118 180 214 130 l40 -21 25 23
c69 62 73 67 61 82 -7 8 -37 27 -67 41 -75 37 -167 39 -238 4 -107 -52 -160
-126 -171 -237 -11 -106 -55 -161 -136 -170 -83 -10 -150 44 -163 130 -8 51
24 121 65 142 34 18 120 29 120 16 0 -4 -36 -43 -80 -85 -44 -43 -80 -85 -80
-93 0 -20 64 -83 83 -83 9 0 49 33 90 73 62 60 76 80 86 122 7 28 24 67 38 87
31 45 25 57 -50 94 -69 36 -165 41 -234 14z"/>
<path d="M614 592 c-16 -31 -30 -60 -32 -64 -6 -12 77 -61 128 -74 63 -16 152
1 209 41 23 15 41 30 41 33 0 3 -19 24 -42 48 l-42 42 -38 -19 c-62 -32 -123
-23 -171 25 l-26 26 -27 -58z"/>
<path d="M30 240 c0 -33 5 -61 10 -61 37 -5 60 -3 60 6 1 6 -9 11 -20 13 -24
4 -21 28 4 26 9 -1 16 4 16 12 0 8 -9 14 -20 14 -11 0 -20 7 -20 15 0 8 9 15
20 15 11 0 20 5 20 10 0 6 -16 10 -35 10 l-35 0 0 -60z"/>
<path d="M137 282 c-21 -23 -22 -75 -2 -92 19 -16 77 -18 82 -3 3 7 -9 13 -29
15 -27 2 -34 8 -36 30 -3 29 27 54 54 44 8 -3 14 1 14 9 0 22 -63 19 -83 -3z"/>
<path d="M246 278 c-9 -12 -16 -33 -16 -45 0 -26 36 -63 62 -63 26 0 67 44 63
66 -2 11 -4 22 -4 26 -1 4 -8 14 -17 22 -23 24 -70 20 -88 -6z m60 -6 c30 -20
18 -72 -16 -72 -24 0 -38 44 -20 65 14 17 20 18 36 7z"/>
<path d="M377 293 c-3 -7 -2 -90 2 -117 3 -26 23 17 23 50 l1 39 14 -42 c20
-58 39 -62 55 -10 l13 42 5 -38 c8 -60 25 -48 28 21 3 57 1 62 -18 62 -13 0
-24 -10 -31 -27 -5 -16 -12 -35 -15 -43 -4 -10 -11 0 -21 28 -10 29 -20 42
-33 42 -10 0 -21 -3 -23 -7z"/>
<path d="M546 238 c1 -54 3 -63 19 -63 10 0 20 6 23 13 2 6 -1 12 -6 12 -6 0
-9 8 -7 18 16 78 15 82 -8 82 -20 0 -22 -4 -21 -62z"/>
<path d="M608 250 c-4 -66 0 -74 40 -78 23 -1 32 2 32 14 0 8 -4 13 -8 10 -19
-12 -37 15 -37 55 0 62 -22 61 -27 -1z"/>
<path d="M702 238 l3 -62 33 -2 c22 -2 32 2 32 12 0 8 -10 14 -22 14 -21 0
-23 4 -20 50 3 41 1 50 -13 50 -13 0 -15 -10 -13 -62z"/>
<path d="M786 238 c1 -54 3 -63 19 -63 16 0 18 9 19 63 1 56 -1 62 -19 62 -18
0 -20 -6 -19 -62z"/>
<path d="M848 278 c-2 -13 -1 -42 1 -66 4 -56 26 -50 26 6 -1 23 2 38 5 34 3
-4 19 -24 34 -45 19 -26 32 -35 38 -29 11 11 15 108 5 118 -12 13 -24 -7 -22
-36 3 -39 -5 -38 -33 5 -25 40 -49 45 -54 13z"/>
<path d="M337 75 c-4 -8 -3 -16 1 -19 4 -3 9 4 9 15 2 23 -3 25 -10 4z"/>
<path d="M363 55 c0 -22 2 -30 4 -17 2 12 2 30 0 40 -3 9 -5 -1 -4 -23z"/>
<path d="M692 63 c-2 -31 -5 -33 -36 -33 -28 0 -36 4 -39 23 -5 19 -5 19 -4
-3 2 -25 2 -25 102 -25 93 0 100 1 101 20 1 15 0 16 -3 3 -7 -28 -43 -23 -40
5 1 16 -3 22 -18 22 -14 0 -20 -6 -19 -22 1 -38 -34 -29 -39 10 l-4 32 -1 -32z
m76 -5 c-6 -18 -28 -21 -28 -4 0 9 7 16 16 16 9 0 14 -5 12 -12z"/>
<path d="M646 72 c-3 -5 1 -9 9 -9 8 0 12 4 9 9 -3 4 -7 8 -9 8 -2 0 -6 -4 -9
-8z"/>
<path d="M33 46 c3 -40 33 -58 53 -32 8 11 14 29 13 40 0 14 -4 10 -10 -12
-12 -42 -41 -40 -51 3 l-7 30 2 -29z"/>
<path d="M113 54 c-4 -10 0 -22 10 -29 9 -7 13 -16 9 -21 -4 -4 0 -3 9 4 10 8
48 12 103 11 57 -1 91 2 99 10 9 10 8 11 -6 5 -12 -4 -23 0 -32 12 -13 19 -13
19 -12 0 1 -10 -4 -21 -12 -24 -10 -3 -12 1 -8 17 3 11 1 21 -4 21 -5 0 -9 -7
-9 -15 0 -24 -28 -17 -33 8 -4 22 -4 22 -6 0 -1 -17 -7 -21 -31 -21 -20 1 -32
7 -35 20 -8 22 -33 24 -42 2z m35 -12 c2 -7 -3 -12 -12 -12 -9 0 -16 7 -16 16
0 17 22 14 28 -4z"/>
<path d="M406 61 c-9 -14 5 -41 21 -41 9 0 11 -5 7 -13 -6 -9 -5 -9 7 0 8 7
42 13 74 15 52 3 60 6 61 23 1 15 0 16 -3 3 -6 -23 -30 -23 -36 0 -4 16 -5 16
-6 0 -2 -28 -77 -25 -84 2 -5 20 -31 27 -41 11z m34 -17 c0 -9 -5 -14 -12 -12
-18 6 -21 28 -4 28 9 0 16 -7 16 -16z"/>
<path d="M488 63 c6 -2 18 -2 25 0 6 3 1 5 -13 5 -14 0 -19 -2 -12 -5z"/>
<path d="M843 48 c1 -13 -3 -30 -7 -38 -7 -12 -6 -13 5 -2 7 6 40 13 73 14 43
1 50 3 24 5 -41 5 -48 16 -20 32 9 6 12 11 5 11 -6 0 -15 -5 -18 -10 -4 -6
-11 -8 -16 -5 -5 3 -6 -1 -3 -9 4 -11 0 -16 -14 -16 -12 0 -22 8 -25 20 -4 17
-5 17 -4 -2z"/>
<path d="M946 55 c8 -19 14 -19 14 0 0 8 -4 15 -10 15 -5 0 -7 -7 -4 -15z"/>
</g>
</svg>
