<svg xmlns="http://www.w3.org/2000/svg" width="80" height="80" viewBox="0 0 80 80"><defs><style>.a{fill:#2b569f;}</style></defs><path class="a" d="M77.656,75.312h-.937V52.656a2.343,2.343,0,0,0-1.3-2.1l-8.079-4.04V40.156a2.343,2.343,0,0,0-1.3-2.1l-11.2-5.6V11.719A2.344,2.344,0,0,0,52.5,9.375h-.781V2.344A2.344,2.344,0,0,0,49.375,0H30.625a2.344,2.344,0,0,0-2.344,2.344V9.375H27.5a2.344,2.344,0,0,0-2.344,2.344v8.906H15a2.344,2.344,0,0,0-2.344,2.344V57.344H5.625a2.344,2.344,0,0,0-2.344,2.344V75.312H2.344a2.344,2.344,0,1,0,0,4.688H77.656a2.344,2.344,0,1,0,0-4.687ZM32.969,4.687H47.031V9.375H32.969Zm-3.125,9.375H50.156V30.114L47.3,28.685a2.344,2.344,0,0,0-3.392,2.1V75.312H36.094V22.969a2.344,2.344,0,0,0-2.344-2.344H29.844Zm-12.5,11.25H31.406v50H26.719V59.687a2.344,2.344,0,0,0-2.344-2.344H17.344Zm0,50V69.844a2.344,2.344,0,0,0-4.688,0v5.469H7.969V62.031H22.031V75.312Zm31.25-40.739L62.656,41.6V75.312H48.594Zm18.75,40.739V51.761L72.031,54.1V75.312Z"/><path class="a" d="M343.347,292A2.347,2.347,0,0,0,341,294.347v4.693a2.347,2.347,0,1,0,4.693,0v-4.693A2.347,2.347,0,0,0,343.347,292Z" transform="translate(-287.723 -246.383)"/><path class="a" d="M143.347,201.387a2.347,2.347,0,0,0,2.347-2.347v-4.693a2.347,2.347,0,0,0-4.693,0v4.693A2.347,2.347,0,0,0,143.347,201.387Z" transform="translate(-118.97 -162.005)"/><path class="a" d="M145.693,289.04v-4.693a2.347,2.347,0,0,0-4.693,0v4.693a2.347,2.347,0,1,0,4.693,0Z" transform="translate(-118.97 -237.945)"/><path class="a" d="M343.347,382A2.347,2.347,0,0,0,341,384.347v4.693a2.347,2.347,0,1,0,4.693,0v-4.693A2.347,2.347,0,0,0,343.347,382Z" transform="translate(-287.723 -322.338)"/></svg>