<svg xmlns="http://www.w3.org/2000/svg" xmlns:xlink="http://www.w3.org/1999/xlink" width="528.244" height="548" viewBox="0 0 528.244 548">
  <defs>
    <linearGradient id="linear-gradient" y1="0.5" x2="1" y2="0.5" gradientUnits="objectBoundingBox">
      <stop offset="0.494" stop-color="#ebeff2"/>
      <stop offset="1" stop-color="#fff"/>
    </linearGradient>
    <linearGradient id="linear-gradient-2" x1="0.456" y1="-0.113" x2="0.672" y2="2.255" gradientUnits="objectBoundingBox">
      <stop offset="0" stop-color="#311944"/>
      <stop offset="1" stop-color="#893976"/>
    </linearGradient>
    <linearGradient id="linear-gradient-3" x1="0.475" y1="0.374" x2="1.013" y2="2.153" xlink:href="#linear-gradient-2"/>
    <linearGradient id="linear-gradient-4" x1="0.024" y1="0.01" x2="1.476" y2="1.364" xlink:href="#linear-gradient-2"/>
    <linearGradient id="linear-gradient-5" x1="0.825" y1="0.031" x2="0.276" y2="0.838" xlink:href="#linear-gradient-2"/>
    <linearGradient id="linear-gradient-6" x1="0.456" y1="-0.112" x2="0.67" y2="2.234" gradientUnits="objectBoundingBox">
      <stop offset="0" stop-color="#ffc444"/>
      <stop offset="1" stop-color="#f6b452"/>
    </linearGradient>
    <linearGradient id="linear-gradient-7" x1="0.475" y1="0.374" x2="1.013" y2="2.153" gradientUnits="objectBoundingBox">
      <stop offset="0.004" stop-color="#e38ddd"/>
      <stop offset="1" stop-color="#9571f6"/>
    </linearGradient>
    <linearGradient id="linear-gradient-8" x1="0.024" y1="0.01" x2="1.425" y2="1.319" gradientUnits="objectBoundingBox">
      <stop offset="0" stop-color="#2b569f"/>
      <stop offset="1" stop-color="#2b569f"/>
    </linearGradient>
    <linearGradient id="linear-gradient-9" x1="0.952" y1="-0.1" x2="0.282" y2="0.802" gradientUnits="objectBoundingBox">
      <stop offset="0" stop-color="#ff9085"/>
      <stop offset="1" stop-color="#fb6fbb"/>
    </linearGradient>
    <linearGradient id="linear-gradient-10" x1="0.354" y1="0.386" x2="1.216" y2="3.039" xlink:href="#linear-gradient-7"/>
    <linearGradient id="linear-gradient-11" x1="0.422" y1="-0.186" x2="0.675" y2="2.348" gradientUnits="objectBoundingBox">
      <stop offset="0" stop-color="#f6b452"/>
      <stop offset="1" stop-color="#f6b452"/>
    </linearGradient>
    <clipPath id="clip-path">
      <path id="SVGID" d="M1067.68,1892.376c-1.568,17.084-16.214,30.361-34.093,30.305-19.526-.061-36.683-15.795-36.628-36.045.059-21.331,18.929-36.334,40.126-32.8C1056.341,1857.055,1069.318,1874.524,1067.68,1892.376Z" transform="translate(-996.959 -1853.323)" fill="none"/>
    </clipPath>
    <linearGradient id="linear-gradient-12" x1="2.931" y1="-0.343" x2="2.389" y2="1.027" gradientUnits="objectBoundingBox">
      <stop offset="0" stop-color="#fb6fbb"/>
      <stop offset="1" stop-color="#f6b452"/>
    </linearGradient>
    <linearGradient id="linear-gradient-13" x1="-2.147" y1="-4.615" x2="-2.688" y2="-3.242" gradientUnits="objectBoundingBox">
      <stop offset="0" stop-color="#aa80f9"/>
      <stop offset="1" stop-color="#2b569f"/>
    </linearGradient>
    <linearGradient id="linear-gradient-14" x1="1.402" y1="1.861" x2="0.573" y2="0.573" gradientUnits="objectBoundingBox">
      <stop offset="0" stop-color="#f6b452"/>
      <stop offset="0.004" stop-color="#f36f56"/>
      <stop offset="1" stop-color="#f6b452"/>
    </linearGradient>
    <linearGradient id="linear-gradient-15" x1="-0.308" y1="0.217" x2="0.141" y2="1.195" xlink:href="#linear-gradient-8"/>
    <linearGradient id="linear-gradient-16" x1="-10.57" y1="0.517" x2="-10.687" y2="-0.578" gradientUnits="objectBoundingBox">
      <stop offset="0" stop-color="#ab316d"/>
      <stop offset="1" stop-color="#792d3d"/>
    </linearGradient>
    <linearGradient id="linear-gradient-17" x1="-5.22" y1="-1.711" x2="-5.162" y2="1.201" xlink:href="#linear-gradient-14"/>
    <linearGradient id="linear-gradient-18" x1="-26.551" y1="-2.317" x2="-25.098" y2="-0.731" xlink:href="#linear-gradient-14"/>
    <linearGradient id="linear-gradient-20" x1="-89.237" y1="-10.312" x2="-89.237" y2="-19.721" gradientUnits="objectBoundingBox">
      <stop offset="0" stop-color="#ffc444"/>
      <stop offset="0.996" stop-color="#f36f56"/>
    </linearGradient>
    <linearGradient id="linear-gradient-21" x1="-62.754" y1="2.347" x2="-62.754" y2="-7.408" xlink:href="#linear-gradient-20"/>
    <linearGradient id="linear-gradient-22" x1="-2.3" y1="0.504" x2="-2.434" y2="1.461" gradientUnits="objectBoundingBox">
      <stop offset="0" stop-color="#aa80f9"/>
      <stop offset="0.996" stop-color="#6165d7"/>
    </linearGradient>
    <linearGradient id="linear-gradient-23" x1="0.49" y1="0.254" x2="0.616" y2="0.819" xlink:href="#linear-gradient-8"/>
    <linearGradient id="linear-gradient-24" x1="0.32" y1="0.074" x2="0.892" y2="1.054" xlink:href="#linear-gradient-8"/>
    <linearGradient id="linear-gradient-25" x1="0.395" y1="1.481" x2="0.442" y2="1.034" xlink:href="#linear-gradient-2"/>
    <linearGradient id="linear-gradient-26" x1="0.323" y1="7.408" x2="0.392" y2="4.725" xlink:href="#linear-gradient-2"/>
    <linearGradient id="linear-gradient-27" x1="0.351" y1="6.666" x2="0.419" y2="3.83" xlink:href="#linear-gradient-2"/>
    <linearGradient id="linear-gradient-28" x1="0.378" y1="5.835" x2="0.447" y2="2.828" xlink:href="#linear-gradient-2"/>
    <linearGradient id="linear-gradient-29" x1="0.7" y1="1.204" x2="-0.763" y2="-2.911" gradientUnits="objectBoundingBox">
      <stop offset="0" stop-color="#ffc444"/>
      <stop offset="0.996" stop-color="#f6b452"/>
      <stop offset="1" stop-color="#f36f56"/>
    </linearGradient>
  </defs>
  <g id="crm-img" transform="translate(-470.523 -357.427)">
    <g id="Group_27" data-name="Group 27" transform="translate(475.769 627.383)">
      <g id="Group_26" data-name="Group 26">
        <g id="Group_25" data-name="Group 25">
          <path id="Path_19" data-name="Path 19" d="M1061.661,2983.837l-456.973-3.95v11.687c0,3.172,1.993,5.869,4.692,6.35L738.6,3020.939a17.879,17.879,0,0,0,4.636.216l313.46-26.24c2.8-.234,4.966-2.94,4.966-6.2Z" transform="translate(-593.628 -2751.347)" fill="#bfc8d6"/>
          <g id="Group_24" data-name="Group 24">
            <path id="Path_20" data-name="Path 20" d="M846.371,1991.36l-290.443,21.381a8.8,8.8,0,0,1-9.423-9.081V1787.375a9.608,9.608,0,0,1,9.423-9.775H846.371c4.282,0,7.744,3.956,7.744,8.837v195.517C854.115,1986.834,850.653,1991.045,846.371,1991.36Z" transform="translate(-546.505 -1777.6)" fill="#bfc8d6"/>
            <path id="Path_21" data-name="Path 21" d="M870.734,1991.36l-290.443,21.381a8.8,8.8,0,0,1-9.423-9.081V1787.375a9.608,9.608,0,0,1,9.423-9.775H870.734c4.282,0,7.744,3.956,7.744,8.837v195.517C878.478,1986.834,875.016,1991.045,870.734,1991.36Z" transform="translate(-566.237 -1777.6)" fill="#fff"/>
            <path id="Path_22" data-name="Path 22" d="M915.517,2031.08,645,2049.652a7.217,7.217,0,0,1-7.666-7.454V1852.841a7.871,7.871,0,0,1,7.666-8.013l270.517-1.167c3.532-.015,6.389,3.227,6.389,7.241v172.47C921.906,2027.387,919.049,2030.838,915.517,2031.08Z" transform="translate(-620.068 -1831.104)" fill="#d8dee8"/>
            <path id="Path_23" data-name="Path 23" d="M1409.874,1793.228a3.357,3.357,0,1,1-3.341-3.636A3.512,3.512,0,0,1,1409.874,1793.228Z" transform="translate(-1240.341 -1787.312)" fill="#fff"/>
            <path id="Path_24" data-name="Path 24" d="M580.29,2012.741l288.974-21.273,1.471-.108a7.8,7.8,0,0,0,5.115-2.589c-20.795-1.138-33.711-8.517-42.043-16.143-16.732-15.313-13.83-30.414-31.873-40.482-22.505-12.558-40.2,3.354-57.279-12.345-10.354-9.518-5.27-16.616-18.01-30.84-14.11-15.754-23.3-10.458-37.478-24.637-17.93-17.928-8.963-31.877-24.408-44.749-18.737-15.616-38.944-1.162-56.78-16.138-7.693-6.459-11.914-15.85-14.118-25.836h-13.57a9.608,9.608,0,0,0-9.423,9.775v216.284A8.8,8.8,0,0,0,580.29,2012.741Z" transform="translate(-566.237 -1777.6)" fill="#fff" opacity="0.48" style="mix-blend-mode: soft-light;isolation: isolate"/>
          </g>
          <path id="Path_25" data-name="Path 25" d="M911.81,2895.629l-307.122,22.506,133.911,23.85a17.879,17.879,0,0,0,4.636.216l318.426-26.656L916.7,2895.782A23.524,23.524,0,0,0,911.81,2895.629Z" transform="translate(-593.628 -2683.056)" fill="url(#linear-gradient)"/>
          <path id="Path_26" data-name="Path 26" d="M840.442,2934.29l255.688-19.015,79.133,10.7L921.778,2946.3Z" transform="translate(-784.568 -2699.017)" fill="#d8dee8"/>
        </g>
      </g>
    </g>
    <g id="Group_47" data-name="Group 47" transform="translate(518.078 397.816)">
      <g id="Group_36" data-name="Group 36" transform="translate(0 0)">
        <g id="Group_30" data-name="Group 30" transform="translate(0 0.194)">
          <g id="Group_28" data-name="Group 28" transform="translate(0 68.417)">
            <path id="Path_27" data-name="Path 27" d="M960.154,1066.935l11.684-.064s12.607-36.891,46.9-37.064l1.752-98.954c-72.441.24-136.374,40.725-165.49,100.561Z" transform="translate(-838.671 -930.853)" fill="url(#linear-gradient-2)"/>
            <path id="Path_28" data-name="Path 28" d="M1460.482,1877.448c-5.939,32.513-35.8,58.075-72.381,59.2-9.006.278-19.506-5.075-19.506-5.075s-9.632.525-11.281-.112l-57.1,87.695a188.42,188.42,0,0,0,87.888,15.92c91.208-5.2,162.917-73.3,170.881-155.29Z" transform="translate(-1199.251 -1697.512)" fill="url(#linear-gradient-3)"/>
            <path id="Path_29" data-name="Path 29" d="M852.169,1749.483l11.424.392,46.2-88.345c-17.237-12.659-28.315-32.358-28.315-54.7a66.658,66.658,0,0,1,1.882-15.729l-94.1-35.228-11.446.133a160.116,160.116,0,0,0-8.73,52.193C769.081,1668.361,802.362,1720.161,852.169,1749.483Z" transform="translate(-769.081 -1437.062)" fill="url(#linear-gradient-4)"/>
          </g>
          <g id="Group_29" data-name="Group 29" transform="translate(200.037)">
            <path id="Path_30" data-name="Path 30" d="M1821.421,738.731c33.314,4.917,58.928,30.524,61.97,62.17l161.072,4.63v-.2c0-.12,24.282-3.873,24.282-3.888-.007-1.1-220.035-230.51-220.035-230.51l-24.4,3.978Z" transform="translate(-1821.421 -570.93)" fill="url(#linear-gradient-5)"/>
          </g>
        </g>
        <g id="Group_33" data-name="Group 33" transform="translate(11.525)">
          <g id="Group_31" data-name="Group 31" transform="translate(0 68.611)">
            <path id="Path_31" data-name="Path 31" d="M1020.786,1066.935c11.666-20.244,33.37-34.539,58.588-37.128l1.752-98.954c-72.441.24-136.374,40.725-165.49,100.561Z" transform="translate(-899.303 -930.853)" fill="url(#linear-gradient-6)"/>
            <path id="Path_32" data-name="Path 32" d="M1521.114,1877.448c-5.939,32.513-35.8,58.075-72.381,59.2a78.513,78.513,0,0,1-30.786-5.188l-57.1,87.695a188.419,188.419,0,0,0,87.888,15.92c91.208-5.2,162.917-73.3,170.881-155.29Z" transform="translate(-1259.883 -1697.512)" fill="url(#linear-gradient-7)"/>
            <path id="Path_33" data-name="Path 33" d="M912.8,1750.049l57.626-87.954c-17.237-12.659-28.315-32.359-28.315-54.7a66.664,66.664,0,0,1,1.881-15.729l-105.55-35.095a160.116,160.116,0,0,0-8.73,52.193C829.713,1668.927,862.994,1720.727,912.8,1750.049Z" transform="translate(-829.713 -1437.628)" fill="url(#linear-gradient-8)"/>
          </g>
          <g id="Group_32" data-name="Group 32" transform="translate(212.794)">
            <path id="Path_34" data-name="Path 34" d="M1949.168,733.731c33.313,4.917,58.928,30.524,61.97,62.17l161.072,4.63c0-.067,0-.135,0-.2,0-117.206-94.148-217.509-220.158-230.421Z" transform="translate(-1949.168 -569.907)" fill="url(#linear-gradient-9)"/>
          </g>
        </g>
        <g id="Group_34" data-name="Group 34" transform="translate(112.487 302.562)" opacity="0.3" style="mix-blend-mode: multiply;isolation: isolate">
          <path id="Path_35" data-name="Path 35" d="M1426.712,2164.4a77.056,77.056,0,0,1-8.764-2.794l-57.1,87.694a191.281,191.281,0,0,0,158.441-1.934c-21.583-3.242-40.852-11.361-56.239-24.891C1445.519,2207.063,1434.151,2185.624,1426.712,2164.4Z" transform="translate(-1360.846 -2161.609)" fill="url(#linear-gradient-10)"/>
        </g>
        <g id="Group_35" data-name="Group 35" transform="translate(27.858 78.9)" opacity="0.3" style="mix-blend-mode: multiply;isolation: isolate">
          <path id="Path_36" data-name="Path 36" d="M1046.962,1013.966c-6.781-12.4-16.477-21.806-27.356-28.988-45.78,15.668-83.489,48.183-103.97,90.273l105.15,35.52a74.6,74.6,0,0,1,32.092-29.6C1055.618,1054.84,1058.727,1035.487,1046.962,1013.966Z" transform="translate(-915.636 -984.978)" fill="url(#linear-gradient-11)"/>
        </g>
      </g>
      <g id="Group_38" data-name="Group 38" transform="translate(211.356 308.828)">
        <g id="Group_37" data-name="Group 37" transform="translate(3.548)">
          <path id="Path_37" data-name="Path 37" d="M1916.668,2331.047l-17.032-.366v-25.47l17.032.63Z" transform="translate(-1899.637 -2284.179)" fill="#fff"/>
          <path id="Path_38" data-name="Path 38" d="M2039.868,2282.833l-17.032-.345V2245.08l17.032.726Z" transform="translate(-1999.417 -2235.479)" fill="#fff"/>
          <path id="Path_39" data-name="Path 39" d="M2162.358,2242.419l-16.322-.35v-47.5l16.322.83Z" transform="translate(-2099.198 -2194.571)" fill="#fff"/>
        </g>
        <path id="Path_40" data-name="Path 40" d="M1950.517,2473.018l-69.546-1.012v-5.729l69.546,1.248Z" transform="translate(-1880.97 -2414.629)" fill="#fff"/>
      </g>
      <path id="Path_41" data-name="Path 41" d="M1332.238,1144.814l-3.036.176a28.675,28.675,0,0,0-2.276-8.092l2.628-1.715a3.361,3.361,0,0,0,1.125-4.47l-.388-.654a3.031,3.031,0,0,0-4.34-.9l-2.644,1.756a28.471,28.471,0,0,0-6.17-5.8l1.472-2.875a3.3,3.3,0,0,0-1.271-4.445l-.677-.354a3.193,3.193,0,0,0-4.3,1.537l-1.447,2.9a27.836,27.836,0,0,0-8.3-1.7l-.144-3.218a3.132,3.132,0,0,0-3.3-3.093l-.76.058a3.327,3.327,0,0,0-2.953,3.559l.175,3.211a28.157,28.157,0,0,0-7.926,2.871l-1.672-2.625a2.964,2.964,0,0,0-4.269-.884l-.611.441a3.35,3.35,0,0,0-.783,4.5l1.681,2.6a29.087,29.087,0,0,0-5.278,6.447l-2.64-1.356a2.856,2.856,0,0,0-3.957,1.414l-.3.676a3.243,3.243,0,0,0,1.463,4.154l2.618,1.34a28.948,28.948,0,0,0-1.341,8.058l-2.827.163a2.806,2.806,0,0,0-2.6,3.138l.07.715a3.067,3.067,0,0,0,3.154,2.785l2.809-.151a28.613,28.613,0,0,0,2.686,7.505l-2.277,1.513a2.8,2.8,0,0,0-.685,3.936l.4.576a2.908,2.908,0,0,0,3.955.857l2.285-1.491a28.446,28.446,0,0,0,5.874,5.153l-1.2,2.412a2.808,2.808,0,0,0,1.316,3.738l.615.31a2.814,2.814,0,0,0,3.789-1.162l1.228-2.4a27.856,27.856,0,0,0,7.595,1.636l.147,2.7a2.86,2.86,0,0,0,3,2.646l.69-.026a2.786,2.786,0,0,0,2.735-2.868l-.122-2.719a28.1,28.1,0,0,0,7.518-2.284l1.495,2.314a2.969,2.969,0,0,0,4.016.87l.6-.364a2.8,2.8,0,0,0,.983-3.907l-1.5-2.352a29.014,29.014,0,0,0,5.574-5.8l2.547,1.3a3.131,3.131,0,0,0,4.1-1.257l.361-.631a2.839,2.839,0,0,0-1.137-3.98l-2.574-1.323a28.935,28.935,0,0,0,2.045-8l3-.161a3.29,3.29,0,0,0,3.09-3.241v-.748A2.91,2.91,0,0,0,1332.238,1144.814Zm-30.6,25.717a20.859,20.859,0,0,1-21.6-19.291,21.151,21.151,0,0,1,19.509-22.857,20.788,20.788,0,0,1,22.162,20.53A21.166,21.166,0,0,1,1301.634,1170.531Z" transform="translate(-1172.493 -1010.459)" fill="#fff"/>
      <g id="Group_41" data-name="Group 41" transform="translate(266.778 70.662)">
        <g id="Group_39" data-name="Group 39" transform="translate(30.148 14.388)">
          <path id="Path_42" data-name="Path 42" d="M2354.328,1017.343h0a2.764,2.764,0,0,1,2.44,2.712v4.674a68.707,68.707,0,0,1,8.1,1.405q2.99.7,5.941,1.673a2.733,2.733,0,0,1,1.861,2.8l-.574,5.861a2.2,2.2,0,0,1-3.136,1.823,33.863,33.863,0,0,0-3.986-1.485,36.148,36.148,0,0,0-7.518-1.4l-.689-.057v13.385c7.034,1.968,12.2,4.616,15.539,7.946a16.8,16.8,0,0,1,4.978,12.4q0,8.043-5.505,12.894-5.542,4.883-15.572,5.483v5.159a2.346,2.346,0,0,1-2.442,2.383l-.043,0a2.593,2.593,0,0,1-2.451-2.587v-5.089l-1.087-.049a71.455,71.455,0,0,1-9.022-.962,58.692,58.692,0,0,1-6.234-1.434,2.686,2.686,0,0,1-1.955-2.777l.675-7.534a2.382,2.382,0,0,1,3.331-1.965,48.961,48.961,0,0,0,5.483,1.8,48.051,48.051,0,0,0,8.766,1.464l.044-14.889q-10.128-2.506-15.128-7.423a17,17,0,0,1-5.011-12.632q0-7.955,5.433-12.269c3.6-2.858,8.715-4.28,15.315-4.277V1019.6A2.207,2.207,0,0,1,2354.328,1017.343Zm-2.448,17.867a8.245,8.245,0,0,0-4.879,1.72,5.018,5.018,0,0,0-1.751,4.018,5.394,5.394,0,0,0,1.62,3.993,11.474,11.474,0,0,0,5.01,2.556Zm4.328,26.961v13.654a7.554,7.554,0,0,0,5.222-1.623,5.845,5.845,0,0,0,1.818-4.6,6.279,6.279,0,0,0-1.689-4.494A12.4,12.4,0,0,0,2356.207,1062.172Z" transform="translate(-2331.132 -1017.332)" fill="#fff"/>
        </g>
        <g id="Group_40" data-name="Group 40">
          <path id="Path_43" data-name="Path 43" d="M2225.756,1048.089a53.224,53.224,0,1,1,53.224-53.224A53.284,53.284,0,0,1,2225.756,1048.089Zm0-102.19a48.966,48.966,0,1,0,48.966,48.966A49.022,49.022,0,0,0,2225.756,945.9Z" transform="translate(-2172.532 -941.641)" fill="#fff"/>
        </g>
      </g>
      <g id="Group_46" data-name="Group 46" transform="translate(41.108 241.522)">
        <g id="Group_42" data-name="Group 42">
          <path id="Path_44" data-name="Path 44" d="M1024.106,1913.614c-20.535,0-38.769-16.57-38.769-37.95,0-22.587,20.061-38.461,42.456-34.594,20.238,3.494,33.829,21.989,32.073,40.708C1058.19,1899.653,1042.828,1913.614,1024.106,1913.614Zm3.526-69.379c-20.443-3.374-38.678,11.154-38.769,31.718-.086,19.558,16.5,34.883,35.378,35,17.337.109,31.605-12.8,33.108-29.385C1058.917,1864.264,1046.263,1847.31,1027.632,1844.235Z" transform="translate(-985.337 -1840.488)" fill="#fff"/>
        </g>
        <g id="Group_45" data-name="Group 45" transform="translate(2.209 2.44)">
          <g id="Group_44" data-name="Group 44" clip-path="url(#clip-path)">
            <g id="Group_43" data-name="Group 43" transform="translate(5.344 13.588)">
              <path id="Path_45" data-name="Path 45" d="M1156.251,1939.121a12.008,12.008,0,0,1-13.061,11.2,13.664,13.664,0,0,1-12.574-13.876,11.984,11.984,0,0,1,13.859-11.515A13.671,13.671,0,0,1,1156.251,1939.121Z" transform="translate(-1110.547 -1924.807)" fill="#fff"/>
              <path id="Path_46" data-name="Path 46" d="M1083.722,2118.191c-1.907-11.4-12.184-21.346-26.187-22.158-15-.869-28.574,8.932-32.461,21.81Z" transform="translate(-1025.074 -2063.442)" fill="#fff"/>
            </g>
          </g>
        </g>
      </g>
    </g>
    <path id="Path_47" data-name="Path 47" d="M558.6,2161.4q8.793,4.221,17.631,7.7A284.762,284.762,0,0,1,558.19,2114.4a402.576,402.576,0,0,0-39.282,55.243q9.328-4.634,18.6-9.366c.834,35.048,17.939,66.132,40.371,87.56,22.552,21.766,50.432,33.878,75.433,38.783,51.769,9.91,87.251-8.328,86.975-7.88a177.314,177.314,0,0,1-103.3-14.979c-27.191-13.011-45.608-30.529-57.3-46.381C556.631,2184.594,558.821,2161.123,558.6,2161.4Z" transform="translate(-48.385 -1422.993)" fill="url(#linear-gradient-12)"/>
    <path id="Path_48" data-name="Path 48" d="M2313.523,538.982q-8.806-4.195-17.655-7.65a284.74,284.74,0,0,1,18.211,54.651,402.608,402.608,0,0,0,39.113-55.364q-9.314,4.663-18.573,9.424c-.941-35.045-18.141-66.076-40.639-87.436-22.619-21.7-50.536-33.723-75.552-38.551-51.8-9.751-87.225,8.6-86.95,8.146a177.313,177.313,0,0,1,103.343,14.662c27.231,12.927,45.7,30.389,57.443,46.205C2315.424,515.781,2313.305,539.259,2313.523,538.982Z" transform="translate(-1354.425 -43.548)" fill="url(#linear-gradient-13)"/>
    <g id="Group_51" data-name="Group 51" transform="translate(776.538 551.224)">
      <g id="Group_50" data-name="Group 50">
        <path id="Path_49" data-name="Path 49" d="M3059.093,1395.988s-5.441-1.873-7.022-3.713.6-7.123-1.778-13.743c-1.728-4.811,4.011,2.674,4.555,4.348s.81,6.164,4.981,9.191Z" transform="translate(-2874.861 -1376.943)" fill="url(#linear-gradient-14)"/>
        <path id="Path_50" data-name="Path 50" d="M3009.268,1445.4l-6.3,5.993c6.231,6.8,13.379,16.822,11.3,26.874-3.144,15.189-24.411,16.209-28.706,31.53-4.352,15.523,10.743,38.493,23.476,38.479,16.229-.018,37.842-37.381,28.631-68.6C3031.807,1459.82,3015.406,1449.025,3009.268,1445.4Z" transform="translate(-2822.078 -1432.389)" fill="url(#linear-gradient-15)"/>
        <path id="Path_51" data-name="Path 51" d="M2938.046,1535.1c-1.969-3.877-2.781-3.855-3.264-5.9-1.1-4.664,1.743-10.588,4.156-10.67,1.555-.053,1.684,2.365,4.976,6.134,4.033,4.616,6.482,4.01,8.855,8.018.555.938,3.054,5.157,1.517,8.306-1.961,4.019-9.693,4.656-12.925,1.556C2939.827,1541.074,2940.471,1539.88,2938.046,1535.1Z" transform="translate(-2781.372 -1491.616)" fill="url(#linear-gradient-16)"/>
        <path id="Path_52" data-name="Path 52" d="M2870.424,1627.681s-1.381,7.37-.4,13.362c.888,5.416,10.92,11.041,12.844,12.655s-5.1,3.364-11.543,2.521-24.081-6.487-26.761-9.633,3.121-1.6,8-2.191,9.537-8.773,9.679-12.946S2870.424,1627.681,2870.424,1627.681Z" transform="translate(-2707.953 -1580.01)" fill="url(#linear-gradient-17)"/>
        <g id="Group_48" data-name="Group 48" transform="translate(149.774 38.985)">
          <path id="Path_53" data-name="Path 53" d="M2927.29,1596.217a9.528,9.528,0,0,1-9.3-1.327c-3.911-3.128,1.9-12.735,5.883-12.858a6.307,6.307,0,0,1,4.408,2.3c.676.822.716,1.369,1.846,2.691,1.042,1.218,1.5,1.328,1.659,1.92.2.74-.142,1.977-2.82,4.1a2.719,2.719,0,0,1,2.931.883,1.711,1.711,0,0,1,.174.912C2931.911,1596.292,2930.017,1596.964,2927.29,1596.217Z" transform="translate(-2916.694 -1582.03)" fill="url(#linear-gradient-18)"/>
        </g>
        <path id="Path_54" data-name="Path 54" d="M2145.444,1490.813s-2.957.591-3.957-5.1c-.783-4.462-1.8-5.7-2.536-4.6s-.025,3.585-.025,3.585a21.134,21.134,0,0,1-7.631-5.373c-2.914-3.541-2.683.216-2.295,2.359s5.047,7.594,6.847,8.285,5.64,5.166,5.64,5.166Z" transform="translate(-2128.774 -1458.678)" fill="url(#linear-gradient-14)"/>
        <path id="Path_55" data-name="Path 55" d="M2645.681,3206.628c1.537,3.134,1.105,4.481.723,5.074-1.122,1.738-3.822.1-10.87.931a11.85,11.85,0,0,1-4.373-.152c-1.687-.4-3.675-1.3-3.59-1.747.031-.165.331-.23.444-.254,1.956-.417,14.2-4.175,14.2-4.175Z" transform="translate(-2532.753 -2858.566)" fill="#2b569f"/>
        <path id="Path_56" data-name="Path 56" d="M2710.64,3169l-2.075,5.526a2.327,2.327,0,0,1-2,1.505,1.671,1.671,0,0,1-2.045-1.609c-.18-1.935.852-6.834.852-6.834Z" transform="translate(-2595.059 -2827.21)" fill="url(#linear-gradient-20)"/>
        <path id="Path_57" data-name="Path 57" d="M3169.364,3126.064l2.954,8.068,4.294-.685-1-7.47Z" transform="translate(-2971.561 -2793.508)" fill="url(#linear-gradient-21)"/>
        <path id="Path_58" data-name="Path 58" d="M3145.087,3158.977c2.078-2.466,3.934-2.243,4.309-3.937a3.471,3.471,0,0,0-1.751-3.585c-1.729-.871-3.824.49-4.3.8-3.215,2.09-2.339,5.358-5.37,6.775a8.122,8.122,0,0,0-2.6,1.542c-.432.406-1.5,1.41-1.253,2.1.291.8,2.2.772,4.018.746,2.18-.031,3.271-.046,4.319-.7C3143.918,3161.809,3143.483,3160.88,3145.087,3158.977Z" transform="translate(-2942.992 -2813.91)" fill="#2b569f"/>
        <path id="Path_59" data-name="Path 59" d="M2965.4,2240.328a231.156,231.156,0,0,1,2.709,41.866c-.339,12.526-1.442,14.883-.708,23.367,1.6,18.462,7.921,19.986,12.758,40.3a127.01,127.01,0,0,1,1.512,48.831,131.909,131.909,0,0,1-3.257,15.291c-1.744,2.191-5.046,2.078-8.518,2.012-5-20.314-10.085-39.362-15.086-59.676l-28.936-90.509Z" transform="translate(-2774.353 -2076.209)"/>
        <path id="Path_60" data-name="Path 60" d="M2969.893,2411.993c-5-20.314-10.085-39.362-15.086-59.676l-28.936-90.509,39.525-21.48c.166,1.068.3,2.1.45,3.153-16.533,20.686-17.9,34.921-16.015,44.114,2.286,11.149,9.424,15.575,11.206,32.022,1.273,11.76-1.839,14.444.083,24.914,2.476,13.482,9.653,20,13.9,27.275,4.1,7.03,7.031,17.517,4.552,33.652-.4,1.693-.8,3.215-1.161,4.525C2976.667,2412.172,2973.365,2412.06,2969.893,2411.993Z" transform="translate(-2774.353 -2076.209)" opacity="0.3" fill="url(#linear-gradient-22)" style="mix-blend-mode: multiply;isolation: isolate"/>
        <path id="Path_61" data-name="Path 61" d="M2760.886,2251.357a102.152,102.152,0,0,1-6.63,32.516c-6.739,17.531-14.124,21.732-17.182,36.384-3.193,15.3,2.656,21.289,2.954,35.378.278,13.195-4.343,32.058-27.21,55.584l-11.118-1.011a315.006,315.006,0,0,0,8.907-51.438c1-11.147,1.13-19.292,1.2-22.342.424-18.5,3.055-49.947,12.862-106.691Z" transform="translate(-2592.794 -2067.632)"/>
        <path id="Path_62" data-name="Path 62" d="M2180.638,1540.25l7.075-4.043c26.109,25.664,48.861,32.741,64.864,34.435,24.172,2.558,41.053-7.271,73.293-.577,10.156,2.108,27.858,6.037,37.674,20.505,2.581,3.8,3.5,6.682,7.783,33.964,5.477,34.874,5.671,40.96,4.9,48.469-1.413,13.742-2.27,22.07-8.606,29.44-16.825,19.573-52.585,9.481-57.069,8.153-8.283-2.453-21.155-6.267-26.27-17.211-3.792-8.114.279-12.892,1.548-28.689.639-7.958,2.638-32.839-9.176-47.634-8.49-10.632-20.294-11.274-31.848-14.887C2226.521,1596.456,2202.96,1581.449,2180.638,1540.25Z" transform="translate(-2170.779 -1505.933)" fill="url(#linear-gradient-23)"/>
        <g id="Group_49" data-name="Group 49" transform="translate(29.494 64.026)" opacity="0.3" style="mix-blend-mode: multiply;isolation: isolate">
          <path id="Path_63" data-name="Path 63" d="M2436.159,1836.93c-9.829-8.867-15.634-6.146-21.624-13.187-13.847-16.278,6.758-43.066-5.393-55.913-9.729-10.287-28.312,1.2-38.932-10.988-7.044-8.086-.7-15.243-6.954-23.609-9.9-13.24-32.1-3.755-61.141-12.061a92.115,92.115,0,0,1-18.181-7.4c15.948,19.422,31.567,28.161,44.532,32.216,11.553,3.613,23.358,4.255,31.848,14.887,11.814,14.8,9.816,39.677,9.177,47.635-1.269,15.8-5.34,20.575-1.548,28.689,5.115,10.944,17.988,14.758,26.27,17.211,4.1,1.214,34.327,9.737,52.341-3.759A47.338,47.338,0,0,0,2436.159,1836.93Z" transform="translate(-2283.934 -1713.767)" fill="url(#linear-gradient-24)"/>
        </g>
      </g>
    </g>
    <g id="Group_54" data-name="Group 54" transform="translate(526.753 357.426)">
      <g id="Group_52" data-name="Group 52" transform="translate(0)">
        <path id="Path_64" data-name="Path 64" d="M1017.685,447.829l-190.666-.037-3.034-.075c-5.112-.126-9.269-3.739-9.269-8.068V364.786c0-4.329,4.157-7.617,9.269-7.343l2.891.155,186.251,12.572c4.5.241,8.721,1.134,8.721,5.178V437.23Z" transform="translate(-814.716 -357.426)" fill="url(#linear-gradient-25)"/>
        <path id="Path_65" data-name="Path 65" d="M1133.856,479.566l-144.279-6.423v-8.92l144.279,6.836Z" transform="translate(-956.338 -443.923)" opacity="0.67" fill="url(#linear-gradient-26)"/>
        <path id="Path_66" data-name="Path 66" d="M1133.856,572.589l-144.279-5.6v-8.92l144.279,6.01Z" transform="translate(-956.338 -519.932)" opacity="0.67" fill="url(#linear-gradient-27)"/>
        <path id="Path_67" data-name="Path 67" d="M1133.856,665.612l-144.279-4.771v-8.92l144.279,5.184Z" transform="translate(-956.338 -595.942)" opacity="0.67" fill="url(#linear-gradient-28)"/>
      </g>
      <g id="Group_53" data-name="Group 53" transform="translate(4.333)">
        <path id="Path_68" data-name="Path 68" d="M1063.59,453.078l-216.808-5.361c-5.112-.126-9.269-3.739-9.269-8.068V364.786c0-4.329,4.157-7.617,9.269-7.343l189.728,10.146c4.5.241,8.136,3.714,8.136,7.759V437.23Z" transform="translate(-837.513 -357.426)" fill="url(#linear-gradient-29)"/>
        <path id="Path_69" data-name="Path 69" d="M1156.653,479.566l-144.279-6.423v-8.92l144.279,6.836Z" transform="translate(-979.135 -443.923)" fill="#fff" opacity="0.67"/>
        <path id="Path_70" data-name="Path 70" d="M1156.653,572.589l-144.279-5.6v-8.92l144.279,6.01Z" transform="translate(-979.135 -519.932)" fill="#fff" opacity="0.67"/>
        <path id="Path_71" data-name="Path 71" d="M1156.653,665.612l-144.279-4.771v-8.92l144.279,5.184Z" transform="translate(-979.135 -595.942)" fill="#fff" opacity="0.67"/>
      </g>
    </g>
  </g>
</svg>
