<svg xmlns="http://www.w3.org/2000/svg" width="523.813" height="368.377" viewBox="0 0 523.813 368.377"><defs><style>.a{fill:#e6e6e6;}.b{fill:#fff;}.c{fill:#f6b452;}.d{fill:#7f77ff;}.e{fill:#3f3d56;}.f{fill:#a0616a;}.g{fill:#2f2e41;}.h{fill:#cfcce0;}.i{opacity:0.2;}</style></defs><rect class="a" width="407.623" height="261.06" transform="translate(116.19 0.231)"/><rect class="b" width="384.311" height="212.872" transform="translate(127.846 32.974)"/><rect class="c" width="407.623" height="17.317" transform="translate(116.016)"/><circle class="b" cx="3.21" cy="3.21" r="3.21" transform="translate(125.675 5.644)"/><circle class="b" cx="3.21" cy="3.21" r="3.21" transform="translate(137.858 5.644)"/><circle class="b" cx="3.21" cy="3.21" r="3.21" transform="translate(150.04 5.644)"/><path class="d" d="M742.37,281.894a3.1,3.1,0,0,0-.114.731Z" transform="translate(-396.113 -195.325)"/><path class="d" d="M659.3,319.335c-.023-.535-.118-.759-.205-.786C659.162,319.046,659.221,319.454,659.3,319.335Z" transform="translate(-362.198 -210.275)"/><path class="d" d="M657.7,338.945c-.017.232-.035.446-.064.707a1.113,1.113,0,0,1,.064-.707Z" transform="translate(-361.59 -218.593)"/><path class="d" d="M742.047,283.128l-.3,1.877C742.059,285.137,741.979,284.043,742.047,283.128Z" transform="translate(-395.905 -195.828)"/><path class="d" d="M770.88,253.32h.571a2.942,2.942,0,0,0,.474-.39Z" transform="translate(-407.787 -183.512)"/><path class="d" d="M808.57,254.474a.676.676,0,0,1,.515-.558,3.678,3.678,0,0,0-.512-.576C808.3,253.3,808.588,254.119,808.57,254.474Z" transform="translate(-423.112 -183.679)"/><path class="d" d="M848.169,228.3c.075-.011.146-.022.2-.034Z" transform="translate(-439.31 -173.452)"/><path class="d" d="M847.381,228.4l.467-.078C847.693,228.344,847.517,228.368,847.381,228.4Z" transform="translate(-438.988 -173.475)"/><path class="d" d="M740.446,256.833a.271.271,0,0,0-.291.133C740.257,257.032,740.354,256.965,740.446,256.833Z" transform="translate(-395.256 -185.102)"/><path class="d" d="M896.326,229.863l.044.382a1.816,1.816,0,0,0,.456.083Z" transform="translate(-458.951 -174.104)"/><path class="d" d="M654.543,362.1c.006,0,.006.006-.006.017s-.006.012-.012.017-.087.023-.151.035a.5.5,0,0,0-.1-.017c.087-.012.174-.029.243-.035C654.532,362.109,654.538,362.1,654.543,362.1Z" transform="translate(-360.231 -228.039)"/><path class="d" d="M543.791,512.413c-2.283-.728,3.716-.934.278-1.743C544.389,510.989,540.945,511.94,543.791,512.413Z" transform="translate(-314.706 -288.631)"/><path class="d" d="M575.151,379.852a1.428,1.428,0,0,1-.359.516C574.965,379.985,575.064,379.869,575.151,379.852Z" transform="translate(-327.812 -235.277)"/><path class="d" d="M631.846,364.9a5.705,5.705,0,0,1-.933-.1Z" transform="translate(-350.702 -229.136)"/><path class="d" d="M554.3,384.677a2.526,2.526,0,0,0-.963,0,.963.963,0,0,0,.211.1A1.461,1.461,0,0,1,554.3,384.677Z" transform="translate(-319.063 -237.226)"/><path class="d" d="M554.966,384.709c.121.021.248.046.409.065A3.161,3.161,0,0,0,554.966,384.709Z" transform="translate(-319.727 -237.258)"/><path class="d" d="M521.259,384.828c.108.062.25.109.376.164l.646-.044Z" transform="translate(-305.979 -237.307)"/><path class="d" d="M549.781,385.752a.081.081,0,0,1-.046.064C549.758,385.781,549.781,385.752,549.781,385.752Z" transform="translate(-317.593 -237.684)"/><path class="d" d="M890.433,511.592c-.131-.011-.262-.022-.406-.038C890.179,511.574,890.311,511.585,890.433,511.592Z" transform="translate(-456.381 -288.992)"/><path class="d" d="M899.975,480.048s-.009,0-.014,0C899.966,480.073,899.971,480.067,899.975,480.048Z" transform="translate(-460.433 -276.142)"/><path class="d" d="M629.552,365.737a3.186,3.186,0,0,0,.608-.18C630.584,365.667,630,365.662,629.552,365.737Z" transform="translate(-350.147 -229.447)"/><path class="d" d="M898.986,359.155c.031-.137.064-.292.1-.48C899.051,358.837,899.02,359,898.986,359.155Z" transform="translate(-460.035 -226.64)"/><path class="c" d="M734.8,367.295a1.224,1.224,0,0,1,.261-.371l.081.29a5.242,5.242,0,0,0-.116-1.779,17.246,17.246,0,0,0,.22-2.335c.614-.33.33-3.314.365-4.751-.811.116-.684-1.732-1.338-.046.046-.1.075.394.11,1.275a3.9,3.9,0,0,0,.087.614c-.023-.029-.046-.064-.075-.1.017.944.035,2.178.058,3.58a5.856,5.856,0,0,1-.313-3.922c-.521-.736-1.06-1.553-1.309-2.01,1.136-1.97,1.75-5.77,2.445-6.3-.452-4.4-.3-10.359-1.831-13.128-.2-1.251.44-1.437.684-1.906a10.544,10.544,0,0,0,.348,1.976c-.394-2.5-.151-7.41-1.223-8.007.481-3.152.985,1.773.811-2.561l.324.585c1.68-8.372-2.572-13.667-.637-22.815-.075.342-.145.545-.272.637.968-10.764-.91-22.189.626-32.815.307-3.018-.371-3.349-.892-5.191l.875-.655-1.008-3.152c-.742-4.467,2.144-7.734.747-13.395l-.591.73c.116-2.034-.348-6.437.33-6.095a1.444,1.444,0,0,1-.3-1.46l.458-.064-.788-4.994c.33-3.864,1.819.608,1.906-5.04-.174-2.1-1.333-5.973-1.64-5.185-.017.846-.284,2.161-.742,2.225l-.238-1.918c-.087-.023-.168-.046-.255-.075v-.307h-.828a1.394,1.394,0,0,0-1.089,0h-20.77l.226-.226-.684.226h-2.932c.087-.174.365-.319.944-.388-2.132-.6-1.889.429-3.714-.238-.2-.1-.116-.162.075-.209l-2.086.359c.411-.255-.342-.852.933-.678-3.731-.7-6.019.9-7.427-.012l.313-.07c-3.876.3-2.236.643-2.792,1.234h-2.422l-.487-.406-.655-.545a4.612,4.612,0,0,0-.724-.545,6.863,6.863,0,0,0-.533.881c-.6-.029-1.842-.093-1.784-.452-1.06.307-.84.4-.585.492.278.093.614.18.185.469a10.932,10.932,0,0,0-2.068-.284c-.075,1.286.017,2.845-.012,4.032-.029,1.24-.174,2.039-.742,2.288.672.921.521-2.462.991.284-1.518.771.255,3.21-.44,5.5-.782-.66-.365-2.932-1.066-.568a2.062,2.062,0,0,1,.475.823,2.579,2.579,0,0,1,.023.944,8.7,8.7,0,0,1-.469,1.628,2.858,2.858,0,0,0-1.049-.064c.348.527-.429.637-1.593.66-.7,0-1.506.006-2.329.006-.863.012-1.75.035-2.584.122.209-.353-6.263-.574-9.357-.956l.087-.18c-.6,1.066-3.789.863-6.118,1.083.093-.637.51-.886,1.773-1.17l-2.19.006a5.409,5.409,0,0,1-2.613.643l.55-.8c-1.454.023-2.92.261-4.49.423-.788.081-1.593.139-2.445.151-.423.006-.857-.006-1.3-.029-.22-.012-.446-.029-.672-.052l-.765-.087c-.081.185.2.411.382.643a5.211,5.211,0,0,1,.6.73.5.5,0,0,1,.052.5h-2.028c.006-.22.139-.417.568-.521a4.374,4.374,0,0,1-1.837.122c.464-.22,1-.446,1.611-.672-2.2-.3-.9.562-2.451.5-.319-.568-1.483-.406-1.611-.857a10.3,10.3,0,0,0,2.242.012c-1.153-.058-2.514-.191-3.766-.377a4.928,4.928,0,0,1-.5,1.6c.325.029.771.574.84,2.063.023,1.906-.151,2.213-.365,2.335-.1.058-.22.064-.33.214a1.352,1.352,0,0,0-.156.33,2.319,2.319,0,0,0-.128.481c.394.707-.017,2.561.84,2.613-.006.852-.406,1.008-.637,1.338.377,1.506.11,7.033,1.02,5.336l.058-.388c.017.075.023.156.041.249a23.6,23.6,0,0,1,.278,4.525c-.035,1.263-.156,2.462-.272,3.517-.852-.075-1.64-.139-2.375-.174-.371-.012-.73-.023-1.089-.012l-.7.017c-.243.017-.492.029-.736.041l.012-.284c-2.926.324-6.512.191-8.6.811-.863-.006-2.039-.527-1.669-.863a15.534,15.534,0,0,1-5.712.064c2.242-.5-.776-.446,2.3-.365-2.9-.249-3.563-.707-6.68.075,1.06-.736-2.184-.921-3.563-.707l2.034.527a36.258,36.258,0,0,1-4.287-.023l.742-.962a22.292,22.292,0,0,0-8.151.313,23.651,23.651,0,0,1-3.633.377l-.44-.006-.562-.029c-.435-.023-.875-.058-1.321-.11a26.793,26.793,0,0,1-2.9-.51c-1.043.336.348.452,1.628.585,1.315.133,2.509.284,1.6.678a46.318,46.318,0,0,1-5.707-.736,22.351,22.351,0,0,0-.782,3.864c-.07.759-.093,1.448-.093,2.057,0,.3.006.591.023.857.006.122.012.3.023.359s.023.145.035.214a6.494,6.494,0,0,0,.469,1.454,6.77,6.77,0,0,1,.585,3.772c.342-.5,1.263-.973,1.582,1.952-.07,1.622-.568,2.509-1.014,2.59-.249.052-.481-.151-.614-.6a1.856,1.856,0,0,1-.087-.353c-.029-.655.081-.968.2-.944-.128-.881-.272-2.039-.643-.956l.342.353a10.753,10.753,0,0,0-.22,1.506c-.156,1.559-.249,3.372-.66,2.729.284,1.767.5,1.159.666-.017-.365,3.129.041,5.075-.272,8.464.191-.574.6-1.107.591-.533-.429,5.3.655,2.335.805,5.921-.527,2.039-1.252-.73-.817,2.879-.353,2.207-.91.469-1.188-.406a12.854,12.854,0,0,1,.012,4.542c-.017.1-.029.2-.046.29-.012.069-.023.145-.035.214l-.023.122c-.006.035-.012.029-.017.041l-.046.058a1.056,1.056,0,0,1-.174.156,1.727,1.727,0,0,0-.232.162,1.178,1.178,0,0,0-.209-.249.384.384,0,0,1,.093.3,2.151,2.151,0,0,0,.22.127,2.226,2.226,0,0,0,.469.18c-.116.168-.122.336-.348.127a.38.38,0,0,1-.07-.064,4.127,4.127,0,0,0,.718.817c.3.307.66.637.319.944a3.612,3.612,0,0,0-1.454-.058c-.122.006-.243.006-.359,0a4.618,4.618,0,0,1-.545-.064.97.97,0,0,1-.73-.417c.539.041.927.052,1.217.046.156,0,.214-.023.261-.064.081-.07.023-.2-.029-.342-.1-.238-.133-.5.041-.637a.345.345,0,0,1-.081.012.5.5,0,0,1-.151-.029c-.22-.017-.446-.041-.684-.064-.151-.1.145-.191.423-.243-.313-.064-.591-.11-.834-.145a4.07,4.07,0,0,0-1.454,0c-1.054.249-.828,1.17-3.818,1.153.533-.51-.985-.973-1.674-.863,1.709.012.817.857-.747,1.251-2.717-.4-2.949.3-4.374.249l1.622.191c-.55.516-1.906.446-3.795.608-.052-.127.093-.2.3-.249-1.952.3-4.293-1.043-6.86-.545a.339.339,0,0,0-.075.012c-1.356-.348-.133-.962-1.327-1.2-3.279.666-3.551-.707-7-.156,1,.7,1.17.527-1.263,1.2l5.678-.487-3.644,1c1.715.012,3.615-.435,4.641-.313-1.738.562-1.558.388-.736.962-2.346-1.037-4.646.608-7.352-.093l.081-1.715a16.107,16.107,0,0,0-5.2.023l-.661.087-.33.041-.087.012-.133.012-.272.023c-.713.052-1.437.11-2.184.168-1.466.1-2.961.168-4.67.156-.006.765-.029,1.558-.07,2.387l.272-2.184.214.023a.235.235,0,0,1-.1.087,10.87,10.87,0,0,1,.243,3.279c0,.1-.006.2-.006.307v.006c-.012.545-.029,1.112-.035,1.68q0,.5.017.991c.006.162.017.319.023.475l.017.226.023.156c-.573-.162-.782.91-1.135,1.64.1-.023.156.209.191.574.035.151.052.336.093.556a3.063,3.063,0,0,0,.817,1.6,1.436,1.436,0,0,1-.3.226,10.154,10.154,0,0,1-1.043-.458,1.673,1.673,0,0,0-1.054.122c-.075.035-.151.075-.226.116a.582.582,0,0,1-.191.064c-.081.023-.162.046-.238.07-.319.1-.62.2-.915.307a10.187,10.187,0,0,1-4.426.759c1.234-.62-.631-1.025,2.12-1.472-1.373-.006-2.6-.11-2.625.284a1.178,1.178,0,0,0-.469-.07c-.689.006-1.8.272-2.81.394a4.758,4.758,0,0,1-1.466,0,1.234,1.234,0,0,1-.313-.093,1.757,1.757,0,0,0-.18.093,2.77,2.77,0,0,1-2.126.707.148.148,0,0,1-.04-.22c-.307.238-2.26.371-1.014.956a17.723,17.723,0,0,0-6.773-.817c-3.273.041-6.616.284-8.7-.585-1.495.093-3.14.191-4.756.267-.805.029-1.6.064-2.37.093l-1.118.035c-.406.006-.794.017-1.165.023.116-.087.116-.156.18-.2a.728.728,0,0,1,.446-.029c-.1-.012-.174-.029-.3-.035s-.255-.017-.377-.029c-.243-.012-.469-.017-.678-.023a9.055,9.055,0,0,0-1.066.058,3.189,3.189,0,0,0-1.234.382,3.422,3.422,0,0,1-2.1.788,10.093,10.093,0,0,1-.093,1.866c-.232.5-.377.62-.475.452a3.413,3.413,0,0,1-.168-1.066c-.052-.921-.035-1.964-.209-1.188-.939-.417-.875,1.8-.713,4.218.081,1.408.185,2.022.2,2.908a6.4,6.4,0,0,1-.33,2.381l-.11-.7c-.643,2.19.713,5.348.579,8.928,0,0-.168-.174-.284-.023.956,2.451,1.275,7.086,1.541,10.527-.736-1.072-.388-1.564-1.136-.91.1,1.547,1.2-.452,1.408,2.63-.4,1-.753,3.227-1.553,3.522l-.046-2.908c-1.031,1.489.041,3.76-.139,5.3l-.452-.2c.145,4.455,1.28,4.519,1.2,9.3l.342-.492c1.13,2.619-.632,2.2.209,4.8l-1.147.794c.278,1.726,1.107,6.043,1.321,9.142-.846-1.755-1.28-5.376-1.784-7.619-.006,1.709.087,5.817.649,6.709a6.047,6.047,0,0,1-.214-2.242,21.042,21.042,0,0,1,1.321,8.273c-.724-.2-1.037.684-1.188,2.051-.006.087-.017.174-.023.267-.006.127-.017.261-.023.394-.012.272-.023.55-.041.84-.012.579-.029,1.193-.046,1.819-.029,1.28-.058,2.624-.087,3.928a21.122,21.122,0,0,1,6.495.875l.475-.041.3-.035.568-.058q.565-.052,1.13-.087c.753-.052,1.506-.07,2.265-.075,1.512-.006,3.042.058,4.6.145,3.117.174,6.355.435,9.872.365-2.491-1.721,2.051-.046,1.622-1.819a6.428,6.428,0,0,1,2.4.029l-.238-.052.249.064v-.006l4.959,1.054c1.176.516-1.558.388-1.408.788,3.586.139,1.506.753,3.876,1.222-.487-.632,1.246-.91,3.291-.666L532,396.691c5.012-.944,4.334,1.489,9.38.55l-1.6.562c2.6-.33,9.56.012,12.1-1.414.458.2,1.066.689-.075.817,6.193.214,13.783-1.512,18.6-.637l-.469.435c1.153-.127,2.01-.817,3.459-.382-.075.18-.469.435.07.458a14.131,14.131,0,0,1,4.6-.5l-1.309.487a28.923,28.923,0,0,0,9.223-.747,36.348,36.348,0,0,1,5.11-.736c-.012,1.275,4.739,1.692,7.115,1.895l-.087.18a62.977,62.977,0,0,0,8.441-.411c2.149-.238,4.235-.539,6.442-.788H613l.423-.052c.51-.058,1.031-.11,1.558-.162l.5-.052,1.1-.087a22.645,22.645,0,0,0,5.654.8c4.531.22,10.232.041,14.542.556-1-.232.162-1,1.315-1.124,1.431.243,3.888-.747,3.986.093a.56.56,0,0,1-.012.191l-.516-.023h-.029l.006.006c1.153,1.141,4.281.84,6.726.869l.4-1.53c6.4,2.225,16.773-.817,20.266,1.176,1.547-.382,3.459-.377,4.988-.759l-.081.817a109.486,109.486,0,0,0,11.7.116l-1.078.591c2.984.052,3.766-2.37,6.524-2.416l.823,1.222c5.208-.017,10.475,1.06,15.62-.052-.081.18-.237.533-1.078.585,2.37.029,9.021.776,8.65-.7.568.828,5.458-.075,8.117-.533l-.435.805c1.188-.516,1.8-.846,2.526-1.078a8.435,8.435,0,0,1,1.269-.3c.267-.041.521-.081.886-.116.44-.035.939-.07,1.5-.11,1,.1,1.165.545-.006.481a7.5,7.5,0,0,0,2.613-.116,7.531,7.531,0,0,1,2.225-.353,14.835,14.835,0,0,1,.093-1.744c.174.672.348,1.385.516,2.138a19.65,19.65,0,0,0-.156-3.714c-.139-.742-.359-1.292-.655-2.317-.023-.139-.041-.29-.052-.446s-.023-.29-.035-.446c-.012-.255-.017-.533-.012-.811a13.107,13.107,0,0,1,.168-1.721,3.777,3.777,0,0,1,.863-2.265,4.448,4.448,0,0,1-.834-3.424c.278-.214.452.359.533.655.55-4.5-.939-6.7-.145-9.791a.68.68,0,0,0,.481-.521c-.017,3.279-.058,5.967-.11,6.182.736-.041.869-2.874,1.889-.591C735.667,374.073,734.45,370.11,734.8,367.295Zm.655-6c.116.962-.046,1.28-.214,1.414-.012-.452-.041-.985-.1-1.68-.029-.023-.064-.081-.1-.11a1.1,1.1,0,0,1,.412.377ZM702.29,228.706a1.275,1.275,0,0,1,.278.127H701.34c.3-.046.609-.087.95-.127Z" transform="translate(-294.8 -173.075)"/><path class="d" d="M655.253,362.622a.215.215,0,0,1-.145.07A.483.483,0,0,1,655.253,362.622Z" transform="translate(-360.57 -228.25)"/><path class="d" d="M629.328,365.886c.045-.007.089-.018.134-.027C629.416,365.867,629.371,365.876,629.328,365.886Z" transform="translate(-350.055 -229.57)"/><path class="d" d="M899.886,450.387a3.088,3.088,0,0,1-.059-.395c-.072.2-.133.382-.183.572l.255.339Z" transform="translate(-460.304 -263.884)"/><path class="d" d="M742.448,281.709a.819.819,0,0,1,.116-.268c-.039.085-.065.085-.1.14Z" transform="translate(-396.191 -195.141)"/><path class="d" d="M810.574,227.374c.261.006.557.384.5,3.156l.174-3.406,1.28.062c-1.033-.315-2.739-.738-.378-.813l-1.872-.218C810.086,227.787,810.313,227.381,810.574,227.374Z" transform="translate(-423.827 -172.591)"/><path class="d" d="M810.465,251.727c-.073-.649-.187-.667-.305-.591s-.24.248-.329.167C810.117,252.073,810.19,252.446,810.465,251.727Z" transform="translate(-423.673 -182.768)"/><path class="d" d="M715.305,293.241l.2-.741C713.961,292.606,715.492,292.787,715.305,293.241Z" transform="translate(-384.919 -199.651)"/><path class="d" d="M512.09,155.645l.128-.01.238-.021.952-.081.675-.106-1.289.134-.645.067-1.053.067.794-.041Z" transform="translate(-208.451 -63.391)"/><path class="d" d="M527.378,383.58l.467.912C528.89,384.329,529.109,383.3,527.378,383.58Z" transform="translate(-308.475 -236.778)"/><path class="d" d="M494.809,462.512a4.35,4.35,0,0,0-.3,3.417A31.54,31.54,0,0,0,494.809,462.512Z" transform="translate(-294.98 -268.99)"/><path class="d" d="M600.654,378.615l2.3-.255-1.079-.051Z" transform="translate(-244.977 -154.294)"/><path class="b" d="M738,352.549a87.961,87.961,0,0,1-2.926,20.811c-7.022,25.955-26.233,44.842-36.587,53.481a22.647,22.647,0,0,1-5.655-.8l-1.095.087-.5.052c-.527.052-1.049.1-1.558.162l-.423.052h-.006a131.511,131.511,0,0,1-7.167-27.12l-.006-.006v-.006c-1.79-11.888-2.08-25.839,1.692-39.779a86.7,86.7,0,0,1,6.668-17.039c13.464-26.129,36.749-41.7,36.749-41.7S738.692,324.38,738,352.549Z" transform="translate(-371.049 -203.015)"/><path class="b" d="M657.7,338.945c-.017.232-.035.446-.064.707a1.113,1.113,0,0,1,.064-.707Z" transform="translate(-361.59 -218.593)"/><path class="b" d="M629.552,365.737a3.186,3.186,0,0,0,.608-.18C630.584,365.667,630,365.662,629.552,365.737Z" transform="translate(-350.147 -229.447)"/><path class="b" d="M630.912,364.794l.933.1A5.7,5.7,0,0,1,630.912,364.794Z" transform="translate(-350.701 -229.136)"/><path class="b" d="M654.375,362.173a.5.5,0,0,0-.1-.017c.087-.012.174-.029.243-.035.012-.012.017-.017.023-.017s.006.006-.006.017-.006.012-.012.017S654.438,362.162,654.375,362.173Z" transform="translate(-360.23 -228.039)"/><path class="b" d="M655.253,362.622a.215.215,0,0,1-.145.07A.483.483,0,0,1,655.253,362.622Z" transform="translate(-360.57 -228.25)"/><path class="b" d="M672.68,407.109c0,.012-.006.023-.006.035a131.338,131.338,0,0,1-7.074,26.865l-.5.052c-.527.052-1.049.1-1.559.162l-.423.052h-.006c-2.207.249-4.293.55-6.442.788-10.249-8.476-29.878-27.52-36.986-53.822a87.646,87.646,0,0,1-2.932-20.816,106.628,106.628,0,0,1,.574-13.76c2.567-.5,4.907.846,6.86.545-.209.052-.353.122-.3.249,1.889-.162,3.244-.093,3.795-.608l-1.622-.191c1.425.046,1.657-.649,4.374-.249,1.564-.394,2.457-1.24.747-1.251.689-.11,2.207.353,1.674.863,2.99.017,2.764-.9,3.818-1.153h1.454c.243.035.521.081.834.145-.278.052-.574.139-.423.243.238.023.464.046.684.064a.493.493,0,0,0,.151.029.342.342,0,0,0,.081-.012c-.174.133-.139.4-.041.637.052.139.11.272.029.342-.046.041-.1.064-.261.064-.29.006-.678-.006-1.217-.046a.97.97,0,0,0,.73.417,4.618,4.618,0,0,0,.545.064c.116.006.238.006.359,0a3.612,3.612,0,0,1,1.454.058c.342-.307-.017-.637-.319-.944a4.13,4.13,0,0,1-.718-.817.38.38,0,0,0,.07.064c.226.209.232.041.348-.127a2.225,2.225,0,0,1-.469-.18h.423v-.927c.017-.093.029-.191.046-.29a12.853,12.853,0,0,0-.012-4.542c.278.875.834,2.613,1.188.406-.435-3.609.29-.84.817-2.879-.151-3.586-1.234-.626-.805-5.921.006-.574-.4-.041-.591.533.313-3.389-.093-5.336.272-8.464-.168,1.176-.382,1.784-.666.017.411.643.5-1.17.661-2.729l.411.394c.2.2.411.4.614.6A116.331,116.331,0,0,1,664.3,350.326l0,0a.005.005,0,0,1,0,0,86.169,86.169,0,0,1,6.674,17.033C674.749,381.293,674.465,395.221,672.68,407.109Z" transform="translate(-344.916 -210.896)"/><path class="e" d="M575.151,379.852a1.428,1.428,0,0,1-.359.516C574.965,379.985,575.064,379.869,575.151,379.852Z" transform="translate(-327.812 -235.277)"/><path class="e" d="M549.781,385.752a.081.081,0,0,1-.046.064C549.758,385.781,549.781,385.752,549.781,385.752Z" transform="translate(-317.593 -237.684)"/><path class="e" d="M630.858,455.045l-.423.052h-.006c-2.207.249-4.293.55-6.443.788a62.952,62.952,0,0,1-8.441.411l.087-.18c-2.375-.2-7.126-.62-7.115-1.895a36.345,36.345,0,0,0-5.11.736c-12.532-4.079-27.126-10.985-39.066-22.607-16.83-16.378-24.426-38.261-27.757-52.362a17.723,17.723,0,0,1,6.773.817c-1.246-.585.707-.718,1.014-.956a.148.148,0,0,0,.041.22,2.77,2.77,0,0,0,2.126-.707h4.768v-.394a1.18,1.18,0,0,1,.469.07c.023-.394,1.251-.29,2.625-.284-2.752.446-.886.852-2.12,1.472a10.186,10.186,0,0,0,4.426-.759c.3-.1.6-.209.916-.307.075-.023.156-.046.238-.069a.583.583,0,0,0,.191-.064c.075-.041.151-.081.226-.116a1.673,1.673,0,0,1,1.054-.122,10.148,10.148,0,0,0,1.043.458,1.432,1.432,0,0,0,.3-.226,3.062,3.062,0,0,1-.817-1.6c-.041-.22-.058-.406-.093-.556-.035-.365-.087-.6-.191-.574.353-.73.562-1.8,1.136-1.64l-.023-.156-.017-.226c-.006-.156-.017-.313-.023-.475q-.017-.487-.017-.991c.006-.568.023-1.136.035-1.68a114.172,114.172,0,0,1,23.412,10.121,88.033,88.033,0,0,1,17.34,13.018c10.452,10.173,17.34,22.468,21.848,33.7v.006l.006.006a131.254,131.254,0,0,1,7.6,27.068Z" transform="translate(-312.23 -231.718)"/><path class="e" d="M743.233,513.169h.029a.044.044,0,0,1-.023.006Z" transform="translate(-396.511 -289.651)"/><path class="e" d="M795.123,362.231s-3.291,40.289-30.208,66.493c-12.051,11.732-26.8,18.655-39.4,22.717-.1-.84-2.555.151-3.986-.093-1.153.127-2.312.892-1.315,1.124-4.31-.516-10.011-.336-14.542-.556a22.647,22.647,0,0,1-5.654-.8l-1.1.087-.5.052A131.667,131.667,0,0,1,706,424.3c4.519-11.222,11.408-23.5,21.842-33.661a87.923,87.923,0,0,1,17.34-13.018C769.3,363.639,795.123,362.231,795.123,362.231Z" transform="translate(-378.235 -228.091)"/><path class="f" d="M206.4,322.964s-8.069,16.139-20.54,19.807,30.077,0,30.077,0-2.2-11.737.734-13.2S206.4,322.964,206.4,322.964Z" transform="translate(-168.252 -212.075)"/><path class="g" d="M199.351,270.9c-.439-3.824,1.653-7.2,4.671-7.551.034,0,.068,0,.1-.005a4.407,4.407,0,0,0-1.139-.019c-3.019.346-5.11,3.727-4.671,7.551.434,3.78,3.179,6.573,6.159,6.3C201.916,276.81,199.733,274.24,199.351,270.9Z" transform="translate(-174.242 -187.742)"/><path class="g" d="M200.863,279.7c-3.646-1.234-5.811-4.568-4.836-7.446.011-.033.027-.062.039-.095a4.408,4.408,0,0,0-.5,1.022c-.975,2.878,1.191,6.212,4.836,7.446,3.6,1.22,7.3-.071,8.327-2.882C207.3,279.9,204.044,280.779,200.863,279.7Z" transform="translate(-173.048 -191.356)"/><path class="f" d="M162.076,399.92l1.078,31.071L180.027,470.6s-4.4,20.54,4.4,19.807.734-20.54.734-20.54l-8.069-41.814-1.467-34.479Z" transform="translate(-159.486 -240.876)"/><circle class="f" cx="16.139" cy="16.139" r="16.139" transform="translate(33.745 89.614)"/><path class="h" d="M223.808,356.992l-15.9-6.354s-3.168.485-11.971,1.219-12.712.042-12.712.042-18.832,6.561-18.1,10.229,8.8,61.621,12.471,58.687a22.014,22.014,0,0,1,5.869-3.668l40.347-3.668Z" transform="translate(-160.72 -223.362)"/><path class="h" d="M165.038,367.562h-2.387s-2.748,1.467-2.748,5.869-2.2,17.606-2.2,17.606H169.44Z" transform="translate(-157.702 -230.265)"/><path class="g" d="M192.778,367.725l-8.86-14.313a2,2,0,0,0-1.951-.933l-2.311.289a2,2,0,0,0-1.685,2.507l4.537,16.851s7.173,29.769.286,45.695l-.286,7.123s-6.6,22.008-5.135,38.88,2.2,31.544,2.2,31.544-3.668,11-2.2,14.672a8.58,8.58,0,0,1,.013,4.47,148.115,148.115,0,0,0-2.31,32.314l.1,3.563s-5.135,4.4-.734,5.135,18.34,2.2,18.34,2.2,2.934-5.135,1.467-5.869l4.4-24.208s7.336-10.27,6.6-16.873c0,0,2.2-11,0-16.139l.734-32.278,2.934,38.88-4.4,48.417s-5.869,4.4-2.2,5.869,26.409,8.8,26.409,5.135-1.467-5.135-1.467-5.135l9.537-99.034-5.135-41.081s-34.479-2.934-31.544-41.814c0,0,8.435-17.519,16.762-20.825a.479.479,0,0,0-.035-.909l-3.381-.966a.464.464,0,0,0-.281.005C211.712,351.4,198.993,355.984,192.778,367.725Z" transform="translate(-163.801 -223.459)"/><path class="g" d="M228.954,695.238l-.117,1.055a48.556,48.556,0,0,1-6.415,19.028c-1.643,2.823-2.9,6.012-2.271,8.527,1.467,5.869.734,8.069.734,8.069h11.737v-2.2l6.553,1.787a7.259,7.259,0,0,0,4.451-.137,4,4,0,0,0,2.934-3.851c0-1.834-1.4-3.541-3.035-4.908a21.789,21.789,0,0,1-7.153-10.93l-.082-.3,4.4-16.139Z" transform="translate(-183.105 -363.908)"/><path class="g" d="M177.541,695.858l-.117,1.055a48.555,48.555,0,0,1-6.415,19.028c-1.643,2.823-2.9,6.012-2.271,8.527,1.467,5.869.734,8.069.734,8.069h11.737v-2.2l6.553,1.787a7.259,7.259,0,0,0,4.451-.137,4,4,0,0,0,2.934-3.851c0-1.834-1.4-3.541-3.035-4.908a21.789,21.789,0,0,1-7.153-10.93l-.082-.3,4.4-16.139Z" transform="translate(-162.136 -364.161)"/><path class="g" d="M225.85,300.611s11.561-6.679,16.038-7.084a7.367,7.367,0,0,0-.1-5.758s-.682-9.059-11.99-8.707c0,0-13.356-7.235-17.84-4.281s-14.468,17.129-10.25,25.6c0,0-4.875,2.453-5.107,1.132s-3.854,2.226.928,5.281c0,0-6.693,6.775-.187,11.016,0,0-.3-6.009,3.476-7.826s.471.092.471.092-6.461,8.1,3.189,11.247c0,0-3.6-4.1.021-7.647,0,0-1.122,8.284,5.55,9.156,0,0-3.442-4.92-1.631-6.693,0,0,.769,6.1,4.536,6.833l2.825.549.956-4.915s-2.687,6.279,3.594,6.65c0,0-3.037-9.517.983-15.112S225.85,300.611,225.85,300.611Z" transform="translate(-172.708 -192.134)"/><ellipse class="g" cx="6.969" cy="5.502" rx="6.969" ry="5.502" transform="matrix(0.604, -0.797, 0.797, 0.604, 22.217, 86.712)"/><path class="c" d="M216.225,277.771a8.147,8.147,0,0,0-3.659,2.767,8.3,8.3,0,0,0-1.6,3.673,8.146,8.146,0,0,0,3.659-2.767A8.3,8.3,0,0,0,216.225,277.771Z" transform="translate(-179.424 -193.643)"/><path class="h" d="M313.794,475.3l-.932-1.243,6.764-5.069a5.715,5.715,0,0,0,2.24-5.263l-3.351-27.058a11.263,11.263,0,0,1,4.413-10.374l7.372-5.525a6.594,6.594,0,0,1,9.221,1.321l1.707,2.279-1.243.932-1.707-2.279a5.038,5.038,0,0,0-7.046-1.009l-7.372,5.525a9.706,9.706,0,0,0-3.8,8.939l3.351,27.058a7.272,7.272,0,0,1-2.85,6.7Z" transform="translate(-220.985 -251.428)"/><path class="h" d="M132.766,375.22l5.515-7.263-1.864-2.486-8.268,3.587L92.055,394l6.389,8.526Z" transform="translate(-37.545 -149.058)"/><rect class="a" width="17.314" height="62.487" rx="7.272" transform="translate(110.809 176.819) rotate(-36.846)"/><path class="i" d="M416.784,494.295l-1-1.332-.2-.266a4.305,4.305,0,0,1-.864,6.027l-6.965,5.219a4.305,4.305,0,0,1-6.027-.863l.2.266,1,1.332a4.306,4.306,0,0,0,6.027.863l6.965-5.219a4.305,4.305,0,0,0,.864-6.027Z" transform="translate(-257.229 -281.301)"/><path class="d" d="M392.185,447.27c-.061-.059-.112-.107-.113-.081C392.129,447.258,392.168,447.277,392.185,447.27Z" transform="translate(-253.29 -262.738)"/><path class="d" d="M390.371,444.339a.16.16,0,0,0-.061-.1Z" transform="translate(-252.572 -261.536)"/><path class="d" d="M403.7,462.861c-.064.021.06.159.141.291Z" transform="translate(-258.027 -269.133)"/><path class="d" d="M409.47,470.267l.058.077a.531.531,0,0,0,.112.016Z" transform="translate(-260.386 -272.153)"/><path class="d" d="M413.107,475.656a.291.291,0,0,1,.21.09.209.209,0,0,0,.07-.1C413.339,475.566,413.186,475.64,413.107,475.656Z" transform="translate(-261.869 -274.332)"/><path class="d" d="M424.366,491.361l-.032.056a.434.434,0,0,0,.066.067Z" transform="translate(-266.448 -280.756)"/><path class="d" d="M386.84,439l.007.015C386.921,439.086,386.886,439.043,386.84,439Z" transform="translate(-251.156 -259.402)"/><path class="d" d="M353.773,449.624c-.112-.4.529.388.313-.176C354.066,449.53,353.562,449.181,353.773,449.624Z" transform="translate(-237.649 -263.64)"/><path class="d" d="M378.039,427.549a.244.244,0,0,0-.006.113C378.045,427.65,378.05,427.622,378.039,427.549Z" transform="translate(-247.563 -254.731)"/><path class="d" d="M373.264,424.236a.945.945,0,0,0-.245.221.167.167,0,0,0,.045-.015A.543.543,0,0,1,373.264,424.236Z" transform="translate(-245.52 -253.379)"/><path class="d" d="M368.854,428.481a.619.619,0,0,0,.07-.017l.075-.079Z" transform="translate(-243.821 -255.072)"/><path class="c" d="M393.721,463.692c-.092.111-.272.256-.353.208l.16-.287c-.012-.013-.022-.028-.033-.043l.031-.04-2.3-3.069.06,0-.106-.065-.292-.389c.037-.008.085,0,.154.072-.119-.361-.261-.2-.338-.531,0-.04.015-.035.042-.015l-.27-.237c.083.024.1-.151.205.043-.265-.591-.759-.7-.752-1.006l.044.033c-.443-.487-.333-.223-.485-.226l-.246-.328.063-.426-.2.039c-.049-.076-.145-.227-.068-.244-.3-.195-.029.093-.239.007-.129-.447-.781-.914-.609-1.165-.2-.043.165.4-.19.082.168-.292-.364-.4-.489-.8.2,0,.359.354.235-.05-.36-.03-.417-.655-.659-.892-.182.116-.509-.529-.9-.937a12.453,12.453,0,0,0-.792-1.383l.038-.009c-.235.049-.526-.407-.8-.695.113-.066.2-.04.371.1l-.222-.3a.8.8,0,0,1-.37-.275l.186-.023a7.071,7.071,0,0,1-1.04-1.249c-.1.042-.083.323-.212.354l-.2-.268a.151.151,0,0,1,.174.042c-.043-.039-.177-.123-.218-.236l.271.131c-.124-.267-.183-.051-.31-.244.1-.066-.035-.187.059-.216.044.04.082.19.171.233a1.545,1.545,0,0,1-.263-.65c-.04.058-.126.094-.252-.049-.3-.388.012-.219-.112-.485-.136-.047-.257-.348-.4-.25-.086-.116-.036-.186-.032-.259-.214-.157-.73-.938-.707-.6l.029.06-.031-.029a22.116,22.116,0,0,1-1.516-2.064l.048-.034a9.519,9.519,0,0,0-1-1.063c-.087-.117-.121-.34-.028-.332a2.17,2.17,0,0,1-.59-.765c.309.243-.006-.159.293.267-.254-.423-.246-.568-.69-.894.227.054-.071-.409-.246-.569l.12.339a5.049,5.049,0,0,1-.431-.582l.233-.017c-.41-.947-1.412-1.2-1.55-2.057-.27-.13.249.495-.022.4a6.606,6.606,0,0,1-.4-1.056c-.292-.572-.584-.3-.922-.875-.005.11-.108.286-.457-.07-.256-.386-.1-.632.115-.432.071.085.085.141.064.152.11.1.252.243.2.051l-.092-.006c-.08-.227-.468-.731-.286-.681-.263-.239-.182-.05-.056.178-.274-.536-.553-.743-.864-1.272.027.1.015.222-.043.144-.467-.769-.343-.236-.731-.7-.121-.34.279-.055-.159-.489-.165-.342.1-.175.237-.091a3.42,3.42,0,0,1-.723-1.154l.221.2a2.268,2.268,0,0,1-.3-.353l-.012.218c-.084-.152-.171-.269-.122-.3-.18-.087-.106.249-.417.043-.08-.226-.48-.513-.379-.688.382.615.1-.176.492.294a1.347,1.347,0,0,1-.258-.349c0-.033.046,0,.082.028-.281-.652-.359-.127-.785-.7.139.01.06-.252-.028-.332.171.232-.058.215-.281.052-.21-.416-.348-.362-.484-.56l.134.242c-.14-.011-.266-.2-.485-.439.049-.071.219.2.18.086-.361-.173-.328-.757-.724-1.078-.081-.226.145-.136.063-.326-.442-.362-.245-.567-.685-.966-.012.219.033.222-.323-.024l.654.708-.533-.369c.172.233.437.435.522.589-.268-.166-.222-.162-.233.019-.068-.444-.569-.554-.729-1.006l.288-.2c-.288-.644-.877-.871-1.342-1.638l.124.266c-.183-.013-.346-.43-.565-.628.11-.049.035-.219.019-.361-.06.064-.386-.528-.621-.453l-.116-.412c-.355-.579-.833-.556-1.3-1.241.1.024.1-.066.113-.123s.061-.071.3.178c-.22-.3-.419-.6-.436-.485a.515.515,0,0,0-.06-.1l-.041-.053c-.015-.016-.034.029-.053.043l-.25.308a1.639,1.639,0,0,1-.469.471c-.082.152-.056.3-.3.519-.041.007-.036-.046-.036-.046.011.072-.259.356-.007.3-.764.228-1.429,1.384-2.1,1.562-.347.365-.777.794-1.119,1.1,0-.046-.037-.045.036-.092-.547.327-.074.511-.7.877-.4.089.227-.322.006-.231-.322-.233-.629.595-1.149.718l.077-.09c-.365.13-.609.673-1.1,1.016,0,0,0-.045-.032-.048a5.683,5.683,0,0,1-1.236,1.3c.06-.227.168-.217-.011-.278-.2.168.206.155-.193.491-.185.031-.532.188-.666.079l.394-.286c-.323-.026-.513.365-.747.479l-.025-.095c-.6.445-.484.638-1.167,1.062l.107.014c-.249.432-.382.085-.664.462l-.235-.13a11.346,11.346,0,0,1-1.189,1.008,7.328,7.328,0,0,1,.922-.956,3.277,3.277,0,0,0-.9.68c.089-.077.186-.2.3-.226a2.794,2.794,0,0,1-1.089.917c-.042-.233-.54-.007-1.143.287l-.228.112-.116.057c-.037.019-.1.033-.049.072.093.133.182.264.261.389a1.821,1.821,0,0,1,.293.653l.379.431c.084.1.164.2.241.3.155.2.3.419.443.64.288.443.574.913.941,1.38.029-.549.216.272.462,0,.182.2.241.292.239.327l-.022-.054.022.058h0l.329.8c.035.222-.222-.163-.271-.094.341.5.03.3.193.674.054-.143.275.057.442.363l-.158-.489c.662.562.2.768.86,1.336l-.253-.148c.316.31.967,1.294,1.457,1.463.013.087,0,.228-.141.09a26.165,26.165,0,0,1,1.989,2.437l-.118-.01c.138.141.337.172.412.421-.037.012-.118-.01-.068.066a1.994,1.994,0,0,1,.549.56l-.212-.117c.519.887,1.134,1.108,1.7,1.757-.21.155.2.848.411,1.194l-.038.011a22.982,22.982,0,0,0,2.126,2.306,24.675,24.675,0,0,0,1.825,2.9c-.063-.163.179-.1.317.041.112.238.572.462.356.572l-.051-.076c-.071.3.3.682.539,1.017l.291-.133c.285,1.138,1.833,2.168,1.861,2.885.219.162.412.421.63.581l-.143.089a15.344,15.344,0,0,0,1.167,1.6l-.205-.074c.294.41.769.22,1.056.586l-.116.262a10.45,10.45,0,0,0,1.592,2.106c-.038.011-.111.033-.2-.075.243.335.825,1.384,1.01,1.057-.173.142.527.74.891,1.061l-.176.04a1.83,1.83,0,0,1,.846.583c.062.119-.036.172-.108.006.2.406.332.182.583.664l-.2-.1a.884.884,0,0,0,.535.436c.225.189.484.716.405.859a.661.661,0,0,1,.483.361c-.023.063-.11.006-.153-.023.366.676.832.79,1.016,1.306a.127.127,0,0,0-.026.13c-.359-.486-.644-.881-.607-.852-.122.091.15.5-.251.313a4.149,4.149,0,0,1,1.156,1.055.219.219,0,0,1,0,.082l-.043-.029a.73.73,0,0,0,.2.226,2.408,2.408,0,0,0,.2.343c-.067.12.281.489.423.687.121-.116.291.155.222-.166.014.038-.044-.025-.146-.15a.539.539,0,0,0-.076-.073l.022,0-.372-.478a.836.836,0,0,1,.448.492c.161.036.331.08.419.111.014.406.3,1,.238,1.152.26.269.535.611.811.908a5.332,5.332,0,0,0,.423.41,1.55,1.55,0,0,0,.485.352.537.537,0,0,1,.153.264c.023.087.061.078.1.1a.569.569,0,0,1-.134.059l-.088-.1a.586.586,0,0,0-.151-.134c.117.078.2.365.425.184l.589-.24a1.976,1.976,0,0,0,.39-.2c.085-.059.139-.118.144-.178.536-.107-.211.3.466-.008l-.069.1c1.513-.227,1.955-1.427,3.563-1.816-.112.03-.167.046-.205.025,1.725-.727,3.091-2.183,4.666-3.117.44-.284.381-.436.544-.724l.2.057.257-.514c.437-.634,1.257-.613,1.712-1.521l-.174.009c.257-.235.676-.865.744-.728a.216.216,0,0,1,.118-.227l.078.053c.147-.248.282-.505.422-.756.468-.468.23.322.843-.427C393.639,464.289,393.854,463.623,393.721,463.692ZM390.54,459.5a.152.152,0,0,1,.005.051l-.118-.157c.037.035.073.067.113.107Zm-14.363,11.942.028,0a.205.205,0,0,1-.105,0c-.116-.115-.122-.178-.108-.217.048.06.106.128.186.215Z" transform="translate(-235.643 -252.952)"/><path class="d" d="M395.452,504.81a.448.448,0,0,1,.05.046.948.948,0,0,0-.028-.1l-.076-.015Z" transform="translate(-254.646 -286.214)"/><path class="d" d="M404.047,463.543a.127.127,0,0,1,.008.05.147.147,0,0,1,0-.031Z" transform="translate(-258.174 -269.411)"/><path class="d" d="M416.433,479.777c-.323-.751-.017.218-.492-.459l.34.534C416.266,479.724,416.249,479.556,416.433,479.777Z" transform="translate(-263.026 -275.844)"/><path class="d" d="M414.159,476.393c-.176-.137-.219-.17-.112.067C414.274,476.713,414.119,476.4,414.159,476.393Z" transform="translate(-262.229 -274.608)"/><path class="d" d="M399.775,457.38l.142-.064C399.742,457.121,399.868,457.35,399.775,457.38Z" transform="translate(-256.432 -266.839)"/><path class="d" d="M238.055,315.585l-.306-.316.22.237Z" transform="translate(-96.966 -128.583)"/><path class="d" d="M369.449,427.6l.183.085C369.739,427.537,369.624,427.357,369.449,427.6Z" transform="translate(-244.063 -254.702)"/><path class="d" d="M355.226,438.669a3.565,3.565,0,0,0,.518-.251A.628.628,0,0,0,355.226,438.669Z" transform="translate(-238.263 -259.164)"/><path class="d" d="M217.624,343.108l.274.28-.1-.152Z" transform="translate(-88.758 -139.937)"/><path class="f" d="M247.556,396.2l1.078,31.071,16.873,39.614s-4.4,20.54,4.4,19.807.734-20.54.734-20.54l-8.069-41.814-1.467-34.479Z" transform="translate(-194.349 -239.36)"/><path class="h" d="M95.294,226.237l.4-2.771,3.265,1.3,10.27,16.138-21.274,11Z" transform="translate(-35.874 -91.141)"/></svg>