<svg xmlns="http://www.w3.org/2000/svg" width="1639.694" height="1020.635" viewBox="0 0 1639.694 1020.635">
  <g id="Group_111" data-name="Group 111" transform="translate(1639.694 1020.635) rotate(180)" opacity="0.03">
    <path id="Path_1" data-name="Path 1" d="M644.153,446.37S798.3,710.045,1057.922,511.278l158.2,160.23s-312.354,332.639-685.555,0C530.571,671.509,615.76,594.433,644.153,446.37Z" transform="translate(423.567 160.952)" fill="#2b569f"/>
    <path id="Path_2" data-name="Path 2" d="M1784.316,635s-148.907-160.843-362.432-14.111c0,0-84.289,95.945-84.289,163.667s-1.872,335.8-262.224,482.532S477.868,1306.6,354.245,1010.3s81.479-620.8,354.007-685.7,477.626,136.153,477.626,136.153-129.589,154.494-126.429,307.929l-271.824,269.84s-129.6,1.055-178.057-169.313l302.38-298.4S602.191,500.966,566.369,809.955c0,0-10.534,245.5,248.645,283.595,0,0,126.461,5.727,213.373-93.212,39.108-44.52,60.535-101.93,63.441-161.228,3.214-65.706,17.734-194.748,80.005-291.581,87.1-135.45,435.481-397.88,785.272-81.834Z" transform="translate(-317.412 -311.701)" fill="#2b569f"/>
  </g>
</svg>
