<svg xmlns="http://www.w3.org/2000/svg" xmlns:xlink="http://www.w3.org/1999/xlink" width="432.23" height="462.138" viewBox="0 0 432.23 462.138"><defs><style>.a{fill:none;}.b{fill:url(#a);}.ad,.c,.e,.y{fill:#fff;}.an,.ap,.aq,.au,.bb,.be,.c,.g,.j,.o,.p,.z{opacity:0.3;}.ad,.c,.e,.u{mix-blend-mode:soft-light;}.ad,.an,.ap,.aq,.au,.bb,.be,.c,.e,.g,.j,.o,.u,.z{isolation:isolate;}.d{fill:url(#b);}.e{opacity:0.5;}.f{fill:url(#c);}.an,.ap,.aq,.au,.bb,.be,.g,.j,.o,.z{mix-blend-mode:multiply;}.g{fill:url(#d);}.h{fill:url(#e);}.i{fill:url(#f);}.j{fill:url(#g);}.k{fill:url(#h);}.l{fill:url(#i);}.m{clip-path:url(#j);}.n{fill:url(#k);}.o{fill:url(#l);}.p{fill:url(#m);}.q{fill:url(#n);}.r{fill:url(#o);}.s{fill:url(#p);}.t{fill:url(#q);}.u{fill:#f4f7fa;}.v{fill:url(#r);}.w{fill:url(#s);}.x,.z{fill:url(#t);}.aa{fill:url(#w);}.ab{fill:#d8dee8;}.ac{fill:url(#x);}.ad{opacity:0.48;}.ae{fill:url(#aa);}.af{fill:url(#ab);}.ag{fill:url(#ac);}.ah{fill:url(#ad);}.ai{fill:url(#ae);}.aj{fill:url(#af);}.ak{fill:url(#ag);}.al{fill:url(#ah);}.am{fill:url(#ai);}.ao{fill:url(#aj);}.ap{fill:url(#ak);}.aq{fill:url(#al);}.ar{fill:url(#am);}.as{fill:url(#an);}.at{fill:url(#ao);}.au{fill:url(#ap);}.av{fill:url(#aq);}.aw{fill:url(#ar);}.ax{fill:url(#as);}.ay{fill:url(#at);}.az{fill:url(#au);}.ba{fill:url(#av);}.bb{fill:url(#aw);}.bc{fill:url(#ax);}.bd{fill:url(#ay);}.be{fill:url(#az);}.bf{fill:url(#ba);}.bg{fill:url(#bb);}</style><linearGradient id="a" x1="-11.54" y1="-1.656" x2="-11.587" y2="-0.048" gradientUnits="objectBoundingBox"><stop offset="0" stop-color="#aa80f9"/><stop offset="0.996" stop-color="#6165d7"/></linearGradient><linearGradient id="b" x1="-9.205" y1="-0.995" x2="-9.879" y2="-2.238" gradientUnits="objectBoundingBox"><stop offset="0.004" stop-color="#e38ddd"/><stop offset="1" stop-color="#9571f6"/></linearGradient><linearGradient id="c" x1="-1.632" y1="0.483" x2="-2.135" y2="1.043" gradientUnits="objectBoundingBox"><stop offset="0" stop-color="#ffc444"/><stop offset="0.996" stop-color="#f36f56"/></linearGradient><linearGradient id="d" x1="-1.872" y1="0.623" x2="-2.428" y2="1.427" xlink:href="#c"/><linearGradient id="e" x1="-5.005" y1="0.346" x2="-5.842" y2="1.087" xlink:href="#b"/><linearGradient id="f" x1="-0.71" y1="0.372" x2="-0.476" y2="1.966" xlink:href="#a"/><linearGradient id="g" x1="-0.807" y1="-0.938" x2="-0.568" y2="4.063" xlink:href="#a"/><linearGradient id="h" x1="-6.942" y1="0.609" x2="-8.053" y2="1.237" xlink:href="#b"/><linearGradient id="i" x1="-6.316" y1="0.947" x2="-7.307" y2="0.961" gradientUnits="objectBoundingBox"><stop offset="0" stop-color="#311944"/><stop offset="1" stop-color="#893976"/></linearGradient><clipPath id="j"><path class="a" d="M2139.94,589.509c4.415-1.446,8.146-4.718,11.092-9.727,3-5.1,5.048-11.723,6.095-19.693,2.2-16.754-.3-37.318-7.04-57.9s-16.888-38.645-28.573-50.852c-5.558-5.807-11.131-9.936-16.563-12.274-5.337-2.3-10.282-2.729-14.7-1.283s-8.147,4.718-11.092,9.727c-3,5.1-5.048,11.724-6.1,19.693-2.2,16.754.3,37.318,7.039,57.9s16.888,38.645,28.573,50.852c5.559,5.807,11.131,9.936,16.563,12.274C2130.58,590.523,2135.525,590.955,2139.94,589.509Z" transform="translate(-2072.288 -436.941)"/></clipPath><linearGradient id="k" x1="-3.056" y1="0.256" x2="-2.592" y2="2.43" xlink:href="#c"/><linearGradient id="l" x1="-6.062" y1="0.629" x2="-5.418" y2="2.83" xlink:href="#c"/><linearGradient id="m" x1="-3.987" y1="3.156" x2="-2.95" y2="5.477" xlink:href="#b"/><linearGradient id="n" x1="-3.67" y1="2.319" x2="-2.922" y2="3.158" gradientUnits="objectBoundingBox"><stop offset="0" stop-color="#ff9085"/><stop offset="1" stop-color="#fb6fbb"/></linearGradient><linearGradient id="o" x1="-4.731" y1="3.434" x2="-3.679" y2="5.705" xlink:href="#b"/><linearGradient id="p" x1="-19.895" y1="6.307" x2="-16.509" y2="8.2" xlink:href="#n"/><linearGradient id="q" x1="-3.352" y1="2.799" x2="-2.355" y2="5.183" xlink:href="#a"/><linearGradient id="r" x1="0.422" y1="0.517" x2="0.352" y2="0.841" gradientUnits="objectBoundingBox"><stop offset="0" stop-color="#40447e"/><stop offset="0.996" stop-color="#3c3b6b"/></linearGradient><linearGradient id="s" x1="0.48" y1="0.467" x2="0.372" y2="0.528" xlink:href="#r"/><linearGradient id="t" x1="0" y1="0.5" x2="1" y2="0.5" xlink:href="#r"/><linearGradient id="w" x1="0.753" y1="-1.494" x2="0.18" y2="3.035" xlink:href="#a"/><linearGradient id="x" y1="0.5" x2="1" y2="0.5" gradientUnits="objectBoundingBox"><stop offset="0" stop-color="#444b8c"/><stop offset="0.996" stop-color="#26264f"/></linearGradient><linearGradient id="aa" x1="0.631" y1="0.147" x2="0.262" y2="1.07" gradientUnits="objectBoundingBox"><stop offset="0" stop-color="#ab316d"/><stop offset="1" stop-color="#792d3d"/></linearGradient><linearGradient id="ab" x1="-0.247" y1="2.586" x2="-0.038" y2="2.008" xlink:href="#aa"/><linearGradient id="ac" x1="0.709" y1="-2.964" x2="0.529" y2="0.179" xlink:href="#aa"/><linearGradient id="ad" x1="0.359" y1="0.773" x2="1.165" y2="-0.306" xlink:href="#aa"/><linearGradient id="ae" x1="0.784" y1="0.02" x2="0.229" y2="0.957" xlink:href="#n"/><linearGradient id="af" x1="0.854" y1="-0.036" x2="0.016" y2="1.21" xlink:href="#n"/><linearGradient id="ag" x1="0.919" y1="-0.218" x2="-0.303" y2="1.873" xlink:href="#n"/><linearGradient id="ah" x1="0.514" y1="-0.936" x2="0.487" y2="1.812" xlink:href="#n"/><linearGradient id="ai" x1="0.267" y1="0.828" x2="1.096" y2="-0.062" xlink:href="#n"/><linearGradient id="aj" x1="0.8" y1="-0.001" x2="0.202" y2="1.04" xlink:href="#n"/><linearGradient id="ak" x1="0.605" y1="-1.187" x2="0.403" y2="2.362" xlink:href="#n"/><linearGradient id="al" x1="0.906" y1="-0.07" x2="-0.056" y2="1.435" xlink:href="#n"/><linearGradient id="am" x1="-9.013" y1="0.5" x2="-8.013" y2="0.5" xlink:href="#c"/><linearGradient id="an" x1="-2.784" y1="0.5" x2="-1.784" y2="0.5" xlink:href="#a"/><linearGradient id="ao" x1="27.718" y1="-4.385" x2="28.143" y2="-0.85" xlink:href="#b"/><linearGradient id="ap" x1="-2.695" y1="0.5" x2="-1.531" y2="0.5" xlink:href="#a"/><linearGradient id="aq" x1="126.041" y1="0.5" x2="127.041" y2="0.5" gradientUnits="objectBoundingBox"><stop offset="0" stop-color="#311944"/><stop offset="1" stop-color="#a03976"/></linearGradient><linearGradient id="ar" x1="-1.806" y1="-0.037" x2="-0.941" y2="0.548" xlink:href="#a"/><linearGradient id="as" x1="1.048" y1="-0.037" x2="0.462" y2="0.696" xlink:href="#x"/><linearGradient id="at" x1="-4.667" y1="0.675" x2="-3.968" y2="0.067" xlink:href="#c"/><linearGradient id="au" x1="28.185" y1="0.5" x2="29.185" y2="0.5" xlink:href="#aq"/><linearGradient id="av" x1="50.786" y1="5.567" x2="50.746" y2="2.068" xlink:href="#aq"/><linearGradient id="aw" x1="-4.812" y1="0.658" x2="-4.088" y2="-0.034" xlink:href="#c"/><linearGradient id="ax" x1="-7.882" y1="0.5" x2="-6.882" y2="0.5" xlink:href="#x"/><linearGradient id="ay" x1="-5.742" y1="0.5" x2="-4.742" y2="0.5" xlink:href="#x"/><linearGradient id="az" x1="2.521" y1="-0.105" x2="3.125" y2="0.95" xlink:href="#x"/><linearGradient id="ba" x1="-7.339" y1="0.828" x2="-8.207" y2="0.186" xlink:href="#c"/><linearGradient id="bb" x1="-0.587" y1="-1.027" x2="0.359" y2="0.444" xlink:href="#aq"/></defs><g transform="translate(-443.298 -346.747)"><g transform="translate(729.89 633.499)"><g transform="translate(10.369)"><path class="b" d="M2402.242,2277.454c-6.167-4.059,8.774-40.553,22.247-64.687,11.064-19.819,24.083-36.577,27.842-34.642,2.877,1.482-.728,13.372,1.881,14.32,3.5,1.271,10.853-19.753,18-19.047,4.4.435,8.211,9.068,8.354,17,.257,14.315-11.458,23.795-36.942,48.66C2410.969,2270.924,2405.417,2279.543,2402.242,2277.454Z" transform="translate(-2400.811 -2173.381)"/><path class="c" d="M2414.7,2282.942c3.435-10.3,3.139-16.864,9.388-23.52,5.458-5.814,8.829-4.153,15.266-10.874,7.29-7.612,4.741-11.6,10.848-17.491,8.479-8.186,16.636-3.635,23.827-10.993,2.272-2.325,4.616-6.013,5.759-12.2a28.47,28.47,0,0,1,2.723,11.606c.257,14.314-11.458,23.795-36.942,48.66-32.657,31.863-38.21,40.482-41.384,38.393a2.837,2.837,0,0,1-1.071-1.526A79.426,79.426,0,0,0,2414.7,2282.942Z" transform="translate(-2402.75 -2202.454)"/></g><g transform="translate(0 27.063)"><path class="d" d="M2334.76,2441.458a284.516,284.516,0,0,1,39.313-64.21c25.21-30.856,37.482-31.83,42.866-31.419,7.175.547,16.388,4.644,17.8,11.517,2.651,12.859-23.162,29.75-20.344,34.605,1.458,2.513,8.59-1.632,11.469,1.657,3.937,4.5-3.7,18.765-5.754,22.2C2404.24,2442.4,2351.7,2442.063,2334.76,2441.458Z" transform="translate(-2334.76 -2345.772)"/><path class="e" d="M2360.165,2471.628c11.819-7.578,15.351-6.819,21.7-13.83,11.7-12.928,7.417-24.043,18.261-32.328,7.732-5.907,12.228-2.028,23.079-8.273a45.742,45.742,0,0,0,10.985-8.938,9.2,9.2,0,0,1,.558,1.765c2.651,12.858-23.162,29.75-20.344,34.605,1.458,2.513,8.59-1.632,11.469,1.657,3.937,4.5-3.7,18.765-5.754,22.2-15.875,26.584-68.417,26.25-85.356,25.644.24-.537.482-1.065.724-1.6A126.322,126.322,0,0,1,2360.165,2471.628Z" transform="translate(-2334.76 -2398.449)"/></g></g><g transform="translate(531.801 346.747)"><g transform="translate(0 0)"><path class="f" d="M1325.853,1270.587a17.045,17.045,0,0,1-17.034-5.311l-60.143-69.838a14.873,14.873,0,0,1,1.654-21.193c6.447-5.406,19.163-5.689,24.744.722l61.3,70.429a14.543,14.543,0,0,1-2.008,21.457A35.408,35.408,0,0,1,1325.853,1270.587Z" transform="translate(-1217.989 -1040.91)"/><path class="g" d="M1250.33,1174.246c6.447-5.406,19.163-5.689,24.743.722l56.051,64.4c-5.729.373-11.946,2.543-19.676-.756-12.868-5.493-11.628-18.337-22.829-25.749-5.12-3.388-13.4-6.009-27.516-2.99l-12.427-14.431A14.872,14.872,0,0,1,1250.33,1174.246Z" transform="translate(-1217.989 -1040.91)"/><path class="h" d="M1079.737,1097.162a6.654,6.654,0,0,1,.881-.221l20.735-7.043,17.718,54.109-20.185,6.305a6.721,6.721,0,0,1-1.511.716c-7.132,2.335-16.862-7.83-21.733-22.7S1072.6,1099.5,1079.737,1097.162Z" transform="translate(-1072.917 -973.235)"/><path class="i" d="M1252.047,557.18c-1.983,20.6,3.9,38.552,17.718,54.109l171.094-.92-48.131-152.39Z" transform="translate(-1223.611 -440.517)"/><path class="j" d="M1394.043,1136.962c-16.544-.757-28.109-20.612-45.432-15.735-13.593,3.827-13.369,18.168-26.966,21.066-13.919,2.966-20.925-10.793-37.658-10.972-7.608-.081-14.631,2.694-20.941,6.935a69.517,69.517,0,0,0,16.308,30.583l171.094-.92-26.042-48.565C1412.058,1133.254,1402.064,1137.328,1394.043,1136.962Z" transform="translate(-1233.199 -998.066)"/><ellipse class="k" cx="39.622" cy="82.634" rx="39.622" ry="82.634" transform="translate(136.324 24.66) rotate(-18.131)"/><path class="l" d="M2139.94,589.509c4.415-1.446,8.146-4.718,11.092-9.727,3-5.1,5.048-11.723,6.095-19.693,2.2-16.754-.3-37.318-7.04-57.9s-16.888-38.645-28.573-50.852c-5.558-5.807-11.131-9.936-16.563-12.274-5.337-2.3-10.282-2.729-14.7-1.283s-8.147,4.718-11.092,9.727c-3,5.1-5.048,11.724-6.1,19.693a106.236,106.236,0,0,0-.329,22.737c.96,11.217,11.6,19.77,15.525,31.748,4.171,12.737,1.49,27.925,7.825,37.94a104.207,104.207,0,0,0,12.591,16.33c5.559,5.807,11.131,9.936,16.563,12.274C2130.58,590.523,2135.525,590.955,2139.94,589.509Z" transform="translate(-1915.403 -422.782)"/><g transform="translate(156.885 14.159)"><g class="m"><path class="n" d="M2044.757,777.962c6.515,19.9-1.486,40.008-17.641,44.851-15.9,4.769-33.752-7.1-40.086-26.442s1.1-39.274,16.826-44.592C2019.828,746.378,2038.242,758.066,2044.757,777.962Z" transform="translate(-1998.512 -701.244)"/><path class="o" d="M2185.752,808.982c4.838,14.774,2.26,28.607-5.645,30.864-7.782,2.222-17.816-7.645-22.52-22.008s-2.4-28.109,5.247-30.739C2170.6,784.427,2180.914,794.208,2185.752,808.982Z" transform="translate(-2142.144 -731.759)"/></g></g></g><g transform="translate(195.914 33.473)"><path class="p" d="M2400.442,833.737l49.221-13.917c4.013-1.135,8.161.533,9.211,3.739h0c1.05,3.207-1.418,6.669-5.458,7.719l-49.56,12.884c-3.3.858-6.7-.762-7.627-3.607h0C2395.3,837.711,2397.166,834.663,2400.442,833.737Z" transform="translate(-2384.202 -778.729)"/><path class="q" d="M2325.656,622.264l56.035-19.387c4.7-1.625,9.669.393,11.026,4.535h0c1.356,4.142-1.455,8.724-6.2,10.209l-56.581,17.72a6.935,6.935,0,0,1-8.7-4.377h0A6.966,6.966,0,0,1,2325.656,622.264Z" transform="translate(-2320.901 -595.668)"/><path class="r" d="M2494.205,754.672l46.447-13.655c3.776-1.11,7.7.5,8.725,3.618h0c1.02,3.115-1.276,6.487-5.078,7.518l-46.767,12.677a5.921,5.921,0,0,1-7.266-3.5h0A5.36,5.36,0,0,1,2494.205,754.672Z" transform="translate(-2463.476 -712.3)"/><path class="s" d="M2790.25,570.914c1.362,4.16,6.158,6.38,10.793,4.933,4.727-1.475,7.483-6.186,6.072-10.5s-6.415-6.461-11.092-4.834C2791.438,562.111,2788.888,566.754,2790.25,570.914Z" transform="translate(-2716.261 -559.974)"/><g transform="translate(11.962 54.861)"><path class="t" d="M2402.207,924.279l59.483-14.518c5-1.219,10.233,1.186,11.61,5.394h0c1.378,4.208-1.665,8.506-6.707,9.581l-60.045,12.8a7.948,7.948,0,0,1-9.119-5.041h0A6.362,6.362,0,0,1,2402.207,924.279Z" transform="translate(-2397.102 -909.444)"/><path class="u" d="M2780.893,928.3c1.034,3.158,4.94,5.053,8.775,4.223,3.892-.843,6.228-4.164,5.166-7.408s-5.1-5.11-8.961-4.181C2782.066,921.846,2779.859,925.138,2780.893,928.3Z" transform="translate(-2720.429 -918.926)"/></g></g></g><g transform="translate(443.298 537.843)"><path class="v" d="M965.8,2941.881l-427.681-3.725v11.021c0,2.991,1.865,5.535,4.392,5.988l120.935,21.7a16.629,16.629,0,0,0,4.339.2l293.367-24.744c2.619-.221,4.648-2.772,4.648-5.846Z" transform="translate(-533.571 -2722.442)"/><path class="w" d="M803.7,1765.612l-285.3,20.162a8.5,8.5,0,0,1-9.256-8.563V1573.257a9.241,9.241,0,0,1,9.256-9.218H803.7c4.206,0,7.607,3.731,7.607,8.333v184.37C811.3,1761.344,807.9,1765.315,803.7,1765.612Z" transform="translate(-509.142 -1564.039)"/><path class="x" d="M832.674,1765.612l-285.3,20.162a8.5,8.5,0,0,1-9.256-8.563V1573.257a9.241,9.241,0,0,1,9.256-9.218h285.3c4.206,0,7.607,3.731,7.607,8.333v184.37C840.28,1761.344,836.88,1765.315,832.674,1765.612Z" transform="translate(-533.571 -1564.039)"/><path class="y" d="M890.431,1816.2l-265.725,17.513a6.963,6.963,0,0,1-7.531-7.029V1648.127a7.569,7.569,0,0,1,7.531-7.556l265.725-1.1a6.549,6.549,0,0,1,6.276,6.828v162.638C896.707,1812.723,893.9,1815.976,890.431,1816.2Z" transform="translate(-600.216 -1627.63)"/><path class="y" d="M1534.666,1581.161a3.289,3.289,0,1,1-3.282-3.429A3.371,3.371,0,0,1,1534.666,1581.161Z" transform="translate(-1368.136 -1575.583)"/><path class="x" d="M825.555,2841.936,538.12,2863.158l125.327,22.49a16.629,16.629,0,0,0,4.339.2L965.8,2860.716,830.127,2842.08A21.767,21.767,0,0,0,825.555,2841.936Z" transform="translate(-533.571 -2641.276)"/><path class="z" d="M805.289,2884.547l239.3-17.932,74.061,10.091-237.237,19.168Z" transform="translate(-758.799 -2662.132)"/><g transform="translate(16.927 11.842)"><path class="aa" d="M896.564,1674l-279.6,3.473v-31.586a6.413,6.413,0,0,1,6.413-6.413H890.151a6.413,6.413,0,0,1,6.413,6.413Z" transform="translate(-616.967 -1639.471)"/><g transform="translate(17.212 46.844)"><path class="ab" d="M884.688,2018.272,726.608,2024.8v-74.672l158.079-2.651Z" transform="translate(-726.608 -1945.973)"/><path class="ab" d="M1873.589,2006.456l-80.62,3.331v-70.562l80.62-1.352Z" transform="translate(-1625.567 -1937.873)"/><path class="ab" d="M974.63,2473.753,726.608,2488.52v-45.676L974.63,2431.8Z" transform="translate(-726.608 -2354.263)"/></g><path class="ac" d="M703.049,1732.68a3.774,3.774,0,0,1-3.87,3.627,3.721,3.721,0,0,1-3.88-3.582,3.774,3.774,0,0,1,3.88-3.627A3.72,3.72,0,0,1,703.049,1732.68Z" transform="translate(-683.003 -1715.029)"/><path class="ac" d="M792.58,1732.6a3.717,3.717,0,0,1-3.834,3.545,3.666,3.666,0,0,1-3.844-3.5,3.718,3.718,0,0,1,3.844-3.545A3.665,3.665,0,0,1,792.58,1732.6Z" transform="translate(-758.539 -1715.029)"/><path class="ac" d="M881.289,1732.172a3.69,3.69,0,0,1-3.8,3.529,3.639,3.639,0,0,1-3.809-3.485,3.69,3.69,0,0,1,3.809-3.529A3.639,3.639,0,0,1,881.289,1732.172Z" transform="translate(-833.381 -1714.682)"/></g><path class="ad" d="M763.936,1709.675c-21.994-11.834-39.288,3.161-55.977-11.634-10.118-8.97-5.151-15.658-17.6-29.062-13.79-14.846-22.768-9.855-36.626-23.217-17.523-16.895-8.759-30.039-23.853-42.169-18.311-14.715-38.059-1.1-55.49-15.208-7.518-6.087-11.643-14.936-13.8-24.347H543.536a5.415,5.415,0,0,0-5.416,5.41v211.416a4.977,4.977,0,0,0,5.416,5.026L834.3,1765.252a4.682,4.682,0,0,0,3.5-2.142c-21.285-.776-34.361-7.911-42.72-15.287C778.733,1733.393,781.569,1719.162,763.936,1709.675Z" transform="translate(-533.571 -1564.039)"/></g><g transform="translate(457.513 510.318)"><path class="ae" d="M1185.5,1747.734,1153.67,1799.8l-97.087-1.095-43.059,83.306L902.359,1885.9l-57.682,88.884a6.106,6.106,0,0,1-4.61,2.761l-7.532.635c-3.419.539-10.722-.5-9.607-3.779L862,1886.014l32.131-14.377,108.075-4.132,40.893-81.9,99.313-1.1,33.286-50.562Z" transform="translate(-787.788 -1679.751)"/><path class="af" d="M2660.18,1778.255l-17.845-8.2,19.887-4.05Z" transform="translate(-2321.674 -1706.772)"/><path class="ag" d="M3090.35,1733.949l9.336,13.785h-20.716l-7-8.753Z" transform="translate(-2683.861 -1679.751)"/><path class="ah" d="M3195.885,1395.12l-8.655-6.414-3.746,51.935,3.746,6.676,6.466,9.372Z" transform="translate(-2777.87 -1388.707)"/><path class="ai" d="M1713.173,2099.109,1758,2111.357l43.059-83.306-44.825-12.248Z" transform="translate(-1538.375 -1917.359)"/><path class="aj" d="M602.658,2674.373l33.556,9.169a8.452,8.452,0,0,0,9.318-3.552l62.618-96.491-44.825-12.248L600.344,2668.3A4.023,4.023,0,0,0,602.658,2674.373Z" transform="translate(-599.693 -2385.611)"/><path class="ak" d="M1005.04,2550.357l44.825,12.248,111.165-3.891-44.825-12.248Z" transform="translate(-941.407 -2364.717)"/><path class="al" d="M1987.461,2015.8l44.825,12.248,97.087,1.095-44.825-12.248Z" transform="translate(-1769.604 -1917.359)"/><path class="am" d="M2611.628,1451.986l16.992-.894-22.71,37.155,44.825,12.248,31.935-52.247,17.656-.929v-58.61Z" transform="translate(-2290.966 -1388.707)"/><g class="an" transform="translate(174.798 98.444)"><path class="ao" d="M1728.817,2096.089c12.882-10.34,24.57-4.048,32.809-12.5,7.045-7.226-.246-13.114,7.812-30.934,6.562-14.512,16.184-21.194,18.123-22.5a46.162,46.162,0,0,1,7.028-3.875l-38.357-10.481-43.059,83.305,10,2.732A34.647,34.647,0,0,1,1728.817,2096.089Z" transform="translate(-1713.173 -2015.804)"/></g><path class="ap" d="M2256.426,2022.981c-8.2.559-9.669.869-9.686,1.25-.054,1.149,13.11,3.4,26.559,3.75,11.968.312,14.059-1.144,26.872-.312,8.338.541,13.924,1.578,14.061.937.164-.769-7.588-3.6-15.936-5.312C2286.929,2020.963,2276.607,2021.6,2256.426,2022.981Z" transform="translate(-1988.18 -1922.368)"/><path class="aq" d="M657.057,2632.77c6.933-11.309,9.491-22.834,21.56-28.434,9.243-4.288,15.531-1.142,23.747-6.562,6.4-4.22,9.863-10.931,11.83-17.242l-33.964-9.281-60.485,93.2C640.627,2654.33,651.211,2642.3,657.057,2632.77Z" transform="translate(-616.597 -2385.611)"/></g><g transform="translate(485.878 600.756)"><path class="ar" d="M1510.688,2120.306c3.8-1.11,8.881,5.869,13.1,11.672,6.318,8.68,13.7,18.822,11.711,31-1.957,11.982-12.229,21.313-15.156,19.979-2.5-1.142,2.31-9.2-1.378-19.979-2.976-8.7-7.907-8.7-11.213-17.227C1503.653,2135.17,1506.012,2121.672,1510.688,2120.306Z" transform="translate(-1391.789 -2095.795)"/><path class="as" d="M1491.71,2472.493c19.578,4.753,32.473,12.383,40,17.78,4.082,2.925,5.967,4.749,6.985,7.408,5.8,15.153-24,38.064-27.172,40.464l-4.161-9.7c3.079-16.9,8.2-22.2,12.494-23.777,1.2-.441,3.214-.914,3.175-1.482-.092-1.342-11.41.571-22.225-3.386-10.784-3.946-21.619-13.931-19.685-20.532C1481.48,2478.062,1482.959,2474.578,1491.71,2472.493Z" transform="translate(-1370.93 -2392.793)"/><path class="at" d="M1660.861,3178.035s-1.822.649-1.829,2.09,1.846,7.79,3.859,10.046,2.193-1.11,2.068-3.278-.652-7.021-1.15-7.959S1660.861,3178.035,1660.861,3178.035Z" transform="translate(-1521.098 -2987.576)"/><path class="au" d="M1516.74,2540.854c3.557-.07,11.892-.733,14.111,3.386,1.851,3.438-1.392,8.648-3.387,11.853-5.423,8.713-10.686,9.6-14.393,14.958a18.873,18.873,0,0,0-3.149,9.1l-2.36-5.5c3.079-16.9,8.2-22.2,12.494-23.777,1.2-.441,3.214-.914,3.175-1.482-.092-1.343-11.41.571-22.225-3.386-9.831-3.6-19.671-12.2-19.874-18.7C1496.7,2538.469,1508.415,2541.017,1516.74,2540.854Z" transform="translate(-1371.125 -2439)"/><path class="av" d="M1663.976,3139.026c.107,2.221.3,4.078.466,5.457a18.147,18.147,0,0,0,1.2,5.357c.413.958,1.445,3.048,1.938,2.9s-.014-2.463-.4-8.9c-.057-.935-.229-3.91-.229-3.91h0Z" transform="translate(-1525.265 -2954.691)"/><path class="aw" d="M1361.839,2476.6a88.01,88.01,0,0,1,22.86,19.755c5.026,6.164,12.67,15.541,15.438,29.522,1.475,7.452.749,14.138-.763,27.2a273.91,273.91,0,0,1-5.339,30.758l-2.6,1.045a55.77,55.77,0,0,1-6.452-19.667c-1.783-14.137,3.506-18.63.967-28.655-2.2-8.685-8.571-14.01-21.314-24.661-10.47-8.751-20.124-13.942-23.707-24.857-.609-1.854-1.126-4.127-.134-6.209C1342.932,2476.343,1351.112,2474.778,1361.839,2476.6Z" transform="translate(-1252.349 -2395.627)"/><path class="ax" d="M880.866,1990.12c2.928-.63,7.743-.5,12.333-4.12,1.382-1.088,6.277-4.943,5.683-10.46-.523-4.856-5.126-7.466-5.691-7.777-3.258-1.793-6.507-1.395-10.109-.9-4.671.639-6.223,1.915-9.469,2.79-8.03,2.164-10.746-2.354-18.831-1.972-10.334.487-11.228,8.119-19.922,8.309-9.76.214-11.631-9.339-21.268-10.957-13.376-2.246-33.615,12.153-33.207,28.753.235,9.587,7.374,20.575,16.493,23.874,5.315,1.923,11.051,1.312,12.688,4.768,1.165,2.46-1.454,4.355-1.207,8.641.318,5.525,5.076,9.4,5.844,10.029,7.131,5.813,23.118,2.876,34.036-5.348C867.926,2020.917,864.947,1993.545,880.866,1990.12Z" transform="translate(-780.379 -1964.8)"/><path class="ay" d="M1108.93,2105.091a209.636,209.636,0,0,1,22.778-1.554c17.958-.244,20.529,2.033,21.187,3.719,1.226,3.142-.874,4.718.318,10.2.713,3.276.039,4.769,1.418,8.289,1.344,3.43.29,5.275-.9,13.319-1.519,10.286-2.22,15.514.658,19.661,2,2.881,4.238,3.125,4.024,4.494-.454,2.916-10.536,1.308-23.3,6.905a95.242,95.242,0,0,0-9.948,5.292c-6.678,3.921-7.914,5.42-11.007,7.2-9.781,5.618-24.472,6.16-32.173-.635-2.871-2.533-4.963-6.257-4.022-7.62,1.282-1.856,7.015,2.359,12.276-.212,3.485-1.7,2.823-4.459,6.853-7.706,4.849-3.908,8.221-1.86,11.522-4.4,5.149-3.967,2.807-13.463,1.361-29.385A265.937,265.937,0,0,1,1108.93,2105.091Z" transform="translate(-1031.057 -2081.742)"/><path class="az" d="M1363.42,2064.989c-2.449,1.519-6.408,3.505-6.845,4.045s11.995,2.667,19.729-1.236c0,0,1.2-.666-3.464-1.6-.994-.2-.8-2.132-.666-4.13l-.932-1.732S1365.869,2063.469,1363.42,2064.989Z" transform="translate(-1266.112 -2045.339)"/><path class="ba" d="M1437.211,2026.838s-.961,4.076,2.629,6.09c3.214,1.8,8.652-5.591,7.636-8.339a4.857,4.857,0,0,0-2.814-2.491,5.387,5.387,0,0,0-5.7,2.663c-.378-.829-1.054-1.263-1.508-1.127-.577.172-.661,1.222-.681,1.459A2.939,2.939,0,0,0,1437.211,2026.838Z" transform="translate(-1333.724 -2013.016)"/><path class="bb" d="M1140.109,2215.566c-3.7,1.533-4.2,4.845-9.311,6.725-4.878,1.792-6.515-.454-11.38,1.035-7.307,2.235-10.1,9.286-11.207,8.621-1.013-.609-.042-7.354,4.655-11.724,5.394-5.019,11.2-2.721,14.656-7.931,1.343-2.028,2.379-5.266,1.207-7.759-1.588-3.378-5.734-2.206-7.931-5-3.948-5.019,5.291-14.072,2.759-21.725-1.01-3.054-4.228-6.882-14.6-9.444.141,7.671.583,14.081,1.025,18.949,1.445,15.922,3.788,25.419-1.361,29.385-3.3,2.543-6.672.5-11.522,4.4-4.029,3.247-3.367,6-6.853,7.706-5.261,2.571-10.994-1.644-12.276.212-.942,1.363,1.151,5.087,4.022,7.62,7.7,6.794,22.392,6.253,32.173.635,3.093-1.776,4.328-3.276,11.007-7.2a95.242,95.242,0,0,1,9.948-5.292c8.958-3.928,16.589-4.308,20.5-5.193C1147.846,2214.407,1143.111,2214.322,1140.109,2215.566Z" transform="translate(-1031.057 -2136.406)"/><g transform="translate(94.721 58.442)"><path class="bc" d="M1433.785,2502.2l-46.917,2.283a1.969,1.969,0,0,0-1.576.926l-1.3,2.083a1.524,1.524,0,0,0,1.352,2.328l49.7-1.893Z" transform="translate(-1383.76 -2476.276)"/><path class="bd" d="M1607.8,2337.082l-48.471.939a4.066,4.066,0,0,0-3.456,2.056l-16.785,29.531,51.191-2.04a4.166,4.166,0,0,0,3.409-2.023l15.551-25.98A1.641,1.641,0,0,0,1607.8,2337.082Z" transform="translate(-1514.703 -2337.082)"/><path class="be" d="M1555.872,2345.013a4.067,4.067,0,0,1,3.457-2.056l1.062-.021a7.554,7.554,0,0,0,1.6,4.152c2.989,3.607,7.954,1.382,11.655,5.2,4.066,4.194.31,9.187,3.945,13.09,3.826,4.108,10.013.763,17.125,3.392l-1.024,1.711a4.166,4.166,0,0,1-3.409,2.023l-51.191,2.04Z" transform="translate(-1514.703 -2342.017)"/></g><g transform="translate(57.497 23.093)"><path class="bf" d="M1194.657,2173.2l1.586-4.188c-5.843-1.6-13.924-3.969-22.213-6.931a6.353,6.353,0,0,1-3.346-2.4c-4.25-5.636,6.565-15.579,6.371-28.481-.134-8.943-5.556-19.173-10.334-19.289-9.711-.236-31.123,40.97-13.089,58.557C1162.583,2179.189,1179.306,2180.2,1194.657,2173.2Z" transform="translate(-1146.639 -2111.902)"/></g><path class="bg" d="M1452.21,2471.115c3.668-1.948,8.059.049,8.342.183a10.959,10.959,0,0,1,3.164,2.269c.134.183,1.725,2.388,1.146,3.094-.465.566-2.264.1-4.427-1.248a16.816,16.816,0,0,0-3.873-.095c-2.969.274-4.329,1.212-5.407.4a2.674,2.674,0,0,1-.774-2.777A3.308,3.308,0,0,1,1452.21,2471.115Z" transform="translate(-1345.109 -2390.916)"/></g></g></svg>