<svg xmlns="http://www.w3.org/2000/svg" width="70.313" height="80" viewBox="0 0 70.313 80">
  <path id="Path_8" data-name="Path 8" d="M66.156,0A35.2,35.2,0,0,0,31,35.156V54.219a7.039,7.039,0,0,0,7.031,7.031h2.747a7.031,7.031,0,0,0,13.659-2.344V39.844A7.031,7.031,0,0,0,40.778,37.5H38.031a7,7,0,0,0-2.344.4V35.156a30.469,30.469,0,0,1,60.938,0V37.9a7,7,0,0,0-2.344-.4H91.534a7.031,7.031,0,0,0-13.659,2.344V58.906a7.03,7.03,0,0,0,9.072,6.728,7.043,7.043,0,0,1-6.728,4.99H72.784a7.031,7.031,0,1,0,0,4.688h7.434A11.732,11.732,0,0,0,91.938,63.594V61.25h2.344a7.039,7.039,0,0,0,7.031-7.031V35.156A35.2,35.2,0,0,0,66.156,0ZM45.063,39.844a2.344,2.344,0,0,1,4.688,0V58.906a2.344,2.344,0,0,1-4.687,0Zm-7.031,2.344h2.344V56.563H38.031a2.346,2.346,0,0,1-2.344-2.344V44.531A2.346,2.346,0,0,1,38.031,42.188ZM66.156,75.313A2.344,2.344,0,1,1,68.5,72.969,2.346,2.346,0,0,1,66.156,75.313ZM87.25,58.906a2.344,2.344,0,0,1-4.687,0V39.844a2.344,2.344,0,0,1,4.688,0Zm9.375-4.687a2.346,2.346,0,0,1-2.344,2.344H91.938V42.188h2.344a2.346,2.346,0,0,1,2.344,2.344Z" transform="translate(-31)" fill="#2b569f"/>
</svg>
