<svg xmlns="http://www.w3.org/2000/svg" width="80" height="80" viewBox="0 0 80 80"><defs><style>.a{fill:#2b569f;}</style></defs><path class="a" d="M80,25.781a6.992,6.992,0,0,0-.539-2.7v0L71.647,4.327A7.013,7.013,0,0,0,65.156,0H14.844a7.013,7.013,0,0,0-6.49,4.327L.539,23.078A6.993,6.993,0,0,0,0,25.781v9.688a7,7,0,0,0,1.8,4.688A7,7,0,0,0,0,44.844v9.375a7,7,0,0,0,1.8,4.688A7,7,0,0,0,0,63.594v9.375A7.039,7.039,0,0,0,7.031,80H72.969A7.039,7.039,0,0,0,80,72.969V63.594a7,7,0,0,0-1.8-4.687A7,7,0,0,0,80,54.219V44.844a7,7,0,0,0-1.8-4.687A7,7,0,0,0,80,35.469ZM12.68,6.13a2.338,2.338,0,0,1,2.163-1.442H65.156A2.338,2.338,0,0,1,67.32,6.13l5.259,12.62H7.421ZM75.313,72.969a2.346,2.346,0,0,1-2.344,2.344H7.031a2.346,2.346,0,0,1-2.344-2.344V63.594A2.346,2.346,0,0,1,7.031,61.25H72.969a2.346,2.346,0,0,1,2.344,2.344Zm0-18.75a2.346,2.346,0,0,1-2.344,2.344H7.031a2.346,2.346,0,0,1-2.344-2.344V44.844A2.346,2.346,0,0,1,7.031,42.5H72.969a2.346,2.346,0,0,1,2.344,2.344Zm0-18.75a2.346,2.346,0,0,1-2.344,2.344H7.031a2.346,2.346,0,0,1-2.344-2.344V25.781a2.34,2.34,0,0,1,2.344-2.344H72.969a2.34,2.34,0,0,1,2.344,2.344Z"/><g transform="translate(23.438 65.938)"><path class="a" d="M194.844,422h-42.5a2.344,2.344,0,0,0,0,4.688h42.5a2.344,2.344,0,0,0,0-4.687Z" transform="translate(-150 -422)"/></g><g transform="translate(23.438 28.125)"><path class="a" d="M194.844,180h-42.5a2.344,2.344,0,0,0,0,4.688h42.5a2.344,2.344,0,0,0,0-4.687Z" transform="translate(-150 -180)"/></g><g transform="translate(9.375 28.125)"><path class="a" d="M62.344,180A2.344,2.344,0,0,0,60,182.344a2.362,2.362,0,1,0,4.688,0A2.344,2.344,0,0,0,62.344,180Z" transform="translate(-60 -180)"/></g><g transform="translate(23.438 47.188)"><path class="a" d="M194.844,302h-42.5a2.344,2.344,0,0,0,0,4.688h42.5a2.344,2.344,0,0,0,0-4.687Z" transform="translate(-150 -302)"/></g><g transform="translate(9.375 47.188)"><circle class="a" cx="2.5" cy="2.5" r="2.5" transform="translate(-0.375 -0.188)"/></g><g transform="translate(9.375 65.938)"><circle class="a" cx="2.5" cy="2.5" r="2.5" transform="translate(-0.375 0.063)"/></g></svg>