<svg xmlns="http://www.w3.org/2000/svg" width="833.982" height="519.115" viewBox="0 0 833.982 519.115">
  <g id="logo-bg" transform="translate(833.982 519.115) rotate(180)" opacity="0.06">
    <path id="Path_1" data-name="Path 1" d="M588.341,446.37s78.4,134.111,210.451,33.014l80.466,81.5s-158.869,169.187-348.687,0C530.571,560.88,573.9,521.678,588.341,446.37Z" transform="translate(-45.277 -137.474)" fill="#fff"/>
    <path id="Path_2" data-name="Path 2" d="M1063.509,476.139s-75.737-81.808-184.34-7.177c0,0-42.871,48.8-42.871,83.244S835.346,723,702.925,797.632s-303.9,20.094-366.78-130.608S377.588,351.273,516.2,318.264s242.93,69.25,242.93,69.25-65.911,78.579-64.3,156.619L556.572,681.379s-65.915.537-90.563-86.116l153.8-151.775S462.256,407.965,444.037,565.123c0,0-5.358,124.866,126.466,144.242,0,0,64.32,2.913,108.526-47.409,19.891-22.644,30.789-51.843,32.267-82,1.635-33.42,9.02-99.053,40.692-148.3,44.3-68.893,221.494-202.37,399.405-41.622Z" transform="translate(-317.412 -311.701)" fill="#fff"/>
  </g>
</svg>
