<svg xmlns="http://www.w3.org/2000/svg" width="365.258" height="284.248" viewBox="0 0 365.258 284.248"><defs><style>.a{fill:#f7ede1;}.b{fill:#e5d6c6;}.c{fill:#f6b452;}.d{fill:#edeceb;}.e{fill:#fe6125;}.f{fill:#2d5aa5;}.g{fill:#2b569f;}.h{fill:#fefefe;}.i{fill:#cfecfa;}.j{fill:#f2dac0;}.k{fill:#e5c09c;}.l{fill:#8edcef;}.m{fill:#68cddd;}.n{fill:#efca2e;}.o{fill:#eda02f;}.p{fill:#965626;opacity:0.15;}.q{fill:#f7aa66;}.r{fill:#8befef;}.s{fill:#ea914e;}.t{fill:#73d8d5;}.u{fill:#f43825;}.v{fill:#f75048;}.w{fill:#ffeae9;}.x{fill:#e8d1d1;}.y{fill:#e53333;}.z{fill:#aaf7f5;}</style></defs><g transform="translate(-34.627 -67.729)"><g transform="translate(34.627 215.503)"><path class="a" d="M399.885,354.175,269.5,376.478,148.555,359.322,34.627,376.478,70.5,257.159,154.56,240l102.934,17.156,95.214-14.582Z" transform="translate(-34.627 -240.004)"/><path class="b" d="M276.382,258.316l12.009,119.318L167.444,360.479l6.131-112.34Z" transform="translate(-53.516 -241.161)"/><g transform="translate(0 0)"><path class="c" d="M154.686,246.982l101.68,16.946,1.083.18,1.084-.166,89.934-13.774,41.727,98.7L269.4,369.532l-119.884-17-.993-.141-.992.149L44.317,368.078,75.888,263.063l78.8-16.081M154.559,240,70.5,257.16,34.627,376.478l113.928-17.156L269.5,376.478l130.383-22.3-47.178-111.6L257.493,257.16,154.559,240Z" transform="translate(-34.627 -240.004)"/></g><path class="d" d="M174.444,240l.126,6.978,103.523,17.29-.716-7.112Z" transform="translate(-54.512 -240.004)"/><path class="d" d="M287.7,388.229l.692,6.879L167.444,377.953V371Z" transform="translate(-53.516 -258.634)"/></g><g transform="translate(184.404 67.729)"><path class="e" d="M282.775,104.5c0,20.307-36.769,66.937-36.769,66.937S209.237,124.8,209.237,104.5a36.769,36.769,0,1,1,73.538,0Z" transform="translate(-209.237 -67.729)"/><path class="f" d="M282.775,104.5c0,20.307-36.769,66.937-36.769,66.937S209.237,124.8,209.237,104.5a36.769,36.769,0,1,1,73.538,0Z" transform="translate(-209.237 -67.729)"/><path class="g" d="M252.1,67.729V171.435s36.769-46.63,36.769-66.937A36.769,36.769,0,0,0,252.1,67.729Z" transform="translate(-215.333 -67.729)"/><g transform="translate(19.723 17.761)"><circle class="h" cx="17.046" cy="17.046" r="17.046"/></g><g transform="translate(19.723 17.761)"><circle class="h" cx="17.046" cy="17.046" r="17.046"/></g><path class="i" d="M252.1,88.435v34.092a17.046,17.046,0,0,0,0-34.092Z" transform="translate(-215.333 -70.674)"/></g><path class="j" d="M65.4,371.662l17.156-43.81,29.165-4.231-5.147,40.643Z" transform="translate(-4.377 -36.393)"/><path class="j" d="M124.4,343.554v20.033h37.493l1.093-20.033Z" transform="translate(-12.767 -39.227)"/><path class="k" d="M169.2,343.554l7.448,1.144,7.434,22.32-15.975-3.431Z" transform="translate(-18.984 -39.227)"/><path class="j" d="M65.744,318.939l37.019-6.44,7.72-21.445-38.626,7.472Z" transform="translate(-4.425 -31.761)"/><path class="j" d="M117.9,305.634s33.025-3.419,42.46-18.871L149,270.679l-23.589,7.934Z" transform="translate(-11.843 -28.863)"/><path class="j" d="M112.425,284.672l3.431-14.368-35.383,4.074L79.4,290.784Z" transform="translate(-6.368 -28.81)"/><path class="j" d="M82.723,265.025l46.32-9.221-4.289,7.077-43.1,5.683Z" transform="translate(-6.688 -26.748)"/><path class="j" d="M60.7,332.222l10.865-2L53.263,379.4,46.4,380.83Z" transform="translate(-1.674 -37.331)"/><path class="j" d="M122.385,315.787l1.729,17.985L163,332.056l1.7-31.151Z" transform="translate(-12.481 -33.162)"/><path class="k" d="M171.43,300.9l18.6,7.419-4,29.165-16.3-5.433Z" transform="translate(-19.214 -33.162)"/><path class="k" d="M161.734,255.569l9.169,27.506,17.994,6.591,4.575-32.31-20.835-3.206Z" transform="translate(-18.077 -26.512)"/><path class="j" d="M172.637,254.15,170.9,283.075l-9.169-27.506Z" transform="translate(-18.077 -26.512)"/><path class="k" d="M204.671,253.162v20.923l30.994-2.318-2.453-13.838Z" transform="translate(-24.183 -26.372)"/><path class="k" d="M203.424,282.242,195.9,300.094s30.285,7.727,38.517,3.649V293.661l5.775-1.179v-7.4Z" transform="translate(-22.936 -30.508)"/><path class="k" d="M198.734,311.429l2.288,27.556h42.889V327.548s-5.576-7.863-5.576-12.581Z" transform="translate(-23.339 -34.659)"/><path class="k" d="M198.331,372.092l-2.43-15.658,19.3-4.809,22.731,3.094L252.1,379.794Z" transform="translate(-22.936 -40.375)"/><path class="k" d="M251.4,265.057l8.589,14.482,30.231-.212L289,267.212l-25.918-3.971Z" transform="translate(-30.829 -27.806)"/><path class="j" d="M295.236,267.411l1.219,12.115,21.224-3.809-4.146-11.08Z" transform="translate(-37.063 -28.004)"/><path class="k" d="M256.608,290.6l-1,2.681L251.4,304.544l41.362,3.535-2.034-20.208Z" transform="translate(-30.829 -31.308)"/><path class="j" d="M297.249,287.07l16.714-4.828-7.111,25.036h-7.569Z" transform="translate(-37.35 -30.508)"/><path class="k" d="M251.4,319.175l8.589,24.018h24.865l-8.864-23.582-19.382-2.724Z" transform="translate(-30.829 -35.435)"/><path class="k" d="M299.929,322.229l-4.693,1.143,6.879,20.58Z" transform="translate(-37.063 -36.195)"/><path class="j" d="M300.707,321.47l17.751-4.582,6.862,19.157-22.427,7.148Z" transform="translate(-37.842 -35.435)"/><path class="j" d="M314.956,354.19,304.23,356.8l2.923,29.039L338.4,370.014,325.821,356.8Z" transform="translate(-38.343 -40.74)"/><path class="k" d="M297.58,356.947l-11.862-1.716H265.995l-8.523,10.991S272.3,383.812,300.5,385.986Z" transform="translate(-31.693 -40.888)"/><path class="j" d="M388.879,253.162l-43.461,5.483-17.156,9.827L321.4,288.346l76.629-14.261Z" transform="translate(-40.785 -26.372)"/><path class="j" d="M406.293,287.871H382.275L359.4,299.051l26.877,18.292,32.6-2.295Z" transform="translate(-46.189 -31.308)"/><path class="j" d="M324.148,300.144l22.8-4.59v13.617l7.434,9.264S326.505,333.9,324.148,300.144Z" transform="translate(-41.175 -32.401)"/><path class="j" d="M369.335,340.625l-5.815,16.728L359.4,374.08,392,366.6l4.289-23.464Z" transform="translate(-46.189 -38.811)"/><path class="j" d="M429.419,330.221l13.152,29.165-33.733,7.666L405.4,348.58S414.55,331.364,429.419,330.221Z" transform="translate(-52.731 -37.331)"/><path class="l" d="M413.8,326.2c-21.9,9.511-37.3,8.972-47.512,6.511-4.536-1.093-7.21-2.361-12.252-2.79-15.588-1.326-29.007,7.484-38.072,15.367l-11.869,6.585-.835-8.3a58.42,58.42,0,0,0,8.988-3.717c6.963-3.587,8.833-6.346,13.439-9.436,10.461-7.017,22.2-7.135,27.163-7.185,7.057-.071,11.16,1.288,15.727,2.149,9.412,1.773,23.271,1.894,42.317-5.829Z" transform="translate(-38.204 -35.814)"/><path class="m" d="M284.266,346.084l.835,8.3s-11.85.582-31.585-1.716-33.746.684-42.037-3.094-41.749-2.347-41.749-2.347V337.221s34.859.286,44.594,5.432S269.845,341.224,284.266,346.084Z" transform="translate(-19.214 -38.327)"/><path class="l" d="M154.561,334.178s-19.726.572-34.308,3.146,1-14.776-4.575-20.023-50.315,5.161-50.315,5.161l-2.3,7.713s38.029-10.007,42.031-6.29-8.291,17.276-.571,22.648,50.034-2.347,50.034-2.347Z" transform="translate(-4.045 -35.283)"/><path class="m" d="M264.318,335.629a39.963,39.963,0,0,1-14.01-26.877c-1.716-17.728,5.661-13.6,5.208-24.89s-8.523-23.631-8.523-23.631l-3.28-.548s10.312,17.016,8.311,24.179-8.346,22.617-5.031,29.472,10.749,22.3,13.322,23.725S264.318,335.629,264.318,335.629Z" transform="translate(-29.736 -27.299)"/><path class="n" d="M72.871,296.559s35.052-11.933,48.49-10.2,36.294,14.736,36.294,14.736l.461-12.005s-24.46-9.292-36.183-11.58-46.606,10.008-46.606,10.008Z" transform="translate(-5.439 -29.794)"/><path class="o" d="M172.173,287.757s52.741,22.731,67.9,22.16,37.6-42.046,37.6-42.046l1.219,12.114s-10.227,25.829-24.81,31.168c8.025,5.1,12.264,10.578,14.663,14.717,2.5,4.312,3.14,7.416,6.586,12.274a43.709,43.709,0,0,0,10.459,10.375l.888,11.434a79.826,79.826,0,0,1-11.651-11.294c-8.86-10.542-9.644-17.09-16.969-22.979-6.61-5.315-13.726-6.218-18.843-7.043-13.646-2.2-34.29-7.271-67.5-18.875Z" transform="translate(-19.496 -28.464)"/><path class="n" d="M295.236,267.7l6.879-1.043-5.66,13.158Z" transform="translate(-37.063 -28.291)"/><path class="n" d="M304.7,347.656c5.642,1.814,18.718,5.07,28.909-1.645,5.991-3.948,8.588-9.968,13.783-22.009,6.088-14.111,4.222-16.227,9.806-27.458,2.923-5.881,6.988-14.058,15.291-21.719,0,0,2.106-1.944,17.256-13.026h0l3.455,7.9a73.233,73.233,0,0,0-19.49,19.981,72.262,72.262,0,0,0-7.22,14.28l38.845-5.063,1.446,3.125-39.148,6.116a108.186,108.186,0,0,0-8.831,17.51c-2.421,6.117-2.8,8.7-4.822,13.139a55.228,55.228,0,0,1-13.51,18.085l9.971,8.7-15.975,1.949-6-4.655s-19.4.761-22.874-3.779Z" transform="translate(-38.409 -27.6)"/><path class="n" d="M155.356,282.22s13.48-14.137,15.317-34.081l-11.029,2.072s-1.963,20.158-12.6,28.307Z" transform="translate(-15.988 -25.658)"/><path class="n" d="M159.873,264.736s-9.613-4.518-9.721-11.574h-1.5s1.791,10.615,10.438,12.981S159.873,264.736,159.873,264.736Z" transform="translate(-16.216 -26.372)"/><path class="p" d="M325.595,317.989l.039,6.853,3.532,2.044H221.938l-3.532-2.044-23.65-6.853-.432-.25c-.863-.5.425-.9,2.874-.9s5.136.4,6,.9l.432.25c-.752-.435-.223-.814,1.185-1.01l-.64-.371-9.515-10.473H293.3l18.1,10.473.636.368a14.444,14.444,0,0,1,4.7,1.013l-.433-.25c-.862-.5.425-.9,2.875-.9s5.136.4,6,.9l.432.25Z" transform="translate(-22.674 -33.906)"/><g transform="translate(155.744 183.956)"><rect class="q" width="107.229" height="91.841" transform="translate(11.805 10.034)"/><rect class="r" width="88.851" height="76.101" transform="translate(20.994 19.74)"/><rect class="s" width="107.229" height="40.424" transform="translate(11.805 10.034)"/><rect class="t" width="88.851" height="30.717" transform="translate(20.994 19.74)"/><rect class="u" width="105.65" height="10.034" transform="translate(11.805)"/><rect class="g" width="107.229" height="10.034" transform="translate(11.805)"/><path class="v" d="M293.279,214.923H187.63l-11.805,33.643h129.26Z" transform="translate(-175.825 -204.89)"/><path class="w" d="M196.483,214.923H187.63l-11.805,33.643h8.853Z" transform="translate(-175.825 -204.89)"/><path class="w" d="M220.072,214.923h-8.853l-7.87,33.643H212.2Z" transform="translate(-179.739 -204.89)"/><path class="w" d="M243.662,214.923h-8.853l-3.935,33.643h8.853Z" transform="translate(-183.654 -204.89)"/><path class="w" d="M267.252,214.923H258.4l3.935,33.643h8.853Z" transform="translate(-187.568 -204.89)"/><path class="w" d="M290.189,214.923h-8.853l7.87,33.643h8.853Z" transform="translate(-190.83 -204.89)"/><path class="w" d="M313.126,214.923h-8.853l11.805,33.643h8.853Z" transform="translate(-194.092 -204.89)"/><path class="x" d="M180.261,259.81h0a4.436,4.436,0,0,1-4.436-4.436v-1.229H184.7v1.229A4.436,4.436,0,0,1,180.261,259.81Z" transform="translate(-175.825 -210.467)"/><path class="y" d="M195.24,259.81h-3.4a5.666,5.666,0,0,1-5.667-5.666h14.737A5.665,5.665,0,0,1,195.24,259.81Z" transform="translate(-177.296 -210.467)"/><path class="x" d="M207.785,259.81h0a4.436,4.436,0,0,1-4.436-4.436v-1.229h8.874v1.229A4.437,4.437,0,0,1,207.785,259.81Z" transform="translate(-179.739 -210.467)"/><path class="y" d="M222.764,259.81h-3.4a5.665,5.665,0,0,1-5.666-5.666h14.737A5.666,5.666,0,0,1,222.764,259.81Z" transform="translate(-181.21 -210.467)"/><path class="x" d="M235.31,259.81h0a4.436,4.436,0,0,1-4.436-4.436v-1.229h8.873v1.229A4.436,4.436,0,0,1,235.31,259.81Z" transform="translate(-183.654 -210.467)"/><path class="y" d="M254.224,259.81h-7.339a5.666,5.666,0,0,1-5.667-5.666H259.89A5.666,5.666,0,0,1,254.224,259.81Z" transform="translate(-185.125 -210.467)"/><path class="x" d="M267.422,259.81h0a4.436,4.436,0,0,1-4.436-4.436v-1.229h8.873v1.229A4.436,4.436,0,0,1,267.422,259.81Z" transform="translate(-188.221 -210.467)"/><path class="y" d="M282.4,259.81H279a5.666,5.666,0,0,1-5.667-5.666h14.737A5.665,5.665,0,0,1,282.4,259.81Z" transform="translate(-189.692 -210.467)"/><path class="x" d="M294.947,259.81h0a4.437,4.437,0,0,1-4.437-4.436v-1.229h8.874v1.229A4.436,4.436,0,0,1,294.947,259.81Z" transform="translate(-192.135 -210.467)"/><path class="y" d="M309.925,259.81h-3.4a5.665,5.665,0,0,1-5.666-5.666h14.737A5.666,5.666,0,0,1,309.925,259.81Z" transform="translate(-193.606 -210.467)"/><path class="x" d="M0,0H8.873a0,0,0,0,1,0,0V1.229A4.437,4.437,0,0,1,4.437,5.666h0A4.437,4.437,0,0,1,0,1.229V0A0,0,0,0,1,0,0Z" transform="translate(121.985 43.676)"/></g><path class="z" d="M200.3,307.433h11.49l77.362-45.384h-11.47Z" transform="translate(-23.562 -27.636)"/></g></svg>