<svg xmlns="http://www.w3.org/2000/svg" width="64.453" height="100" viewBox="0 0 64.453 100"><defs><style>.a{fill:#f6b452;}</style></defs><path class="a" d="M8.789,0A8.8,8.8,0,0,0,0,8.789V91.211A8.8,8.8,0,0,0,8.789,100H55.664a8.8,8.8,0,0,0,8.789-8.789V8.789A8.8,8.8,0,0,0,55.664,0Zm49.8,76.563H5.859V17.578H58.594Zm-2.93,17.578H8.789a2.933,2.933,0,0,1-2.93-2.93V82.422H29.3v2.93a2.93,2.93,0,0,0,5.859,0v-2.93H58.594v8.789A2.933,2.933,0,0,1,55.664,94.141Zm2.93-85.352v2.93H5.859V8.789a2.933,2.933,0,0,1,2.93-2.93H55.664A2.933,2.933,0,0,1,58.594,8.789Zm0,0"/></svg>