<svg xmlns="http://www.w3.org/2000/svg" width="624.921" height="376.252" viewBox="0 0 624.921 376.252"><defs><style>.a{fill:#e6e6e6;}.b{fill:#fff;}.c{fill:#3f3d56;}.d{fill:#f6b452;}.e{fill:#2b569f;}</style></defs><g transform="translate(0 0)"><path class="a" d="M837.306,439.887a9.5,9.5,0,0,1-9.452,9.551H411.992a9.5,9.5,0,0,1-9.452-9.551V155.826a9.5,9.5,0,0,1,9.452-9.551H827.854a9.5,9.5,0,0,1,9.452,9.551h0Z" transform="translate(-212.385 -146.275)"/><path class="b" d="M835.59,438.368a9.235,9.235,0,0,1-9.235,9.235h-406.2a9.235,9.235,0,0,1-9.235-9.235V163.74a9.235,9.235,0,0,1,9.235-9.235H826.373a9.235,9.235,0,0,1,9.217,9.235Z" transform="translate(-215.575 -149.407)"/><path class="a" d="M347.062,27.48H728.746a5.482,5.482,0,0,1,5.482,5.482V290.184a5.482,5.482,0,0,1-5.482,5.482H347.062a5.482,5.482,0,0,1-5.482-5.482V32.962A5.482,5.482,0,0,1,347.062,27.48Z" transform="translate(-130.007 -10.459)"/><path class="b" d="M354.862,37.44H726.468a5.482,5.482,0,0,1,5.482,5.482v243.5a5.482,5.482,0,0,1-5.482,5.482H354.862a5.482,5.482,0,0,1-5.482-5.482V42.922A5.482,5.482,0,0,1,354.862,37.44Z" transform="translate(-132.976 -14.25)"/><path class="c" d="M854.9,405.289a10.45,10.45,0,0,1-4.245-.9,5.15,5.15,0,0,1-.885-.5l-27.007-19.01h0a10.449,10.449,0,0,1-4.434-8.542V350.4a10.447,10.447,0,0,1,4.432-8.541l27.009-19.012a5.151,5.151,0,0,1,.885-.5,10.449,10.449,0,0,1,14.693,9.547v62.941A10.449,10.449,0,0,1,854.9,405.286Z" transform="translate(-370.638 -212.947)"/><path class="c" d="M716.405,407.252H641.082c-15.367-.013-27.821-9.946-27.837-22.2V335.416c.016-12.258,12.47-22.191,27.837-22.2H716.6c15.258.014,27.622,9.877,27.64,22.047v49.788C744.226,397.306,731.773,407.24,716.405,407.252Z" transform="translate(-292.581 -209.812)"/><circle class="a" cx="22.402" cy="22.402" r="22.402" transform="translate(535.599 217.189)"/><path class="b" d="M1003.8,526.067l-17.857-10.31a.464.464,0,0,0-.7.4v20.619a.464.464,0,0,0,.7.4l17.857-10.31a.464.464,0,0,0,0-.8l-17.857-10.31a.464.464,0,0,0-.7.4v20.619a.464.464,0,0,0,.7.4l17.857-10.31a.464.464,0,0,0,0-.8Z" transform="translate(-434.167 -286.878)"/><path class="a" d="M682.306,494.887a9.5,9.5,0,0,1-9.452,9.551H256.992a9.5,9.5,0,0,1-9.452-9.551V210.826a9.5,9.5,0,0,1,9.452-9.551H672.854a9.5,9.5,0,0,1,9.452,9.551h0Z" transform="translate(-153.392 -167.208)"/><path class="b" d="M680.59,493.368a9.235,9.235,0,0,1-9.235,9.235h-406.2a9.235,9.235,0,0,1-9.235-9.235V218.74a9.235,9.235,0,0,1,9.235-9.235H671.373a9.235,9.235,0,0,1,9.217,9.235Z" transform="translate(-156.581 -170.341)"/><path class="a" d="M192.062,82.48H573.746a5.482,5.482,0,0,1,5.482,5.482V345.184a5.482,5.482,0,0,1-5.482,5.482H192.062a5.482,5.482,0,0,1-5.482-5.482V87.962A5.482,5.482,0,0,1,192.062,82.48Z" transform="translate(-71.013 -31.392)"/><path class="b" d="M199.862,92.44H571.468a5.482,5.482,0,0,1,5.482,5.482v243.5a5.482,5.482,0,0,1-5.482,5.482H199.862a5.482,5.482,0,0,1-5.482-5.482V97.922A5.482,5.482,0,0,1,199.862,92.44Z" transform="translate(-73.982 -35.183)"/><path class="c" d="M699.9,460.289a10.448,10.448,0,0,1-4.245-.9,5.145,5.145,0,0,1-.885-.5l-27.007-19.01h0a10.449,10.449,0,0,1-4.434-8.542V405.4a10.448,10.448,0,0,1,4.432-8.541l27.009-19.011a5.147,5.147,0,0,1,.885-.5,10.449,10.449,0,0,1,14.693,9.547v62.941A10.449,10.449,0,0,1,699.9,460.286Z" transform="translate(-311.644 -233.88)"/><path class="c" d="M561.405,462.252H486.082c-15.367-.013-27.821-9.946-27.837-22.2V390.416c.016-12.258,12.47-22.191,27.837-22.2H561.6c15.258.014,27.622,9.877,27.64,22.047v49.788C589.226,452.306,576.773,462.24,561.405,462.252Z" transform="translate(-233.587 -230.745)"/><circle class="a" cx="22.402" cy="22.402" r="22.402" transform="translate(439.592 251.256)"/><path class="b" d="M848.8,581.067l-17.857-10.31a.464.464,0,0,0-.7.4v20.619a.464.464,0,0,0,.7.4L848.8,581.87a.464.464,0,0,0,0-.8l-17.857-10.31a.464.464,0,0,0-.7.4v20.619a.464.464,0,0,0,.7.4L848.8,581.87a.464.464,0,0,0,0-.8Z" transform="translate(-375.174 -307.811)"/><path class="a" d="M530.306,557.887a9.5,9.5,0,0,1-9.452,9.551H104.992a9.5,9.5,0,0,1-9.452-9.551V273.826a9.5,9.5,0,0,1,9.452-9.551H520.854a9.5,9.5,0,0,1,9.452,9.551h0Z" transform="translate(-95.54 -191.186)"/><path class="b" d="M528.59,556.368a9.235,9.235,0,0,1-9.235,9.235h-406.2a9.235,9.235,0,0,1-9.235-9.235V281.74a9.235,9.235,0,0,1,9.235-9.235H519.373a9.235,9.235,0,0,1,9.217,9.235Z" transform="translate(-98.729 -194.319)"/><path class="a" d="M40.062,145.48H421.746a5.482,5.482,0,0,1,5.482,5.482V408.184a5.482,5.482,0,0,1-5.482,5.482H40.062a5.482,5.482,0,0,1-5.482-5.482V150.962a5.482,5.482,0,0,1,5.482-5.482Z" transform="translate(-13.161 -55.37)"/><path class="b" d="M47.862,155.44H419.468a5.482,5.482,0,0,1,5.482,5.482v243.5a5.482,5.482,0,0,1-5.482,5.482H47.862a5.482,5.482,0,0,1-5.482-5.482v-243.5a5.482,5.482,0,0,1,5.482-5.482Z" transform="translate(-16.13 -59.161)"/><path class="d" d="M547.9,523.289a10.449,10.449,0,0,1-4.245-.9,5.153,5.153,0,0,1-.885-.5l-27.007-19.01h0a10.449,10.449,0,0,1-4.434-8.542V468.4a10.448,10.448,0,0,1,4.432-8.541l27.009-19.011a5.15,5.15,0,0,1,.885-.5,10.449,10.449,0,0,1,14.693,9.547v62.94A10.449,10.449,0,0,1,547.9,523.286Z" transform="translate(-253.793 -257.858)"/><path class="d" d="M409.405,525.252H334.082c-15.367-.013-27.821-9.946-27.837-22.2V453.416c.016-12.258,12.47-22.191,27.837-22.2H409.6c15.258.014,27.622,9.877,27.64,22.047v49.788C437.226,515.306,424.773,525.24,409.405,525.252Z" transform="translate(-175.735 -254.724)"/><circle class="e" cx="22.402" cy="22.402" r="22.402" transform="translate(345.444 290.278)"/><path class="b" d="M696.8,644.067l-17.857-10.31a.464.464,0,0,0-.7.4v20.619a.464.464,0,0,0,.7.4L696.8,644.87a.464.464,0,0,0,0-.8l-17.857-10.31a.464.464,0,0,0-.7.4v20.619a.464.464,0,0,0,.7.4L696.8,644.87a.464.464,0,0,0,0-.8Z" transform="translate(-317.323 -331.789)"/></g></svg>