<svg xmlns="http://www.w3.org/2000/svg" width="556.037" height="399.857" viewBox="0 0 556.037 399.857"><defs><style>.a{fill:#ebebeb;}.b,.f{fill:none;stroke:#263238;stroke-miterlimit:10;}.b{stroke-width:3px;}.c{fill:#2c4f8a;}.d,.h,.k,.m,.p,.q,.r,.x,.y{fill:#fff;}.e{fill:#e0e0e0;}.f{stroke-width:2px;}.g{fill:#263238;}.h,.l,.o{opacity:0.2;}.i,.y{opacity:0.3;}.j{fill:#407bff;}.k{opacity:0.6;}.m{opacity:0.5;}.n,.r,.v{opacity:0.1;}.p{opacity:0.8;}.q,.u{opacity:0.4;}.s,.x{opacity:0.7;}.t{fill:#fab27b;}.w{fill:#ed893e;}</style></defs><g transform="translate(0 -54.953)"><g transform="translate(0 54.953)"><rect class="a" width="36.834" height="0.278" transform="translate(463.489 382.044)"/><rect class="a" width="9.668" height="0.278" transform="translate(358.674 385.061)"/><rect class="a" width="21.343" height="0.278" transform="translate(441.033 371.717)"/><rect class="a" width="48.034" height="0.278" transform="translate(58.338 373.585)"/><rect class="a" width="7.043" height="0.278" transform="translate(116.274 373.585)"/><rect class="a" width="104.174" height="0.278" transform="translate(146.206 378.281)"/><path class="a" d="M259.3,369.5H44.555a6.355,6.355,0,0,1-6.348-6.348V61.3a6.355,6.355,0,0,1,6.348-6.347H259.3a6.354,6.354,0,0,1,6.347,6.347V363.152A6.355,6.355,0,0,1,259.3,369.5ZM44.555,55.231a6.076,6.076,0,0,0-6.07,6.069V363.152a6.076,6.076,0,0,0,6.07,6.07H259.3a6.076,6.076,0,0,0,6.069-6.07V61.3a6.075,6.075,0,0,0-6.069-6.069Z" transform="translate(4.282 -54.953)"/><path class="a" d="M475.592,369.5H260.852a6.355,6.355,0,0,1-6.347-6.348V61.3a6.354,6.354,0,0,1,6.347-6.347h214.74A6.355,6.355,0,0,1,481.94,61.3V363.152A6.355,6.355,0,0,1,475.592,369.5ZM260.852,55.231a6.075,6.075,0,0,0-6.069,6.069V363.152a6.076,6.076,0,0,0,6.069,6.07h214.74a6.077,6.077,0,0,0,6.07-6.07V61.3a6.076,6.076,0,0,0-6.07-6.069Z" transform="translate(28.523 -54.953)"/><rect class="a" width="556.037" height="0.278" transform="translate(0 364.144)"/></g><g transform="translate(279.001 294.87)"><path class="b" d="M260.487,275.493a4.8,4.8,0,1,1-4.8-4.8A4.8,4.8,0,0,1,260.487,275.493Z" transform="translate(-250.883 -270.691)"/><line class="b" x2="7.664" y2="7.674" transform="translate(8.109 8.273)"/></g><g transform="translate(55.89 67.491)"><g transform="translate(368.502 3.846)"><circle class="c" cx="33.342" cy="33.342" r="33.342" transform="translate(0 65.823) rotate(-80.783)"/><g transform="translate(4.255 4.152)"><path class="d" d="M419.539,141.6a34.092,34.092,0,0,1,0-68.185v1.5a32.592,32.592,0,0,0,0,65.184Z" transform="translate(-385.448 -73.419)"/><g transform="translate(16.671)"><g transform="translate(17.42)"><path class="d" d="M416.1,141.6v-1.5a32.592,32.592,0,1,0,0-65.184v-1.5a34.092,34.092,0,1,1,0,68.185Z" transform="translate(-416.103 -73.419)"/></g><g transform="translate(17.016 0.127)"><path class="d" d="M433.565,107.506h-1.5c0-11.05-5.607-25.833-16.325-32.711l.809-1.262C427.72,80.7,433.565,96.049,433.565,107.506Z" transform="translate(-415.74 -73.533)"/><g transform="translate(0 32.955)"><path class="d" d="M416.549,137.141l-.809-1.263c10.718-6.876,16.325-21.66,16.325-32.711h1.5C433.565,114.625,427.72,129.974,416.549,137.141Z" transform="translate(-415.74 -103.167)"/></g></g><g transform="translate(0 0.118)"><path class="d" d="M401.939,107.5h-1.5c0-11.458,5.845-26.805,17.014-33.975l.812,1.263C407.546,81.665,401.939,96.45,401.939,107.5Z" transform="translate(-400.439 -73.525)"/><g transform="translate(0 32.957)"><path class="d" d="M417.453,137.134c-11.169-7.168-17.014-22.516-17.014-33.973h1.5c0,11.048,5.607,25.833,16.325,32.711Z" transform="translate(-400.439 -103.161)"/></g></g><g transform="translate(16.67 0.75)"><rect class="d" width="1.5" height="66.685"/></g></g><g transform="translate(0.765 15.582)"><g transform="translate(5.105)"><rect class="d" width="56.445" height="1.5"/></g><g transform="translate(0 18.328)"><rect class="d" width="66.655" height="1.501"/></g><g transform="translate(5.851 36.642)"><rect class="d" width="54.953" height="1.5"/></g></g></g></g><path class="e" d="M100.675,96.012a22.619,22.619,0,0,0-.979-6.619l5.806-5.107-3.655-6.333L94.52,80.43a22.775,22.775,0,0,0-11.462-6.624l-1.522-7.58H74.224l-1.517,7.58A22.784,22.784,0,0,0,61.241,80.43l-7.329-2.478-3.655,6.333,5.806,5.107a22.889,22.889,0,0,0,0,13.243l-5.806,5.1,3.655,6.333,7.329-2.478a22.831,22.831,0,0,0,11.467,6.628l1.517,7.581h7.311l1.522-7.581a22.822,22.822,0,0,0,11.462-6.628l7.327,2.478,3.655-6.333-5.806-5.1A22.66,22.66,0,0,0,100.675,96.012Zm-22.8,12.305A11.849,11.849,0,1,1,89.729,96.468,11.846,11.846,0,0,1,77.88,108.317Z" transform="translate(-50.257 -66.227)"/><g transform="translate(43.376 38.613)"><path class="e" d="M127.654,123.63a17.215,17.215,0,0,0-.745-5.04l4.422-3.889-2.784-4.823-5.58,1.887a17.333,17.333,0,0,0-8.728-5.043l-1.159-5.773h-5.568l-1.154,5.773a17.346,17.346,0,0,0-8.732,5.043l-5.58-1.887L89.262,114.7l4.422,3.889a17.429,17.429,0,0,0,0,10.083l-4.422,3.886,2.784,4.822,5.58-1.887a17.385,17.385,0,0,0,8.732,5.048l1.154,5.773h5.568l1.159-5.773a17.372,17.372,0,0,0,8.728-5.048l5.58,1.887,2.784-4.822-4.422-3.886A17.243,17.243,0,0,0,127.654,123.63ZM110.3,133a9.023,9.023,0,1,1,9.022-9.022A9.02,9.02,0,0,1,110.3,133Z" transform="translate(-89.262 -100.949)"/></g><g transform="translate(158.383 26.632)"><path class="a" d="M199.278,96.158l2.947-5.983,2.956,5.978,6.6.954-4.772,4.659,1.133,6.572-5.906-3.1-5.9,3.108,1.122-6.574-4.78-4.651Z" transform="translate(-192.678 -90.175)"/><path class="a" d="M223.444,96.158l2.947-5.983,2.956,5.978,6.6.954-4.772,4.659,1.133,6.572-5.906-3.1-5.9,3.108,1.122-6.574-4.779-4.651Z" transform="translate(-189.97 -90.175)"/><path class="a" d="M247.61,96.158l2.947-5.983,2.956,5.978,6.6.954-4.772,4.659,1.133,6.572-5.906-3.1-5.9,3.108,1.122-6.574-4.78-4.651Z" transform="translate(-187.262 -90.175)"/><path class="a" d="M271.777,96.158l2.947-5.983,2.956,5.978,6.6.954-4.772,4.659,1.133,6.572-5.906-3.1-5.9,3.108,1.122-6.574-4.78-4.651Z" transform="translate(-184.553 -90.175)"/><path class="a" d="M295.943,96.158l2.947-5.983,2.956,5.978,6.6.954-4.772,4.659,1.133,6.572-5.906-3.1-5.9,3.108,1.122-6.574-4.78-4.651Z" transform="translate(-181.845 -90.175)"/></g></g><path class="f" d="M328.239,350.017" transform="translate(36.787 33.069)"/><g transform="translate(134.307 145.001)"><g transform="translate(0 71.905)"><g transform="translate(62.312 171.494)"><path class="g" d="M179.687,407.769l-.224,2.554a2.435,2.435,0,0,0,.1.932l.009.01a1.978,1.978,0,0,0,.177.394,2.195,2.195,0,0,0,.267.355,1.614,1.614,0,0,0,.329.3,2.174,2.174,0,0,0,1.3.413h91.626a2.193,2.193,0,0,0,.652-.1,3.339,3.339,0,0,0,.418-.172,2.6,2.6,0,0,0,.84-.7,2.533,2.533,0,0,0,.234-.375,2.314,2.314,0,0,0,.249-.864l.215-2.458a2.1,2.1,0,0,0-.1-.865,2.17,2.17,0,0,0-.169-.375,2,2,0,0,0-.716-.7,2.778,2.778,0,0,0-.389-.172,1.991,1.991,0,0,0-.635-.1H251.084a4.042,4.042,0,0,1-.846-.086h-.01a3.352,3.352,0,0,1-.328-.087.07.07,0,0,1-.047-.019.03.03,0,0,1-.028-.01,2.586,2.586,0,0,1-.354-.135,1.348,1.348,0,0,1-.321-.163,2.589,2.589,0,0,1-.446-.288,3.476,3.476,0,0,1-.479-.452,3.175,3.175,0,0,1-.232-.3c-.061-.077-.112-.155-.162-.231l-.05-.086c-.01,0-.009-.01-.008-.02a1.942,1.942,0,0,1-.163-.326,2.56,2.56,0,0,1-.128-.3c-.008-.019-.016-.048-.023-.067a.62.62,0,0,0-.022-.078.138.138,0,0,1-.014-.048,1.281,1.281,0,0,1-.064-.259,2.486,2.486,0,0,1-.062-.384.032.032,0,0,1-.007-.029c-.009-.116-.018-.24-.027-.356s0-.239.012-.355l.008-.087a2.126,2.126,0,0,1,.04-.355c.021-.126.05-.24.08-.366v-.009l8.962-34.39,1.72-6.6,1.346-5.176H207.389l-2.8,5.176-3.554,6.6L180.8,404.1c-.069.135-.138.259-.207.394,0,.019,0,.029-.013.038-.071.153-.131.3-.2.452s-.123.307-.176.47c-.039.106-.076.2-.1.308A9.1,9.1,0,0,0,179.687,407.769Z" transform="translate(-176.508 -354.794)"/><path class="h" d="M275.88,408.052l-.216,2.469a2.444,2.444,0,0,1-2.4,2.2H181.654a2.172,2.172,0,0,1-2.2-2.393l.224-2.558a9.342,9.342,0,0,1,.4-2.012,10.482,10.482,0,0,1,.706-1.667l26.6-49.295h52.044L247.4,400.962a3.627,3.627,0,0,0-.135.814,3.743,3.743,0,0,0,2.96,3.983,3.686,3.686,0,0,0,.857.09h22.783A1.986,1.986,0,0,1,275.88,408.052Z" transform="translate(-176.508 -354.794)"/><g transform="translate(0 0.001)"><path class="g" d="M178.151,404.1l26.6-49.3h2.945L181.1,404.1a9.508,9.508,0,0,0-1.114,3.675l-.222,2.554a2.16,2.16,0,0,0,2.185,2.4H179a2.16,2.16,0,0,1-2.186-2.4l.224-2.554A9.488,9.488,0,0,1,178.151,404.1Z" transform="translate(-176.805 -354.795)"/></g><path class="i" d="M205.219,354.795h52.037l-3.07,11.782H198.863Z" transform="translate(-174.332 -354.795)"/></g><g transform="translate(4.905)"><path class="g" d="M125.183,208.7l0,143.091v17.344a8.119,8.119,0,0,0,8.115,8.124H355.331a8.123,8.123,0,0,0,8.115-8.124V351.789l0-143.091a8.107,8.107,0,0,0-8.116-8.115H133.307a8.115,8.115,0,0,0-4.939,1.671,5.587,5.587,0,0,0-.56.48,7.8,7.8,0,0,0-1.407,1.7,6.932,6.932,0,0,0-.663,1.326A8.109,8.109,0,0,0,125.183,208.7Z" transform="translate(-125.183 -200.584)"/><path class="j" d="M363.445,336.548V353.9a8.117,8.117,0,0,1-8.117,8.117H133.3a8.117,8.117,0,0,1-8.117-8.117V336.548Z" transform="translate(-125.183 -185.346)"/><path class="k" d="M363.445,336.548V353.9a8.117,8.117,0,0,1-8.117,8.117H133.3a8.117,8.117,0,0,1-8.117-8.117V336.548Z" transform="translate(-125.183 -185.346)"/></g><path class="j" d="M133.062,346.392h221.73a4.4,4.4,0,0,0,4.4-4.4v-132.6a4.4,4.4,0,0,0-4.4-4.4H133.062a4.4,4.4,0,0,0-4.4,4.4v132.6A4.4,4.4,0,0,0,133.062,346.392Z" transform="translate(-119.888 -200.09)"/><path class="g" d="M128.889,200.584H133.8a8.117,8.117,0,0,0-8.117,8.117V369.136a8.117,8.117,0,0,0,8.117,8.117h-4.909a8.117,8.117,0,0,1-8.117-8.117V208.7A8.117,8.117,0,0,1,128.889,200.584Z" transform="translate(-120.772 -200.584)"/><g class="l"><path class="d" d="M128.889,200.584H133.8a8.117,8.117,0,0,0-8.117,8.117V369.136a8.117,8.117,0,0,0,8.117,8.117h-4.909a8.117,8.117,0,0,1-8.117-8.117V208.7A8.117,8.117,0,0,1,128.889,200.584Z" transform="translate(-120.772 -200.584)"/></g><path class="m" d="M360.568,287.971c-5.707-1.1-14.766,2.594-16.458,8.155a8.923,8.923,0,0,0-4.281-8.63c-2.946-1.7-6.8-2.909-9.514-.856a30.246,30.246,0,0,0-10.08-30.154c-8.7-7.038-21.38-7.8-31.428-2.879a21.535,21.535,0,0,0-12.6-30.484,91.844,91.844,0,0,0-43.539-4.128c-8.461,1.252-17.093,3.9-23.245,9.84s-7.747,16.647-3.654,24.158a27.439,27.439,0,0,0-27.684,6.559,27.094,27.094,0,0,0-6.037,27.6,9.142,9.142,0,0,0-8.726-.326,8.952,8.952,0,0,0-4.846,7.146A18.384,18.384,0,0,0,128.459,295v49.93H359.214Z" transform="translate(-119.91 -198.63)"/><rect class="d" width="140.81" height="21.907" rx="9.85" transform="translate(59.37 67.421)"/><g transform="translate(64.846 71.292)"><path class="b" d="M188.687,269.493a4.8,4.8,0,1,1-4.8-4.8A4.8,4.8,0,0,1,188.687,269.493Z" transform="translate(-179.083 -264.691)"/><line class="b" x2="7.664" y2="7.674" transform="translate(8.109 8.273)"/></g><g class="n" transform="translate(164.246 4.9)"><path class="d" d="M268.466,204.99h8.529l17.685,141.4h-8.529Z" transform="translate(-268.466 -204.99)"/><path class="d" d="M301.571,346.392l-17.685-141.4h32.043l17.685,141.4Z" transform="translate(-266.738 -204.99)"/></g><path class="h" d="M193.9,402.933l-.2,2.345a2.082,2.082,0,0,0,2.106,2.309h75.877a2.456,2.456,0,0,0,2.4-2.206l.215-2.459a1.989,1.989,0,0,0-2.013-2.206H249.487a3.8,3.8,0,0,1-.846-.091H196.407A2.571,2.571,0,0,0,193.9,402.933Z" transform="translate(-112.601 -178.165)"/><path class="o" d="M180.028,401.026h70.143a3.735,3.735,0,0,1-2.965-3.985H182.165Z" transform="translate(-114.131 -178.566)"/></g><g transform="translate(101.751 108.209)"><path class="g" d="M212.269,251.2l1.537-3.41a11.512,11.512,0,0,0,6.456,2.04c2.683,0,3.773-.894,3.773-2.1,0-3.661-11.374-1.145-11.374-8.412,0-3.325,2.682-6.093,8.244-6.093a13.128,13.128,0,0,1,6.791,1.734l-1.4,3.437a11.044,11.044,0,0,0-5.421-1.537c-2.683,0-3.717,1.005-3.717,2.235,0,3.605,11.374,1.119,11.374,8.3,0,3.27-2.711,6.065-8.3,6.065A13.938,13.938,0,0,1,212.269,251.2Z" transform="translate(-212.269 -233.23)"/><path class="g" d="M244.835,249.462V253.1H229.687V233.532h14.784v3.633H234.186v4.248h9.083v3.522h-9.083v4.527Z" transform="translate(-210.317 -233.196)"/><path class="g" d="M245.4,243.348c0-5.813,4.527-10.118,10.7-10.118,6.148,0,10.7,4.276,10.7,10.118s-4.556,10.118-10.7,10.118C249.924,253.465,245.4,249.162,245.4,243.348Zm16.825,0a6.122,6.122,0,1,0-6.12,6.26A5.968,5.968,0,0,0,262.222,243.348Z" transform="translate(-208.556 -233.23)"/></g><g transform="translate(72.733 175.61)"><rect class="p" width="55.492" height="18.484" rx="3.851"/><rect class="p" width="55.492" height="18.484" rx="3.851" transform="translate(68.05)"/></g><g transform="translate(99 0)"><g transform="translate(0 33.554)"><path class="j" d="M209.94,215.649,237.5,166.665a1.111,1.111,0,0,1,1.937,0L267,215.649a1.112,1.112,0,0,1-.969,1.657H210.908A1.111,1.111,0,0,1,209.94,215.649Z" transform="translate(-209.795 -166.099)"/><path class="i" d="M209.94,215.649,237.5,166.665a1.111,1.111,0,0,1,1.937,0L267,215.649a1.112,1.112,0,0,1-.969,1.657H210.908A1.111,1.111,0,0,1,209.94,215.649Z" transform="translate(-209.795 -166.099)"/></g><g transform="translate(6.722 33.088)"><g transform="translate(1.343 53.497)"><path class="g" d="M224.551,219.28l-1.339-5.495h-4.825l-1.339,5.495A9.767,9.767,0,0,0,224.551,219.28Z" transform="translate(-217.048 -213.785)"/><path class="h" d="M218.284,213.785l-.314,1.287a9.754,9.754,0,0,0,5.452,0l-.314-1.288Z" transform="translate(-216.945 -213.785)"/><path class="q" d="M217.693,216.184c-.085.348-.17.7-.251,1.032a11.177,11.177,0,0,0,6.628,0l-.252-1.032A15.807,15.807,0,0,1,217.693,216.184Z" transform="translate(-217.004 -213.516)"/></g><path class="j" d="M226.031,218.788a13.268,13.268,0,0,1-10.191,0V177.981a17.343,17.343,0,0,1,5.1-12.3,17.343,17.343,0,0,1,5.1,12.3Z" transform="translate(-215.84 -165.679)"/><path class="j" d="M215.84,177.981V216.45a15.545,15.545,0,0,0,10.191,0V177.981a17.343,17.343,0,0,0-5.1-12.3A17.343,17.343,0,0,0,215.84,177.981Z" transform="translate(-215.84 -165.679)"/><path class="q" d="M215.84,177.981V216.45a15.545,15.545,0,0,0,10.191,0V177.981a17.343,17.343,0,0,0-5.1-12.3A17.343,17.343,0,0,0,215.84,177.981Z" transform="translate(-215.84 -165.679)"/><path class="j" d="M215.84,177.981v28.891a18.527,18.527,0,0,0,10.191,0V177.981a17.343,17.343,0,0,0-5.1-12.3A17.343,17.343,0,0,0,215.84,177.981Z" transform="translate(-215.84 -165.679)"/><path class="k" d="M215.84,177.981v28.891a18.527,18.527,0,0,0,10.191,0V177.981a17.343,17.343,0,0,0-5.1-12.3A17.343,17.343,0,0,0,215.84,177.981Z" transform="translate(-215.84 -165.679)"/><path class="j" d="M215.84,177.981v15.129a18.517,18.517,0,0,0,10.191,0v-15.13a17.343,17.343,0,0,0-5.1-12.3A17.343,17.343,0,0,0,215.84,177.981Z" transform="translate(-215.84 -165.679)"/><path class="p" d="M215.84,177.981v15.129a18.517,18.517,0,0,0,10.191,0v-15.13a17.343,17.343,0,0,0-5.1-12.3A17.343,17.343,0,0,0,215.84,177.981Z" transform="translate(-215.84 -165.679)"/><path class="j" d="M215.84,177.981v1.765a18.527,18.527,0,0,0,10.191,0v-1.766a17.343,17.343,0,0,0-5.1-12.3A17.343,17.343,0,0,0,215.84,177.981Z" transform="translate(-215.84 -165.679)"/><path class="q" d="M215.84,177.981v1.765a18.527,18.527,0,0,0,10.191,0v-1.766a17.343,17.343,0,0,0-5.1-12.3A17.343,17.343,0,0,0,215.84,177.981Z" transform="translate(-215.84 -165.679)"/><g transform="translate(32.779)"><g transform="translate(1.344 53.497)"><path class="g" d="M254.027,219.28l-1.339-5.495h-4.824l-1.339,5.495A9.764,9.764,0,0,0,254.027,219.28Z" transform="translate(-246.525 -213.785)"/><path class="h" d="M247.759,213.785l-.312,1.287a9.75,9.75,0,0,0,5.451,0l-.314-1.288Z" transform="translate(-246.422 -213.785)"/><path class="q" d="M247.169,216.184c-.085.348-.17.7-.251,1.032a11.177,11.177,0,0,0,6.628,0l-.251-1.032A15.812,15.812,0,0,1,247.169,216.184Z" transform="translate(-246.481 -213.516)"/></g><path class="j" d="M255.507,218.788a13.268,13.268,0,0,1-10.191,0V177.981a17.343,17.343,0,0,1,5.1-12.3,17.343,17.343,0,0,1,5.1,12.3Z" transform="translate(-245.316 -165.679)"/><path class="j" d="M245.316,177.981V216.45a15.545,15.545,0,0,0,10.191,0V177.981a17.343,17.343,0,0,0-5.1-12.3A17.343,17.343,0,0,0,245.316,177.981Z" transform="translate(-245.316 -165.679)"/><path class="q" d="M245.316,177.981V216.45a15.545,15.545,0,0,0,10.191,0V177.981a17.343,17.343,0,0,0-5.1-12.3A17.343,17.343,0,0,0,245.316,177.981Z" transform="translate(-245.316 -165.679)"/><path class="j" d="M245.316,177.981v28.891a18.527,18.527,0,0,0,10.191,0V177.981a17.343,17.343,0,0,0-5.1-12.3A17.343,17.343,0,0,0,245.316,177.981Z" transform="translate(-245.316 -165.679)"/><path class="k" d="M245.316,177.981v28.891a18.527,18.527,0,0,0,10.191,0V177.981a17.343,17.343,0,0,0-5.1-12.3A17.343,17.343,0,0,0,245.316,177.981Z" transform="translate(-245.316 -165.679)"/><path class="j" d="M245.316,177.981v15.129a18.517,18.517,0,0,0,10.191,0v-15.13a17.343,17.343,0,0,0-5.1-12.3A17.343,17.343,0,0,0,245.316,177.981Z" transform="translate(-245.316 -165.679)"/><path class="p" d="M245.316,177.981v15.129a18.517,18.517,0,0,0,10.191,0v-15.13a17.343,17.343,0,0,0-5.1-12.3A17.343,17.343,0,0,0,245.316,177.981Z" transform="translate(-245.316 -165.679)"/><path class="j" d="M245.316,177.981v1.765a18.527,18.527,0,0,0,10.191,0v-1.766a17.343,17.343,0,0,0-5.1-12.3A17.343,17.343,0,0,0,245.316,177.981Z" transform="translate(-245.316 -165.679)"/><path class="q" d="M245.316,177.981v1.765a18.527,18.527,0,0,0,10.191,0v-1.766a17.343,17.343,0,0,0-5.1-12.3A17.343,17.343,0,0,0,245.316,177.981Z" transform="translate(-245.316 -165.679)"/></g></g><g transform="translate(19.982)"><g transform="translate(2.17 86.366)"><path class="g" d="M241.827,222.458l-2.162-8.87h-7.789l-2.162,8.87A15.775,15.775,0,0,0,241.827,222.458Z" transform="translate(-229.714 -213.588)"/><path class="h" d="M231.708,213.588s-.325,1.331-.506,2.076a15.752,15.752,0,0,0,8.8,0l-.506-2.078Z" transform="translate(-229.547 -213.588)"/><path class="q" d="M230.755,217.459c-.137.563-.275,1.13-.406,1.667a18.039,18.039,0,0,0,10.7,0l-.407-1.667A25.48,25.48,0,0,1,230.755,217.459Z" transform="translate(-229.643 -213.154)"/></g><path class="j" d="M244.215,221.665a21.432,21.432,0,0,1-16.452,0V155.785a28,28,0,0,1,8.226-19.859,28,28,0,0,1,8.226,19.859Z" transform="translate(-227.763 -135.926)"/><path class="j" d="M227.763,155.785v62.1a25.1,25.1,0,0,0,16.452,0v-62.1a28,28,0,0,0-8.226-19.859A28,28,0,0,0,227.763,155.785Z" transform="translate(-227.763 -135.926)"/><path class="q" d="M227.763,155.785v62.1a25.1,25.1,0,0,0,16.452,0v-62.1a28,28,0,0,0-8.226-19.859A28,28,0,0,0,227.763,155.785Z" transform="translate(-227.763 -135.926)"/><path class="j" d="M227.763,155.785v46.639a29.9,29.9,0,0,0,16.452,0V155.785a28,28,0,0,0-8.226-19.859A28,28,0,0,0,227.763,155.785Z" transform="translate(-227.763 -135.926)"/><path class="k" d="M227.763,155.785v46.639a29.9,29.9,0,0,0,16.452,0V155.785a28,28,0,0,0-8.226-19.859A28,28,0,0,0,227.763,155.785Z" transform="translate(-227.763 -135.926)"/><path class="j" d="M227.763,155.785v24.423a29.914,29.914,0,0,0,16.452,0V155.785a28,28,0,0,0-8.226-19.859A28,28,0,0,0,227.763,155.785Z" transform="translate(-227.763 -135.926)"/><path class="p" d="M227.763,155.785v24.423a29.914,29.914,0,0,0,16.452,0V155.785a28,28,0,0,0-8.226-19.859A28,28,0,0,0,227.763,155.785Z" transform="translate(-227.763 -135.926)"/><path class="j" d="M227.763,155.785v2.849a29.914,29.914,0,0,0,16.452,0v-2.851a28,28,0,0,0-8.226-19.859A28,28,0,0,0,227.763,155.785Z" transform="translate(-227.763 -135.926)"/><path class="r" d="M227.763,155.785v2.849a29.914,29.914,0,0,0,16.452,0v-2.851a28,28,0,0,0-8.226-19.859A28,28,0,0,0,227.763,155.785Z" transform="translate(-227.763 -135.926)"/><g transform="translate(3.435 28.247)"><path class="j" d="M240.434,166.118a4.791,4.791,0,1,1-4.791-4.792A4.791,4.791,0,0,1,240.434,166.118Z" transform="translate(-230.852 -161.326)"/><g transform="translate(0 5.153)"><path class="j" d="M235.643,170.389a4.788,4.788,0,0,1-4.773-4.429c-.009.119-.018.239-.018.361a4.791,4.791,0,1,0,9.582,0c0-.122-.009-.242-.018-.361A4.789,4.789,0,0,1,235.643,170.389Z" transform="translate(-230.852 -165.96)"/><path class="i" d="M235.643,170.389a4.788,4.788,0,0,1-4.773-4.429c-.009.119-.018.239-.018.361a4.791,4.791,0,1,0,9.582,0c0-.122-.009-.242-.018-.361A4.789,4.789,0,0,1,235.643,170.389Z" transform="translate(-230.852 -165.96)"/></g><circle class="d" cx="3.388" cy="3.388" r="3.388" transform="translate(1.403 1.404)"/><g transform="translate(3.492 1.412)"><path class="j" d="M235.113,169.345l1.387-6.526a3.373,3.373,0,0,0-1.125-.224l-1.382,6.507A3.377,3.377,0,0,0,235.113,169.345Z" transform="translate(-233.992 -162.596)"/><path class="j" d="M236.2,169.117l1.207-5.674a3.28,3.28,0,0,0-.5-.386l-1.319,6.206A3.262,3.262,0,0,0,236.2,169.117Z" transform="translate(-233.814 -162.544)"/><g class="s"><path class="d" d="M235.113,169.345l1.387-6.526a3.373,3.373,0,0,0-1.125-.224l-1.382,6.507A3.377,3.377,0,0,0,235.113,169.345Z" transform="translate(-233.992 -162.596)"/><path class="d" d="M236.2,169.117l1.207-5.674a3.28,3.28,0,0,0-.5-.386l-1.319,6.206A3.262,3.262,0,0,0,236.2,169.117Z" transform="translate(-233.814 -162.544)"/></g></g></g></g></g></g><g transform="translate(290.313 212.418)"><g transform="translate(90.385 41.043)"><g transform="translate(0 50.669)"><path class="t" d="M345.936,281.51l-1.28.275a2.8,2.8,0,0,0-2.189,2.385l-.113.9a2.768,2.768,0,0,0,.91,2.434c2.1,1.838,7.058,5.24,13.064,3.044l4.8-3.608-.79-6.478-9.968-1.446a2.8,2.8,0,0,0-1.658.627Z" transform="translate(-342.332 -279.018)"/><path class="t" d="M359.312,286.94l13.306-.67-2.056-7.239-12.04,1.432Z" transform="translate(-340.517 -279.017)"/></g><path class="j" d="M367.271,279.1a5.277,5.277,0,0,0-.54,3.382,10.312,10.312,0,0,0,2.154,5.055h0a14.591,14.591,0,0,0-6.457,1.59l-.108.056c-6.94-4.744-2.931-10.36-2.931-10.36l.455.066A35.766,35.766,0,0,0,367.271,279.1Z" transform="translate(-340.549 -228.371)"/><g transform="translate(25.561)"><path class="j" d="M393.732,290.166c-12.363,2.844-27.746,2.568-27.746,2.568a4.87,4.87,0,0,1-.657-2.83c.117-2.075.391-4.665,1.15-5.714.81-1.121,6.074-1.6,6.074-1.6s10.323-4.794,12.282-6.361c1.937-1.56,1.885-8.872,1.517-13.716-1.967-25.878,2.584-27.823,6.711-28.984C401.633,231.12,404.678,287.644,393.732,290.166Z" transform="translate(-365.317 -233.456)"/></g></g><g transform="translate(46.338 79.731)"><path class="j" d="M315.874,291.817h34.559c1.125,0,1.631-.912,1.131-2.037l-8.672-19.5a3.573,3.573,0,0,0-2.944-2.037H305.391c-1.125,0-1.633.912-1.132,2.037l8.672,19.5A3.573,3.573,0,0,0,315.874,291.817Z" transform="translate(-302.573 -268.245)"/><path class="o" d="M315.874,291.817h34.559c1.125,0,1.631-.912,1.131-2.037l-8.672-19.5a3.573,3.573,0,0,0-2.944-2.037H305.391c-1.125,0-1.633.912-1.132,2.037l8.672,19.5A3.573,3.573,0,0,0,315.874,291.817Z" transform="translate(-302.573 -268.245)"/><path class="j" d="M304.047,268.245h1.493c-1.125,0-1.633.912-1.132,2.037l8.672,19.5a3.573,3.573,0,0,0,2.944,2.037h-1.492a3.573,3.573,0,0,1-2.944-2.037l-8.672-19.5C302.416,269.157,302.922,268.245,304.047,268.245Z" transform="translate(-302.723 -268.245)"/><path class="u" d="M304.047,268.245h1.493c-1.125,0-1.633.912-1.132,2.037l8.672,19.5a3.573,3.573,0,0,0,2.944,2.037h-1.492a3.573,3.573,0,0,1-2.944-2.037l-8.672-19.5C302.416,269.157,302.922,268.245,304.047,268.245Z" transform="translate(-302.723 -268.245)"/><g transform="translate(5.452 2.242)"><path class="g" d="M316.116,289.349H347.4l-8.49-19.087H307.626Z" transform="translate(-307.626 -270.261)"/><path class="p" d="M316.116,289.349H347.4l-8.49-19.087H307.626Z" transform="translate(-307.626 -270.261)"/></g></g><g transform="translate(0 101.566)"><path class="g" d="M421.683,288.1s.86,11.4.984,15.412c.826,26.74-21,28.782-37.064,25.832l-58.151-16.26c-2.309,7.73-29.2,50.29-29.2,50.29l-14.134-8.116s14.654-35.137,24.114-59.586c5.4-13.958,49.359-4.3,65.548-1.432,4.921,1.327,3.971-6.358,3.971-6.358Z" transform="translate(-258.47 -287.879)"/><path class="t" d="M295.146,355.674l-5.4,9-10.07-5.01,5.238-10.245Z" transform="translate(-258.968 -280.982)"/><g transform="translate(0 71.823)"><path class="j" d="M275.144,357.332c-1.329-.607-2.591-1.479-2.77-2.251a1.048,1.048,0,0,1,.523-1.092,1.454,1.454,0,0,1,1.069-.228c2.008.326,4.763,4.16,4.884,4.329a.277.277,0,0,1,0,.32.292.292,0,0,1-.3.113A20.627,20.627,0,0,1,275.144,357.332Zm-.748-2.856a1.842,1.842,0,0,0-.513-.159.768.768,0,0,0-.659.127c-.331.229-.336.411-.3.53.177.922,2.865,2.172,4.965,2.836A12.857,12.857,0,0,0,274.4,354.476Z" transform="translate(-259.789 -352.321)"/><path class="j" d="M278.1,358.645a.158.158,0,0,1-.1-.057c-1.019-1.151-2.527-4.643-1.749-5.741.159-.278.538-.532,1.267-.282a2.065,2.065,0,0,1,1.211,1.078c.85,1.742-.184,4.753-.23,4.894a.276.276,0,0,1-.218.177A.255.255,0,0,1,278.1,358.645Zm-.634-5.523-.139-.079c-.473-.169-.586,0-.635.057-.4.7.457,3.277,1.423,4.666a6.541,6.541,0,0,0,.08-3.926,1.451,1.451,0,0,0-.73-.717Z" transform="translate(-259.377 -352.464)"/><path class="g" d="M281.594,357.191l11.665,5.336a1.032,1.032,0,0,1,.582,1.152l-2.232,10.455a1.72,1.72,0,0,1-2.375,1.225c-4.171-2-7.806-3.938-13.044-6.324-6.18-2.825-4.95-1.368-12.261-4.587-4.4-1.944-2.928-7.285-.961-6.681,8.982,2.816,11.037.655,15.7-.886A4.127,4.127,0,0,1,281.594,357.191Z" transform="translate(-261.056 -351.984)"/></g><path class="o" d="M292.131,360.246l2.742-4.572-10.23-6.257-2.531,4.951Z" transform="translate(-258.696 -280.982)"/><path class="j" d="M300.844,356.1l-17.526-10.935a4.454,4.454,0,0,0-2.2,4.592L297.95,360.51S300.217,360.409,300.844,356.1Z" transform="translate(-258.817 -281.459)"/></g><g transform="translate(34.274 124.189)"><path class="t" d="M321.714,395.542l-2.117,9.975-10.837-1.422,1.576-11.071Z" transform="translate(-289.983 -298.718)"/><g transform="translate(0 99.98)"><path class="j" d="M304.15,403.272c-1.413-.139-2.848-.542-3.257-1.194a1.02,1.02,0,0,1,.136-1.169,1.411,1.411,0,0,1,.91-.547c1.949-.336,5.692,2.318,5.856,2.435a.27.27,0,0,1,.1.294.283.283,0,0,1-.239.2A20.1,20.1,0,0,1,304.15,403.272Zm-1.59-2.39a1.782,1.782,0,0,0-.522.017.746.746,0,0,0-.566.325c-.232.316-.178.484-.11.583.454.792,3.32,1.091,5.46,1.038A12.5,12.5,0,0,0,302.56,400.882Z" transform="translate(-290.879 -397.879)"/><path class="j" d="M307.286,403.53a.157.157,0,0,1-.111-.021c-1.3-.736-3.789-3.469-3.422-4.723.059-.306.327-.658,1.075-.659a2,2,0,0,1,1.453.607c1.331,1.332,1.333,4.427,1.334,4.571a.27.27,0,0,1-.145.232A.255.255,0,0,1,307.286,403.53Zm-2.328-4.875-.152-.029c-.488-.007-.539.186-.566.252-.146.764,1.456,2.867,2.784,3.839a6.367,6.367,0,0,0-1.168-3.633,1.415,1.415,0,0,0-.9-.429Z" transform="translate(-290.549 -398.126)"/><path class="g" d="M309.972,401.668l12.406,1.217a1,1,0,0,1,.9.876l1.252,10.313a1.668,1.668,0,0,1-1.441,1.868,1.634,1.634,0,0,1-.354.008c-4.465-.516-8.417-1.152-13.987-1.69-6.571-.643-4.981.307-12.717-.341-4.661-.395-4.994-5.769-2.995-5.836,9.145-.25,10.35-2.886,14.151-5.777A4.015,4.015,0,0,1,309.972,401.668Z" transform="translate(-291.876 -397.733)"/></g><path class="o" d="M309.432,398.842l11.318.888.889-4.189-11.378-2.518Z" transform="translate(-289.908 -298.718)"/><path class="g" d="M325,391.871l-.315,1.261-16.6-1.311.177-1.261Z" transform="translate(-290.06 -298.994)"/><path class="j" d="M325.945,397.1l-4.085-.366L310.336,395.7l-3.72-.34a4.333,4.333,0,0,1-.164-4.942l2.068.163,16.743,1.311,1.21.1C327.861,395.986,325.945,397.1,325.945,397.1Z" transform="translate(-290.323 -299.011)"/><path class="g" d="M393.079,336.976c-15.029,1.323-49.675,1.877-54.366,1.2L324.983,401.1l-16.743-1.311s1.774-54.414,9.154-76.909c5.932-18.085,100.927-14.335,100.927-14.335l.34,5.093C419.317,331.189,410.277,335.45,393.079,336.976Z" transform="translate(-290.042 -308.222)"/><path class="v" d="M393.079,336.976c-15.029,1.323-49.675,1.877-54.366,1.2L324.983,401.1l-16.743-1.311s1.774-54.414,9.154-76.909c5.932-18.085,100.927-14.335,100.927-14.335l.34,5.093C419.317,331.189,410.277,335.45,393.079,336.976Z" transform="translate(-290.042 -308.222)"/><path class="g" d="M316.232,327.34s.013-.113.051-.3l-.038.3Z" transform="translate(-289.146 -306.114)"/><path class="g" d="M317.259,319.951l-.165,1.236A8.586,8.586,0,0,1,317.259,319.951Z" transform="translate(-289.049 -306.908)"/></g><g transform="translate(52.592)"><g transform="translate(41.646)"><path class="t" d="M365.057,232.611l4.617,6.739,10.381-8.873-6.486-7.969Z" transform="translate(-343.639 -193.64)"/><path class="o" d="M367.369,235.214c2.01-2.939,1.094-7.515,1.094-7.515l-1.826,2.322-1.579,2.008Z" transform="translate(-343.638 -193.058)"/><path class="g" d="M349.11,218.393c.224.656.752,1.068,1.188.912s.628-.855.393-1.488-.753-1.069-1.188-.9S348.893,217.733,349.11,218.393Z" transform="translate(-345.436 -194.271)"/><path class="w" d="M351.411,218.423l-1.475,6.294a4.912,4.912,0,0,0,4.23-1.128Z" transform="translate(-345.333 -194.097)"/><path class="g" d="M348.528,214.143a.377.377,0,0,1,.346-.046,2.831,2.831,0,0,0,2.607-.206.36.36,0,0,1,.5.079.385.385,0,0,1-.092.519,3.522,3.522,0,0,1-3.293.3.367.367,0,0,1-.2-.478h0A.415.415,0,0,1,348.528,214.143Z" transform="translate(-345.509 -194.613)"/><path class="t" d="M373.753,208.793c3.372,8.6,4.991,12.165,2.708,18.512-4.508,7.517-14.888,12.072-20.8,4.709-5.321-6.622-9.931-19.538-3.2-26.911a12.83,12.83,0,0,1,18.03-1.083A12.29,12.29,0,0,1,373.753,208.793Z" transform="translate(-345.426 -196.07)"/><path class="g" d="M382.266,211.839a67.2,67.2,0,0,0-.854,8.723,13.59,13.59,0,0,1-8.82,12.306h0s-12.12-.143-17.276-15.394a8.714,8.714,0,0,1-9.158-11.206c.985-3.245,5.09-5.272,8.48-5.392a11.169,11.169,0,0,1,9.522-4.317,22.961,22.961,0,0,1,10.328,3.43c2.719,1.554,5.372,3.47,6.895,6.205A8.773,8.773,0,0,1,382.266,211.839Z" transform="translate(-345.797 -196.549)"/><path class="t" d="M356.693,217.251a7.133,7.133,0,0,0-.133,5.487c.933,2.323,3.425,1.928,4.859-.016,1.3-1.76,2.36-5.078.6-6.788S357.665,215.113,356.693,217.251Z" transform="translate(-344.645 -194.477)"/><g transform="translate(20.746 31.821)"><path class="j" d="M380.207,225.164c-3.3.137-8.267,2.4-14.844,6.939a2.691,2.691,0,0,0-.894,2.447c.085.883.971,1.724,1.812,1.441.441,1.072.733,2.331,1.174,3.4,1.9-1.178,4.323-1.8,6.383-2.669a87.192,87.192,0,0,1,10.174-3.342c-.923-1.41-2.157-2.784-2.522-4.429a1.831,1.831,0,0,0,1.033-2.091A2.75,2.75,0,0,0,380.207,225.164Z" transform="translate(-364.453 -225.163)"/><path class="j" d="M380.207,225.164c-3.3.137-8.267,2.4-14.844,6.939a2.691,2.691,0,0,0-.894,2.447c.085.883.971,1.724,1.812,1.441.441,1.072.733,2.331,1.174,3.4,1.9-1.178,4.323-1.8,6.383-2.669a87.192,87.192,0,0,1,10.174-3.342c-.923-1.41-2.157-2.784-2.522-4.429a1.831,1.831,0,0,0,1.033-2.091A2.75,2.75,0,0,0,380.207,225.164Z" transform="translate(-364.453 -225.163)"/></g></g><path class="j" d="M371.762,309.6a444.1,444.1,0,0,1-17.99-51.836c-5.154-19.252,9.583-19.585,27.36-24.372,14.1-3.8,20.125-.4,24.153,6.751S415.8,307.806,415.8,307.806Z" transform="translate(-303.374 -192.596)"/><path class="j" d="M371.762,309.6a444.1,444.1,0,0,1-17.99-51.836c-5.154-19.252,9.583-19.585,27.36-24.372,14.1-3.8,20.125-.4,24.153,6.751S415.8,307.806,415.8,307.806Z" transform="translate(-303.374 -192.596)"/><path class="i" d="M371.762,309.6a444.1,444.1,0,0,1-17.99-51.836c-5.154-19.252,9.583-19.585,27.36-24.372,14.1-3.8,20.125-.4,24.153,6.751S415.8,307.806,415.8,307.806Z" transform="translate(-303.374 -192.596)"/><g transform="translate(0 47.544)"><g transform="translate(0 40.073)"><path class="t" d="M312.434,276.969l-1.25.046a2.673,2.673,0,0,0-2.458,1.881l-.257.828a2.647,2.647,0,0,0,.452,2.443c1.674,2.081,5.772,6.106,11.789,5.039l5.118-2.6.334-6.228-9.141-3.019a2.674,2.674,0,0,0-1.664.314Z" transform="translate(-308.348 -275.336)"/><path class="t" d="M324.066,284.3l12.635,1.583-.731-7.155-11.57-.656Z" transform="translate(-306.586 -275.029)"/></g><path class="j" d="M332.877,278.369a5.038,5.038,0,0,0-1.071,3.092,9.848,9.848,0,0,0,1.187,5.117h0a13.961,13.961,0,0,0-6.342.424l-.111.033C320.8,281.415,325.5,276.8,325.5,276.8l.418.138A34.215,34.215,0,0,0,332.877,278.369Z" transform="translate(-306.629 -235.099)"/><g transform="translate(24.072)"><path class="j" d="M356.827,292.729c-12.109.621-26.542-2.2-26.542-2.2a4.65,4.65,0,0,1-.148-2.774c.455-1.934,1.144-4.326,2.033-5.186.949-.921,5.983-.495,5.983-.495s10.515-2.795,12.619-3.942c2.083-1.147,3.249-8.037,3.71-12.659,2.454-24.684,7.063-25.758,11.141-26.164C374.09,238.468,367.55,292.178,356.827,292.729Z" transform="translate(-329.994 -239.301)"/></g></g></g><g transform="translate(66.927 71.778)"><g transform="translate(0 86.089)"><path class="f" d="M321.238,421.149l11.305-69.842a15.237,15.237,0,0,1,15.041-12.8h27.75a15.235,15.235,0,0,1,15.128,13.426l8.4,70.173" transform="translate(-321.238 -338.506)"/><path class="f" d="M356.137,421.149l11.305-69.842a15.236,15.236,0,0,1,15.04-12.8h27.75a15.235,15.235,0,0,1,15.128,13.426l8.4,70.173" transform="translate(-317.327 -338.506)"/><line class="f" x2="38.196" transform="translate(2.969 64.407)"/><line class="f" x2="39.493" transform="translate(69.223 13.426)"/></g><g transform="translate(4.681)"><path class="j" d="M397.214,348.771h29.059a21.475,21.475,0,0,0,21.409-19.779l4.135-52.2a14.55,14.55,0,0,0-14.5-15.7H421.26a42.383,42.383,0,0,0-40.61,30.252l-11.134,37.273a14.754,14.754,0,0,1-14.136,10.529h-20.31a9.625,9.625,0,0,0-9.624,9.624h71.767Z" transform="translate(-325.447 -261.093)"/><path class="x" d="M397.214,348.771h29.059a21.475,21.475,0,0,0,21.409-19.779l4.135-52.2a14.55,14.55,0,0,0-14.5-15.7H421.26a42.383,42.383,0,0,0-40.61,30.252l-11.134,37.273a14.754,14.754,0,0,1-14.136,10.529h-20.31a9.625,9.625,0,0,0-9.624,9.624h71.767Z" transform="translate(-325.447 -261.093)"/></g></g></g><g transform="translate(342.207 160.424)"><g transform="translate(0.223)"><path class="j" d="M364.09,177.953h0l.01-.119A1.084,1.084,0,0,1,364.09,177.953Z" transform="translate(-301.625 -146.653)"/><g transform="translate(0 14.704)"><path class="j" d="M318.019,165.529a28.7,28.7,0,0,0-8.061,12.946l-2.037-.024a33.737,33.737,0,0,1,6.085-15.433Z" transform="translate(-307.92 -163.017)"/><path class="k" d="M318.019,165.529a28.7,28.7,0,0,0-8.061,12.946l-2.037-.024a33.737,33.737,0,0,1,6.085-15.433Z" transform="translate(-307.92 -163.017)"/></g><g transform="translate(6.085 3.773)"><path class="j" d="M329.192,159.978a28.758,28.758,0,0,0-11.787,6.652l-4.013-2.512a35.7,35.7,0,0,1,12.584-10.931Z" transform="translate(-313.392 -153.188)"/><path class="m" d="M329.192,159.978a28.758,28.758,0,0,0-11.787,6.652l-4.013-2.512a35.7,35.7,0,0,1,12.584-10.931Z" transform="translate(-313.392 -153.188)"/></g><g transform="translate(18.669)"><path class="j" d="M340.415,149.8l-.988,9.931a24.766,24.766,0,0,0-4.3-.367,26.692,26.692,0,0,0-7.2,1l-3.216-6.79a33.1,33.1,0,0,1,15.239-3.773C340.1,149.795,340.26,149.795,340.415,149.8Z" transform="translate(-324.708 -149.795)"/><path class="q" d="M340.415,149.8l-.988,9.931a24.766,24.766,0,0,0-4.3-.367,26.692,26.692,0,0,0-7.2,1l-3.216-6.79a33.1,33.1,0,0,1,15.239-3.773C340.1,149.795,340.26,149.795,340.415,149.8Z" transform="translate(-324.708 -149.795)"/></g><g transform="translate(33.389 0.004)"><path class="j" d="M353.8,154.02l-6.477,9.507a23.352,23.352,0,0,0-9.384-3.8l.988-9.931A29.087,29.087,0,0,1,353.8,154.02Z" transform="translate(-337.944 -149.799)"/><path class="y" d="M353.8,154.02l-6.477,9.507a23.352,23.352,0,0,0-9.384-3.8l.988-9.931A29.087,29.087,0,0,1,353.8,154.02Z" transform="translate(-337.944 -149.799)"/></g><g transform="translate(42.773 4.226)"><path class="j" d="M363.152,164.8l-10.124,5.417a22.755,22.755,0,0,0-6.646-7.114l6.477-9.507A27.68,27.68,0,0,1,363.152,164.8Z" transform="translate(-346.382 -153.595)"/><path class="h" d="M363.152,164.8l-10.124,5.417a22.755,22.755,0,0,0-6.646-7.114l6.477-9.507A27.68,27.68,0,0,1,363.152,164.8Z" transform="translate(-346.382 -153.595)"/></g><g transform="translate(49.418 15.43)"><path class="j" d="M365.437,179.132l-9.9-.118a23.548,23.548,0,0,0-3.178-9.927l10.124-5.417A29.4,29.4,0,0,1,365.437,179.132Z" transform="translate(-352.358 -163.67)"/><path class="r" d="M365.437,179.132l-9.9-.118a23.548,23.548,0,0,0-3.178-9.927l10.124-5.417A29.4,29.4,0,0,1,365.437,179.132Z" transform="translate(-352.358 -163.67)"/></g><path class="j" d="M365.178,177.875a1.084,1.084,0,0,1-.014.119,36.965,36.965,0,0,1-2.639,10.119l-8.013-1.812.645-3.063c.059-.395.106-.8.146-1.2h0l.022-.245h0a24.945,24.945,0,0,0-.029-4.327l9.9.118c0,.057-.006.11-.011.167A.9.9,0,0,1,365.178,177.875Z" transform="translate(-302.698 -146.694)"/></g><g transform="translate(0 30.137)"><path class="j" d="M309.16,187.541l-.6.131q-.28-1.144-.47-2.325a30.855,30.855,0,0,1-.271-7.289h0l.01-.119c0-.04.008-.081.016-.122.031-.309.062-.615.1-.922l2.037.024a26.977,26.977,0,0,0-.955,4.94c-.007.041-.011.081-.014.122s-.007.081-.007.122a25.268,25.268,0,0,0-.059,2.966A22.908,22.908,0,0,0,309.16,187.541Z" transform="translate(-307.719 -176.895)"/><path class="x" d="M309.16,187.541l-.6.131q-.28-1.144-.47-2.325a30.855,30.855,0,0,1-.271-7.289h0l.01-.119c0-.04.008-.081.016-.122.031-.309.062-.615.1-.922l2.037.024a26.977,26.977,0,0,0-.955,4.94c-.007.041-.011.081-.014.122s-.007.081-.007.122a25.268,25.268,0,0,0-.059,2.966A22.908,22.908,0,0,0,309.16,187.541Z" transform="translate(-307.719 -176.895)"/></g><g transform="translate(30.489 28.998)"><path class="g" d="M366.076,185.832l-.836,2.1-1.717-.387-15.962-3.613-6.874-1.559a8.614,8.614,0,0,0,1.178-2.008,8.208,8.208,0,0,0,.625-2.631l15.239,5.23v0Z" transform="translate(-334.514 -175.662)"/><path class="g" d="M343.112,177.942a8.478,8.478,0,0,1-1.8,4.64l-6.173-1.4,1.953-5.313Z" transform="translate(-335.136 -175.871)"/></g><path class="j" d="M343.9,178.51a8.478,8.478,0,0,1-1.8,4.64,8.857,8.857,0,0,1-2.82,2.379c-3.969,2.124-8.65.782-10.447-3.006s-.031-8.582,3.943-10.712,8.65-.781,10.447,3.007A7.373,7.373,0,0,1,343.9,178.51Z" transform="translate(-305.432 -147.441)"/></g><g transform="translate(102.054 165.683)"><path class="j" d="M117.031,175.623h6.363v5.336h-7l-.979,7.833h-5.533l.98-7.833h-7.2l-.98,7.833H97.2l.979-7.833H91.769v-5.336H98.82l1.028-7.93H93.434v-5.337h7.049l.98-7.832h5.483l-.98,7.832h7.2l.979-7.832h5.484l-.98,7.832h6.364l.049,5.337H118.01Zm-5.533,0,1.028-7.93h-7.2l-1.028,7.93Z" transform="translate(-91.769 -154.524)"/><path class="j" d="M137.675,154.524v34.269h-7.931v-27.9H122.89v-6.364Z" transform="translate(-88.281 -154.524)"/></g><g transform="translate(66.891 308.218)"><rect class="g" width="54.837" height="37.752"/><rect class="j" width="54.837" height="3.458"/><g transform="translate(5.499 9.241)"><path class="d" d="M69.643,302.258l8.966,4.968a2.994,2.994,0,0,1,.9.676,1.227,1.227,0,0,1,.222.755,1.389,1.389,0,0,1-.418,1.006,1.326,1.326,0,0,1-.973.426,2.608,2.608,0,0,1-1.093-.406l-11.566-6.432a1.137,1.137,0,0,1,0-1.987l11.566-6.432a2.662,2.662,0,0,1,1.08-.391,1.348,1.348,0,0,1,.986.418,1.369,1.369,0,0,1,.418,1,1.23,1.23,0,0,1-.222.756,3,3,0,0,1-.9.675Z" transform="translate(-65.094 -290.619)"/><path class="d" d="M91.109,293.38,82.238,312.5a2.769,2.769,0,0,1-.607.932,1.312,1.312,0,0,1-.851.282,1.347,1.347,0,0,1-.979-.4,1.257,1.257,0,0,1-.413-.917,2.848,2.848,0,0,1,.325-1.068l8.9-19.1a2.938,2.938,0,0,1,.594-.932,1.4,1.4,0,0,1,1.823.115,1.245,1.245,0,0,1,.406.912A2.87,2.87,0,0,1,91.109,293.38Z" transform="translate(-63.492 -291.004)"/><path class="d" d="M100.974,302.258l-8.966-4.969a3,3,0,0,1-.9-.675,1.23,1.23,0,0,1-.222-.756,1.365,1.365,0,0,1,.418-1,1.347,1.347,0,0,1,.985-.418,2.66,2.66,0,0,1,1.081.391l11.566,6.432a1.137,1.137,0,0,1,0,1.987l-11.566,6.432a2.609,2.609,0,0,1-1.081.406,1.351,1.351,0,0,1-1-.429,1.419,1.419,0,0,1-.408-1,1.224,1.224,0,0,1,.222-.755,2.994,2.994,0,0,1,.9-.676Z" transform="translate(-62.203 -290.619)"/></g></g></g></svg>