<svg xmlns="http://www.w3.org/2000/svg" width="80" height="80" viewBox="0 0 80 80"><defs><style>.a{fill:#2b569f;}</style></defs><path class="a" d="M40.019,22.422H55.643a12.292,12.292,0,1,0,0-4.688H40.018a20.054,20.054,0,1,0-7.49,18.109L44.171,47.486a19.982,19.982,0,0,0-4.189,10.093H24.357a12.292,12.292,0,1,0,0,4.687H39.981a20.1,20.1,0,1,0,7.5-18.1L35.842,32.527a20.041,20.041,0,0,0,4.177-10.106Zm27.689-9.948a7.6,7.6,0,1,1-7.6,7.6,7.613,7.613,0,0,1,7.6-7.6Zm-63.021,7.6A15.39,15.39,0,1,1,31.748,30.123a12.133,12.133,0,0,0-5.533-7.27,7.78,7.78,0,1,0-12.274,0,12.133,12.133,0,0,0-5.533,7.27A15.376,15.376,0,0,1,4.687,20.078Zm12.3-2a3.093,3.093,0,1,1,3.093,3.093A3.1,3.1,0,0,1,16.985,18.08Zm-4.305,15.5a7.4,7.4,0,1,1,14.8,0,15.465,15.465,0,0,1-14.8,0Zm-.388,33.943a7.6,7.6,0,1,1,7.6-7.6A7.613,7.613,0,0,1,12.292,67.527Zm40.232,5.9a7.418,7.418,0,0,1,7.4-7.724h0a7.413,7.413,0,0,1,7.4,7.724,15.465,15.465,0,0,1-14.8,0Zm4.305-15.5a3.093,3.093,0,1,1,3.094,3.093h0A3.1,3.1,0,0,1,56.829,57.924Zm18.483,2a15.377,15.377,0,0,1-3.72,10.045A12.134,12.134,0,0,0,66.06,62.7a7.78,7.78,0,1,0-12.274,0,12.133,12.133,0,0,0-5.533,7.27,15.393,15.393,0,1,1,27.06-10.045Z"/></svg>