<svg xmlns="http://www.w3.org/2000/svg" width="425.038" height="363.096" viewBox="0 0 425.038 363.096"><defs><style>.a{fill:#212019;}.b{fill:#595959;}.c{fill:#d7dee2;}.d{fill:#96a9b2;}.e{fill:#fff;}.f{fill:#5a78ed;}.g{fill:#383cc5;}.h{fill:#dc5f34;}.i{fill:#b11722;}.j{fill:#fab655;}.k{fill:#c3d0d8;}.l{fill:#a62413;}.m{fill:#f6ad84;}.n{fill:#2b569f;}.o{fill:#e2806d;}.p{opacity:0.8;}.q{fill:#f6b452;}.r{fill:#cb7c1d;}</style></defs><g transform="translate(-325.655 -109.648)"><g transform="translate(499.954 125.784)"><g transform="translate(13.189)"><path class="a" d="M662.382,140.028V444.985a17.3,17.3,0,0,1-17.307,17.307H493.212a17.3,17.3,0,0,1-17.307-17.307V140.028a17.305,17.305,0,0,1,17.307-17.307H645.076a17.3,17.3,0,0,1,17.307,17.307Z" transform="translate(-475.906 -122.721)"/></g><g transform="translate(6.858 82.374)"><g transform="translate(0 0)"><path class="b" d="M3.8,0H5.949a.382.382,0,0,1,.382.382V39.906a.382.382,0,0,1-.382.382H3.8a3.8,3.8,0,0,1-3.8-3.8V3.8A3.8,3.8,0,0,1,3.8,0Z"/></g><g transform="translate(192.672)"><path class="b" d="M3.8,0H5.949a.382.382,0,0,1,.382.382V39.906a.382.382,0,0,1-.382.382H3.8a3.8,3.8,0,0,1-3.8-3.8V3.8A3.8,3.8,0,0,1,3.8,0Z" transform="translate(6.331 40.288) rotate(180)"/></g><g transform="translate(0 45.756)"><path class="b" d="M3.8,0H5.949a.382.382,0,0,1,.382.382V39.906a.382.382,0,0,1-.382.382H3.8a3.8,3.8,0,0,1-3.8-3.8V3.8A3.8,3.8,0,0,1,3.8,0Z"/></g></g><g transform="translate(0 8.632)"><g transform="translate(21.821)"><path class="c" d="M652.2,139.221V442.679a9.431,9.431,0,0,1-9.425,9.426H492.406a9.435,9.435,0,0,1-8.456-5.267c0-.009-.01-.018-.01-.027a9.272,9.272,0,0,1-.959-4.132V139.221a9.43,9.43,0,0,1,9.425-9.425H642.771a9.408,9.408,0,0,1,4.509,1.143c.01,0,.01.01.018.01A9.445,9.445,0,0,1,652.2,139.221Z" transform="translate(-482.981 -129.796)"/></g><g transform="translate(35.195 264.296)"><path class="d" d="M547.314,346.422H542.3a.8.8,0,0,0-.773.591l-.732,2.679H494.737a.794.794,0,0,0-.787.9l.737,5.3a.824.824,0,0,0-.024.2.789.789,0,0,0,.109.4l.933,6.7.221,1.589.878,6.308.221,1.589.777,5.582a.794.794,0,0,0,.787.686h34.08l-1.11,3.988a4.348,4.348,0,0,1-4.174,3.171H503.123a.816.816,0,0,0-.824.716.793.793,0,0,0,.789.871h3.022a3.123,3.123,0,1,0,3.372,0h13.679a3.124,3.124,0,1,0,3.373,0h.849a5.94,5.94,0,0,0,5.7-4.331l1.363-4.895h0a.54.54,0,0,0,.035-.1l1.584-5.685.442-1.589,1.758-6.308.442-1.589,1.815-6.52.223-.8h0l1.44-5.173a.5.5,0,0,0,.016-.072l.71-2.6h4.4a.8.8,0,0,0,0-1.6Zm-13.078,26.919v0a.95.95,0,0,0-.038.1l-1.088,3.907h-33.83l-.651-4.679h35.793Zm.628-2.255H498.407l-.878-6.308h39.092Zm2.2-7.9H497.307l-.876-6.306h42.39Zm2.2-7.894H496.209l-.56-4.016h44.732Z" transform="translate(-493.943 -346.422)"/></g><g transform="translate(39.288 86.919)"><path class="d" d="M613.174,231.391h-100.7a15.176,15.176,0,1,1,0-30.353h100.7a15.176,15.176,0,1,1,0,30.353Zm-100.7-28.741a13.565,13.565,0,1,0,0,27.129h100.7a13.565,13.565,0,1,0,0-27.129Z" transform="translate(-497.298 -201.038)"/><g transform="translate(12.255 6.215)"><path class="e" d="M516.85,221.127l-5.876,3.089,1.122-6.543-4.754-4.634,6.569-.955,2.938-5.953,2.938,5.953,6.569.955-4.754,4.634,1.122,6.543Z" transform="translate(-507.342 -206.132)"/><g transform="translate(29.979)"><path class="e" d="M541.421,221.127l-5.876,3.089,1.122-6.543-4.754-4.634,6.569-.955,2.938-5.953,2.938,5.953,6.569.955-4.754,4.634,1.122,6.543Z" transform="translate(-531.914 -206.132)"/></g><g transform="translate(59.957)"><path class="e" d="M565.993,221.127l-5.876,3.089,1.122-6.543-4.754-4.634,6.569-.955,2.938-5.953,2.938,5.953,6.569.955-4.754,4.634,1.122,6.543Z" transform="translate(-556.485 -206.132)"/></g><g transform="translate(89.936)"><path class="d" d="M590.564,221.127l-5.876,3.089,1.122-6.543-4.754-4.634,6.569-.955,2.938-5.953,2.938,5.953,6.569.955-4.754,4.634,1.122,6.543Z" transform="translate(-581.057 -206.132)"/></g></g></g><g transform="translate(33.548 134.437)"><rect class="e" width="149.043" height="53.645" rx="3.918"/><g transform="translate(7.729 16.105)"><path class="f" d="M542.394,258.166v16.648s-2.145-.05-6.691-.05c-.6,0-1.632-.833-2.1-.817a37.85,37.85,0,0,0-5.826.817H498.928a7.306,7.306,0,0,1,.9-2.672c3.953-7.081,18.952-10.273,21.38-13.471.833-1.1,1.734-2.131,2.58-3.04a16.478,16.478,0,0,1,2.233-2.251c1.319-.893,3.314,2.646,3.314,2.646,3.056,1.468,7.769.824,10.618.216A2.018,2.018,0,0,1,542.394,258.166Z" transform="translate(-498.928 -253.186)"/><g transform="translate(0 18.907)"><path class="g" d="M542.394,268.682V271.4s-2.145-.05-6.691-.05c-.6,0-1.632-.833-2.1-.817a37.85,37.85,0,0,0-5.826.817H498.928a7.306,7.306,0,0,1,.9-2.672Z" transform="translate(-498.928 -268.682)"/></g><g transform="translate(9.606 6.126)"><g transform="translate(0 3.112)"><path class="g" d="M506.8,263.459s1.155-.554,1.858-.9a2.288,2.288,0,0,1,2.025-.756,5.217,5.217,0,0,1,3,2.217.571.571,0,0,0,.771.167h0a.574.574,0,0,0,.2-.789,5.406,5.406,0,0,0-3.037-2.515A4.041,4.041,0,0,0,506.8,263.459Z" transform="translate(-506.801 -260.758)"/></g><g transform="translate(2.362 1.994)"><path class="g" d="M508.737,262.543s1.154-.522,1.857-.869a2.281,2.281,0,0,1,2.027-.789,5.209,5.209,0,0,1,2.994,2.217.573.573,0,0,0,.772.167h0a.573.573,0,0,0,.2-.789,5.4,5.4,0,0,0-3.035-2.515A4.041,4.041,0,0,0,508.737,262.543Z" transform="translate(-508.737 -259.841)"/></g><g transform="translate(4.592 1.1)"><path class="g" d="M510.565,261.81s1.155-.554,1.858-.9a2.291,2.291,0,0,1,2.025-.756,5.205,5.205,0,0,1,2.994,2.218.574.574,0,0,0,.772.166h0a.573.573,0,0,0,.2-.789,5.4,5.4,0,0,0-3.035-2.515A4.042,4.042,0,0,0,510.565,261.81Z" transform="translate(-510.565 -259.109)"/></g><g transform="translate(6.875)"><path class="g" d="M512.436,260.909s1.154-.522,1.857-.87a2.287,2.287,0,0,1,2.027-.789,5.21,5.21,0,0,1,2.994,2.218.573.573,0,0,0,.771.166h0a.572.572,0,0,0,.2-.789,5.406,5.406,0,0,0-3.037-2.514A4.041,4.041,0,0,0,512.436,260.909Z" transform="translate(-512.436 -258.207)"/></g></g></g><g transform="translate(58.595 8.888)"><path class="c" d="M624.428,248.721H541.345a.725.725,0,1,1,0-1.451h83.084a.725.725,0,1,1,0,1.451Z" transform="translate(-540.619 -247.27)"/><g transform="translate(0 8.681)"><path class="c" d="M624.428,255.836H541.345a.725.725,0,1,1,0-1.451h83.084a.725.725,0,1,1,0,1.451Z" transform="translate(-540.619 -254.385)"/></g><g transform="translate(0 17.361)"><path class="c" d="M624.428,262.951H541.345a.725.725,0,1,1,0-1.451h83.084a.725.725,0,1,1,0,1.451Z" transform="translate(-540.619 -261.5)"/></g><g transform="translate(0 26.042)"><path class="c" d="M624.428,270.066H541.345a.725.725,0,1,1,0-1.451h83.084a.725.725,0,1,1,0,1.451Z" transform="translate(-540.619 -268.615)"/></g><g transform="translate(0 34.723)"><path class="c" d="M624.428,277.181H541.345a.725.725,0,1,1,0-1.451h83.084a.725.725,0,1,1,0,1.451Z" transform="translate(-540.619 -275.73)"/></g></g></g><g transform="translate(33.548 199.825)"><rect class="e" width="149.043" height="53.645" rx="3.918"/><g transform="translate(11.132 7.807)"><path class="h" d="M530.815,317.4c-.112.037-.216.061-.317.088.006.223.016.447.022.672v0c.2,6.759.3,14.415.326,19.606a60.435,60.435,0,0,1-24.013,0c-.012-5.222.021-12.927.171-19.688.009-.288.015-.571.021-.848,0-.1,0-.2.006-.293a1.035,1.035,0,0,1-.106-.007,6.323,6.323,0,0,1-2.2-.505,8.192,8.192,0,0,1-1.4-.763c-.126-.089-.248-.174-.36-.26a7.93,7.93,0,0,1-1.248-1.131,28.721,28.721,0,0,1,1.632-3.434c.222-.406.451-.805.683-1.2a55.776,55.776,0,0,1,3.986-5.856l0,0v0a14.477,14.477,0,0,1,3.5-2.565q.485-.295.988-.587a4.328,4.328,0,0,1,.73-.344,3.136,3.136,0,0,1,.421-.137,4.7,4.7,0,0,1,1.238-.165.416.416,0,0,1,.415.417v.016a3.769,3.769,0,0,0,3.907,3.766,3.828,3.828,0,0,0,3.63-3.852v0a.343.343,0,0,1,.342-.344,3.336,3.336,0,0,1,.47.031,3.667,3.667,0,0,1,1.4.482c.1.061.207.121.309.183a16.685,16.685,0,0,1,4.008,2.91,58.948,58.948,0,0,1,6.42,10.666A11.6,11.6,0,0,1,530.815,317.4Z" transform="translate(-501.717 -299.978)"/><g transform="translate(5.206 12.75)"><path class="i" d="M508.81,310.9l-2.746,4.878c.009-.284.016-.569.022-.848,0-.1,0-.194.009-.29v0c-.037,0-.074,0-.11,0l2.277-4.042a.315.315,0,0,1,.549.31Z" transform="translate(-505.984 -310.428)"/></g><g transform="translate(25.969 12.75)"><path class="i" d="M525.814,315.185c.006.223.015.447.021.671l-2.793-4.957a.316.316,0,0,1,.552-.31l2.538,4.509C526.02,315.132,525.915,315.159,525.814,315.185Z" transform="translate(-523.002 -310.428)"/></g><g transform="translate(1.598 0.03)"><g transform="translate(8.205)"><path class="i" d="M511.545,300.607a.98.98,0,0,1-1.793.549q.485-.295.988-.587a4.328,4.328,0,0,1,.73-.344A.978.978,0,0,1,511.545,300.607Z" transform="translate(-509.752 -299.954)"/><path class="i" d="M521.459,300.668a.981.981,0,0,1-1.962-.012.964.964,0,0,1,.25-.653,3.667,3.667,0,0,1,1.4.482C521.254,300.546,521.358,300.606,521.459,300.668Z" transform="translate(-507.607 -300.003)"/></g><g transform="translate(4.02 4.633)"><circle class="i" cx="0.98" cy="0.98" r="0.98"/><circle class="i" cx="0.98" cy="0.98" r="0.98" transform="translate(4.019)"/><circle class="i" cx="0.98" cy="0.98" r="0.98" transform="translate(8.037)"/><circle class="i" cx="0.98" cy="0.98" r="0.98" transform="translate(12.056)"/><circle class="i" cx="0.98" cy="0.98" r="0.98" transform="translate(16.074)"/><circle class="i" cx="0.98" cy="0.98" r="0.98" transform="translate(20.093)"/></g><g transform="translate(0.034 9.592)"><path class="i" d="M504.983,308.847a.981.981,0,0,1-1.928.254c.222-.406.451-.805.683-1.2a.958.958,0,0,1,.265-.037A.981.981,0,0,1,504.983,308.847Z" transform="translate(-503.055 -307.865)"/><circle class="i" cx="0.98" cy="0.98" r="0.98" transform="translate(3.986 0.001)"/><circle class="i" cx="0.98" cy="0.98" r="0.98" transform="translate(8.005 0.001)"/><circle class="i" cx="0.98" cy="0.98" r="0.98" transform="translate(12.023 0.001)"/><circle class="i" cx="0.98" cy="0.98" r="0.98" transform="translate(16.042 0.001)"/><circle class="i" cx="0.98" cy="0.98" r="0.98" transform="translate(20.061 0.001)"/><circle class="i" cx="0.98" cy="0.98" r="0.98" transform="translate(24.079 0.001)"/><circle class="i" cx="0.98" cy="0.98" r="0.98" transform="translate(28.098 0.001)"/></g><g transform="translate(0 14.554)"><path class="i" d="M504.44,313.794a.981.981,0,1,0-1.413-.882.8.8,0,0,0,.01.12Z" transform="translate(-503.027 -311.932)"/><path class="i" d="M508.283,312.913a.98.98,0,1,1-.98-.981A.98.98,0,0,1,508.283,312.913Z" transform="translate(-502.302 -311.932)"/><path class="i" d="M511.577,312.913a.98.98,0,1,1-.98-.981A.98.98,0,0,1,511.577,312.913Z" transform="translate(-501.577 -311.932)"/><path class="i" d="M514.871,312.913a.98.98,0,1,1-.981-.981A.981.981,0,0,1,514.871,312.913Z" transform="translate(-500.852 -311.932)"/><path class="i" d="M518.165,312.913a.98.98,0,1,1-.981-.981A.981.981,0,0,1,518.165,312.913Z" transform="translate(-500.127 -311.932)"/><path class="i" d="M521.458,312.913a.98.98,0,1,1-.98-.981A.98.98,0,0,1,521.458,312.913Z" transform="translate(-499.403 -311.932)"/><path class="i" d="M524.752,312.913a.98.98,0,1,1-.98-.981A.981.981,0,0,1,524.752,312.913Z" transform="translate(-498.678 -311.932)"/><path class="i" d="M528.046,312.913a.98.98,0,1,1-.981-.981A.981.981,0,0,1,528.046,312.913Z" transform="translate(-497.953 -311.932)"/></g><g transform="translate(4.02 19.514)"><circle class="i" cx="0.98" cy="0.98" r="0.98"/><circle class="i" cx="0.98" cy="0.98" r="0.98" transform="translate(4.019)"/><circle class="i" cx="0.98" cy="0.98" r="0.98" transform="translate(8.037)"/><circle class="i" cx="0.98" cy="0.98" r="0.98" transform="translate(12.056)"/><circle class="i" cx="0.98" cy="0.98" r="0.98" transform="translate(16.074)"/><circle class="i" cx="0.98" cy="0.98" r="0.98" transform="translate(20.093)"/></g><g transform="translate(4.02 24.475)"><circle class="i" cx="0.98" cy="0.98" r="0.98"/><circle class="i" cx="0.98" cy="0.98" r="0.98" transform="translate(4.019)"/><circle class="i" cx="0.98" cy="0.98" r="0.98" transform="translate(8.037)"/><circle class="i" cx="0.98" cy="0.98" r="0.98" transform="translate(12.056)"/><circle class="i" cx="0.98" cy="0.98" r="0.98" transform="translate(16.074)"/><circle class="i" cx="0.98" cy="0.98" r="0.98" transform="translate(20.093)"/></g><g transform="translate(4.02 29.436)"><circle class="i" cx="0.98" cy="0.98" r="0.98"/><circle class="i" cx="0.98" cy="0.98" r="0.98" transform="translate(4.019)"/><circle class="i" cx="0.98" cy="0.98" r="0.98" transform="translate(8.037)"/><circle class="i" cx="0.98" cy="0.98" r="0.98" transform="translate(12.056)"/><circle class="i" cx="0.98" cy="0.98" r="0.98" transform="translate(16.074)"/><circle class="i" cx="0.98" cy="0.98" r="0.98" transform="translate(20.093)"/></g><g transform="translate(4.02 34.396)"><circle class="i" cx="0.98" cy="0.98" r="0.98"/><circle class="i" cx="0.98" cy="0.98" r="0.98" transform="translate(4.019)"/><circle class="i" cx="0.98" cy="0.98" r="0.98" transform="translate(8.037)"/><circle class="i" cx="0.98" cy="0.98" r="0.98" transform="translate(12.056)"/><circle class="i" cx="0.98" cy="0.98" r="0.98" transform="translate(16.074)"/><circle class="i" cx="0.98" cy="0.98" r="0.98" transform="translate(20.093)"/></g></g></g><g transform="translate(58.595 8.491)"><path class="c" d="M624.428,301.989H541.345a.725.725,0,1,1,0-1.451h83.084a.725.725,0,1,1,0,1.451Z" transform="translate(-540.619 -300.538)"/><g transform="translate(0 8.681)"><path class="c" d="M624.428,309.1H541.345a.725.725,0,1,1,0-1.451h83.084a.725.725,0,1,1,0,1.451Z" transform="translate(-540.619 -307.653)"/></g><g transform="translate(0 17.363)"><path class="c" d="M624.428,316.22H541.345a.725.725,0,1,1,0-1.451h83.084a.725.725,0,1,1,0,1.451Z" transform="translate(-540.619 -314.769)"/></g><g transform="translate(0 26.042)"><path class="c" d="M624.428,323.335H541.345a.726.726,0,0,1,0-1.452h83.084a.726.726,0,0,1,0,1.452Z" transform="translate(-540.619 -321.883)"/></g><g transform="translate(0 34.723)"><path class="c" d="M624.428,330.45H541.345a.726.726,0,0,1,0-1.452h83.084a.726.726,0,0,1,0,1.452Z" transform="translate(-540.619 -328.998)"/></g></g></g><g transform="translate(173.001 33.506)"><g transform="translate(22.454 56.244)"><path class="j" d="M625.651,223.527l14.305,32.612a4.182,4.182,0,0,0,5.51,2.151l32.612-14.306a4.182,4.182,0,0,0,2.151-5.51l-14.307-32.612a4.181,4.181,0,0,0-5.51-2.15L627.8,218.017A4.181,4.181,0,0,0,625.651,223.527Zm21.749-6.291a2.154,2.154,0,1,1,.864-2.094A2.157,2.157,0,0,1,647.4,217.236Z" transform="translate(-625.297 -203.358)"/><g transform="translate(12.161 13.361)"><path class="e" d="M635.912,229.367c-1.571-3.582-.159-6.649,2.906-7.994s6.275-.3,7.846,3.277c1.586,3.614.162,6.651-2.9,8S637.5,232.981,635.912,229.367Zm14.91-12.916,4.885-2.142L650.768,240.6l-4.886,2.144Zm-8.262,10c-.848-1.935-1.737-2.235-2.373-1.957s-1.02,1.137-.171,3.073,1.741,2.235,2.377,1.956S643.41,228.388,642.56,226.451Zm12.365,5.95c-1.573-3.585-.162-6.651,2.9-7.994s6.275-.306,7.847,3.278c1.585,3.613.161,6.651-2.9,7.994S656.509,236.014,654.925,232.4Zm6.646-2.915c-.849-1.937-1.739-2.236-2.374-1.958s-1.018,1.136-.167,3.072,1.739,2.236,2.373,1.958S662.42,231.423,661.571,229.487Z" transform="translate(-635.264 -214.309)"/></g></g><path class="f" d="M652.735,209.4c-2.195-10.345-7.794-22.122-14.982-31.508-.148-.194-.3-.387-.453-.583v1.834c7.462,9.93,12.5,21.5,14.4,30.476a32.353,32.353,0,0,1,.8,9.482,9.364,9.364,0,0,1-1.443,4.57,4.107,4.107,0,0,1-1.015,1,3.886,3.886,0,0,1-1.986.633,2.125,2.125,0,0,0,.1,1.063,4.935,4.935,0,0,0,2.473-.825,5.035,5.035,0,0,0,1.252-1.222,10.831,10.831,0,0,0,1.712-5.7A34.459,34.459,0,0,0,652.735,209.4ZM637.3,218.983c-10.952-13.555-26.371-53.434-29-60.356-.018-.052-.038-.1-.056-.15.231.049.46.1.689.15h3.891a36.441,36.441,0,0,0-5.313-1.359.524.524,0,0,0-.584.7c.04.11.125.332.246.659,2.308,6.13,18.64,48.858,30.127,61.983a16.655,16.655,0,0,0,3.072,2.845q.452.306.891.576l1.182-.517q-.719-.414-1.484-.93A18.046,18.046,0,0,1,637.3,218.983Z" transform="translate(-606.893 -157.259)"/></g><g transform="translate(0 0.001)"><path class="e" d="M678.147,178.034v22.117H465.1V178.034h0c25.68-4.666,33.874-48.237,33.874-48.237h145.3S652.462,173.374,678.147,178.034Z" transform="translate(-465.096 -129.797)"/><g transform="translate(0.004 48.237)"><rect class="k" width="213.048" height="22.117"/></g><g transform="translate(0.002)"><path class="h" d="M526.028,129.8s-8.194,43.577-33.877,48.237v22.117H465.1V178.034c25.682-4.661,33.874-48.237,33.874-48.237Z" transform="translate(-465.098 -129.797)"/></g><g transform="translate(152.124)"><path class="h" d="M650.715,178.034v22.117H623.659V178.034c-25.682-4.661-33.877-48.237-33.877-48.237h27.056S625.029,173.374,650.715,178.034Z" transform="translate(-589.782 -129.797)"/></g><g transform="translate(61.535)"><path class="h" d="M541.522,178.187v21.965h-25.35l-.639-22.117c16.127-12.371,17.393-48.237,17.393-48.237h16.709C550.417,155.726,541.522,178.187,541.522,178.187Z" transform="translate(-515.532 -129.797)"/></g><g transform="translate(114.334)"><path class="h" d="M592.959,178.034l-.639,22.117H566.968V178.187s-8.894-22.461-8.111-48.39h16.707S576.834,165.663,592.959,178.034Z" transform="translate(-558.808 -129.797)"/></g><g transform="translate(0.004 48.237)"><rect class="l" width="27.053" height="22.117"/></g><g transform="translate(186.002 48.237)"><path class="l" d="M644.606,169.334v22.117H617.549V169.334h27.056Z" transform="translate(-617.549 -169.334)"/></g><g transform="translate(61.535 48.237)"><path class="l" d="M541.583,169.334c-.04.1-.06.153-.06.153v21.965H516.171l-.639-22.117Z" transform="translate(-515.532 -169.334)"/></g><g transform="translate(122.434 48.237)"><path class="l" d="M591.5,169.334l-.639,22.117H565.507V169.487s-.02-.052-.06-.153Z" transform="translate(-565.447 -169.334)"/></g></g></g><g transform="translate(54.09 6.331)"><rect class="a" width="104.674" height="17.554" rx="5.799"/><g transform="translate(16.622 5.468)"><rect class="b" width="62.734" height="4.317" rx="1.426"/></g><g transform="translate(89.46 4.892)"><path class="b" d="M587.934,134.51a2.59,2.59,0,1,1-2.59-2.59A2.591,2.591,0,0,1,587.934,134.51Z" transform="translate(-582.754 -131.92)"/></g></g><g transform="translate(91.392 274.015)"><path class="d" d="M625.806,348.812H540.754a.75.75,0,1,1,0-1.5h85.052a.75.75,0,1,1,0,1.5Z" transform="translate(-540.004 -347.313)"/><g transform="translate(0 9.592)"><path class="d" d="M625.806,356.676H540.754a.75.75,0,0,1,0-1.5h85.052a.75.75,0,0,1,0,1.5Z" transform="translate(-540.004 -355.175)"/></g><g transform="translate(0 19.185)"><path class="d" d="M625.806,364.537H540.754a.75.75,0,1,1,0-1.5h85.052a.75.75,0,1,1,0,1.5Z" transform="translate(-540.004 -363.038)"/></g><g transform="translate(0 28.778)"><path class="d" d="M625.806,372.4H540.754a.75.75,0,1,1,0-1.5h85.052a.75.75,0,1,1,0,1.5Z" transform="translate(-540.004 -370.9)"/></g><g transform="translate(0 38.37)"><path class="d" d="M625.806,380.263H540.754a.75.75,0,0,1,0-1.5h85.052a.75.75,0,0,1,0,1.5Z" transform="translate(-540.004 -378.762)"/></g></g></g><g transform="translate(325.655 134.736)"><g transform="translate(0 124.781)"><g transform="translate(71.389)"><path class="a" d="M441.756,263.852c-4.918,3.277-16.116,5.938-27.45,7.2-14.613,1.623-29.457.92-31.373-3.783q-.322-.8-.592-1.664a.335.335,0,0,0-.013-.05q-.2-.639-.361-1.31c-.2-.8-.365-1.63-.509-2.479-.083-.494-.159-1-.223-1.5a80.327,80.327,0,0,1-.116-16.334l55.448-11.592s5.457,15.827,6.314,25.145c.048.511.079,1,.1,1.473C443.07,261.39,442.74,263.2,441.756,263.852Z" transform="translate(-380.748 -232.333)"/></g><g transform="translate(103.37 19.792)"><g transform="translate(28.108 157.694)"><path class="m" d="M430,379.193l2.684,12.555,11.836-2.077-2.246-11.865Z" transform="translate(-429.999 -377.806)"/></g><g transform="translate(29.147 161.832)"><g transform="translate(0 4.672)"><path class="h" d="M475.787,398.749,434.163,409.04a5.983,5.983,0,0,1-1.119-2.177c-1.131-3.456-1.4-9.353-1.724-13.031-.035-.431-.074-.831-.116-1.192a12.662,12.662,0,0,0-.233-1.477,2.187,2.187,0,0,1,1.967-3.028c5.233,3.088,8.471-4.285,11.758-2.942,0,0,1.412.564,5.451,2.72s10.145,2.728,15.424,3.548c6.815,1.054,9.2,3.2,9.985,4.891A3.352,3.352,0,0,1,475.787,398.749Z" transform="translate(-430.851 -385.027)"/></g><g transform="translate(2.194 15.996)"><path class="i" d="M475.391,396.706,433.768,407a5.983,5.983,0,0,1-1.119-2.177l42.512-10.512A3.352,3.352,0,0,1,475.391,396.706Z" transform="translate(-432.649 -394.309)"/></g><g transform="translate(7.434)"><g transform="translate(7.47 4.61)"><path class="e" d="M443.067,386.817s.294-2,2.089-1.83,2.3,2.935,2.3,2.935S447.08,390.645,443.067,386.817Z" transform="translate(-443.067 -384.977)"/></g><g transform="translate(7.842 6.82)"><path class="e" d="M444.514,394.728a.708.708,0,0,1-.857-.516,9.024,9.024,0,0,1,1.1-7.131.706.706,0,0,1,1.147.825,7.6,7.6,0,0,0-.871,5.967A.707.707,0,0,1,444.514,394.728Z" transform="translate(-443.371 -386.788)"/></g><g transform="translate(9.843 5.508)"><path class="e" d="M451.47,387.437a.706.706,0,0,1-.5-.061c-1.063-.558-3.655-.07-5.04.37a.707.707,0,0,1-.427-1.348c.425-.134,4.2-1.282,6.123-.273a.707.707,0,0,1-.159,1.313Z" transform="translate(-445.012 -385.713)"/></g><g transform="translate(0 3.763)"><path class="e" d="M446.913,386.494c-.074-.045-.24-.142-.478-.272-.266-.146-.626-.336-1.047-.536-.083-.042-.168-.079-.256-.12a15.444,15.444,0,0,0-3.247-1.118,6.148,6.148,0,0,0-2.646-.04c-.017,0-.037.01-.054.016a3,3,0,0,0-1.924,1.448,2.181,2.181,0,0,0-.022,2.228c.022.039.046.081.072.12a3.17,3.17,0,0,0,1.338,1.1,6.915,6.915,0,0,0,3.593.46,26.941,26.941,0,0,0,3.1-.5l.276-.066a10.29,10.29,0,0,0,1.3-.4,1.405,1.405,0,0,0,.15-.066l-.634-1.343-.021-.04-.037.016.264-.44Zm-3.952,1.656c-.273.037-.57.073-.883.107-1.879.2-3.105-.3-3.486-.877a.865.865,0,0,1-.067-.122.671.671,0,0,1,.067-.627,1.484,1.484,0,0,1,.982-.726l.034-.009a3.341,3.341,0,0,1,1.01-.072,7.829,7.829,0,0,1,1.763.334,16.742,16.742,0,0,1,2.039.772v0c.512.231.974.465,1.331.661-.14.041-.3.085-.494.133A21.9,21.9,0,0,1,442.961,388.15Z" transform="translate(-436.944 -384.282)"/></g><g transform="translate(8.264)"><path class="e" d="M446.558,388.493l-.967-1.186c1.208-.986,2.095-3.016,1.757-4.024-.083-.244-.266-.528-.957-.554a.851.851,0,0,0-.789.294c-.58.732-.34,2.665-.054,3.711l-1.476.406c-.1-.353-.916-3.493.328-5.067a2.649,2.649,0,0,1,4.4.722C449.4,384.586,448.1,387.235,446.558,388.493Z" transform="translate(-443.718 -381.198)"/></g></g><g transform="translate(0.354 12.285)"><path class="i" d="M438.347,406.617l-1.237.306a9.406,9.406,0,0,0,.589-7.218,12.086,12.086,0,0,0-6.442-7.246c-.035-.431-.074-.831-.116-1.192a13.137,13.137,0,0,1,7.538,8.143A10.411,10.411,0,0,1,438.347,406.617Z" transform="translate(-431.141 -391.267)"/></g><g transform="translate(18.323 7.505)"><path class="e" d="M446.745,390.031a.706.706,0,0,1-.5-1.31l2.44-1.288a.706.706,0,0,1,.66,1.249L446.9,389.97A.671.671,0,0,1,446.745,390.031Z" transform="translate(-445.869 -387.35)"/></g><g transform="translate(21.297 8.374)"><path class="e" d="M449.182,390.743a.706.706,0,0,1-.5-1.31l2.44-1.288a.706.706,0,1,1,.66,1.249l-2.44,1.288A.742.742,0,0,1,449.182,390.743Z" transform="translate(-448.306 -388.061)"/></g><g transform="translate(24.256 9.184)"><path class="e" d="M451.608,391.407a.706.706,0,0,1-.5-1.31l2.44-1.29a.707.707,0,0,1,.66,1.251l-2.441,1.288A.729.729,0,0,1,451.608,391.407Z" transform="translate(-450.732 -388.725)"/></g><g transform="translate(27.424 9.826)"><path class="e" d="M454.2,391.934a.706.706,0,0,1-.5-1.31l2.44-1.29a.707.707,0,0,1,.66,1.251l-2.441,1.287A.68.68,0,0,1,454.2,391.934Z" transform="translate(-453.328 -389.252)"/></g><g transform="translate(30.781 10.212)"><path class="e" d="M456.956,392.25a.706.706,0,0,1-.5-1.31l2.44-1.288a.706.706,0,1,1,.66,1.249l-2.44,1.288A.739.739,0,0,1,456.956,392.25Z" transform="translate(-456.08 -389.568)"/></g></g><path class="a" d="M449.717,409.652l-16.238,1.767s-10.214-55.449-9.161-68.765l-15.174-77.447-2.183-11.148,21.968-1.935,1.257-.7.741-.412,1.23-.688,3.161-1.765c.077.427.156.85.234,1.274.188,1,.373,2,.556,3,.1.517.188,1.032.282,1.546.015.072.026.142.038.209.091.476.174.949.262,1.421,5.644,30.893,10.053,59.27,11.78,79.911l0,.248.024,1.456Z" transform="translate(-406.961 -248.555)"/><g transform="translate(33.466 87.604)"><path class="b" d="M442.462,321.814a28.183,28.183,0,0,1-7.355,1.008h-.021a.7.7,0,0,1,0-1.4h0a26.555,26.555,0,0,0,7.344-1.065Z" transform="translate(-434.391 -320.358)"/></g><g transform="translate(6.348 21.286)"><path class="b" d="M435.246,401.817c-9.473-46.584-7.233-66.213-7.209-66.405a.662.662,0,0,0-.01-.224l-14.517-68.65a.672.672,0,0,0-.748-.528h-.013a.675.675,0,0,0-.57.808l14.5,68.545c-.174,1.707-1.906,21.751,7.24,66.725a.678.678,0,0,0,.719.543.5.5,0,0,0,.083-.011A.681.681,0,0,0,435.246,401.817Z" transform="translate(-412.164 -266.002)"/></g></g><g transform="translate(121.563 9.47)"><path class="b" d="M433.927,257.243a1.235,1.235,0,0,1-.151-.044,13.174,13.174,0,0,1-2.893-1.407c-.245-.157-.482-.322-.716-.494a16.073,16.073,0,0,1-2.4-2.173c-4.483-4.925-5.817-11.875-5.882-12.226a.681.681,0,0,1,1.338-.249c.016.084,1.379,7.192,5.854,11.874a14.261,14.261,0,0,0,2.188,1.89c.117.079.235.16.355.238a12.069,12.069,0,0,0,2.212,1.119A2.17,2.17,0,0,1,433.927,257.243Z" transform="translate(-421.872 -240.095)"/></g><g transform="translate(107.132 6.857)"><path class="b" d="M413.372,267.626a.558.558,0,0,1-.536.573h0a.557.557,0,0,1-.592-.518c-.1-2.051-.217-4.151-.348-6.247-.023-.37-.045-.738-.071-1.108-.44-6.852-1-13.579-1.424-18.329-.035-.383-.067-.756-.1-1.114-.094-1.042-.179-1.967-.253-2.75.376-.057.752-.118,1.124-.181.073.783.159,1.717.254,2.77.033.357.066.73.1,1.114.42,4.708.976,11.377,1.416,18.187.026.376.049.753.074,1.129C413.147,263.325,413.27,265.5,413.372,267.626Z" transform="translate(-410.044 -237.953)"/></g><g transform="translate(102.524 7.529)"><path class="b" d="M415.825,260.275a14.885,14.885,0,0,1-1.981.756c-.353.107-.731.2-1.12.282a8.216,8.216,0,0,1-1.072.139,3.921,3.921,0,0,1-1.9-.3,2.317,2.317,0,0,1-1.288-1.732c-.41-2.113-1.269-10.843-1.846-17.016-.038-.379-.072-.75-.1-1.11-.092-.987-.173-1.886-.243-2.649.375-.045.752-.09,1.127-.14.07.767.152,1.678.246,2.678.034.357.068.728.1,1.11.58,6.158,1.435,14.875,1.833,16.923a1.218,1.218,0,0,0,.682.957,4,4,0,0,0,2.395.033c.382-.082.761-.189,1.116-.3a13.4,13.4,0,0,0,1.556-.609.575.575,0,0,1,.759.248A.54.54,0,0,1,415.825,260.275Z" transform="translate(-406.267 -238.504)"/></g><g transform="translate(0 15.898)"><g transform="translate(11.53 157.337)"><path class="m" d="M337.607,374.322l-5.921,9.532,10.689,9.2,7.174-10.29Z" transform="translate(-331.686 -374.322)"/></g><g transform="translate(0 165.991)"><g transform="translate(0)"><g transform="translate(21.577 15.469)"><path class="e" d="M342.558,399.659a.646.646,0,0,1-.149-.437c.04-1.1-1.4-3.059-2.312-4.032a.65.65,0,1,1,.947-.891c.281.3,2.735,2.972,2.665,4.969a.649.649,0,0,1-1.151.39Z" transform="translate(-339.921 -394.094)"/></g><path class="h" d="M361.46,410.982l-30.06-.024a138.749,138.749,0,0,1-7.481-13.252c-.133-.283-.257-.562-.377-.836-.927-2.114-1.477-3.89-1.258-4.8a3.974,3.974,0,0,1,.52-1.153c1.32-2.085,4.578-4.42,6.715-5.81h0c.314-.2.6-.386.858-.545.7-.434,3.509-3.121,3.509-3.121,3.489-.592,7.66,8.407,7.66,8.407s5.23-.493,5.156,3.4c-.027,1.36-3.288,5.435-3.288,5.435s8.586,1.927,11.488,3.6c4.1,2.361,5.666,4.781,6.252,6.466A4.805,4.805,0,0,1,361.46,410.982Z" transform="translate(-322.235 -381.415)"/><g transform="translate(1.306 3.149)"><path class="i" d="M328.818,392.97a9.56,9.56,0,0,1-5.135,4.168c-.133-.283-.257-.562-.377-.836a8.68,8.68,0,0,0,4.711-3.825,10.839,10.839,0,0,0,1.266-7.934h0c.314-.2.6-.386.858-.545A11.773,11.773,0,0,1,328.818,392.97Z" transform="translate(-323.306 -383.996)"/></g><g transform="translate(14.908 7.024)"><g transform="translate(5.903 6.279)"><path class="e" d="M339.827,392.414s1.776-.553,2.35,1-1.518,3.078-1.518,3.078S338.251,397.266,339.827,392.414Z" transform="translate(-339.292 -392.319)"/></g><g transform="translate(0 8.028)"><path class="e" d="M334.6,396.663a.652.652,0,0,1,.088-.916,8.3,8.3,0,0,1,6.352-1.929.65.65,0,0,1-.228,1.28,7,7,0,0,0-5.3,1.652A.65.65,0,0,1,334.6,396.663Z" transform="translate(-334.454 -393.752)"/></g><g transform="translate(2.196)"><path class="e" d="M339.117,395.442a23.337,23.337,0,0,1-1.815-2.578c-1.1-1.773-1.353-3.577-.67-4.711a2.01,2.01,0,0,1,1.926-.975,2.762,2.762,0,0,1,1.968,1.018l.034.04c1.734,2.1,1.373,6.676,1.326,7.193l-.948-.085.028.024-.888,1.094A7.748,7.748,0,0,1,339.117,395.442Zm.357-6.308-.022-.026a1.369,1.369,0,0,0-.993-.525.6.6,0,0,0-.621.3c-.331.548-.255,1.762.661,3.24a19.741,19.741,0,0,0,2.012,2.783C340.592,393.428,340.525,390.408,339.475,389.134Z" transform="translate(-336.255 -387.172)"/></g><g transform="translate(7.185 5.324)"><path class="e" d="M340.343,395.938l.6-1.276c1.3.61,3.336.538,4.036-.144.171-.166.333-.431.079-1.013-.178-.406-.392-.5-.558-.539-.838-.189-2.346.778-3.1,1.432l-.925-1.061c.254-.222,2.532-2.151,4.334-1.745a2.437,2.437,0,0,1,1.152,3.936C344.714,396.74,342,396.715,340.343,395.938Z" transform="translate(-340.343 -391.536)"/></g></g><g transform="translate(20.706 16.745)"><path class="e" d="M339.766,396.7a.65.65,0,0,1,.024-1.29l2.526-.262a.65.65,0,0,1,.134,1.293l-2.525.261A.627.627,0,0,1,339.766,396.7Z" transform="translate(-339.207 -395.14)"/></g><g transform="translate(23.66 17.744)"><path class="e" d="M342.187,397.515a.65.65,0,0,1,.024-1.291l2.526-.261a.65.65,0,0,1,.134,1.293l-2.526.261A.627.627,0,0,1,342.187,397.515Z" transform="translate(-341.628 -395.959)"/></g><g transform="translate(26.673 18.695)"><path class="e" d="M344.656,398.294A.65.65,0,0,1,344.68,397l2.525-.261a.65.65,0,1,1,.134,1.293l-2.526.261A.628.628,0,0,1,344.656,398.294Z" transform="translate(-344.097 -396.738)"/></g></g><g transform="translate(0 9.505)"><path class="i" d="M361.46,409.267l-30.06-.024s-9.94-15.5-9.116-18.884a3.974,3.974,0,0,1,.52-1.153c2.652,5.029,8.489,15.895,10.445,17.9l27.9-.072A4.805,4.805,0,0,1,361.46,409.267Z" transform="translate(-322.235 -389.206)"/></g></g><g transform="translate(12.824 8.601)"><path class="a" d="M423.072,263.983l-22.414,69.75-.045.144-.735,1.142-51.6,80.273-15.533-9.956s16.492-36,23.389-50.06a110.985,110.985,0,0,1,17.382-24.943c6.9-19.181,19.194-77.919,19.194-77.919Z" transform="translate(-332.746 -252.413)"/></g><g transform="translate(71.283 86.829)"><path class="b" d="M390.114,319.623l-.045.144-.735,1.142a29.994,29.994,0,0,1-8.323-3.072.7.7,0,0,1,.7-1.213A29.034,29.034,0,0,0,390.114,319.623Z" transform="translate(-380.661 -316.531)"/></g><g transform="translate(16.416 19.45)"><path class="b" d="M336.388,404.879a.7.7,0,0,1-.622-1.015c.144-.284,14.509-28.657,22.179-47.034,7.608-18.228,17.315-25.515,18.763-26.528,5.914-13,16.9-67.88,17.008-68.435a.7.7,0,0,1,1.37.273c-.455,2.284-11.226,56.092-17.189,68.924a.692.692,0,0,1-.25.289c-.1.07-10.525,7.119-18.412,26.015-7.691,18.427-22.078,46.844-22.222,47.128A.7.7,0,0,1,336.388,404.879Z" transform="translate(-335.69 -261.305)"/></g><g transform="translate(69.125)"><path class="j" d="M384.931,274.447a8.654,8.654,0,0,0,4.145-.1c10.552-2.688,13.91-27.055,14.048-28.091a.786.786,0,0,0-1.559-.207c-.032.244-3.348,24.347-12.877,26.774a6.089,6.089,0,0,1-6.223-1.567c-2-2.142-2.56-5.784-1.418-9.28a.786.786,0,0,0-1.495-.489c-1.318,4.032-.626,8.289,1.764,10.843A7.161,7.161,0,0,0,384.931,274.447Z" transform="translate(-378.892 -245.363)"/></g></g><g transform="translate(71.571 11.092)"><path class="b" d="M383.908,257.762a11.987,11.987,0,0,1-2.859,2.08,1.531,1.531,0,0,1,.152-1.584,8.346,8.346,0,0,0,1.669-1.431c4.439-4.934,3.362-14.526,3.35-14.624a.7.7,0,0,1,1.39-.164C387.66,242.46,388.766,252.363,383.908,257.762Z" transform="translate(-380.897 -241.424)"/></g></g><g transform="translate(46.885)"><g transform="translate(22.474 39.827)"><path class="n" d="M450.809,173.762c-.171-.155-.339-.309-.5-.467a12.162,12.162,0,0,1-3.375-5.51l-15.1-5.083a22.407,22.407,0,0,1-4.134.964c-.24.035-.487.068-.747.1a29.074,29.074,0,0,1-8.231-.262c-7.131-1.2-13.449,4.679-18.114,16.1q-.668,1.632-1.324,3.228c-.1.237-.193.47-.288.705-1.776,4.326-3.485,8.472-5.075,12.526-.135.35-.273.7-.409,1.047a177.908,177.908,0,0,0-6.344,18.917c-.349,1.314-.677,2.629-.977,3.957-1.37,6.016-6.464,37.492-7.108,46.075,8.184,7.484,41.3,7.866,64.281,1.386-1.1-13.422.135-28.684.907-32.849q.377-2.059.784-4c.259-1.265.529-2.494.8-3.688.314-1.362.633-2.684.96-3.958.35-1.371.708-2.687,1.07-3.957q.577-2.037,1.171-3.909c5.371-17.034,11.289-24.334,11.846-28.665C461.792,179.523,455.389,177.878,450.809,173.762Z" transform="translate(-379.084 -162.702)"/><g transform="translate(49.813 0.103)"><path class="e" d="M427.526,185.058l-.061-.021c-8.6-2.964-7.536-20.985-7.486-21.75a.535.535,0,1,1,1.069.068c-.011.179-1.065,17.97,6.766,20.668a5.309,5.309,0,0,0,4.78-.411c4.7-2.943,5.984-13.055,6-13.156a.536.536,0,1,1,1.064.129c-.054.436-1.355,10.719-6.492,13.934A6.359,6.359,0,0,1,427.526,185.058Z" transform="translate(-419.912 -162.786)"/></g><g transform="translate(45.814 11.801)"><path class="g" d="M430.647,186.6a19.994,19.994,0,0,1-7.453-4.8,36.608,36.608,0,0,1-6.521-8.863.4.4,0,0,1,.151-.509.326.326,0,0,1,.469.138,35.867,35.867,0,0,0,6.4,8.684c5.358,5.212,11,6.629,16.776,4.21a.326.326,0,0,1,.443.207.4.4,0,0,1-.217.483,13.868,13.868,0,0,1-9.93.49Z" transform="translate(-416.635 -172.374)"/></g><g transform="translate(53.778 5.486)"><path class="g" d="M430.061,173.7c-3.556-1.2-6.664-5.65-6.835-5.9a.4.4,0,0,1,.083-.522.329.329,0,0,1,.486.062c.052.076,5.245,7.516,9.479,5.587a.327.327,0,0,1,.449.193.4.4,0,0,1-.2.489A4.583,4.583,0,0,1,430.061,173.7Z" transform="translate(-423.162 -167.199)"/></g><g transform="translate(21.807 65.28)"><path class="g" d="M420.264,239.5a27.736,27.736,0,0,1-4.371-1.915,39.583,39.583,0,0,1-10.25-8.284A59.383,59.383,0,0,1,397,216.822a.441.441,0,0,1,.171-.56.359.359,0,0,1,.516.155,58.531,58.531,0,0,0,8.536,12.306c5.01,5.5,13.136,11.908,23.406,11.176a.373.373,0,0,1,.392.383.426.426,0,0,1-.378.437A23.862,23.862,0,0,1,420.264,239.5Z" transform="translate(-396.958 -216.208)"/></g><g transform="translate(36.116 29.989)"><path class="g" d="M409.3,191.63a.61.61,0,0,1-.421-1.052l3.288-3.129a.61.61,0,0,1,.841.885l-3.287,3.128A.61.61,0,0,1,409.3,191.63Z" transform="translate(-408.686 -187.282)"/></g><g transform="translate(48.318 31.553)"><path class="g" d="M421.067,193.962a.608.608,0,0,1-.561-.372l-1.77-4.177a.61.61,0,1,1,1.122-.476l1.77,4.177a.61.61,0,0,1-.322.8A.633.633,0,0,1,421.067,193.962Z" transform="translate(-418.687 -188.564)"/></g><g transform="translate(58.433 35.031)"><path class="g" d="M432.046,193.485a.61.61,0,0,1-.115-.011l-4.458-.85a.61.61,0,0,1,.229-1.2l4.457.85a.61.61,0,0,1-.113,1.209Z" transform="translate(-426.978 -191.415)"/></g><g transform="translate(44.653 54.186)"><path class="g" d="M416.293,210.957a.611.611,0,0,1-.353-1.109l3.7-2.622a.61.61,0,1,1,.705,1l-3.7,2.623A.608.608,0,0,1,416.293,210.957Z" transform="translate(-415.683 -207.114)"/></g><g transform="translate(70.419 18.218)"><path class="g" d="M441.86,179.759a.607.607,0,0,1-.123-.013l-4.446-.905a.609.609,0,0,1-.477-.719.615.615,0,0,1,.72-.476l4.446.905a.61.61,0,0,1-.12,1.208Z" transform="translate(-436.802 -177.634)"/></g><g transform="translate(63.744 44.277)"><path class="g" d="M431.954,204.75a.611.611,0,0,1-.61-.609l-.013-4.537a.609.609,0,0,1,.608-.611h0a.61.61,0,0,1,.61.608l.013,4.537a.61.61,0,0,1-.608.612Z" transform="translate(-431.331 -198.993)"/></g><g transform="translate(56.512 61.058)"><path class="g" d="M428.977,217.4a.6.6,0,0,1-.462-.211l-2.964-3.437a.61.61,0,0,1,.925-.8l2.964,3.437a.61.61,0,0,1-.462,1.008Z" transform="translate(-425.403 -212.747)"/></g><g transform="translate(9.351 81.776)"><path class="g" d="M387.359,233.353a.61.61,0,0,1-.323-1.127l3.848-2.4a.61.61,0,0,1,.647,1.035l-3.849,2.4A.6.6,0,0,1,387.359,233.353Z" transform="translate(-386.749 -229.728)"/></g><g transform="translate(53.794 77.824)"><path class="g" d="M426.748,231.145a.61.61,0,0,1-.462-.211l-2.964-3.437a.611.611,0,0,1,.925-.8l2.964,3.437a.612.612,0,0,1-.065.861A.6.6,0,0,1,426.748,231.145Z" transform="translate(-423.176 -226.489)"/></g><g transform="translate(14.461 96.575)"><path class="g" d="M394.509,246.514a.607.607,0,0,1-.462-.212l-2.964-3.437a.61.61,0,0,1,.925-.8l2.964,3.437a.611.611,0,0,1-.462,1.009Z" transform="translate(-390.937 -241.858)"/></g><g transform="translate(38.646 65.061)"><path class="g" d="M411.37,220.264a.61.61,0,0,1-.405-1.066l3.392-3.015a.61.61,0,1,1,.81.911l-3.392,3.015A.6.6,0,0,1,411.37,220.264Z" transform="translate(-410.76 -216.028)"/></g><g transform="translate(37.348 77.183)"><path class="g" d="M413.933,229.911a.608.608,0,0,1-.367-.123l-3.627-2.727a.61.61,0,1,1,.734-.975l3.626,2.727a.611.611,0,0,1-.366,1.1Z" transform="translate(-409.695 -225.964)"/></g><g transform="translate(32.483 93.558)"><path class="g" d="M406.319,243.621a.61.61,0,0,1-.405-1.066l3.391-3.015a.61.61,0,1,1,.81.911l-3.391,3.015A.606.606,0,0,1,406.319,243.621Z" transform="translate(-405.708 -239.385)"/></g><g transform="translate(56.297 97.376)"><path class="g" d="M425.837,246.75a.609.609,0,0,1-.405-1.065l3.391-3.016a.61.61,0,1,1,.81.913l-3.391,3.015A.6.6,0,0,1,425.837,246.75Z" transform="translate(-425.227 -242.514)"/></g><g transform="translate(44.304 94.872)"><path class="g" d="M418.447,245.507a.611.611,0,0,1-.515-.281l-2.44-3.826a.611.611,0,0,1,1.03-.656l2.44,3.825a.61.61,0,0,1-.515.938Z" transform="translate(-415.397 -240.462)"/></g><g transform="translate(26.405 37.87)"><path class="g" d="M402.108,199.26a.61.61,0,0,1-.6-.5l-.774-4.3a.61.61,0,1,1,1.2-.216l.773,4.3a.61.61,0,0,1-.492.709A.677.677,0,0,1,402.108,199.26Z" transform="translate(-400.726 -193.742)"/></g><g transform="translate(28.489 55.305)"><path class="g" d="M403.044,212.257a.609.609,0,0,1-.4-1.066l3.4-3.006a.61.61,0,1,1,.808.914l-3.4,3.006A.607.607,0,0,1,403.044,212.257Z" transform="translate(-402.434 -208.032)"/></g><g transform="translate(23.468 79.137)"><path class="g" d="M400.535,233.03a.609.609,0,0,1-.57-.394l-1.606-4.243a.61.61,0,0,1,1.142-.432l1.6,4.245a.609.609,0,0,1-.571.825Z" transform="translate(-398.319 -227.565)"/></g><g transform="translate(38.314 43.635)"><path class="g" d="M412.792,203.9a.607.607,0,0,1-.566-.383l-1.693-4.21a.61.61,0,0,1,1.132-.455l1.692,4.21a.609.609,0,0,1-.338.794A.62.62,0,0,1,412.792,203.9Z" transform="translate(-410.487 -198.467)"/></g><g transform="translate(16.017 44.632)"><path class="g" d="M397.356,200.663h-.021L392.8,200.5a.61.61,0,1,1,.043-1.219l4.535.157a.61.61,0,0,1-.022,1.22Z" transform="translate(-392.212 -199.284)"/></g></g><g transform="translate(72.319)"><g transform="translate(2.606 27.192)"><path class="m" d="M438.84,167.167l-1.313,3.9a12.8,12.8,0,0,1-1.706.5c-8.138,1.786-13.746-5.7-13.746-5.7l4.551-13.517L437.383,165.4Z" transform="translate(-422.075 -152.346)"/><g transform="translate(6.592 7.54)"><path class="a" d="M437.651,165.807l-1.313,3.9a12.8,12.8,0,0,1-1.706.5c-4.995-4.223-7.154-11.682-7.154-11.682l8.716,5.513Z" transform="translate(-427.478 -158.526)"/></g></g><g transform="translate(0 12.837)"><path class="a" d="M427.595,140.58s-4.562,0-4.953,2.627a2.5,2.5,0,0,0,1.767,2.993s-5.507,2.078-4.295,4.519a3.265,3.265,0,0,0,3.381,2.042s-4.01,4.528-1.375,6.771,8.472-1.669,8.472-1.669S435.312,142.5,427.595,140.58Z" transform="translate(-419.939 -140.58)"/></g><g transform="translate(31.991 10.347)"><path class="a" d="M446.388,138.539s6.913,4.45,2.052,9.681C448.44,148.22,445.3,141.041,446.388,138.539Z" transform="translate(-446.16 -138.539)"/></g><g transform="translate(28.074 25.808)"><path class="o" d="M444.935,151.781s3.094-1.87,3.465,1.166-2.374,8.008-5.451,6.006Z" transform="translate(-442.949 -151.211)"/></g><g transform="translate(6.252 6.657)"><path class="m" d="M448.144,165.2s-2.7,8.065-11.079,5.223c-8.327-2.821-11.8-11.275-11.994-11.677l-.007-.011.479-1.725,2.486-8.952,1.329-4.785s1.785-8.82,10.346-7.656c6.255.85,11.437,3.681,13.185,7.683a7.609,7.609,0,0,1,.411,4.864l-2.582,8.529-.632,2.09Z" transform="translate(-425.063 -135.514)"/></g><g transform="translate(19.195 33.782)"><path class="o" d="M437.464,159.259a4.413,4.413,0,0,1-1.689-.933.335.335,0,0,1,.462-.486h0a3.571,3.571,0,0,0,2.906.843.335.335,0,0,1,.132.658A3.791,3.791,0,0,1,437.464,159.259Z" transform="translate(-435.672 -157.747)"/></g><g transform="translate(24.294 21.772)"><path d="M441.677,153.189a9.139,9.139,0,0,1-1.578-.151.3.3,0,1,1,.1-.592,7.379,7.379,0,0,0,1.924.124l-1.53-2.43a.3.3,0,0,1-.033-.246l.534-1.776a.3.3,0,0,1,.575.172l-.5,1.646,1.7,2.7a.3.3,0,0,1-.161.444A3.637,3.637,0,0,1,441.677,153.189Z" transform="translate(-439.851 -147.904)"/></g><g transform="translate(18.956 27.511)"><path class="e" d="M435.652,152.607a64.733,64.733,0,0,0,7.376,3.838s-1.92,3.381-5.422,1.948C434.607,157.165,435.652,152.607,435.652,152.607Z" transform="translate(-435.476 -152.607)"/></g><g transform="translate(17.694 15.206)"><path class="a" d="M440.467,145.188a1.023,1.023,0,0,0,.612-1.513,2.43,2.43,0,0,0-1.969-1.138c-2.278-.207-5.627,1.791-4.409,2.977C435.591,146.38,438.806,145.644,440.467,145.188Z" transform="translate(-434.442 -142.522)"/></g><g transform="translate(28.67 17.437)"><path class="a" d="M443.692,146.164a1.023,1.023,0,0,1,.327-1.6,2.43,2.43,0,0,1,2.271.143c2.012,1.088,3.344,4.552,1.675,4.866C446.743,149.8,444.822,147.465,443.692,146.164Z" transform="translate(-443.438 -144.35)"/></g><g transform="translate(7.316 6.513)"><path class="a" d="M426.145,143.115a7.251,7.251,0,0,0,.082,3.759,5.191,5.191,0,0,1,2.89,4.346l2,.981a21.818,21.818,0,0,0,1.582-6.154c.12-2.179,2.2-2.172,3.219-3.77a2.345,2.345,0,0,0,.515-1.53,8.251,8.251,0,0,1,6.957,1.011c3.2,2.306,6.333,3.785,8.7,2.168a1.925,1.925,0,0,0,.61-.6c-1.747-4-6.929-6.834-13.184-7.683-8.561-1.165-11.7,2.122-11.7,2.122C426.523,139.544,426.55,141.349,426.145,143.115Z" transform="translate(-425.936 -135.396)"/></g><g transform="translate(7.228)"><g transform="translate(0.772)"><path class="h" d="M426.5,138.331s14.8-.769,24.184,2.042q.37.11.725.228a17.949,17.949,0,0,1,2.659,1.1s-.172-5.344-6.051-8.875a17.171,17.171,0,0,0-2.239-1.127,22.159,22.159,0,0,0-3.71-1.16l-.137-.03q-.547-.121-1.07-.2a17.28,17.28,0,0,0-3.023-.243c-.245,0-.487.011-.722.024a12.716,12.716,0,0,0-4.576,1.1,11.911,11.911,0,0,0-1.2.63A10.649,10.649,0,0,0,426.5,138.331Z" transform="translate(-426.496 -130.058)"/></g><g transform="translate(20.049 1.638)"><path class="i" d="M442.3,131.4a12.787,12.787,0,0,1,4.907,8.677c.028.243.048.492.061.747l.7-.035c-.009-.162-.02-.325-.034-.483a13.171,13.171,0,0,0-3.393-7.778A17.171,17.171,0,0,0,442.3,131.4Z" transform="translate(-442.296 -131.401)"/></g><g transform="translate(15.132 0.244)"><path class="i" d="M438.266,130.258c2.762,2.51,3.076,6.766,3.079,6.816l.7-.045a12.347,12.347,0,0,0-2.571-6.537l-.137-.03Q438.789,130.341,438.266,130.258Z" transform="translate(-438.266 -130.258)"/></g><g transform="translate(11.149 0.001)"><path class="i" d="M435.239,130.083c-.326,1.725-.665,5.4,1.552,8.091l.541-.445c-2.083-2.522-1.672-6.133-1.37-7.671C435.716,130.06,435.474,130.07,435.239,130.083Z" transform="translate(-435.002 -130.059)"/></g><g transform="translate(4.147 1.13)"><path class="i" d="M429.4,137.994l.686-.142c-.517-2.483.732-5.124,1.84-6.869a11.911,11.911,0,0,0-1.2.63A9.639,9.639,0,0,0,429.4,137.994Z" transform="translate(-429.263 -130.984)"/></g><g transform="translate(0 5.899)"><path class="i" d="M454.287,143.463a35.814,35.814,0,0,0-27.862-1.648,4.405,4.405,0,0,1,.265-4.707s15.055-6.494,27.772,2.76A3.4,3.4,0,0,1,454.287,143.463Z" transform="translate(-425.864 -134.893)"/></g></g><g class="p" transform="translate(15.2 22.888)"><path class="o" d="M437.82,151.124c-.2.587-1.567.656-3.057.154s-2.539-1.384-2.341-1.972,1.567-.655,3.057-.153S438.018,150.537,437.82,151.124Z" transform="translate(-432.397 -148.818)"/></g><g transform="translate(28.248 27.28)"><path class="o" d="M446.119,155.067a6.629,6.629,0,0,1-.661-.188c-1.49-.5-2.539-1.385-2.341-1.972s1.567-.656,3.056-.154c.2.067.4.143.578.223Z" transform="translate(-443.092 -152.418)"/></g><g transform="translate(20.692 19.439)"><path class="a" d="M438.668,147.752c-.271.805-.857,1.336-1.308,1.183s-.6-.927-.325-1.734.857-1.336,1.307-1.185S438.939,146.945,438.668,147.752Z" transform="translate(-436.899 -145.991)"/><g transform="translate(7.974 2.685)"><path class="a" d="M445.2,149.951c-.272.805-.857,1.336-1.308,1.185s-.6-.928-.326-1.735.858-1.336,1.308-1.183S445.475,149.145,445.2,149.951Z" transform="translate(-443.434 -148.192)"/></g></g><g transform="translate(6.253 27.504)"><path class="a" d="M428.795,152.6c-.068.077-1.958,2.18-3.726,2.388l0-.011.478-1.725A6.108,6.108,0,0,0,428.795,152.6Z" transform="translate(-425.064 -152.601)"/></g><g transform="translate(3.567 17.893)"><path class="m" d="M429.687,148.24s-1.765-5.413-5.271-2.807c-2.89,2.149-1.67,10.691,3.022,9.485Z" transform="translate(-422.863 -144.724)"/></g><g transform="translate(5.3 25.08)"><path class="e" d="M424.324,151.148a.783.783,0,1,0,.992-.493A.783.783,0,0,0,424.324,151.148Z" transform="translate(-424.283 -150.614)"/></g><g transform="translate(6.073 20.064)"><path class="a" d="M426.985,153.075l.037.01a.35.35,0,0,0,.417-.267,6.55,6.55,0,0,0-1.946-6.232.35.35,0,0,0-.454.533h0a5.844,5.844,0,0,1,1.717,5.549A.35.35,0,0,0,426.985,153.075Z" transform="translate(-424.916 -146.503)"/></g><g transform="translate(5.485 22.641)"><path class="a" d="M424.674,149.558a.348.348,0,0,0,.233,0h0a2.745,2.745,0,0,1,1.957-.078.35.35,0,1,0,.381-.587,3.365,3.365,0,0,0-2.583.01.349.349,0,0,0,.012.659Z" transform="translate(-424.435 -148.615)"/></g></g><g transform="translate(12.242 43.108)"><g transform="translate(0 1.468)"><path class="m" d="M417.862,223.724l-.828.073-.765.062-1.5.1q-1.5.088-2.983.142-2.977.108-5.972.07a88.431,88.431,0,0,1-12.252-.921,52.709,52.709,0,0,1-6.447-1.374,32.691,32.691,0,0,1-6.884-2.766,22.288,22.288,0,0,1-3.614-2.465,18.342,18.342,0,0,1-3.405-3.753,17.022,17.022,0,0,1-1.357-2.428c-.2-.425-.37-.867-.531-1.31-.082-.223-.15-.449-.222-.672l-.032-.107c-.039-.134-.074-.267-.1-.4a7.884,7.884,0,0,1-.159-.805,9.326,9.326,0,0,1-.107-1.41c0-.211,0-.442.018-.632s.029-.366.051-.549l.034-.271.039-.231c.024-.155.055-.309.088-.461.063-.293.128-.526.2-.789.072-.227.14-.438.22-.654a13.023,13.023,0,0,1,.848-1.841c.268-.483.523-.885.763-1.235s.47-.671.693-.968a34.4,34.4,0,0,1,2.474-2.854c.784-.819,1.552-1.564,2.314-2.283,1.521-1.427,3.025-2.744,4.533-4.019,3.012-2.541,6.033-4.922,9.071-7.251s6.094-4.589,9.164-6.821q2.3-1.676,4.618-3.33l2.323-1.647,2.366-1.653a9.265,9.265,0,0,1,10.616,15.187c-.1.07-.193.132-.293.2l-.116.072-2.282,1.458-2.307,1.5q-2.3,1.5-4.591,3.027-4.573,3.054-9.032,6.208c-2.961,2.1-5.881,4.234-8.653,6.4-1.381,1.082-2.728,2.177-3.968,3.255l-.061.055a19.849,19.849,0,0,0,1.95.742,36.639,36.639,0,0,0,4.451,1.116,72.614,72.614,0,0,0,10.019,1.108c1.726.082,3.471.112,5.216.1.869,0,1.742-.015,2.607-.041l1.292-.046,1.2-.057.257-.015a7.614,7.614,0,0,1,1.043,15.19Z" transform="translate(-370.698 -166.594)"/></g><g transform="translate(11.438 36.814)"><g transform="translate(0 2.512)"><path class="o" d="M380.29,198.428a.42.42,0,0,1,.181-.787,31.409,31.409,0,0,1,6.951.765.42.42,0,0,1-.184.82,31.22,31.22,0,0,0-6.723-.747A.41.41,0,0,1,380.29,198.428Z" transform="translate(-380.072 -197.624)"/></g><g transform="translate(2.68)"><path class="o" d="M386.266,199.429a.424.424,0,0,1-.166-.168c-.911-1.7-3.554-2.879-3.58-2.892a.42.42,0,0,1,.338-.769c.12.052,2.932,1.309,3.981,3.261a.419.419,0,0,1-.171.57A.424.424,0,0,1,386.266,199.429Z" transform="translate(-382.269 -195.564)"/></g></g><g transform="translate(43.252 33.623)"><g transform="translate(2.6 5.877)"><path class="m" d="M408.291,202.849s-.365-5.069,2.96-5.083a25.957,25.957,0,0,1,5.96.554Z" transform="translate(-408.279 -197.766)"/></g><g transform="translate(4.793)"><path class="a" d="M410.088,195.677l3.864,22.838a.636.636,0,0,0,.7.561l11.584-1.961a.635.635,0,0,0,.473-.76l-3.864-22.838a.638.638,0,0,0-.7-.561l-11.584,1.961A.635.635,0,0,0,410.088,195.677Z" transform="translate(-410.077 -192.949)"/></g><g transform="translate(0 4.367)"><path class="m" d="M424,211.535c-3.918.753-7.752,5.28-12.3,5.271-2.657,0-4.931-2.572-5.5-7.274a8.211,8.211,0,0,1,4.443-8.2,47.623,47.623,0,0,1,11.15-4.353c6.109-1.29,5.814.433,5.777,1.931-.016.636-.671.938-1.649,1.481,0,0,1.063-.242,1.048,1.232a2.641,2.641,0,0,1-.965,2.127s.966.813.792,1.658a4.186,4.186,0,0,1-.691,1.52,1.869,1.869,0,0,1,1.47,1.467C427.765,209.093,427.578,210.846,424,211.535Z" transform="translate(-406.149 -196.529)"/></g></g><g transform="translate(38.56 43.07)"><g transform="translate(3.202 0.135)"><path class="a" d="M405.239,201.485s-1.229,8.407,1.186,14.909a4.928,4.928,0,0,0,3.739-.041,30.564,30.564,0,0,1-1.136-15.331C407.715,200.644,405.759,200.727,405.239,201.485Z" transform="translate(-404.927 -200.803)"/></g><path class="a" d="M411.766,204.008c.123,1.987-1.894,3.73-4.506,3.892s-4.829-1.316-4.952-3.3,1.894-3.73,4.5-3.892S411.641,202.021,411.766,204.008Z" transform="translate(-402.303 -200.692)"/><g transform="translate(0.005 0.818)"><path class="a" d="M411.77,204.158c.157,2.806-1.9,4.256-4.511,4.418s-4.96-1.274-4.952-4.127c0-1.991,1.892-2.9,4.5-3.068S411.658,202.171,411.77,204.158Z" transform="translate(-402.307 -201.362)"/></g><g transform="translate(1.327 1.011)"><path class="e" d="M406.959,206.709c-1.876.117-3.476-.949-3.565-2.377s1.366-2.685,3.243-2.8,3.476.95,3.564,2.379S408.835,206.593,406.959,206.709Z" transform="translate(-403.39 -201.521)"/></g></g><g transform="translate(18.403)"><path class="n" d="M400.45,199.059l-.932-1.137-.371-.451-6.194-7.564-.381-.464-6.791-8.292a56.985,56.985,0,0,1,6.7-5.332c.3-.218.62-.444.955-.681,2.089-1.487,4.785-3.364,8.356-5.826a22.749,22.749,0,0,1,6.4-3.3c.2-.057.393-.112.584-.16a16.081,16.081,0,0,1,3.365-.458,10.8,10.8,0,0,1,10.783,7.344,10.489,10.489,0,0,1-.606,8.078C418.433,188.777,400.45,199.059,400.45,199.059Z" transform="translate(-385.781 -165.391)"/></g><g transform="translate(25.959 9.999)"><path class="g" d="M392.584,177.822a.609.609,0,0,1-.405-1.065l3.392-3.015a.61.61,0,1,1,.811.911l-3.393,3.015A.6.6,0,0,1,392.584,177.822Z" transform="translate(-391.974 -173.587)"/></g><g transform="translate(45.09 3.677)"><path class="g" d="M411.961,172.257a.614.614,0,0,1-.354-.112l-3.7-2.634a.61.61,0,1,1,.708-.993l3.7,2.633a.61.61,0,0,1-.354,1.107Z" transform="translate(-407.655 -168.405)"/></g><g transform="translate(45.071 15.389)"><path class="g" d="M408.287,183.761a.61.61,0,0,1-.61-.605l-.038-4.537a.61.61,0,0,1,.605-.615h0a.609.609,0,0,1,.61.6l.038,4.539a.61.61,0,0,1-.605.615Z" transform="translate(-407.639 -178.004)"/></g><g transform="translate(35.748 10.954)"><path class="g" d="M400.609,176.694a.61.61,0,0,1-.149-1.2l4.4-1.1a.61.61,0,1,1,.3,1.183l-4.4,1.1A.629.629,0,0,1,400.609,176.694Z" transform="translate(-399.998 -174.369)"/></g><g transform="translate(33.491 20.286)"><path class="g" d="M400.783,187.3a.608.608,0,0,1-.545-.338l-2.025-4.06a.609.609,0,1,1,1.091-.544l2.025,4.06a.61.61,0,0,1-.545.882Z" transform="translate(-398.148 -182.018)"/></g><g transform="translate(32.651 22.654)"><path class="g" d="M397.676,195.34a.425.425,0,0,1-.149-.139.42.42,0,0,1,.123-.581l16.294-10.594a.421.421,0,1,1,.459.705l-16.3,10.593A.417.417,0,0,1,397.676,195.34Z" transform="translate(-397.459 -183.959)"/><g transform="translate(12.37 2.552)"><path class="g" d="M407.815,186.837a.42.42,0,0,1,.329-.767l2.74.86a.42.42,0,0,1-.251.8l-2.74-.861A.406.406,0,0,1,407.815,186.837Z" transform="translate(-407.598 -186.05)"/></g></g></g><g transform="translate(0 39.376)"><g transform="translate(0 59.783)"><path class="q" d="M372.906,211.332l41.217,14.1s-7.644,36.048-25.347,41.037c-14.753,4.157-31.947-7.367-27.356-25.28A129.873,129.873,0,0,1,372.906,211.332Z" transform="translate(-360.664 -211.332)"/></g><g transform="translate(19.143 63.837)"><path class="i" d="M380.147,216.551a1.9,1.9,0,1,1-1.9-1.9A1.9,1.9,0,0,1,380.147,216.551Z" transform="translate(-376.354 -214.655)"/></g><g transform="translate(38.111 71.217)"><path class="i" d="M395.694,222.6a1.9,1.9,0,1,1-1.9-1.9A1.9,1.9,0,0,1,395.694,222.6Z" transform="translate(-391.901 -220.704)"/></g><g transform="translate(12.145 76.342)"><path class="i" d="M387.418,240.286c-.179-1.758-1.462-3.068-2.888-4.119-1.634-1.2-3.458-2.066-4.037-2.872a.738.738,0,0,1-.148-.721c.2-.534.836-.81,2.268-.326h0c.094.032.188.065.288.1a10.707,10.707,0,0,1,3.887,2.7c.092.1.184.194.276.3l.763-.809,2.466-2.611a11.7,11.7,0,0,0-2.55-2.212,16.186,16.186,0,0,0-1.747-1l.581-1.528.386-1.013-3.349-1.274-.983,2.589c-4.1-.935-6.907.583-7.926,3.265a4.558,4.558,0,0,0,.9,4.953,17.637,17.637,0,0,0,3.857,2.959c1.263.814,2.189,1.481,1.923,2.181-.217.571-.913.687-2.5.083a10.974,10.974,0,0,1-1.968-1,12.218,12.218,0,0,1-2.939-2.6l-3.356,3.4a9.958,9.958,0,0,0,1.535,1.554,17.456,17.456,0,0,0,3.936,2.427l-.548,1.445-.409,1.072,3.349,1.273,1-2.637c3.925.758,6.624-.77,7.6-3.336A4.845,4.845,0,0,0,387.418,240.286Z" transform="translate(-370.618 -224.904)"/></g><g transform="translate(20.071)"><g transform="translate(0 57.87)"><path class="a" d="M379.127,209.764c-1.281,4.617-1.973,7.583-1.987,7.645a.966.966,0,0,0,1.883.436c.027-.12.676-2.883,1.872-7.2C380.309,210.342,379.738,210.012,379.127,209.764Z" transform="translate(-377.115 -209.764)"/></g><g transform="translate(21.297)"><path class="a" d="M399.98,170.287a23.028,23.028,0,0,1,5.4-4.389,10.917,10.917,0,0,1,9.2-1.069,5.776,5.776,0,0,1,3.765,3.779c2.935,8.157-4.254,25.857-11.807,40.929.745-.013,1.488-.043,2.232-.083,7.524-15.195,14.492-32.888,11.392-41.5A7.691,7.691,0,0,0,415.19,163a12.915,12.915,0,0,0-10.757,1.216c-3.336,1.87-6.629,5.122-9.863,9.718,1.669-1.153,3.334-2.311,4.927-3.57A.447.447,0,0,1,399.98,170.287Z" transform="translate(-394.57 -162.332)"/></g><g transform="translate(18.955 62.721)"><path class="a" d="M398.65,213.74c-3.445,6.084-5.765,9.787-5.853,9.929a.965.965,0,1,0,1.637,1.024c.371-.593,2.962-4.547,6.546-10.9C400.223,213.814,399.408,213.735,398.65,213.74Z" transform="translate(-392.65 -213.74)"/></g></g></g></g><g transform="translate(137.082 47.307)"><g transform="translate(2.321)"><g transform="translate(0 17.68)"><path class="m" d="M437.2,201.259l.3.654.285.617.572,1.22q.582,1.21,1.176,2.407c.8,1.593,1.613,3.179,2.463,4.751s1.717,3.142,2.626,4.7,1.847,3.106,2.824,4.655,2.016,3.078,3.109,4.617,2.256,3.075,3.574,4.612c.659.77,1.353,1.545,2.122,2.327a31.492,31.492,0,0,0,2.6,2.377c.255.2.51.4.784.608l.425.306.106.076.161.109.34.222a12.649,12.649,0,0,0,1.637.87,11.422,11.422,0,0,0,2.124.691A10.617,10.617,0,0,0,471.807,236a11.845,11.845,0,0,0,1.661-1.107,12.95,12.95,0,0,0,1.219-1.11c.349-.36.647-.708.919-1.048a17.478,17.478,0,0,0,1.312-1.9,25.771,25.771,0,0,0,1.64-3.3c.431-1.027.781-2.012,1.09-2.973s.586-1.9.835-2.82c.5-1.848.915-3.644,1.293-5.422s.7-3.535,1.005-5.273l.449-2.6.416-2.578.8-5.088c.26-1.676.533-3.333.8-4.945.137-.8.283-1.593.432-2.36s.3-1.506.462-2.173l.043-.174a6.325,6.325,0,0,0-12.071-3.7c-.725,1.929-1.255,3.689-1.754,5.441s-.935,3.456-1.369,5.15l-2.48,9.967c-.415,1.625-.838,3.228-1.285,4.795s-.894,3.1-1.386,4.55c-.06.176-.12.348-.181.519l-.115-.152c-.084-.116-.17-.231-.256-.348l-.285-.389c-.35-.481-.7-.976-1.046-1.481-.882-1.282-1.743-2.621-2.6-3.988s-1.7-2.762-2.522-4.179-1.65-2.845-2.452-4.292-1.609-2.9-2.391-4.36q-.595-1.093-1.175-2.189l-1.132-2.138-.073-.135a8.031,8.031,0,0,0-14.416,7.063Z" transform="translate(-436.494 -183.324)"/></g><g transform="translate(25.14 51.315)"><g transform="translate(1.107)"><path class="o" d="M458.011,218.879a.386.386,0,0,0,.332.434h.017a.387.387,0,0,0,.415-.333,33.707,33.707,0,0,1,2.034-7.352c-.084-.116-.17-.231-.256-.348l-.285-.389c-.126.314-.271.681-.425,1.091-.113.3-.234.633-.354.981A31.113,31.113,0,0,0,458.011,218.879Z" transform="translate(-458.007 -210.892)"/></g><g transform="translate(0 1.026)"><path class="o" d="M457.453,214.079a.388.388,0,0,0,.261-.073,10.567,10.567,0,0,1,2.7-1.509.386.386,0,1,0-.156-.755,11.155,11.155,0,0,0-3,1.642.386.386,0,0,0,.2.7Z" transform="translate(-457.1 -211.733)"/></g></g><g transform="translate(37.21)"><path class="m" d="M468.22,190.962s2.606,6.282,7.692,6.322c4.108.03,6.893-4.562,7.815-6.328.221-.423.333-.683.333-.683a6.839,6.839,0,0,0,.727-.146c1.009-.25,2.762-.881,3.175-2.292.588-2.011-3.354-2.364-3.354-2.364s1.482-2.116.726-3.222c-.744-1.088-3.317-.748-3.317-.748s2.295-2.395,1.029-3.716c-1.906-1.985-4.112,1.21-4.3,1.4.129-.244,6.5-10.147,4.424-10.35-1.811-.177-7.836,7.806-9.21,10.1-.218.364-.34.573-.34.573s-.127-.057-.348-.139c-1.049-.393-4.214-1.364-5.638.533C465.907,182.2,468.22,190.962,468.22,190.962Z" transform="translate(-466.993 -168.833)"/><g transform="translate(9.514 14.068)"><path class="o" d="M478.673,184.518a4.152,4.152,0,0,0-1.355,2.229,1.228,1.228,0,0,0,.422,1.13,2.331,2.331,0,0,0,.97.411,12.848,12.848,0,0,0,3.3.131c.221-.423.333-.683.333-.683a6.655,6.655,0,0,0,.728-.145.387.387,0,0,0-.217-.034c-1.452.167-3.99.24-4.614-.282a.455.455,0,0,1-.144-.44,4.7,4.7,0,0,1,2.355-2.651.392.392,0,0,0-.273-.73c-.939.239-3.573.688-4.482-.071-.133-.111-.124-.189-.118-.231a1.323,1.323,0,0,1,.455-.665,9.67,9.67,0,0,1,2.062-1.381.393.393,0,0,0,.176-.526.394.394,0,0,0-.528-.176,10.672,10.672,0,0,0-2.08,1.358,3.326,3.326,0,0,0-.675.782,1.344,1.344,0,0,0-.19.519,1.019,1.019,0,0,0,.4.922C476,184.654,477.489,184.655,478.673,184.518Z" transform="translate(-474.791 -180.363)"/></g><g transform="translate(8.265 12.807)"><path class="o" d="M474.59,179.422a.386.386,0,0,1,.132.42,2.52,2.52,0,0,0-.139,1.255.446.446,0,0,0,.287.361,1.527,1.527,0,0,0,.688.024,11.536,11.536,0,0,0,2.6-.82.38.38,0,0,1-.168.165,9.625,9.625,0,0,0-2.062,1.381c-.093.017-.184.032-.272.043a2.977,2.977,0,0,1-.775.013,1.332,1.332,0,0,1-.277-.068,1.221,1.221,0,0,1-.783-.914,3.274,3.274,0,0,1,.151-1.684.384.384,0,0,1,.608-.184Z" transform="translate(-473.767 -179.329)"/></g><g transform="translate(2.019 10.103)"><path class="o" d="M468.854,181.857a12.941,12.941,0,0,0,2.9,1.094,4.408,4.408,0,0,0,2.335.01,1.962,1.962,0,0,0,1.2-1.105c.828-1.911-.706-3.791-1.7-4.742-.218.364-.34.573-.34.573s-.127-.057-.348-.139c.842.777,2.338,2.447,1.665,3.994a1.179,1.179,0,0,1-.736.677c-1.314.458-3.772-.605-4.609-1.053a.392.392,0,0,0-.371.691Z" transform="translate(-468.648 -177.113)"/></g><g transform="translate(5.507 15.795)"><path class="o" d="M473.192,190.945a.389.389,0,0,0,.375-.116.393.393,0,0,0-.021-.554,3.531,3.531,0,0,1-1.254-2.723c.06-2.6,2.935-5.057,2.964-5.082a.392.392,0,1,0-.506-.6c-.129.109-3.173,2.717-3.242,5.662a4.28,4.28,0,0,0,1.5,3.316A.388.388,0,0,0,473.192,190.945Z" transform="translate(-471.506 -181.779)"/></g></g></g><g transform="translate(0 12.645)"><path class="n" d="M448.468,179.2S454.736,196,459.4,202.335c0,0-7.422,10.868-18.513,11.616l-6.3-12.4S439.587,181.23,448.468,179.2Z" transform="translate(-434.592 -179.197)"/><g transform="translate(15.374 18.431)"><path class="g" d="M449.5,199.733a.607.607,0,0,1-.566-.383l-1.693-4.209a.61.61,0,1,1,1.132-.455l1.693,4.209a.611.611,0,0,1-.339.794A.62.62,0,0,1,449.5,199.733Z" transform="translate(-447.193 -194.304)"/></g><g transform="translate(7.66 24.089)"><path class="g" d="M441.481,204.02a.609.609,0,0,1-.518-.931l2.388-3.858a.61.61,0,1,1,1.037.642L442,203.732A.606.606,0,0,1,441.481,204.02Z" transform="translate(-440.871 -198.941)"/></g><g transform="translate(3.11 10.372)"><path class="g" d="M437.433,206.429l-.013,0a.43.43,0,0,1-.251-.551c.045-.121,4.537-12.094,8.432-17.982a.428.428,0,1,1,.715.472c-3.842,5.807-8.3,17.691-8.344,17.81A.429.429,0,0,1,437.433,206.429Z" transform="translate(-437.141 -187.698)"/><g transform="translate(5.248 4.628)"><path class="g" d="M441.734,193.353a.428.428,0,0,1,.017-.817l3.5-1.026a.428.428,0,0,1,.24.822l-3.5,1.026A.43.43,0,0,1,441.734,193.353Z" transform="translate(-441.442 -191.492)"/></g></g></g></g></g><g transform="translate(632.343 353.239)"><g transform="translate(0 32.735)"><path class="r" d="M573.607,422.724h77.944l-10.735-86.743H584.342Z" transform="translate(-573.607 -335.981)"/></g><g transform="translate(3.944 32.735)"><path class="q" d="M576.839,422.724h77.944l-10.736-86.743H587.575Z" transform="translate(-576.839 -335.981)"/></g><g transform="translate(30.141 58.002)"><path class="r" d="M623.2,377.706c-1.183-2.534-3.781-3.825-6.459-4.656-3.068-.948-6.243-1.29-7.529-2.192a1.167,1.167,0,0,1-.6-1c.026-.906.827-1.646,3.221-1.669h0c.156,0,.315,0,.484.006a16.921,16.921,0,0,1,7.213,2.013c.187.1.377.2.566.3l.72-1.606,2.328-5.184a18.419,18.419,0,0,0-4.962-1.98,25.583,25.583,0,0,0-3.131-.583l.074-2.585.049-1.714-5.667-.162-.124,4.381c-6.618.737-10.022,4.463-10.148,9a7.215,7.215,0,0,0,3.922,6.935,27.962,27.962,0,0,0,7.3,2.418c2.31.558,4.042,1.075,4.008,2.261-.027.966-1.008,1.5-3.7,1.425a17.344,17.344,0,0,1-3.464-.477,19.255,19.255,0,0,1-5.747-2.36l-3.25,6.826a15.816,15.816,0,0,0,3.1,1.526,27.632,27.632,0,0,0,7.146,1.58l-.068,2.445-.052,1.815,5.667.16.126-4.461c6.26-.909,9.5-4.6,9.626-8.938A7.7,7.7,0,0,0,623.2,377.706Z" transform="translate(-598.311 -356.69)"/></g><g transform="translate(23.081)"><g transform="translate(29.575 34.419)"><path class="r" d="M616.765,340.023a2.662,2.662,0,1,0,2.662-2.662A2.662,2.662,0,0,0,616.765,340.023Z" transform="translate(-616.765 -337.361)"/></g><g transform="translate(2.337 34.419)"><path class="r" d="M594.44,340.023a2.662,2.662,0,1,0,2.662-2.662A2.662,2.662,0,0,0,594.44,340.023Z" transform="translate(-594.44 -337.361)"/></g><g transform="translate(4.024)"><path class="a" d="M623.971,345.923h0a1.109,1.109,0,0,0,1.079-1.164,116.985,116.985,0,0,0-2.079-16.893c-2.588-12.419-6.912-18.716-12.853-18.716s-10.167,6.3-12.526,18.735a116.515,116.515,0,0,0-1.768,16.893,1.109,1.109,0,0,0,1.1,1.143h0a1.108,1.108,0,0,0,1.12-1.082c.25-10.277,2.767-33.461,12.074-33.461,9.322,0,12.274,23.2,12.714,33.483A1.109,1.109,0,0,0,623.971,345.923Z" transform="translate(-595.823 -309.15)"/></g><g transform="translate(0 1.209)"><path class="a" d="M619.748,345.7h0a1.075,1.075,0,0,0,1.043-1.126,113.2,113.2,0,0,0-2.012-16.337c-2.5-12.01-6.685-18.1-12.43-18.1s-9.832,6.1-12.115,18.119a112.706,112.706,0,0,0-1.709,16.338,1.073,1.073,0,0,0,1.064,1.105h0a1.07,1.07,0,0,0,1.083-1.046c.243-9.94,2.677-32.361,11.677-32.361,9.016,0,11.87,22.437,12.3,32.382A1.074,1.074,0,0,0,619.748,345.7Z" transform="translate(-592.525 -310.141)"/></g></g></g><g transform="translate(587.806 396.552)"><g transform="translate(23.092 0.63)"><path class="a" d="M588.084,373.893h0c.479-.021.849-.643.807-1.362a59.553,59.553,0,0,0-2.2-12.89c-2.831-9.469-7.838-14.475-14.481-14.475s-11.572,5.014-14.23,14.5a59.04,59.04,0,0,0-1.954,12.892c-.029.721.353,1.33.832,1.33h0c.442,0,.805-.517.833-1.18a55.914,55.914,0,0,1,1.844-12.132c2.413-8.562,6.677-12.9,12.675-12.9,6.023,0,10.384,4.373,12.961,13a56.433,56.433,0,0,1,2.056,12.08C587.27,373.411,587.643,373.912,588.084,373.893Z" transform="translate(-556.029 -345.167)"/></g><g transform="translate(0 19.799)"><path class="g" d="M537.1,417.272h80.022l-7.367-56.393H544.469Z" transform="translate(-537.102 -360.879)"/></g><g transform="translate(4.217 19.799)"><path class="n" d="M540.559,417.272h80.022l-7.367-56.393H547.926Z" transform="translate(-540.559 -360.879)"/></g><g transform="translate(29.418 33.658)"><path class="q" d="M561.214,387.048a14.81,14.81,0,1,0,14.81-14.81A14.827,14.827,0,0,0,561.214,387.048Zm8.311,5.468a19.55,19.55,0,0,1-.792-5.189h6.7v5.189Zm3.491,7.816a13.566,13.566,0,0,1-8.867-6.624h4.51a16.508,16.508,0,0,0,2.574,4.719A15.073,15.073,0,0,0,573.016,400.332Zm2.413-6.624v6.945a12.407,12.407,0,0,1-3.288-3,15.263,15.263,0,0,1-2.211-3.946Zm-5.174-13.951a18.49,18.49,0,0,1,4.644-6.281q.265-.022.531-.033v6.314Zm-5.726,0a13.688,13.688,0,0,1,8.294-5.948,19.956,19.956,0,0,0-1.874,2.308,19.332,19.332,0,0,0-1.995,3.639Zm4.212,6.38a17,17,0,0,1,1.029-5.189h5.66v5.189Zm-6.305,0a13.472,13.472,0,0,1,1.414-5.189h4.656a18.243,18.243,0,0,0-.956,5.189Zm5.107,1.191a20.925,20.925,0,0,0,.742,5.189h-4.733a13.468,13.468,0,0,1-1.142-5.189Zm16.824,0h5.272a13.489,13.489,0,0,1-1.143,5.189h-4.869A20.982,20.982,0,0,0,584.367,387.328Zm-7.747-7.57v-6.314c.127,0,.251.012.377.021a17.6,17.6,0,0,1,3,3.361,18.211,18.211,0,0,1,1.657,2.932Zm5.522,1.191a17.1,17.1,0,0,1,1.027,5.189H576.62v-5.189Zm.815-1.191a19.407,19.407,0,0,0-2-3.639,19.922,19.922,0,0,0-1.913-2.349,13.666,13.666,0,0,1,8.471,5.988Zm.22,7.57a19.531,19.531,0,0,1-.789,5.189H576.62v-5.189Zm1.185-1.191a18.239,18.239,0,0,0-.956-5.189H588.2a13.426,13.426,0,0,1,1.415,5.189Zm3.539,7.572a13.748,13.748,0,0,1-9.05,6.663,15.075,15.075,0,0,0,1.826-1.944,16.51,16.51,0,0,0,2.574-4.719Zm-5.922,0a14.007,14.007,0,0,1-5.359,6.86v-6.86Z" transform="translate(-561.214 -372.238)"/></g><g transform="translate(26.279)"><g transform="translate(0 22.221)"><path class="g" d="M558.641,365.56a2.564,2.564,0,1,0,2.561-2.7A2.631,2.631,0,0,0,558.641,365.56Z" transform="translate(-558.641 -362.864)"/></g><g transform="translate(30.919 22.221)"><path class="g" d="M583.983,365.56a2.564,2.564,0,1,0,2.561-2.7A2.632,2.632,0,0,0,583.983,365.56Z" transform="translate(-583.983 -362.864)"/></g><g transform="translate(1.898)"><path class="a" d="M591.841,370.32a.841.841,0,0,1-.837-.752,53.65,53.65,0,0,0-1.828-9.413c-2.577-8.623-6.937-12.995-12.961-12.995-6,0-10.263,4.341-12.676,12.9a53.127,53.127,0,0,0-1.667,9.488.839.839,0,0,1-.836.767h0a.839.839,0,0,1-.837-.911,56.683,56.683,0,0,1,1.786-10.255c2.657-9.487,7.578-14.5,14.229-14.5s11.65,5.006,14.481,14.475a57.43,57.43,0,0,1,1.98,10.266.839.839,0,0,1-.836.928Z" transform="translate(-560.196 -344.651)"/></g></g></g><g transform="translate(379.68 109.648)"><g transform="translate(91.54 150.658)"><path class="d" d="M456.02,261.818h-.144a14.365,14.365,0,0,1-14.331-14.4v-.11a14.381,14.381,0,0,1,14.364-14.331h.141a14.382,14.382,0,0,1,14.333,14.4v.109a14.365,14.365,0,0,1-14.362,14.332Zm-.032-.982h.031A13.384,13.384,0,0,0,469.4,247.483v-.109a13.4,13.4,0,0,0-13.352-13.413h-.139a13.4,13.4,0,0,0-13.383,13.351v.11a13.384,13.384,0,0,0,13.352,13.413Z" transform="translate(-441.545 -232.979)"/><g transform="translate(5.703 7.445)"><path class="d" d="M455.184,255.623h0a.5.5,0,0,1-.348-.144l-6.951-6.984a5.753,5.753,0,0,1,.016-8.112,4.193,4.193,0,0,1,3.4-1.282,5.857,5.857,0,0,1,3.913,2.468,5.856,5.856,0,0,1,3.924-2.45,4.2,4.2,0,0,1,3.4,1.3,5.754,5.754,0,0,1-.021,8.111l-6.984,6.952A.493.493,0,0,1,455.184,255.623ZM450.9,240.063a3.234,3.234,0,0,0-2.3,1.016,4.77,4.77,0,0,0-.013,6.723l6.605,6.636,6.636-6.605a4.728,4.728,0,0,0,1.395-3.359h0a4.718,4.718,0,0,0-1.377-3.362,3.191,3.191,0,0,0-2.607-1.014,5.258,5.258,0,0,0-3.611,2.583.491.491,0,0,1-.406.216h0a.492.492,0,0,1-.407-.217,5.26,5.26,0,0,0-3.6-2.6Q451.05,240.063,450.9,240.063Z" transform="translate(-446.219 -239.081)"/></g></g><g transform="translate(0 49.37)"><path class="d" d="M377.44,167.487h-4.321a.969.969,0,0,1-.969-.968v-4.665h-4.665a.97.97,0,0,1-.969-.969v-4.321a.97.97,0,0,1,.969-.969h4.665v-4.667a.97.97,0,0,1,.969-.969h4.321a.969.969,0,0,1,.967.969V155.6h4.668a.969.969,0,0,1,.967.969v4.321a.97.97,0,0,1-.967.969h-4.668v4.665A.969.969,0,0,1,377.44,167.487Zm-9.956-11.017a.093.093,0,0,0-.094.094v4.321a.094.094,0,0,0,.094.094h5.539v5.54a.1.1,0,0,0,.1.094h4.321a.1.1,0,0,0,.094-.094v-5.54h5.542a.1.1,0,0,0,.094-.094v-4.321a.094.094,0,0,0-.094-.094h-5.542v-5.542a.094.094,0,0,0-.094-.094h-4.321a.094.094,0,0,0-.1.094v5.542Z" transform="translate(-366.516 -149.96)"/></g><g transform="translate(344.585 306.808)"><path class="d" d="M659.873,378.492h-4.321a.969.969,0,0,1-.969-.967v-4.666h-4.666a.97.97,0,0,1-.969-.969v-4.321a.97.97,0,0,1,.969-.969h4.666v-4.667a.97.97,0,0,1,.969-.969h4.321a.97.97,0,0,1,.969.969V366.6h4.667a.97.97,0,0,1,.969.969v4.321a.97.97,0,0,1-.969.969h-4.667v4.666A.969.969,0,0,1,659.873,378.492Zm-9.956-11.017a.094.094,0,0,0-.094.094v4.321a.1.1,0,0,0,.094.094h5.54v5.54a.094.094,0,0,0,.094.094h4.321a.094.094,0,0,0,.094-.094v-5.54h5.542a.094.094,0,0,0,.094-.094v-4.321a.093.093,0,0,0-.094-.094h-5.542v-5.542a.093.093,0,0,0-.094-.094h-4.321a.093.093,0,0,0-.094.094v5.542Z" transform="translate(-648.949 -360.965)"/></g><g transform="translate(15.257)"><path class="d" d="M413.156,146.454l-6.005-6.514a22.842,22.842,0,0,1-8.638,1.676c-10.748,0-19.492-7.2-19.492-16.061s8.744-16.061,19.492-16.061,19.51,7.206,19.51,16.061a14.817,14.817,0,0,1-5.867,11.471l1.842,9a.491.491,0,0,1-.842.432ZM380,125.556c0,8.315,8.3,15.079,18.51,15.079a21.781,21.781,0,0,0,8.571-1.731.491.491,0,0,1,.555.118l5.044,5.47-1.551-7.564a.493.493,0,0,1,.181-.487,13.9,13.9,0,0,0,5.728-10.884c0-8.313-8.311-15.079-18.528-15.079S380,117.242,380,125.556Z" transform="translate(-379.021 -109.495)"/><g transform="translate(7.8 12.647)"><g transform="translate(16.748)"><path class="d" d="M399.141,123.025a3.164,3.164,0,1,1,3.165,3.164A3.168,3.168,0,0,1,399.141,123.025Zm.982,0a2.182,2.182,0,1,0,2.183-2.183A2.185,2.185,0,0,0,400.123,123.025Z" transform="translate(-399.141 -119.861)"/></g><g transform="translate(8.374)"><path class="d" d="M392.278,123.025a3.164,3.164,0,1,1,3.164,3.164A3.167,3.167,0,0,1,392.278,123.025Zm.981,0a2.182,2.182,0,1,0,2.183-2.183A2.185,2.185,0,0,0,393.259,123.025Z" transform="translate(-392.278 -119.861)"/></g><path class="d" d="M385.414,123.025a3.164,3.164,0,1,1,3.164,3.164A3.167,3.167,0,0,1,385.414,123.025Zm.981,0a2.182,2.182,0,1,0,2.183-2.183A2.185,2.185,0,0,0,386.395,123.025Z" transform="translate(-385.414 -119.861)"/></g></g></g></g></svg>