<svg xmlns="http://www.w3.org/2000/svg" width="395.46" height="388.57" viewBox="0 0 395.46 388.57"><defs><style>.a{fill:#e6e6e6;}.b{fill:#fff;}.c{fill:#f6b452;}.d{fill:#a0616a;}.e{fill:#ccc;}.f{fill:#2f2e41;}</style></defs><g transform="translate(0 0)"><path class="a" d="M281.168,135.231a9.587,9.587,0,0,0-9.576,9.576v320a9.587,9.587,0,0,0,9.576,9.576H525.123a9.587,9.587,0,0,0,9.576-9.576v-320a9.587,9.587,0,0,0-9.576-9.576Z" transform="translate(-271.592 -135.231)"/><path class="b" d="M521.948,290.548h-229.3a10.205,10.205,0,0,1-10.194-10.194V215.007a10.205,10.205,0,0,1,10.194-10.194h229.3a10.205,10.205,0,0,1,10.194,10.194v65.347A10.205,10.205,0,0,1,521.948,290.548Z" transform="translate(-275.742 -161.825)"/><path class="b" d="M521.948,452.037h-229.3a10.205,10.205,0,0,1-10.194-10.194V376.495A10.205,10.205,0,0,1,292.644,366.3h229.3a10.205,10.205,0,0,1,10.194,10.194v65.348A10.205,10.205,0,0,1,521.948,452.037Z" transform="translate(-275.742 -223.545)"/><path class="b" d="M293.026,528.791a9.587,9.587,0,0,0-9.576,9.576v65.348a9.587,9.587,0,0,0,9.576,9.576h229.3a9.587,9.587,0,0,0,9.576-9.576V538.367a9.587,9.587,0,0,0-9.576-9.576Z" transform="translate(-276.124 -285.648)"/><circle class="b" cx="6.977" cy="6.977" r="6.977" transform="translate(242.486 5.97)"/><circle class="a" cx="6.977" cy="6.977" r="6.977" transform="translate(22.889 178.647)"/><path class="a" d="M412.494,437.935H358.074a5.89,5.89,0,0,1,0-11.781h54.419a5.89,5.89,0,0,1,0,11.781Z" transform="translate(-302.394 -246.421)"/><circle class="a" cx="6.977" cy="6.977" r="6.977" transform="translate(146.903 178.996)"/><path class="a" d="M613.225,438.5H558.806a5.89,5.89,0,1,1,0-11.781h54.419a5.89,5.89,0,1,1,0,11.781Z" transform="translate(-379.112 -246.636)"/><path class="a" d="M405.173,16.063l-.987-.987-2.646,2.647-2.647-2.647-.987.987,2.647,2.647-2.647,2.646.987.987L401.54,19.7l2.646,2.647.987-.987-2.646-2.646Z" transform="translate(-152.077 -5.762)"/><circle class="a" cx="6.977" cy="6.977" r="6.977" transform="translate(22.889 78.878)"/><path class="a" d="M545.015,275.316H378.966a5.89,5.89,0,0,1,0-11.781H545.015a5.89,5.89,0,1,1,0,11.781Z" transform="translate(-310.378 -184.268)"/><path class="c" d="M509.371,275.316H361.462a5.89,5.89,0,1,1,0-11.781H509.371a5.89,5.89,0,1,1,0,11.781Z" transform="translate(-303.688 -184.268)"/><circle class="a" cx="6.977" cy="6.977" r="6.977" transform="translate(22.889 278.416)"/><path class="a" d="M545.015,598.3H378.966a5.89,5.89,0,1,1,0-11.781H545.015a5.89,5.89,0,1,1,0,11.781Z" transform="translate(-310.378 -307.709)"/><path class="c" d="M449.894,598.3H361.462a5.89,5.89,0,1,1,0-11.781h88.432a5.89,5.89,0,1,1,0,11.781Z" transform="translate(-303.689 -307.709)"/><path class="c" d="M367.667,437.935h-9.593a5.89,5.89,0,1,1,0-11.781h9.593a5.89,5.89,0,1,1,0,11.781Z" transform="translate(-302.394 -246.421)"/><path class="c" d="M588.807,438.5h-30a5.89,5.89,0,1,1,0-11.781h30a5.89,5.89,0,1,1,0,11.781Z" transform="translate(-379.112 -246.636)"/><path class="d" d="M845.095,544.728a6.213,6.213,0,0,0,5.354-7.879l18.086-12.661-10.667-4.224-15.539,12.671a6.246,6.246,0,0,0,2.766,12.093Z" transform="translate(-488.139 -282.274)"/><path class="e" d="M860.543,513.016a2.786,2.786,0,0,1-1.129-.241,2.751,2.751,0,0,1-1.593-1.957l-1.214-5.639a2.784,2.784,0,0,1,.88-2.672l10.725-9.444-10.587-22.183a6.777,6.777,0,0,1,11.725-6.722l13.559,20a13.06,13.06,0,0,1,1.975,10.185,13.626,13.626,0,0,1-6.572,8.8l-16.379,9.5A2.765,2.765,0,0,1,860.543,513.016Z" transform="translate(-495.157 -259.808)"/><path class="d" d="M764.012,518.475a6.213,6.213,0,0,0,9.142-2.678l22.01,1.724-5.549-10.041-20.05-.1a6.246,6.246,0,0,0-5.553,11.093Z" transform="translate(-458.717 -277.323)"/><circle class="d" cx="15.174" cy="15.174" r="15.174" transform="translate(342.756 158.226)"/><path class="d" d="M502.548,597.373l-7.259-2.16,4.876-29.029,10.715,3.188Z" transform="translate(-189.296 -216.392)"/><path class="f" d="M763.758,755.485l-23.408-6.965.088-.3a9.505,9.505,0,0,1,11.822-6.4h0l14.3,4.254Z" transform="translate(-450.748 -366.916)"/><path class="d" d="M628.863,597.993h-7.574l-3.6-29.215h7.472Z" transform="translate(-236.076 -217.383)"/><path class="f" d="M895.388,757.11H870.965V756.8a9.506,9.506,0,0,1,9.506-9.506h14.917Z" transform="translate(-500.669 -369.158)"/><path class="f" d="M776.727,658.484h-7.605a2.78,2.78,0,0,1-2.734-3.283l10.652-57.991c-.01-42.25,16.613-66.721,16.78-66.964l.2-.293,31.068,2.535,30.966,122.044a2.78,2.78,0,0,1-2.56,3.461l-8.545.414a2.767,2.767,0,0,1-2.716-1.744L809.5,574.824a.885.885,0,0,0-.882-.582.909.909,0,0,0-.854.622l-28.41,81.753A2.782,2.782,0,0,1,776.727,658.484Z" transform="translate(-460.682 -286.092)"/><path class="e" d="M841.877,503.457l-.237-.017-33.078-2.5,5.8-36.9a19.321,19.321,0,0,1,16.509-16.2h0q.381-.053.768-.1a19.091,19.091,0,0,1,17.351,6.944,19.331,19.331,0,0,1,3.308,18.639Z" transform="translate(-476.819 -254.608)"/><path class="e" d="M815.913,497.066a13.082,13.082,0,0,1-9.635,2.8l-19.144-2.061a2.78,2.78,0,0,1-2.233-3.917l2.553-5.6a2.778,2.778,0,0,1,2.344-1.622l13.953-.935,4.581-24.145a6.785,6.785,0,0,1,6.659-5.514,6.709,6.709,0,0,1,5.047,2.255,7,7,0,0,1,1.717,4.98l-.887,23.938a13.059,13.059,0,0,1-4.55,9.486Q816.118,496.9,815.913,497.066Z" transform="translate(-467.68 -257.854)"/><path class="f" d="M824.8,398.391a19.77,19.77,0,0,1-5.9,1.3,6.446,6.446,0,0,1-5.31-2.229,5.552,5.552,0,0,1-.611-4.6,10.917,10.917,0,0,1,6.025-7.078,12.826,12.826,0,0,1,9.834-.317c1.142-3.471,5.442-5.359,9.422-5.466,8.13-.218,15.4,5.325,18.932,11.991s4.048,14.286,4.268,21.683a10.579,10.579,0,0,1-.779,5.314c-1.273,2.425-4.164,3.731-6.89,4.767a129.346,129.346,0,0,1-22.035,6.194,7.827,7.827,0,0,0,2.467-10.7c-1.118-1.678-2.954-3.076-3.251-5.02-.356-2.331,1.633-4.369,2.368-6.625a6.733,6.733,0,0,0-1.921-6.95,8.443,8.443,0,0,0-7.622-1.808" transform="translate(-478.413 -228.78)"/></g></svg>