<svg xmlns="http://www.w3.org/2000/svg" width="80" height="80" viewBox="0 0 80 80"><defs><style>.a{fill:#2b569f;}</style></defs><path class="a" d="M40,0A40,40,0,1,0,80,40,39.978,39.978,0,0,0,40,0ZM64.97,64.97a35.353,35.353,0,0,1-49.939,0h0a35.312,35.312,0,1,1,49.939,0Z" transform="translate(0)"/><path class="a" d="M138.013,130.069a9.372,9.372,0,0,0-13.3.048l-14.587,14.792-5.73-5.728a9.369,9.369,0,1,0-13.252,13.247c9.494,9.49,6.778,6.781,12.25,12.248a9.67,9.67,0,0,0,13.653,0c5.225-5.222,21.014-21.405,21.014-21.405a9.389,9.389,0,0,0-.048-13.2Zm-3.289,9.911c-17.64,17.89-20.99,21.381-20.99,21.381a4.978,4.978,0,0,1-7.028,0L94.457,149.115a4.684,4.684,0,1,1,6.626-6.623l7.4,7.4a2.344,2.344,0,0,0,3.325-.012L128.05,133.4a4.685,4.685,0,0,1,6.674,6.576Z" transform="translate(-74.578 -107.413)"/></svg>