<svg xmlns="http://www.w3.org/2000/svg" width="111.594" height="80" viewBox="0 0 111.594 80"><defs><style>.a{fill:#2b569f;}</style></defs><g transform="translate(0 -72.477)"><g transform="translate(0 72.477)"><g transform="translate(0 0)"><path class="a" d="M102.819,72.477H8.775A8.784,8.784,0,0,0,0,81.251V143.7a8.784,8.784,0,0,0,8.775,8.775h94.045a8.784,8.784,0,0,0,8.775-8.775V81.251A8.784,8.784,0,0,0,102.819,72.477ZM21.964,145.935H8.775A2.235,2.235,0,0,1,6.542,143.7V81.251a2.235,2.235,0,0,1,2.232-2.232h13.19Zm83.087-2.232a2.235,2.235,0,0,1-2.232,2.232H28.507V92.086h76.545Zm0-58.159H28.507V79.019h74.312a2.235,2.235,0,0,1,2.232,2.232Z" transform="translate(0 -72.477)"/></g></g><g transform="translate(43.337 108.907)"><path class="a" d="M209.713,251.559q-1.937,0-2.042,1.247a8.67,8.67,0,0,1-.119.875,4.413,4.413,0,0,1-.279.809,1.415,1.415,0,0,1-.7.73,2.817,2.817,0,0,1-1.233.239q-2.414,0-2.414-2.653v-7.029q0-2.652,2.387-2.653a2.143,2.143,0,0,1,2.361,2.387q.08,1.247,2.069,1.247a2.436,2.436,0,0,0,1.592-.411,2,2,0,0,0,.477-1.552,4.578,4.578,0,0,0-1.87-3.873,7.753,7.753,0,0,0-4.788-1.406,6.823,6.823,0,0,0-4.6,1.512,5.922,5.922,0,0,0-1.764,4.748v7.029a5.921,5.921,0,0,0,1.764,4.748,6.822,6.822,0,0,0,4.6,1.512,7.458,7.458,0,0,0,4.788-1.486,4.9,4.9,0,0,0,1.87-4.059,2,2,0,0,0-.477-1.552A2.5,2.5,0,0,0,209.713,251.559Z" transform="translate(-198.784 -239.516)"/></g><g transform="translate(58.491 108.907)"><path class="a" d="M281.607,256.441l-3.236-5.863q3.21-1.246,3.21-5.385,0-5.676-6.526-5.677h-5.491a1.246,1.246,0,0,0-1.273,1.246v16.871a1.029,1.029,0,0,0,.61.942,3.376,3.376,0,0,0,2.918,0,1.03,1.03,0,0,0,.61-.942v-6.393h1.751l3.634,7.056a1.377,1.377,0,0,0,1.326.769,2.731,2.731,0,0,0,1.764-.69,1.926,1.926,0,0,0,.836-1.459A.809.809,0,0,0,281.607,256.441Zm-4.775-8.953a2.511,2.511,0,0,1-1.777.57h-2.626v-4.934h2.626a2.671,2.671,0,0,1,1.777,4.364Z" transform="translate(-268.291 -239.517)"/></g><g transform="translate(74.021 108.907)"><g transform="translate(0 0)"><path class="a" d="M354.929,240.021a2.2,2.2,0,0,0-1.472-.5,3.708,3.708,0,0,0-1.817.358,4.616,4.616,0,0,0-1.393,1.711l-2.732,4.775-2.732-4.775a4.616,4.616,0,0,0-1.393-1.711,3.709,3.709,0,0,0-1.817-.358,2.2,2.2,0,0,0-1.472.5,1.936,1.936,0,0,0-.6,1.565v16.049a1.029,1.029,0,0,0,.61.941,3.376,3.376,0,0,0,2.918,0,1.03,1.03,0,0,0,.61-.941V247.421l2.52,4.616a1.356,1.356,0,0,0,1.3.769,1.492,1.492,0,0,0,1.379-.769l2.547-4.35v9.948a1.029,1.029,0,0,0,.61.941,3.376,3.376,0,0,0,2.918,0,1.03,1.03,0,0,0,.61-.941V241.586A1.937,1.937,0,0,0,354.929,240.021Z" transform="translate(-339.504 -239.517)"/></g></g></g></svg>