<svg xmlns="http://www.w3.org/2000/svg" width="80" height="80" viewBox="0 0 80 80"><defs><style>.a{fill:#2b569f;}</style></defs><path class="a" d="M75.313,31.619v-7.4A5.449,5.449,0,0,0,73.75,20.4V8.593A8.6,8.6,0,0,0,65.156,0H8.594A8.6,8.6,0,0,0,0,8.593v37.5a8.6,8.6,0,0,0,8.594,8.594H25.811l-1.563,4.688H22.813a7.039,7.039,0,0,0-7.031,7.031v4.688a2.344,2.344,0,0,0,2.344,2.344H36.779a5.476,5.476,0,0,0,4.94,3.125h8.987A5.476,5.476,0,0,0,55.781,80h18.75A5.475,5.475,0,0,0,80,74.531v-37.5a5.476,5.476,0,0,0-4.687-5.412Zm-34.375,30.1v-37.5a.781.781,0,0,1,.781-.781H69.844a.781.781,0,0,1,.781.781v7.344H55.781a5.469,5.469,0,0,0-5.469,5.469V62.5H40.938ZM55,37.031a.782.782,0,0,1,.781-.781h18.75a.782.782,0,0,1,.781.781V65.937H55ZM8.594,4.687H65.156a3.911,3.911,0,0,1,3.906,3.906V18.75H41.719a5.475,5.475,0,0,0-5.469,5.469V40.625H4.688V8.594A3.911,3.911,0,0,1,8.594,4.687ZM4.688,46.094v-.781H36.25V50H8.594A3.911,3.911,0,0,1,4.688,46.094Zm26.065,8.594h5.5v4.688H29.19ZM20.469,66.406a2.347,2.347,0,0,1,2.344-2.344H36.25V68.75H20.469Zm20.469,4.688V67.187h9.375v4.688H41.719A.782.782,0,0,1,40.938,71.094Zm33.594,4.219H55.781A.782.782,0,0,1,55,74.531V70.625H75.313v3.906A.782.782,0,0,1,74.531,75.312Zm0,0" transform="translate(0 0)"/></svg>