<svg xmlns="http://www.w3.org/2000/svg" width="65.298" height="20" viewBox="0 0 65.298 20">
  <g id="ibtdi" transform="translate(-180.995 -6242.682)">
    <g id="Group_2024" data-name="Group 2024" transform="translate(180.995 6242.682)">
      <path id="Path_7427" data-name="Path 7427" d="M576.837,1018.853q-.425,2.233-.851,4.467c-.033.173-.061.347-.1.518-.029.127-.1.305,0,.422a.325.325,0,0,0,.263.088c.17,0,.339,0,.508,0h4.558c.128,0,.3.033.407-.063s.11-.277.135-.41l.213-1.118q.214-1.125.428-2.25l.212-1.113c.034-.181.2-.63-.068-.717a1.053,1.053,0,0,0-.311-.013h-4.352c-.229,0-.46,0-.689,0C577.041,1018.662,576.87,1018.68,576.837,1018.853Z" transform="translate(-527.293 -1004.358)" fill="#0074d9"/>
      <path id="Path_7428" data-name="Path 7428" d="M646.277,901.615q-.052-2.283-.1-4.564-.014-.574-.026-1.147c-.008-.339.015-.7-.026-1.033a.235.235,0,0,0-.2-.223,3.282,3.282,0,0,0-.522,0h-4.538a1.57,1.57,0,0,0-.5.015c-.123.046-.15.187-.172.3q-.423,2.228-.847,4.455-.852,4.483-1.7,8.965l-.857,4.51c-.07.37-.141.74-.211,1.11-.024.13-.1.316-.046.445a.3.3,0,0,0,.306.147h5.079c.116,0,.266,0,.337-.107a1.445,1.445,0,0,0,.108-.467c.037-.189.074-.377.111-.566l.881-4.475q.432-2.2.865-4.392c.07-.357.141-.714.211-1.07.035-.178.07-.357.106-.536a1.214,1.214,0,0,1,.128-.487.916.916,0,0,1,.389-.206l.53-.221.472-.2C646.164,901.823,646.281,901.757,646.277,901.615Z" transform="translate(-580.979 -894.602)" fill="#0074d9"/>
      <path id="Path_7429" data-name="Path 7429" d="M467.747,962.443c.161,0,.224-.15.252-.284.041-.19.07-.386.108-.577q.157-.795.314-1.589.32-1.617.639-3.235H463.4a.241.241,0,0,0-.25.2c-.044.166-.066.341-.1.51q-.213,1.115-.425,2.23l-.413,2.166c-.029.148-.124.413.014.533.1.083.269.048.383.048h.592Q465.474,962.442,467.747,962.443Z" transform="translate(-426.684 -949.578)" fill="#0074d9"/>
      <path id="Path_7430" data-name="Path 7430" d="M480.6,894.686h-5.06c-.133,0-.348-.044-.463.034a.373.373,0,0,0-.122.253l-.1.544q-.215,1.125-.429,2.251l-.423,2.221c-.023.119-.046.245.067.327a.728.728,0,0,0,.426.058h4.526c.166,0,.332,0,.5,0a.315.315,0,0,0,.29-.112.973.973,0,0,0,.072-.3l.076-.4.151-.8.306-1.607.306-1.607a4.485,4.485,0,0,0,.106-.6C480.834,894.8,480.769,894.686,480.6,894.686Z" transform="translate(-437.154 -894.638)" fill="#0074d9"/>
      <path id="Path_7431" data-name="Path 7431" d="M303.681,907.49a7.953,7.953,0,0,0,3.976-.938,6.107,6.107,0,0,0,2.525-2.837,7.751,7.751,0,0,0,.539-1.934c.119-.751.281-1.494.425-2.24q.434-2.224.866-4.447a.547.547,0,0,0,0-.307c-.056-.14-.212-.12-.336-.12H306.6c-.136,0-.356-.045-.468.053a.581.581,0,0,0-.126.347l-.11.587q-.107.566-.212,1.13-.423,2.255-.845,4.51c-.024.129-.023.318-.122.417a.41.41,0,0,1-.3.082c-.174,0-.351.021-.525.007-.156-.011-.347-.067-.323-.262.044-.361.136-.723.2-1.081q.425-2.239.851-4.479l.1-.528a4.474,4.474,0,0,0,.088-.49.288.288,0,0,0-.073-.25c-.11-.09-.33-.044-.46-.044H299.2a.232.232,0,0,0-.226.2c-.094.331-.135.685-.2,1.021q-.427,2.248-.854,4.5t-.854,4.493q-.213,1.124-.428,2.248l-.213,1.124c-.029.154-.051.312-.091.463a.238.238,0,0,1-.231.207l-4.509,0h-2.767a2.147,2.147,0,0,1-.492-.011.229.229,0,0,1-.195-.2,2.62,2.62,0,0,1,.1-.544l.884-4.493c.147-.746.3-1.491.439-2.237a6.055,6.055,0,0,0,.178-1.092,8.314,8.314,0,0,0-.083-1.093,5.308,5.308,0,0,0-1.737-3.428,4.835,4.835,0,0,0-1.745-.914,5.936,5.936,0,0,0-1.03-.2,9.485,9.485,0,0,0-1.006-.023h-5.66a.6.6,0,0,0-.344.044c-.118.079-.115.258-.139.383l-.427,2.244q-.851,4.476-1.7,8.95c-.033.176-.066.353-.1.529a1.627,1.627,0,0,0-.067.461.218.218,0,0,0,.169.2,2.874,2.874,0,0,0,.545.006h4.524a1.689,1.689,0,0,0,.4-.01c.147-.036.184-.171.2-.3.054-.352.133-.7.2-1.048.294-1.489.592-2.975.877-4.464.07-.366.139-.732.209-1.1a.242.242,0,0,1,.24-.193c.177-.017.36,0,.537,0,.211,0,.24.2.221.367-.025.214-.088.426-.127.638q-.421,2.226-.846,4.452-.211,1.116-.424,2.231c-.034.178-.067.357-.1.535-.026.137-.039.272-.194.312a1.8,1.8,0,0,1-.43.015h-13.2c-.071,0-.292-.048-.313.047-.038.183-.07.368-.106.552q-.427,2.24-.852,4.479c-.039.207-.083.414-.118.622h33.537c.137,0,.322.037.417-.088a.916.916,0,0,0,.108-.4l.1-.576c.067-.374.135-.748.2-1.122.191-1.068.368-2.138.57-3.2.1-.51.185-1.025.3-1.532.058-.254.32-.207.522-.207C303.145,907.49,303.413,907.49,303.681,907.49Z" transform="translate(-253.953 -894.621)" fill="#0074d9"/>
      <path id="Path_7432" data-name="Path 7432" d="M168.081,901.53c.061-.321.132-.643.177-.967.025-.179.066-.439.291-.457.172-.014.35,0,.522,0a.472.472,0,0,1,.321.065c.106.1.064.252.036.371-.044.183-.072.371-.108.557q-.427,2.243-.852,4.486-.107.559-.212,1.119a.724.724,0,0,0-.031.381c.055.145.221.148.352.144.74-.026,1.487,0,2.229,0h2.821c.132,0,.284.025.361-.108a1.232,1.232,0,0,0,.1-.376q.057-.289.115-.58.881-4.474,1.732-8.953.213-1.119.425-2.238a.878.878,0,0,0,.043-.419c-.052-.148-.217-.155-.349-.151-.351.011-.7,0-1.055,0q-2.257,0-4.513,0c-1.509,0-3.018,0-4.528,0H164.27a2.679,2.679,0,0,0-.544.01.272.272,0,0,0-.21.248c-.034.183-.07.366-.1.548l-.21,1.1-1.7,8.961q-.213,1.119-.425,2.239c-.034.178-.067.357-.1.535l-.048.253a.683.683,0,0,1-.063.245c-.073.111-.214.107-.333.107-.169,0-.336,0-.5,0a.321.321,0,0,1-.3-.107c-.089-.139.006-.37.036-.518.073-.375.148-.748.221-1.123l.44-2.237c.589-2.992,1.158-5.988,1.728-8.985.046-.239.091-.479.136-.718.022-.116.045-.233.067-.349a1.125,1.125,0,0,1,.04-.257l-4.524.035-1.1.008a2.157,2.157,0,0,0-.4.011c-.161.034-.2.2-.248.333-.233.7-.514,1.384-.772,2.072s-.523,1.4-.783,2.1c-.054.143.046.246.146.332l.433.37c.1.087.276.185.305.325a1.362,1.362,0,0,1-.067.487q-.427,2.243-.852,4.486-.213,1.119-.425,2.237-.105.557-.212,1.113c-.067.358-.156.715-.212,1.076a4,4,0,0,0,1.149,3.591,6.092,6.092,0,0,0,3.578,1.347c.669.063,1.342.07,2.014.071q1.139,0,2.276,0h2.289a2.1,2.1,0,0,0,.434-.013c.161-.034.178-.169.205-.309.072-.37.146-.739.218-1.109l.884-4.492.681-3.462q.172-.871.343-1.74c.109-.562.24-1.125.331-1.693C168.131,901.262,168.035,901.812,168.081,901.53Z" transform="translate(-153.623 -894.357)" fill="#0074d9"/>
    </g>
  </g>
</svg>
