<svg xmlns="http://www.w3.org/2000/svg" xmlns:xlink="http://www.w3.org/1999/xlink" width="544.417" height="371" viewBox="0 0 544.417 371"><defs><style>.a{fill:#3f3d56;}.b{fill:#f6b452;}.c{fill:#6c63ff;}.d{opacity:0.7;}.e{fill:url(#a);}.f{opacity:0.1;}.g{fill:#e0e0e0;}.h{fill:#72351c;}.i{fill:#fda57d;}.j{fill:#535461;}.k{fill:#fff;}</style><linearGradient id="a" x1="0.5" y1="1" x2="0.5" gradientUnits="objectBoundingBox"><stop offset="0" stop-color="gray" stop-opacity="0.251"/><stop offset="0.535" stop-color="gray" stop-opacity="0.122"/><stop offset="1" stop-color="gray" stop-opacity="0.102"/></linearGradient></defs><g transform="translate(0 0)"><path class="a" d="M242.676,633.468c-3.914,14.906-17.63,24.221-17.63,24.221s-7.37-14.852-3.455-29.758,17.63-24.221,17.63-24.221S246.59,618.561,242.676,633.468Z" transform="translate(-160.947 -332.067)"/><path class="b" d="M239.959,641.882c-10.963,10.831-12.19,27.366-12.19,27.366s16.548-1.026,27.512-11.858,12.19-27.366,12.19-27.366S250.922,631.05,239.959,641.882Z" transform="translate(-164.167 -343.635)"/><rect class="c" width="59.918" height="25.497" rx="12.749" transform="translate(38.139 321.257)"/><g class="d" transform="translate(455.918 295.783)"><path class="e" d="M973.74,655.972v-9.187H927.805v42.492a8.958,8.958,0,0,0,8.958,8.958h28.022a8.958,8.958,0,0,0,8.958-8.958v-9.417a11.944,11.944,0,0,0,0-23.887Zm0,19.294v-14.7a7.35,7.35,0,0,1,0,14.7Z" transform="translate(-927.805 -646.785)"/></g><path class="c" d="M998.586,665.744a10.905,10.905,0,1,0,10.905,10.905,10.905,10.905,0,0,0-10.905-10.905Zm0,17.616a6.711,6.711,0,1,1,6.711-6.711,6.711,6.711,0,0,1-6.711,6.711Z" transform="translate(-498.207 -359.336)"/><path class="f" d="M998.586,665.744a10.905,10.905,0,1,0,10.905,10.905,10.905,10.905,0,0,0-10.905-10.905Zm0,17.616a6.711,6.711,0,1,1,6.711-6.711,6.711,6.711,0,0,1-6.711,6.711Z" transform="translate(-498.207 -359.336)"/><path class="c" d="M818.016,531.776h41.943v41.512a5.464,5.464,0,0,1-5.464,5.464H823.48a5.464,5.464,0,0,1-5.464-5.464Z" transform="translate(-359.581 -233.757)"/><rect class="g" width="544.417" height="18.455" transform="translate(0 344.995)"/><g class="d" transform="translate(173.954 0)"><path class="e" d="M608.817,340.516c-5.835-21.179-38.915-36.645-63.8-40.075,0-.156.012-.311.012-.468v-18.13l.08-.028v-.687a62.173,62.173,0,0,0,37.554-39.359,67.184,67.184,0,0,0,4.007-8.639c2.657-.967,4.664-5.349,4.664-10.614a18.535,18.535,0,0,0-.75-5.321,68.091,68.091,0,0,0,.5-8.081,67.351,67.351,0,0,0-22.247-50.092,13.143,13.143,0,0,0,.21-3.294c-.563-8.7-9.857-14.614-18.568-15.009a18.382,18.382,0,0,0,3.1-19.411c-5.554,8.092-16.958,8.952-26.772,9.016A8.03,8.03,0,0,0,530.478,119c-10.258,13.749-30.254,16.3-42.455,28.354a35.79,35.79,0,0,0-6.6,9,67.386,67.386,0,0,0-25.4,52.755,68.124,68.124,0,0,0,.489,8.008,18.475,18.475,0,0,0-.773,5.394c0,5.289,2.026,9.684,4.7,10.624a67.176,67.176,0,0,0,4.025,8.668,62.16,62.16,0,0,0,37.291,39.221v18.943c0,.146.008.29.011.435-24.984,3.37-58.328,18.958-64.111,40.308-4.994,18.437-10.325,38.685-12.978,50.573,22.735,15.975,70.441,25.355,100.339,25.355,28.406,0,74.835-8.466,96.9-23.013C619.527,380.568,614.028,359.432,608.817,340.516Z" transform="translate(-424.678 -119)"/></g><path class="c" d="M527.689,552.254c27.4,0,72.19-8.167,93.477-22.2-2.306-12.6-7.611-32.991-12.638-51.238-6.4-23.239-46.811-39.351-70.916-39.351H514.383c-24.18,0-64.646,16.2-70.969,39.543-4.818,17.786-9.96,37.318-12.519,48.786C452.828,543.205,498.848,552.254,527.689,552.254Z" transform="translate(-253.457 -259.869)"/><circle class="h" cx="65.141" cy="65.141" r="65.141" transform="translate(207.676 27.047)"/><path class="f" d="M449.291,261.311h41.74V294.7a20.87,20.87,0,0,1-20.87,20.87h0a20.87,20.87,0,0,1-20.87-20.87V261.311Z" transform="translate(-197.498 -114.866)"/><path class="i" d="M455.278,258.553h29.766a5.987,5.987,0,0,1,5.987,5.987v27.4a20.87,20.87,0,0,1-20.87,20.87h0a20.87,20.87,0,0,1-20.87-20.87v-27.4A5.987,5.987,0,0,1,455.278,258.553Z" transform="translate(-197.498 -113.654)"/><path class="f" d="M563.709,404.5a60.072,60.072,0,0,0,41.74.115v-5.127h-41.74Z" transform="translate(-311.839 -242.297)"/><circle class="i" cx="59.827" cy="59.827" r="59.827" transform="translate(212.99 45.347)"/><path class="f" d="M525.046,197.758s25.213,51.18,96.338,21.45l-16.558-25.966-29.353-10.537Z" transform="translate(-294.843 -147.003)"/><path class="h" d="M525.046,196.415s25.213,51.179,96.337,21.45L604.826,191.9l-29.353-10.537Z" transform="translate(-294.843 -146.413)"/><path class="h" d="M523.667,169.669a34.561,34.561,0,0,1,8.566-13.934c11.77-11.632,31.06-14.088,40.955-27.352a7.746,7.746,0,0,1-3.548,10.923c9.468-.061,20.468-.891,25.826-8.7a17.733,17.733,0,0,1-2.99,18.725c8.4.381,17.369,6.084,17.912,14.479.362,5.592-3.145,10.887-7.74,14.094s-10.156,4.679-15.628,5.886C571.046,187.316,513.243,202.078,523.667,169.669Z" transform="translate(-293.688 -123.125)"/><path class="h" d="M614,307.6h-1.586l-30.858,27.471c-29.729-13.924-51.556,0-51.556,0l-32.364-26.342-3.263.41A59.822,59.822,0,1,0,614.012,307.6ZM554.089,345.61c-11.639,0-21.074-2.359-21.074-5.268s9.435-5.268,21.074-5.268,21.074,2.359,21.074,5.268S565.728,345.61,554.089,345.61Z" transform="translate(-281.362 -201.905)"/><ellipse class="i" cx="5.565" cy="10.435" rx="5.565" ry="10.435" transform="translate(207.402 94.681)"/><ellipse class="i" cx="5.565" cy="10.435" rx="5.565" ry="10.435" transform="translate(327.071 94.681)"/><g class="d" transform="translate(156.446 211.674)"><rect class="e" width="231.524" height="133.321" rx="14.5"/></g><rect class="j" width="223.136" height="130.862" rx="26.835" transform="translate(160.641 214.134)"/><circle class="k" cx="7.55" cy="7.55" r="7.55" transform="translate(264.659 272.015)"/><rect class="g" width="498.28" height="7.55" transform="translate(23.069 363.45)"/><rect class="f" width="498.28" height="2.517" transform="translate(23.069 363.45)"/><path class="f" d="M987.25,650.776v38.8a8.179,8.179,0,0,1-8.179,8.179h4.194a8.179,8.179,0,0,0,8.179-8.179v-38.8Z" transform="translate(-494.422 -352.757)"/><path class="b" d="M945.488,594.137a2.449,2.449,0,0,0-1.852.94c-.55,1,.447,2.122,1.357,2.807a18.044,18.044,0,0,1,4.595,4.277c1.143,1.767,1.5,4.233.253,5.927-1.631,2.211-5.521,2.687-5.9,5.409-.242,1.747,1.269,3.238,2.8,4.115,3.778,2.164,8.648,2.741,11.385,6.128,1.132-2.328,3.664-3.673,6.188-4.248s5.146-.532,7.705-.922a2.664,2.664,0,0,0,2.126-1.128c.715-1.452-1.323-3.193-.62-4.65.536-1.109,2.109-1.023,3.258-1.467,1.871-.723,2.642-3.131,2.111-5.065a9.537,9.537,0,0,0-3.608-4.685c-4.25-3.34-9.361-5.3-14.53-6.717-2.4-.657-5.226-1.687-7.723-1.787C950.623,592.976,947.874,593.729,945.488,594.137Z" transform="translate(-478.776 -327.387)"/></g></svg>