<svg xmlns="http://www.w3.org/2000/svg" width="87.149" height="80" viewBox="0 0 87.149 80"><defs><style>.a{fill:#2b569f;}</style></defs><g transform="translate(0 -21)"><path class="a" d="M79.489,39.723h-4.6V28.66a7.659,7.659,0,0,0-15.2-1.337,59.814,59.814,0,0,1-36.385,12.4H7.66A7.668,7.668,0,0,0,0,47.383V61a7.668,7.668,0,0,0,7.66,7.66H8.882l4.766,30.186A2.553,2.553,0,0,0,16.17,101h8.511a2.553,2.553,0,0,0,2.553-2.553V82.277H28.82a9.362,9.362,0,0,0,9.31-10.342l-.15-1.427A59.787,59.787,0,0,1,59.694,81.061a7.659,7.659,0,0,0,15.2-1.337V68.66h4.6A7.668,7.668,0,0,0,87.149,61V47.383a7.668,7.668,0,0,0-7.66-7.66ZM7.66,63.553A2.556,2.556,0,0,1,5.106,61V47.383A2.556,2.556,0,0,1,7.66,44.83H20.426V63.553Zm14.468,32.34H18.352l-4.3-27.234h8.076Zm9.855-20.132A4.205,4.205,0,0,1,28.82,77.17H27.234V68.792q2.766.185,5.5.627l.321,3.05a4.2,4.2,0,0,1-1.069,3.293ZM59.574,74.68A65,65,0,0,0,25.532,63.6V44.788A64.994,64.994,0,0,0,59.574,33.7Zm10.213,5.044a2.553,2.553,0,0,1-5.106,0V28.66a2.553,2.553,0,0,1,5.106,0ZM82.043,61a2.556,2.556,0,0,1-2.553,2.553h-4.6V44.83h4.6a2.556,2.556,0,0,1,2.553,2.553Z"/><path class="a" d="M62.553,191A2.553,2.553,0,0,0,60,193.553v3.4a2.553,2.553,0,1,0,5.106,0v-3.4A2.553,2.553,0,0,0,62.553,191Z" transform="translate(-49.787 -141.064)"/></g></svg>