<svg xmlns="http://www.w3.org/2000/svg" width="51.563" height="80" viewBox="0 0 51.563 80"><defs><style>.a{fill:#2b569f;}</style></defs><path class="a" d="M7.031,0A7.039,7.039,0,0,0,0,7.031V72.969A7.039,7.039,0,0,0,7.031,80h37.5a7.039,7.039,0,0,0,7.031-7.031V7.031A7.039,7.039,0,0,0,44.531,0ZM46.875,61.25H4.688V14.063H46.875ZM44.531,75.313H7.031a2.347,2.347,0,0,1-2.344-2.344V65.938h18.75v2.344a2.344,2.344,0,0,0,4.688,0V65.938h18.75v7.031A2.347,2.347,0,0,1,44.531,75.313ZM46.875,7.031V9.375H4.688V7.031A2.347,2.347,0,0,1,7.031,4.688h37.5A2.347,2.347,0,0,1,46.875,7.031Zm0,0"/></svg>