<svg xmlns="http://www.w3.org/2000/svg" width="80" height="80" viewBox="0 0 80 80"><defs><style>.a{fill:#2b569f;}</style></defs><g transform="translate(0 0)"><path class="a" d="M178.884,149.318l11.035-33.1a2.341,2.341,0,1,0-4.441-1.48l-11.035,33.1a2.341,2.341,0,1,0,4.441,1.48Z" transform="translate(-147.075 -95.435)"/><path class="a" d="M271.556,203.248a7.023,7.023,0,1,0-7.023-7.023A7.03,7.03,0,0,0,271.556,203.248Zm0-9.363a2.341,2.341,0,1,1-2.341,2.341A2.343,2.343,0,0,1,271.556,193.885Z" transform="translate(-223.189 -159.632)"/><path class="a" d="M101.849,189.2a7.023,7.023,0,1,0,7.022,7.023A7.03,7.03,0,0,0,101.849,189.2Zm0,9.363a2.341,2.341,0,1,1,2.341-2.341A2.343,2.343,0,0,1,101.849,198.566Z" transform="translate(-80.006 -159.632)"/><path class="a" d="M79.531,29.063l-8.173-10.9.319-2.232a2.344,2.344,0,0,0-.663-1.989L66.043,8.973,71.014,4A2.344,2.344,0,0,0,67.7.687L62.728,5.659,57.756.687A2.346,2.346,0,0,0,55.767.024l-23.2,3.315A2.344,2.344,0,0,0,31.24,4L2.513,32.727a8.6,8.6,0,0,0,0,12.153L26.82,69.188a8.573,8.573,0,0,0,1.618,1.268v.95A8.6,8.6,0,0,0,37.031,80H71.406A8.6,8.6,0,0,0,80,71.407V30.469a2.344,2.344,0,0,0-.469-1.406Zm-73.7,12.5a3.911,3.911,0,0,1,0-5.524L34,7.868,55.27,4.83l4.143,4.143L56.1,12.288,54.441,10.63a2.344,2.344,0,0,0-3.315,3.315l6.629,6.629A2.344,2.344,0,1,0,61.07,17.26L59.413,15.6l3.315-3.315,4.143,4.143L63.833,37.7,35.659,65.873a3.906,3.906,0,0,1-5.524,0Zm69.485,29.84a3.911,3.911,0,0,1-3.906,3.906H37.031a3.911,3.911,0,0,1-3.895-3.618,8.56,8.56,0,0,0,5.836-2.507L67.7,40.461a2.344,2.344,0,0,0,.663-1.326l2.058-14.408,4.892,6.522Z"/></g></svg>