<svg xmlns="http://www.w3.org/2000/svg" width="80" height="80" viewBox="0 0 80 80"><defs><style>.a{fill:#2b569f;}</style></defs><path class="a" d="M71.947,0H8.053A8.062,8.062,0,0,0,0,8.053V71.947A8.062,8.062,0,0,0,8.053,80H71.947A8.062,8.062,0,0,0,80,71.947V8.053A8.062,8.062,0,0,0,71.947,0ZM8.053,4.688H71.947a3.369,3.369,0,0,1,3.366,3.366v7.18H4.688V8.053A3.369,3.369,0,0,1,8.053,4.688ZM71.947,75.313H8.053a3.369,3.369,0,0,1-3.366-3.366V19.921H75.313V71.947A3.369,3.369,0,0,1,71.947,75.313Z"/><path class="a" d="M52.312,53.621H57.4a2.344,2.344,0,0,0,0-4.687H52.312a2.344,2.344,0,0,0,0,4.688Z" transform="translate(-42.161 -41.288)"/><path class="a" d="M135.312,53.621H140.4a2.344,2.344,0,0,0,0-4.687h-5.087a2.344,2.344,0,0,0,0,4.688Z" transform="translate(-112.192 -41.288)"/><path class="a" d="M292.2,53.621h22.3a2.344,2.344,0,0,0,0-4.687H292.2a2.344,2.344,0,0,0,0,4.688Z" transform="translate(-244.563 -41.288)"/><path class="a" d="M139.093,389.182H92.685a2.344,2.344,0,0,0,0,4.688h46.408a2.344,2.344,0,0,0,0-4.687Z" transform="translate(-76.225 -328.372)"/><path class="a" d="M97.827,217.905H92.685a2.344,2.344,0,0,0,0,4.688h5.142a7.486,7.486,0,0,0,0-14.972,2.8,2.8,0,1,1,0-5.6h5.142a2.344,2.344,0,1,0,0-4.687H97.827a7.486,7.486,0,1,0,0,14.972,2.8,2.8,0,0,1,0,5.6Z" transform="translate(-76.225 -166.502)"/><path class="a" d="M210.66,222.593h7.9a2.344,2.344,0,1,0,0-4.687h-7.9a.036.036,0,0,1-.036-.036v-5.561h7.941a2.344,2.344,0,0,0,0-4.687h-7.941v-5.561a.036.036,0,0,1,.036-.036h7.9a2.344,2.344,0,1,0,0-4.687h-7.9a4.729,4.729,0,0,0-4.724,4.723v15.81A4.729,4.729,0,0,0,210.66,222.593Z" transform="translate(-173.758 -166.502)"/><path class="a" d="M331.805,197.336h-5.576a4.7,4.7,0,0,0-4.7,4.7v15.861a4.7,4.7,0,0,0,4.7,4.7h5.576a4.7,4.7,0,0,0,4.7-4.7V202.034A4.7,4.7,0,0,0,331.805,197.336Zm0,20.569-5.587-.01.01-15.871h5.576l.01.01Z" transform="translate(-271.292 -166.502)"/></svg>