<svg aria-hidden="true" style="position: absolute; width: 0; height: 0; overflow: hidden;" version="1.1" xmlns="http://www.w3.org/2000/svg" xmlns:xlink="http://www.w3.org/1999/xlink">
<defs>
<symbol id="icon-briefcase" viewBox="0 0 32 32">
<path fill="#2b569f" style="fill: var(--color1, #2b569f)" d="M29.812 5.438h-6.28v-3.25c-0.001-1.208-0.981-2.187-2.189-2.188h-10.687c-1.208 0.001-2.186 0.98-2.188 2.187v3.25h-6.281c-1.208 0.001-2.186 0.98-2.188 2.187v22.187c0.001 1.208 0.98 2.186 2.187 2.188h27.625c1.208-0.001 2.186-0.98 2.188-2.187v-22.187c-0.001-1.208-0.98-2.186-2.187-2.188h-0zM10.344 2.188c0-0.172 0.14-0.312 0.312-0.312h10.688c0.172 0 0.312 0.14 0.312 0.312v3.25h-11.312zM30.125 29.812c-0 0.172-0.14 0.312-0.312 0.312h-27.625c-0.172-0-0.312-0.14-0.312-0.312v-13.812l11.196 4.381v1.889c0.001 0.863 0.7 1.561 1.562 1.562h2.734c0.863-0.001 1.561-0.7 1.562-1.562v-1.889l11.196-4.381zM14.946 21.96v-3.431h2.109v3.431zM30.125 13.985l-11.196 4.382v-0.15c-0.001-0.863-0.7-1.561-1.562-1.562h-2.734c-0.863 0.001-1.562 0.7-1.562 1.562v0.15l-11.196-4.382v-6.36c0-0.172 0.14-0.312 0.312-0.312h27.625c0.172 0 0.312 0.14 0.312 0.312v0z"></path>
</symbol>
<symbol id="icon-engineers" viewBox="0 0 32 32">
<path fill="#2b569f" style="fill: var(--color1, #2b569f)" d="M27.842 12.44c1.091-0.978 1.774-2.392 1.774-3.966 0-0.001 0-0.001 0-0.002v0-0.314h0.941c0.52 0 0.941-0.421 0.941-0.941s-0.421-0.941-0.941-0.941h-0.388c-0.422-2.544-2.401-4.524-4.91-4.942l-0.035-0.005v-0.388c0-0.52-0.421-0.941-0.941-0.941s-0.941 0.421-0.941 0.941v0 0.388c-2.543 0.422-4.523 2.402-4.94 4.91l-0.005 0.035h-0.388c-0.52 0-0.941 0.421-0.941 0.941s0.421 0.941 0.941 0.941h0.941v0.314c0 0.001 0 0.002 0 0.003 0 1.612 0.717 3.056 1.849 4.032l0.007 0.006c-0.783 0.342-1.456 0.786-2.040 1.325l0.005-0.005c-0.511-0.268-1.105-0.469-1.732-0.572l-0.034-0.005v-0.388c0-0.52-0.421-0.941-0.941-0.941s-0.941 0.421-0.941 0.941v0 0.388c-0.661 0.107-1.255 0.309-1.799 0.592l0.033-0.016c-0.579-0.534-1.251-0.978-1.988-1.302l-0.046-0.018c1.139-0.981 1.856-2.426 1.856-4.037 0-0.001 0-0.002 0-0.003v0-0.314h0.941c0.52 0 0.941-0.421 0.941-0.941s-0.421-0.941-0.941-0.941h-0.388c-0.422-2.543-2.402-4.522-4.91-4.94l-0.035-0.005v-0.388c0-0.52-0.421-0.941-0.941-0.941s-0.941 0.421-0.941 0.941v0 0.388c-2.543 0.422-4.523 2.402-4.94 4.91l-0.005 0.035h-0.388c-0.52 0-0.941 0.421-0.941 0.941s0.421 0.941 0.941 0.941h0.941v0.314c0 0.001 0 0.003 0 0.004 0 1.573 0.683 2.987 1.769 3.961l0.005 0.004c-2.532 1.061-4.28 3.518-4.284 6.383v5.961c0 0.52 0.421 0.941 0.941 0.941v0h9.64c-1.452 1.322-2.36 3.22-2.36 5.331 0 0.001 0 0.002 0 0.003v-0c0 0 0 0.001 0 0.001 0 0.519 0.42 0.94 0.939 0.941h13.804c0.52 0 0.941-0.421 0.941-0.941v0c0-0.001 0-0.002 0-0.003 0-2.11-0.908-4.008-2.354-5.325l-0.006-0.005h9.64c0.52 0 0.941-0.421 0.941-0.941v0-5.96c-0.004-2.866-1.752-5.323-4.239-6.367l-0.046-0.017zM20.314 6.274c0.368-1.5 1.527-2.659 3-3.021l0.028-0.006v0.203c0 0.52 0.421 0.941 0.941 0.941s0.941-0.421 0.941-0.941v-0.203c1.5 0.368 2.66 1.526 3.022 2.999l0.006 0.028zM27.733 8.157v0.314c0 1.906-1.545 3.451-3.451 3.451s-3.451-1.545-3.451-3.451v0-0.314zM16.063 16.314c0.52 0 0.941-0.421 0.941-0.941v0-0.203c1.5 0.368 2.66 1.526 3.022 2.999l0.006 0.028h-7.938c0.368-1.5 1.526-2.659 2.998-3.021l0.028-0.006v0.203c0 0 0 0 0 0 0 0.52 0.421 0.941 0.941 0.941 0.001 0 0.001 0 0.002 0h-0zM19.514 20.394c0 1.906-1.545 3.451-3.451 3.451s-3.451-1.545-3.451-3.451v0-0.314h6.902zM3.874 6.274c0.368-1.5 1.527-2.659 3-3.021l0.028-0.006v0.203c0 0.52 0.421 0.941 0.941 0.941s0.941-0.421 0.941-0.941v-0.203c1.501 0.368 2.66 1.526 3.022 2.999l0.006 0.028zM11.294 8.157v0.314c0 1.906-1.545 3.451-3.451 3.451s-3.451-1.545-3.451-3.451v0-0.314zM1.882 18.824c0.003-2.771 2.249-5.016 5.019-5.020h1.569c1.264 0.001 2.426 0.441 3.339 1.177l-0.010-0.008c-0.836 0.852-1.418 1.956-1.621 3.188l-0.005 0.035h-0.388c-0.52 0-0.941 0.421-0.941 0.941s0.421 0.941 0.941 0.941h0.941v0.314c0 0.001 0 0.002 0 0.003 0 1.32 0.482 2.527 1.279 3.456l-0.006-0.007h-10.118zM21.94 30.118h-11.755c0.466-2.511 2.638-4.388 5.25-4.392h1.255c2.612 0.003 4.784 1.88 5.245 4.359l0.005 0.033zM30.243 23.843h-10.12c0.791-0.922 1.273-2.129 1.273-3.449 0-0.001 0-0.002 0-0.003v0-0.312h0.941c0.52 0 0.941-0.421 0.941-0.941s-0.421-0.941-0.941-0.941h-0.388c-0.208-1.266-0.79-2.371-1.627-3.224l0.001 0.001c0.904-0.728 2.066-1.169 3.331-1.169h1.569c2.771 0.003 5.016 2.248 5.020 5.018v0z"></path>
</symbol>
<symbol id="icon-favorite" viewBox="0 0 32 32">
<path fill="#2b569f" style="fill: var(--color1, #2b569f)" d="M27.314 4.686c-2.89-2.866-6.87-4.637-11.264-4.637-8.837 0-16 7.163-16 16 0 4.394 1.771 8.374 4.638 11.265l-0.001-0.001c2.89 2.866 6.87 4.637 11.264 4.637 8.837 0 16-7.163 16-16 0-4.394-1.771-8.374-4.638-11.265l0.001 0.001zM16 30.125c-0 0-0 0-0 0-7.801 0-14.125-6.324-14.125-14.125s6.324-14.125 14.125-14.125c7.801 0 14.125 6.324 14.125 14.125v0c-0.009 7.797-6.327 14.116-14.124 14.125h-0.001z"></path>
<path fill="#2b569f" style="fill: var(--color1, #2b569f)" d="M26.267 12.55c-0.111-0.337-0.399-0.586-0.752-0.639l-0.005-0.001-5.99-0.87-2.68-5.428c-0.157-0.311-0.474-0.521-0.84-0.521s-0.683 0.21-0.838 0.516l-0.002 0.005-2.68 5.428-5.989 0.872c-0.457 0.068-0.804 0.457-0.804 0.928 0 0.263 0.109 0.501 0.284 0.672l0 0 4.334 4.225-1.023 5.966c-0.009 0.048-0.013 0.102-0.013 0.158 0 0.518 0.42 0.938 0.938 0.938 0.159 0 0.309-0.040 0.441-0.11l-0.005 0.002 5.358-2.817 5.358 2.817c0.126 0.068 0.276 0.107 0.436 0.107 0.518 0 0.938-0.42 0.938-0.938 0-0.056-0.005-0.111-0.014-0.164l0.001 0.006-1.023-5.966 4.336-4.225c0.175-0.17 0.283-0.408 0.283-0.671 0-0.104-0.017-0.204-0.048-0.297l0.002 0.007zM20.033 16.737c-0.175 0.17-0.283 0.408-0.283 0.671 0 0.056 0.005 0.111 0.014 0.164l-0.001-0.006 0.786 4.58-4.113-2.162c-0.126-0.068-0.277-0.108-0.436-0.108s-0.31 0.040-0.441 0.11l0.005-0.002-4.113 2.162 0.786-4.58c0.009-0.048 0.014-0.103 0.014-0.159 0-0.263-0.108-0.501-0.283-0.671l-0-0-3.327-3.243 4.6-0.668c0.312-0.046 0.569-0.24 0.704-0.507l0.002-0.005 2.056-4.167 2.054 4.165c0.137 0.272 0.395 0.466 0.701 0.512l0.005 0.001 4.6 0.668z"></path>
</symbol>
<symbol id="icon-fingerprint-scan" viewBox="0 0 32 32">
<path fill="#2b569f" style="fill: var(--color1, #2b569f)" d="M28.541 0h-4.48c-0.006-0-0.013-0-0.019-0-0.518 0-0.938 0.42-0.938 0.938s0.42 0.938 0.938 0.938c0.007 0 0.014-0 0.020-0l-0.001 0h4.48c0.874 0.001 1.583 0.709 1.584 1.583v4.48c0 0.518 0.42 0.938 0.938 0.938s0.938-0.42 0.938-0.938v-4.48c-0.002-1.909-1.55-3.457-3.459-3.459h-0z"></path>
<path fill="#2b569f" style="fill: var(--color1, #2b569f)" d="M0.938 8.875c0.518 0 0.938-0.42 0.938-0.938v0-4.478c0.001-0.874 0.71-1.583 1.584-1.584h4.48c0.509-0.011 0.918-0.426 0.918-0.937s-0.409-0.927-0.917-0.937l-0.001-0h-4.48c-1.909 0.002-3.456 1.549-3.459 3.458v4.48c0 0.518 0.42 0.938 0.938 0.938v0z"></path>
<path fill="#2b569f" style="fill: var(--color1, #2b569f)" d="M7.938 30.125h-4.479c-0.874-0.001-1.583-0.709-1.584-1.584v-4.48c-0.011-0.509-0.426-0.918-0.937-0.918s-0.927 0.409-0.937 0.917l-0 0.001v4.48c0.002 1.909 1.549 3.457 3.459 3.459h4.48c0.509-0.011 0.918-0.426 0.918-0.937s-0.409-0.927-0.917-0.937l-0.001-0z"></path>
<path fill="#2b569f" style="fill: var(--color1, #2b569f)" d="M31.062 23.125c-0.518 0-0.938 0.42-0.938 0.938v0 4.48c-0.001 0.874-0.71 1.583-1.584 1.584h-4.48c-0.518 0-0.938 0.42-0.938 0.938s0.42 0.938 0.938 0.938h4.48c1.909-0.002 3.457-1.549 3.459-3.459v-4.48c0-0.518-0.42-0.937-0.937-0.938h-0z"></path>
<path fill="#2b569f" style="fill: var(--color1, #2b569f)" d="M26.168 6.247c-6.507-4.827-13.52-4.95-20.218-0.086-0.243 0.172-0.399 0.451-0.399 0.768 0 0.518 0.42 0.938 0.938 0.938 0.212 0 0.408-0.071 0.566-0.19l-0.002 0.002c6.053-4.396 12.17-4.25 18 0.074 0.155 0.118 0.351 0.189 0.564 0.189 0.518 0 0.938-0.42 0.938-0.938 0-0.31-0.15-0.585-0.382-0.755l-0.003-0.002z"></path>
<path fill="#2b569f" style="fill: var(--color1, #2b569f)" d="M16 6.562c-3.983 0-9.103 2.652-11.28 5.918-0.105 0.149-0.167 0.334-0.167 0.534 0 0.518 0.42 0.938 0.938 0.938 0.33 0 0.62-0.171 0.787-0.428l0.002-0.004c1.805-2.708 6.347-5.082 9.72-5.082 3.303 0 7.82 1.762 9.686 5.028 0.163 0.292 0.47 0.487 0.822 0.487 0.518 0 0.938-0.42 0.938-0.938 0-0.177-0.049-0.342-0.134-0.484l0.002 0.004c-2.151-3.762-7.196-5.973-11.314-5.973z"></path>
<path fill="#2b569f" style="fill: var(--color1, #2b569f)" d="M10.938 22c0-3.067 2.271-5.562 5.062-5.562s5.062 2.495 5.062 5.562v1c0 0.518 0.42 0.938 0.938 0.938s0.938-0.42 0.938-0.938v0-1c0-4.101-3.112-7.438-6.938-7.438s-6.938 3.336-6.938 7.438c0 3.986 2.997 6.122 4.32 8.034 0.171 0.253 0.456 0.417 0.779 0.417 0.518 0 0.938-0.42 0.938-0.938 0-0.205-0.066-0.395-0.177-0.549l0.002 0.003c-1.432-2.069-3.986-3.784-3.986-6.966z"></path>
<path fill="#2b569f" style="fill: var(--color1, #2b569f)" d="M26.338 25.419c2.898-5.795-2.255-14.857-10.338-14.857-5.691 0-10.938 4.824-10.938 10.938 0 2.22 0.285 4.097 1.674 6.044 0.171 0.251 0.455 0.414 0.777 0.414 0.518 0 0.938-0.42 0.938-0.938 0-0.213-0.071-0.41-0.191-0.567l0.002 0.002c-0.979-1.372-1.326-2.668-1.326-4.956 0-4.828 4.235-9.062 9.062-9.062 2.605 0.036 4.941 1.159 6.58 2.935l0.006 0.006c2.484 2.646 3.376 6.6 2.076 9.202-1.354 2.707-5.724 1.94-5.724-1.581 0-6.953-7.122-4.873-5.847 0.227 0.098 0.421 0.47 0.729 0.914 0.729 0.518 0 0.938-0.42 0.938-0.938 0-0.088-0.012-0.172-0.034-0.253l0.002 0.007c-0.328-1.31 0.273-2.335 1.090-2.335 0.734 0 1.062 1.287 1.062 2.562 0 5.49 7.032 6.907 9.276 2.419z"></path>
</symbol>
<symbol id="icon-folder" viewBox="0 0 32 32">
<path fill="#2b569f" style="fill: var(--color1, #2b569f)" d="M31.062 3.75h-12.123l-2.222-3.332c-0.17-0.253-0.456-0.418-0.78-0.418 0 0-0 0-0 0h-15c-0.518 0-0.938 0.42-0.938 0.938v0 30.125c0 0.518 0.42 0.938 0.938 0.938v0h30.125c0.518 0 0.938-0.42 0.938-0.938v0-26.375c0-0.518-0.42-0.938-0.938-0.938v0zM15.436 1.875l1.25 1.875h-2.747l-1.25-1.875zM30.125 30.125h-28.25v-20.75h28.25zM30.125 7.5h-28.25v-5.625h8.56l2.222 3.332c0.17 0.253 0.456 0.418 0.78 0.418 0 0 0 0 0 0h16.688z"></path>
<path fill="#2b569f" style="fill: var(--color1, #2b569f)" d="M16 23.188c1.899 0 3.438-1.539 3.438-3.438s-1.539-3.438-3.438-3.438c-1.899 0-3.438 1.539-3.438 3.438v0c0.001 1.898 1.54 3.436 3.437 3.438h0zM16 18.188c0.863 0 1.562 0.7 1.562 1.562s-0.7 1.562-1.562 1.562c-0.863 0-1.562-0.7-1.562-1.562v0c0.001-0.862 0.7-1.561 1.562-1.562h0z"></path>
<path fill="#2b569f" style="fill: var(--color1, #2b569f)" d="M7.756 22.345l1.875 3.248c0.165 0.282 0.467 0.469 0.812 0.469 0.172 0 0.334-0.047 0.473-0.128l-0.004 0.002 0.772-0.446c0.435 0.334 0.93 0.627 1.459 0.857l0.046 0.018v0.885c0 0.518 0.42 0.938 0.938 0.938v0h3.75c0.518 0 0.938-0.42 0.938-0.938v0-0.885c0.574-0.248 1.069-0.541 1.521-0.888l-0.017 0.012 0.772 0.446c0.134 0.079 0.296 0.125 0.468 0.125 0.345 0 0.647-0.186 0.809-0.464l0.002-0.004 1.875-3.248c0.079-0.134 0.125-0.296 0.125-0.468 0-0.345-0.186-0.647-0.464-0.809l-0.004-0.002-0.769-0.444c0.035-0.261 0.055-0.564 0.055-0.871s-0.020-0.609-0.059-0.906l0.004 0.035 0.769-0.444c0.282-0.165 0.468-0.467 0.468-0.812 0-0.172-0.047-0.334-0.128-0.473l0.002 0.004-1.875-3.248c-0.165-0.282-0.467-0.469-0.812-0.469-0.172 0-0.334 0.047-0.473 0.128l0.004-0.002-0.772 0.446c-0.435-0.334-0.93-0.627-1.459-0.857l-0.046-0.018v-0.885c0-0 0-0.001 0-0.001 0-0.518-0.42-0.938-0.938-0.938h-3.75c-0.518 0-0.938 0.42-0.938 0.938v0 0.885c-0.574 0.248-1.069 0.541-1.521 0.888l0.017-0.012-0.772-0.446c-0.134-0.079-0.296-0.125-0.468-0.125-0.345 0-0.647 0.187-0.809 0.464l-0.002 0.004-1.875 3.248c-0.079 0.134-0.125 0.296-0.125 0.468 0 0.345 0.186 0.647 0.464 0.809l0.004 0.002 0.769 0.444c-0.035 0.261-0.055 0.564-0.055 0.871s0.020 0.609 0.059 0.906l-0.004-0.035-0.769 0.444c-0.283 0.165-0.469 0.467-0.469 0.812 0 0.172 0.047 0.334 0.128 0.473l-0.002-0.004zM10.817 20.905c-0.082-0.346-0.13-0.744-0.13-1.153s0.047-0.807 0.136-1.188l-0.007 0.035c0.014-0.061 0.022-0.131 0.022-0.203 0-0.345-0.187-0.647-0.464-0.809l-0.004-0.002-0.522-0.302 0.938-1.624 0.526 0.304c0.135 0.079 0.297 0.126 0.469 0.126 0.244 0 0.467-0.093 0.634-0.247l-0.001 0.001c0.551-0.513 1.217-0.91 1.954-1.15l0.037-0.010c0.384-0.123 0.656-0.477 0.656-0.894v0-0.6h1.875v0.6c0 0.417 0.273 0.771 0.65 0.893l0.007 0.002c0.774 0.25 1.44 0.647 1.995 1.163l-0.003-0.003c0.166 0.152 0.389 0.246 0.633 0.246 0.173 0 0.335-0.047 0.474-0.128l-0.004 0.002 0.526-0.304 0.938 1.624-0.522 0.302c-0.282 0.165-0.469 0.467-0.469 0.812 0 0.072 0.008 0.142 0.023 0.209l-0.001-0.006c0.082 0.346 0.13 0.744 0.13 1.153s-0.047 0.807-0.136 1.188l0.007-0.035c-0.014 0.061-0.022 0.131-0.022 0.203 0 0.345 0.187 0.647 0.464 0.809l0.004 0.002 0.522 0.302-0.938 1.624-0.526-0.304c-0.135-0.079-0.297-0.126-0.469-0.126-0.244 0-0.467 0.093-0.634 0.247l0.001-0.001c-0.551 0.513-1.217 0.91-1.954 1.15l-0.037 0.010c-0.383 0.123-0.655 0.475-0.657 0.891v0.6h-1.875v-0.6c-0-0.417-0.273-0.771-0.65-0.893l-0.007-0.002c-0.774-0.25-1.44-0.647-1.995-1.163l0.003 0.003c-0.166-0.153-0.389-0.246-0.633-0.246-0.173 0-0.335 0.047-0.474 0.128l0.004-0.002-0.526 0.304-0.938-1.624 0.522-0.302c0.282-0.165 0.469-0.467 0.469-0.812 0-0.072-0.008-0.142-0.023-0.209l0.001 0.006z"></path>
</symbol>
<symbol id="icon-home-control" viewBox="0 0 32 32">
<path fill="#f6b452" style="fill: var(--color2, #f6b452)" d="M31.632 14.632v-2.394c-0.002-1.973-1.601-3.571-3.573-3.573h-5.331c-1.973 0.002-3.572 1.6-3.574 3.573v2.394c-0.224 0.164-0.368 0.427-0.368 0.723 0 0 0 0 0 0v0 0.983c0 0 0 0 0 0 0 0.296 0.144 0.559 0.366 0.722l0.003 0.002v0.273c-0.224 0.164-0.368 0.427-0.368 0.723v0.983c0 0.296 0.144 0.558 0.366 0.721l0.003 0.002v7.9c0.002 1.973 1.601 3.572 3.573 3.573h5.331c1.973-0.002 3.571-1.601 3.573-3.573v-9.62c0.224-0.164 0.368-0.427 0.368-0.723 0 0 0 0 0 0v0-1.965c-0-0.296-0.144-0.558-0.366-0.721l-0.003-0.002zM22.728 10.456h5.33c0.77 0.001 1.425 0.489 1.675 1.173l0.004 0.012h-8.688c0.253-0.696 0.909-1.184 1.679-1.185h0zM29.84 27.663c-0.001 0.984-0.798 1.781-1.782 1.782h-5.33c-0.984-0.001-1.781-0.798-1.782-1.782v-0.725h8.894zM29.84 25.146h-8.894v-11.712h8.894z"></path>
<path fill="#f6b452" style="fill: var(--color2, #f6b452)" d="M7.912 19.68c-0.494 0-0.894 0.4-0.894 0.894v0 0.388c0 0.495 0.401 0.896 0.896 0.896s0.896-0.401 0.896-0.896v0-0.388c0 0 0 0 0 0 0-0.494-0.4-0.894-0.894-0.894-0.001 0-0.003 0-0.004 0h0z"></path>
<path fill="#f6b452" style="fill: var(--color2, #f6b452)" d="M7.912 22.899c-0.494 0-0.894 0.4-0.894 0.894v0 0.818c0 0.495 0.401 0.896 0.896 0.896s0.896-0.401 0.896-0.896v0-0.818c0 0 0 0 0 0 0-0.494-0.4-0.894-0.894-0.894-0.001 0-0.003 0-0.004 0h0z"></path>
<path fill="#f6b452" style="fill: var(--color2, #f6b452)" d="M8.709 27.037c-0.15-0.296-0.452-0.495-0.8-0.495-0.494 0-0.894 0.4-0.894 0.894 0 0.003 0 0.007 0 0.010v-0.001 0.388c0 0.494 0.4 0.894 0.894 0.894v0h0.388c0.003 0 0.006 0 0.010 0 0.494 0 0.894-0.4 0.894-0.894 0-0.348-0.199-0.65-0.49-0.798l-0.005-0.002z"></path>
<path fill="#f6b452" style="fill: var(--color2, #f6b452)" d="M14.839 26.938h-0.733c-0.495 0-0.896 0.401-0.896 0.896s0.401 0.896 0.896 0.896v0h0.733c0.495 0 0.896-0.401 0.896-0.896s-0.401-0.896-0.896-0.896v0z"></path>
<path fill="#f6b452" style="fill: var(--color2, #f6b452)" d="M11.569 26.938h-0.733c-0.495 0-0.896 0.401-0.896 0.896s0.401 0.896 0.896 0.896v0h0.733c0.495 0 0.896-0.401 0.896-0.896s-0.401-0.896-0.896-0.896v0z"></path>
<path fill="#f6b452" style="fill: var(--color2, #f6b452)" d="M17.764 26.938h-0.388c-0.495 0-0.896 0.401-0.896 0.896s0.401 0.896 0.896 0.896v0h0.388c0.495 0 0.896-0.401 0.896-0.896s-0.401-0.896-0.896-0.896v0z"></path>
<path fill="#f6b452" style="fill: var(--color2, #f6b452)" d="M26.065 27.275h-1.345c-0.495 0-0.896 0.401-0.896 0.896s0.401 0.896 0.896 0.896v0h1.344c0.495 0 0.896-0.401 0.896-0.896s-0.401-0.896-0.896-0.896v0z"></path>
<path fill="#f6b452" style="fill: var(--color2, #f6b452)" d="M15.348 4.776l-7.016-3.729c-0.122-0.066-0.267-0.105-0.42-0.105s-0.299 0.039-0.425 0.107l0.005-0.002-7.016 3.729c-0.285 0.153-0.475 0.449-0.475 0.79 0 0 0 0.001 0 0.001v-0 1.607c0 0.494 0.4 0.894 0.894 0.894v0h0.582v8.741c0 0.494 0.4 0.894 0.894 0.894v0h11.082c0.494 0 0.894-0.4 0.894-0.894v0-8.738h0.581c0.494 0 0.894-0.4 0.894-0.894v0-1.609c0-0.001 0-0.001 0-0.002 0-0.34-0.19-0.635-0.469-0.787l-0.005-0.002zM8.019 15.912h-0.215v-2.052h0.215zM12.556 15.912h-2.745v-2.946c0-0.494-0.4-0.894-0.894-0.894v0h-2.008c-0.494 0-0.894 0.4-0.894 0.894v0 2.946h-2.747v-7.842h9.288zM14.031 6.278h-12.239v-0.173l6.118-3.253 6.118 3.253z"></path>
</symbol>
<symbol id="icon-refresh" viewBox="0 0 32 32">
<path fill="#f6b452" style="fill: var(--color2, #f6b452)" d="M27.516 0c-0.631 0-1.143 0.512-1.143 1.143v0 4.174c-2.665-2.583-6.304-4.175-10.314-4.175-8.189 0-14.828 6.639-14.828 14.828 0 0.010 0 0.021 0 0.031v-0.002c0 0.631 0.512 1.143 1.143 1.143s1.143-0.512 1.143-1.143v0c0.002-6.942 5.63-12.569 12.572-12.569 3.666 0 6.966 1.57 9.264 4.073l0.008 0.009-5.061 1.688c-0.48 0.143-0.824 0.581-0.824 1.099 0 0.632 0.512 1.144 1.144 1.144 0.144 0 0.282-0.027 0.409-0.075l-0.008 0.003 6.857-2.284c0.458-0.156 0.782-0.582 0.782-1.085 0-0.001 0-0.002 0-0.004v0-6.857c-0-0.631-0.512-1.143-1.143-1.143v0z"></path>
<path fill="#f6b452" style="fill: var(--color2, #f6b452)" d="M29.802 14.857c-0.631 0-1.143 0.512-1.143 1.143v0c-0.002 6.942-5.63 12.568-12.572 12.568-3.666 0-6.966-1.569-9.264-4.073l-0.008-0.009 5.061-1.686c0.459-0.156 0.783-0.583 0.783-1.086 0-0.632-0.512-1.144-1.144-1.144-0.129 0-0.253 0.021-0.369 0.061l0.008-0.002-6.857 2.286c-0.458 0.156-0.782 0.582-0.782 1.085 0 0.001 0 0.002 0 0.004v-0 6.857c0 0.631 0.512 1.143 1.143 1.143s1.143-0.512 1.143-1.143v0-4.175c2.665 2.583 6.304 4.175 10.314 4.175 8.189 0 14.828-6.639 14.828-14.828 0-0.010 0-0.021-0-0.031v0.002c0-0 0-0.001 0-0.001 0-0.631-0.511-1.142-1.142-1.143h-0z"></path>
</symbol>
<symbol id="icon-salary" viewBox="0 0 32 32">
<path fill="#2b569f" style="fill: var(--color1, #2b569f)" d="M29.355 10.575h-3.73v-4.215c0-0.259-0.105-0.493-0.275-0.663v0l-5.422-5.422c-0.17-0.17-0.404-0.275-0.663-0.275h-15.834c-1.894 0.002-3.43 1.537-3.432 3.431v25.137c0.002 1.894 1.537 3.429 3.431 3.432h18.76c1.894-0.002 3.429-1.537 3.432-3.431v-2.209h3.73c1.462-0.001 2.646-1.186 2.647-2.647v-10.492c-0.002-1.46-1.185-2.644-2.645-2.645h-0zM25.92 24.483h-15.624c-0.169-2.112-1.924-3.761-4.064-3.763h-0q-0.070 0-0.14 0.002v-4.511q0.070 0.002 0.14 0.002c2.14-0.002 3.895-1.652 4.063-3.749l0.001-0.014h15.624c0.169 2.112 1.924 3.761 4.064 3.763h0q0.070 0 0.14-0.002v4.511q-0.070-0.002-0.14-0.002c-2.14 0.002-3.895 1.652-4.063 3.749l-0.001 0.014zM8.41 12.45c-0.16 1.073-1.074 1.887-2.179 1.888h-0q-0.070 0-0.14-0.004v-1.114c0-0.425 0.345-0.77 0.77-0.77h0zM6.092 22.6q0.070-0.004 0.14-0.004c1.105 0.001 2.019 0.815 2.177 1.876l0.001 0.012h-1.548c-0.425-0-0.77-0.345-0.77-0.77v-0zM30.125 13.22v1.114q-0.070 0.004-0.14 0.004c-1.105-0.001-2.019-0.815-2.177-1.876l-0.001-0.012h1.548c0.425 0 0.77 0.345 0.77 0.77v0zM20.203 3.2l2.221 2.221h-2.221zM23.75 28.568c-0.002 0.859-0.698 1.554-1.556 1.556h-18.763c-0.859-0.002-1.554-0.698-1.556-1.556v-25.136c0.002-0.859 0.698-1.554 1.556-1.556h14.897v4.485c0 0.518 0.42 0.938 0.938 0.938v0h4.484v3.28h-16.888c-1.46 0.002-2.644 1.185-2.645 2.645v10.49c0.002 1.46 1.185 2.644 2.645 2.645h16.888zM29.355 24.483h-1.548c0.16-1.073 1.074-1.887 2.179-1.888h0q0.070 0 0.14 0.004v1.114c-0 0.425-0.345 0.77-0.77 0.77h-0z"></path>
<path fill="#2b569f" style="fill: var(--color1, #2b569f)" d="M18.108 16.875h1.265c0.509-0.011 0.918-0.426 0.918-0.937s-0.409-0.927-0.917-0.937l-0.001-0h-0.327v-0.457c-0.011-0.509-0.426-0.918-0.937-0.918s-0.927 0.409-0.937 0.917l-0 0.001v0.666c-0.753 0.361-1.264 1.117-1.264 1.992 0 1.216 0.986 2.202 2.202 2.202v0c0.003-0 0.007-0 0.011-0 0.181 0 0.327 0.146 0.327 0.327s-0.146 0.327-0.327 0.327c-0.004 0-0.008-0-0.012-0l0.001 0h-1.265c-0.518 0-0.938 0.42-0.938 0.938s0.42 0.938 0.938 0.938h0.327v0.457c0 0.518 0.42 0.938 0.938 0.938s0.938-0.42 0.938-0.938v-0.666c0.757-0.359 1.271-1.116 1.271-1.994 0-1.215-0.985-2.2-2.2-2.2-0.003 0-0.006 0-0.009 0h0c-0.181 0-0.327-0.146-0.327-0.327s0.146-0.327 0.327-0.327v0z"></path>
</symbol>
<symbol id="icon-security" viewBox="0 0 32 32">
<path fill="#f6b452" style="fill: var(--color2, #f6b452)" d="M28.829 5.184c-1.623-0.577-2.878-1.837-3.434-3.425l-0.012-0.039c-0.348-1.007-1.287-1.717-2.392-1.719h-13.963c-1.107 0.001-2.047 0.712-2.39 1.701l-0.005 0.018c-0.569 1.627-1.823 2.887-3.407 3.452l-0.039 0.012c-1.004 0.354-1.71 1.294-1.71 2.4 0 0.001 0 0.002 0 0.003v-0 3.531c0 0.009-0 0.019-0 0.029 0 9.182 5.495 17.081 13.376 20.587l0.143 0.057c0.298 0.132 0.646 0.209 1.012 0.209s0.714-0.077 1.028-0.215l-0.016 0.006c3.919-1.728 7.145-4.414 9.478-7.768l0.048-0.073c2.499-3.574 3.994-8.011 3.994-12.797 0-0.013 0-0.025-0-0.038v0.002-3.531c0-0.001 0-0.002 0-0.003 0-1.105-0.706-2.046-1.692-2.394l-0.018-0.005zM28.664 11.118c0 0.010 0 0.021 0 0.033 0 4.388-1.37 8.457-3.707 11.8l0.044-0.067c-2.181 3.141-5.138 5.602-8.597 7.135l-0.131 0.052c-0.078 0.035-0.17 0.055-0.266 0.055s-0.188-0.020-0.27-0.057l0.004 0.002c-7.354-3.267-12.39-10.508-12.39-18.924 0-0.011 0-0.021 0-0.031v0.002-3.53c0-0.001 0-0.002 0-0.004 0-0.287 0.183-0.532 0.438-0.624l0.005-0.001c2.172-0.772 3.85-2.458 4.595-4.582l0.016-0.052c0.090-0.262 0.334-0.447 0.621-0.448h13.964c0.287 0.001 0.531 0.186 0.619 0.443l0.001 0.005c0.761 2.177 2.439 3.863 4.559 4.618l0.052 0.016c0.26 0.093 0.443 0.338 0.443 0.626 0 0.001 0 0.003 0 0.004v-0z"></path>
<path fill="#f6b452" style="fill: var(--color2, #f6b452)" d="M19.992 12.155h-0.064v-2.67c0-2.165-1.755-3.92-3.92-3.92s-3.92 1.755-3.92 3.92v0 2.67h-0.063c-1.246 0.001-2.256 1.011-2.258 2.258v5.396c0.003 2.321 1.883 4.202 4.204 4.205h4.074c2.321-0.003 4.202-1.884 4.204-4.205v-5.396c-0.001-1.246-1.011-2.256-2.258-2.258h-0zM13.963 9.485c0-1.129 0.916-2.045 2.045-2.045s2.045 0.916 2.045 2.045v2.67h-4.090zM20.374 19.808c-0.001 1.286-1.043 2.328-2.329 2.33h-4.075c-1.286-0.002-2.328-1.044-2.329-2.329v-5.396c0-0.211 0.171-0.382 0.383-0.383h7.968c0.211 0 0.382 0.171 0.383 0.383v0z"></path>
<path fill="#f6b452" style="fill: var(--color2, #f6b452)" d="M16.006 16.261c-0.517 0-0.935 0.419-0.935 0.935v0 1.772c0 0.518 0.42 0.938 0.938 0.938s0.938-0.42 0.938-0.938v0-1.772c0 0 0 0 0 0 0-0.517-0.419-0.935-0.935-0.935-0.002 0-0.003 0-0.005 0h0z"></path>
</symbol>
<symbol id="icon-social-media" viewBox="0 0 32 32">
<path fill="#2b569f" style="fill: var(--color1, #2b569f)" d="M16.008 8.969h6.25c0.455 2.283 2.443 3.979 4.827 3.979 2.715 0 4.917-2.201 4.917-4.917s-2.201-4.917-4.917-4.917c-2.384 0-4.371 1.696-4.821 3.948l-0.005 0.031h-6.25c-0.49-4.004-3.869-7.075-7.966-7.075-4.43 0-8.022 3.591-8.022 8.022s3.591 8.022 8.022 8.022c1.884 0 3.617-0.65 4.986-1.737l-0.016 0.013 4.657 4.657c-0.889 1.113-1.49 2.491-1.672 3.999l-0.004 0.038h-6.25c-0.455-2.283-2.443-3.979-4.827-3.979-2.715 0-4.917 2.201-4.917 4.917s2.201 4.917 4.917 4.917c2.384 0 4.371-1.697 4.821-3.948l0.005-0.031h6.25c0.483 4.021 3.874 7.107 7.986 7.107 4.44 0 8.040-3.6 8.040-8.040s-3.6-8.040-8.040-8.040c-1.891 0-3.629 0.653-5.002 1.745l0.016-0.013-4.656-4.656c0.887-1.115 1.486-2.495 1.667-4.004l0.004-0.038zM27.083 4.99c1.679 0 3.040 1.361 3.040 3.040s-1.361 3.040-3.040 3.040c-1.679 0-3.040-1.361-3.040-3.040v0c0.003-1.678 1.362-3.037 3.040-3.040h0zM1.875 8.030c0.004-3.397 2.759-6.149 6.156-6.149 3.4 0 6.156 2.756 6.156 6.156 0 1.537-0.563 2.942-1.494 4.021l0.007-0.008c-0.345-1.244-1.138-2.264-2.191-2.896l-0.022-0.012c0.41-0.522 0.657-1.188 0.657-1.913 0-1.719-1.393-3.112-3.112-3.112s-3.112 1.393-3.112 3.112c0 0.724 0.247 1.391 0.662 1.919l-0.005-0.007c-1.075 0.644-1.869 1.664-2.205 2.874l-0.008 0.034c-0.925-1.070-1.488-2.475-1.488-4.012 0-0.002 0-0.004 0-0.007v0zM6.795 7.23c0-0.683 0.554-1.237 1.237-1.237s1.237 0.554 1.237 1.237c0 0.683-0.554 1.237-1.237 1.237v0c-0.682-0.001-1.235-0.553-1.238-1.235v-0zM5.073 13.43c0-1.635 1.325-2.96 2.96-2.96s2.96 1.325 2.96 2.96v0c-0.855 0.475-1.875 0.754-2.96 0.754s-2.105-0.279-2.992-0.77l0.032 0.016zM4.918 27.007c-1.679 0-3.040-1.361-3.040-3.040s1.361-3.040 3.040-3.040c1.679 0 3.040 1.361 3.040 3.040v0c-0.001 1.68-1.361 3.041-3.041 3.044h-0zM21.010 29.367c-0.002-0.037-0.003-0.079-0.003-0.122 0-1.637 1.326-2.965 2.962-2.967h0c1.637 0.001 2.963 1.328 2.963 2.965 0 0.044-0.001 0.087-0.003 0.131l0-0.006c-0.855 0.475-1.875 0.754-2.96 0.754s-2.105-0.279-2.992-0.77l0.032 0.016zM22.732 23.167c0-0.683 0.554-1.237 1.237-1.237s1.237 0.554 1.237 1.237c0 0.683-0.554 1.237-1.237 1.237h-0c-0.682-0.001-1.235-0.553-1.238-1.234v-0zM30.126 23.967c0 0.002 0 0.004 0 0.007 0 1.536-0.563 2.941-1.495 4.019l0.007-0.008c-0.345-1.243-1.139-2.262-2.192-2.893l-0.022-0.012c0.41-0.522 0.657-1.188 0.657-1.913 0-1.719-1.393-3.112-3.112-3.112s-3.112 1.393-3.112 3.112c0 0.724 0.247 1.391 0.662 1.919l-0.005-0.007c-1.075 0.644-1.869 1.664-2.205 2.874l-0.008 0.034c-0.926-1.071-1.49-2.478-1.49-4.016 0-3.401 2.757-6.157 6.157-6.157s6.156 2.756 6.157 6.156v0z"></path>
</symbol>
<symbol id="icon-translate" viewBox="0 0 32 32">
<path fill="#f6b452" style="fill: var(--color2, #f6b452)" d="M29.187 7.562h-13.747l-2.301-6.922c-0.128-0.375-0.477-0.64-0.888-0.64-0.001 0-0.001 0-0.002 0h-9.437c-1.553 0.001-2.812 1.26-2.814 2.812v18.812c0.002 1.553 1.26 2.811 2.812 2.813h10.332l2.282 6.902c0.123 0.385 0.477 0.659 0.895 0.661h12.867c1.552-0.002 2.81-1.26 2.812-2.812v-18.813c-0.002-1.553-1.26-2.811-2.812-2.813h-0zM2.813 22.562c-0.516-0.002-0.934-0.419-0.935-0.935v-18.815c0.002-0.516 0.419-0.934 0.935-0.935h8.763l6.875 20.685zM18.296 24.438l-1.838 4.052-1.34-4.053zM30.125 29.187c-0.002 0.516-0.419 0.934-0.935 0.935h-11.414l2.828-6.236c0.052-0.114 0.083-0.247 0.083-0.387 0-0.106-0.017-0.208-0.050-0.303l0.002 0.007-4.578-13.766h13.127c0.516 0.002 0.934 0.419 0.935 0.935v0z"></path>
<path fill="#f6b452" style="fill: var(--color2, #f6b452)" d="M12.185 11.309h-2.798c-0.515 0-0.932 0.417-0.932 0.932s0.417 0.932 0.932 0.932v0h1.705c-0.396 1.096-1.427 1.865-2.637 1.865-1.545 0-2.797-1.252-2.797-2.797s1.252-2.797 2.797-2.797c0.772 0 1.472 0.313 1.978 0.819v0c0.169 0.169 0.402 0.273 0.659 0.273 0.515 0 0.933-0.418 0.933-0.933 0-0.258-0.104-0.491-0.273-0.659v0c-0.844-0.844-2.009-1.366-3.297-1.366-2.575 0-4.663 2.088-4.663 4.663s2.088 4.663 4.663 4.663c2.575 0 4.662-2.087 4.663-4.661v-0c0-0.515-0.417-0.932-0.932-0.932v0z"></path>
<path fill="#f6b452" style="fill: var(--color2, #f6b452)" d="M27.275 15.090h-2.797v-0.932c0-0.515-0.417-0.932-0.932-0.932s-0.932 0.417-0.932 0.932v0 0.932h-2.796c-0.515 0-0.932 0.417-0.932 0.932s0.417 0.932 0.932 0.932v0h5.415c-0.446 1.121-1.009 2.089-1.693 2.958l0.019-0.025c-0.16-0.216-0.317-0.436-0.469-0.66-0.17-0.248-0.452-0.408-0.771-0.408-0.515 0-0.933 0.418-0.933 0.933 0 0.196 0.060 0.377 0.163 0.527l-0.002-0.003c0.261 0.385 0.536 0.759 0.809 1.114-0.466 0.542-0.926 1.030-1.329 1.428-0.157 0.167-0.254 0.392-0.254 0.64 0 0.515 0.417 0.932 0.932 0.932 0.242 0 0.463-0.092 0.629-0.244l-0.001 0.001c0.032-0.032 0.542-0.533 1.22-1.302 0.663 0.759 1.159 1.257 1.198 1.295 0.165 0.151 0.386 0.243 0.628 0.243 0.515 0 0.932-0.417 0.932-0.932 0-0.242-0.092-0.462-0.243-0.627l0.001 0.001c-0.010-0.010-0.58-0.584-1.309-1.434 1.32-1.706 2.125-3.193 2.403-4.435h0.111c0.515 0 0.932-0.417 0.932-0.932s-0.417-0.932-0.932-0.932v0z"></path>
</symbol>
<symbol id="icon-user" viewBox="0 0 32 32">
<path fill="#2b569f" style="fill: var(--color1, #2b569f)" d="M31.68 15.33c-0.009-0.009-0.019-0.017-0.028-0.026l-1.976-1.974c-0.169-0.167-0.401-0.27-0.658-0.27-0.517 0-0.937 0.419-0.937 0.937 0 0.256 0.103 0.489 0.27 0.658l-0-0 0.4 0.4h-3.653c-0.195-1.863-0.924-3.526-2.028-4.869l0.013 0.016 2.604-2.602v0.57c0 0.517 0.419 0.937 0.937 0.937s0.937-0.419 0.937-0.937v-2.794c0-0.013 0-0.026 0-0.040-0.002-0.517-0.42-0.935-0.937-0.937h-0c-0.013 0-0.025 0-0.040 0h-2.79c-0.517 0-0.937 0.419-0.937 0.937s0.419 0.937 0.937 0.937h0.567l-2.602 2.602c-1.327-1.091-2.991-1.819-4.814-2.011l-0.040-0.003v-3.662l0.4 0.4c0.17 0.172 0.406 0.279 0.667 0.279 0.517 0 0.937-0.419 0.937-0.937 0-0.261-0.107-0.497-0.279-0.667l-0-0-1.974-1.973c-0.008-0.009-0.016-0.019-0.025-0.028-0.17-0.17-0.405-0.274-0.664-0.274s-0.494 0.105-0.664 0.274l0-0c-0.009 0.009-0.017 0.018-0.025 0.028l-1.975 1.975c-0.185 0.172-0.301 0.416-0.301 0.688 0 0.517 0.419 0.937 0.937 0.937 0.272 0 0.517-0.116 0.688-0.301l0.001-0.001 0.403-0.4v3.663c-1.863 0.195-3.527 0.924-4.869 2.028l0.016-0.013-2.604-2.604h0.57c0.517 0 0.937-0.419 0.937-0.937s-0.419-0.937-0.937-0.937h-2.792c-0.013 0-0.026 0-0.040 0-0.518 0.001-0.938 0.421-0.939 0.939v0c0 0.013 0 0.026 0 0.040v2.792c0 0.517 0.419 0.937 0.937 0.937s0.937-0.419 0.937-0.937v-0.571l2.602 2.602c-1.090 1.328-1.818 2.991-2.009 4.814l-0.003 0.040h-3.636l0.4-0.404c0.167-0.169 0.27-0.401 0.27-0.658 0-0.517-0.419-0.937-0.937-0.937-0.256 0-0.489 0.103-0.658 0.27l0-0-1.972 1.974c-0.010 0.009-0.019 0.017-0.028 0.026-0.17 0.17-0.274 0.405-0.274 0.664s0.105 0.494 0.274 0.664l-0-0c0.009 0.009 0.019 0.017 0.028 0.025l1.974 1.974c0.166 0.153 0.389 0.246 0.633 0.246 0.517 0 0.937-0.419 0.937-0.937 0-0.245-0.094-0.467-0.247-0.634l0.001 0.001-0.4-0.4h3.636c0.196 1.863 0.924 3.526 2.028 4.869l-0.013-0.016-2.604 2.604v-0.571c0-0.517-0.419-0.937-0.937-0.937s-0.937 0.419-0.937 0.937v0 2.793c0 0.012 0 0.025 0 0.037 0.001 0.518 0.421 0.938 0.939 0.939h0c0.013 0 0.025 0 0.040 0h2.792c0.517 0 0.937-0.419 0.937-0.937s-0.419-0.937-0.937-0.937h-0.57l2.602-2.602c0.535 0.44 1.14 0.829 1.788 1.145l0.054 0.024c0.035 0.020 0.076 0.040 0.118 0.056l0.006 0.002c0.842 0.398 1.819 0.677 2.847 0.785l0.039 0.003v3.674l-0.404-0.4c-0.169-0.167-0.401-0.27-0.658-0.27-0.517 0-0.937 0.419-0.937 0.937 0 0.256 0.103 0.489 0.27 0.658l-0-0 1.975 1.975c0.008 0.009 0.016 0.019 0.025 0.028 0.169 0.168 0.402 0.272 0.66 0.272 0.001 0 0.002 0 0.003 0h0.003c0 0 0.001 0 0.001 0 0.258 0 0.492-0.105 0.661-0.274l0-0c0.009-0.009 0.017-0.019 0.026-0.028l1.974-1.974c0.157-0.167 0.254-0.393 0.254-0.641 0-0.517-0.419-0.937-0.937-0.937-0.249 0-0.475 0.097-0.643 0.255l0-0-0.4 0.4v-3.676c1.068-0.111 2.045-0.39 2.943-0.812l-0.056 0.024c0.049-0.019 0.090-0.038 0.129-0.061l-0.005 0.002c0.702-0.34 1.307-0.729 1.858-1.182l-0.016 0.013 2.604 2.604h-0.571c-0.517 0-0.937 0.419-0.937 0.937s0.419 0.937 0.937 0.937h2.792c0.013 0 0.025 0 0.040 0 0.516-0.003 0.934-0.42 0.936-0.937v-0c0-0.012 0-0.025 0-0.037v-2.793c0-0.517-0.419-0.937-0.937-0.937s-0.937 0.419-0.937 0.937v0.567l-2.602-2.602c1.091-1.327 1.82-2.991 2.012-4.814l0.003-0.040h3.657l-0.403 0.403c-0.172 0.17-0.279 0.406-0.279 0.667 0 0.517 0.419 0.937 0.937 0.937 0.261 0 0.497-0.107 0.667-0.279l0-0 1.974-1.974c0.010-0.009 0.020-0.017 0.028-0.026 0.169-0.17 0.274-0.405 0.274-0.664s-0.105-0.494-0.274-0.664l0 0zM13.414 21.109c0.002-0.173 0.143-0.313 0.316-0.316h4.456c0.178 0 0.324 0.139 0.336 0.315l0 0.001v1.726c-0.758 0.292-1.636 0.46-2.552 0.46s-1.794-0.169-2.602-0.477l0.050 0.017zM20.394 21.8v-0.688c0-0.001 0-0.001 0-0.002 0-0.609-0.252-1.16-0.658-1.552l-0.001-0.001c-0.398-0.393-0.945-0.636-1.55-0.636-0 0-0 0-0 0h-4.456c-1.209 0.002-2.188 0.981-2.19 2.19v0.69c-1.758-1.347-2.88-3.448-2.88-5.81 0-4.033 3.269-7.302 7.302-7.302 0.002 0 0.004 0 0.006 0h-0c0.001 0 0.003 0 0.005 0 4.033 0 7.302 3.269 7.302 7.302 0 2.363-1.122 4.463-2.862 5.798l-0.017 0.013z"></path>
<path fill="#2b569f" style="fill: var(--color1, #2b569f)" d="M15.966 11.777c-1.786 0-3.234 1.448-3.234 3.234s1.448 3.234 3.234 3.234c1.786 0 3.234-1.448 3.234-3.234 0-0 0-0 0-0v0c-0.002-1.785-1.449-3.231-3.233-3.233h-0zM15.966 16.37c-0.751 0-1.36-0.609-1.36-1.36s0.609-1.36 1.36-1.36c0.751 0 1.36 0.609 1.36 1.36v0c0 0.751-0.609 1.36-1.36 1.36v0z"></path>
</symbol>
<symbol id="icon-world-grid" viewBox="0 0 32 32">
<path fill="#f6b452" style="fill: var(--color2, #f6b452)" d="M16.081 0h-0.027c-0.006 0-0.013 0-0.020 0-8.821 0-15.979 7.124-16.034 15.932l-0 0.005c0 0.005 0 0.010 0 0.016 0 2.244 0.469 4.379 1.313 6.312l-0.040-0.102c1.683 3.862 4.701 6.88 8.458 8.522l0.105 0.041c1.831 0.805 3.966 1.274 6.21 1.274 0.005 0 0.011 0 0.016 0h0.005c0.002 0 0.004 0 0.007 0 8.837 0 16-7.163 16-16 0-8.834-7.16-15.996-15.993-16h-0zM12.957 2.215c-1.567 1.488-2.869 3.236-3.841 5.178l-0.049 0.107h-4.348c2.006-2.624 4.857-4.514 8.142-5.266l0.096-0.018zM3.518 9.363h4.749c-0.624 1.663-1.035 3.585-1.142 5.589l-0.002 0.049h-5.216c0.142-2.085 0.722-4.005 1.647-5.711l-0.036 0.073zM3.553 22.625c-0.912-1.664-1.504-3.624-1.644-5.707l-0.002-0.043h5.21c0.098 2.089 0.511 4.052 1.194 5.884l-0.044-0.134zM4.758 24.5h4.31c1.019 2.048 2.32 3.794 3.877 5.273l0.008 0.008c-3.364-0.779-6.199-2.665-8.17-5.247l-0.025-0.034zM8.995 16.875h6.13v5.75h-4.835c-0.722-1.691-1.187-3.652-1.293-5.709l-0.002-0.042zM15.125 29.194c-1.564-1.309-2.871-2.863-3.877-4.612l-0.044-0.083h3.921v4.695zM15.125 14.999h-6.124c0.12-2.055 0.582-3.972 1.33-5.737l-0.043 0.113h4.836zM15.125 7.499h-3.921c1.049-1.831 2.356-3.385 3.894-4.671l0.027-0.022zM28.497 9.375c0.882 1.63 1.456 3.546 1.594 5.582l0.002 0.043h-5.092c-0.109-2.048-0.519-3.966-1.187-5.759l0.044 0.134zM27.306 7.499h-4.249c-1.019-2.046-2.318-3.791-3.873-5.269l-0.008-0.007c3.341 0.782 6.155 2.666 8.104 5.242l0.026 0.035zM17 2.806c1.565 1.309 2.873 2.862 3.879 4.611l0.044 0.083h-3.923zM17 9.376h4.837c0.705 1.653 1.167 3.569 1.285 5.578l0.002 0.047h-6.124zM23.131 16.863c-0.107 2.102-0.572 4.068-1.336 5.876l0.043-0.114h-4.837v-5.762zM17 29.194v-4.706h3.923c-1.050 1.836-2.358 3.394-3.897 4.685l-0.026 0.022zM19.18 29.772c1.561-1.489 2.858-3.237 3.827-5.177l0.049-0.108h4.211c-1.964 2.606-4.761 4.492-7.991 5.266l-0.096 0.019zM23.857 22.625c0.64-1.701 1.054-3.668 1.15-5.718l0.002-0.044h5.086c-0.14 2.129-0.728 4.093-1.669 5.838l0.037-0.076z"></path>
</symbol>
<symbol id="icon-calendar" viewBox="0 0 32 32">
<path fill="#2b569f" style="fill: var(--color1, #2b569f)" d="M28.563 3.75h-2.25v-0.937c0-0.013 0-0.027 0-0.042 0-1.553-1.259-2.813-2.813-2.813s-2.813 1.259-2.813 2.813c0 0.015 0 0.030 0 0.045l-0-0.002v0.937h-9.375v-0.937c0-0.013 0-0.027 0-0.042 0-1.553-1.259-2.813-2.813-2.813s-2.813 1.259-2.813 2.813c0 0.015 0 0.030 0 0.045l-0-0.002v0.937h-2.25c-1.898 0.002-3.435 1.54-3.437 3.437v21.376c0.003 1.897 1.54 3.435 3.437 3.437h25.125c1.898-0.002 3.435-1.54 3.437-3.437v-21.376c-0.002-1.898-1.54-3.435-3.437-3.437h-0zM22.563 2.813c0-0.518 0.42-0.938 0.938-0.938s0.938 0.42 0.938 0.938v3.75c0 0.518-0.42 0.938-0.938 0.938s-0.938-0.42-0.938-0.938v0zM7.563 2.813c0-0.518 0.42-0.938 0.938-0.938s0.938 0.42 0.938 0.938v3.75c0 0.518-0.42 0.938-0.938 0.938s-0.938-0.42-0.938-0.938v0zM1.875 7.187c0.001-0.862 0.7-1.561 1.562-1.562h2.25v0.938c-0 0.013-0 0.027-0 0.042 0 1.553 1.259 2.813 2.813 2.813s2.813-1.259 2.813-2.813c0-0.015-0-0.030-0-0.045l0 0.002v-0.938h9.375v0.938c-0 0.013-0 0.027-0 0.042 0 1.553 1.259 2.813 2.813 2.813s2.813-1.259 2.813-2.813c0-0.015-0-0.030-0-0.045l0 0.002v-0.938h2.25c0.862 0.001 1.561 0.7 1.562 1.562v4.188h-28.25zM30.125 28.563c-0.001 0.862-0.7 1.561-1.562 1.562h-25.126c-0.863-0.001-1.562-0.7-1.562-1.563v-15.315h28.25z"></path>
<path fill="#2b569f" style="fill: var(--color1, #2b569f)" d="M19.218 17.364h1.432v10.063c0 0.505 0.41 0.915 0.915 0.915s0.915-0.41 0.915-0.915v0-10.978c0-0.505-0.409-0.915-0.915-0.915-0 0-0 0-0.001 0h-2.346c-0.505 0-0.915 0.41-0.915 0.915s0.41 0.915 0.915 0.915v0z"></path>
<path fill="#2b569f" style="fill: var(--color1, #2b569f)" d="M13.215 26.511c-0.919-0.003-1.679-0.68-1.811-1.563l-0.001-0.010c-0.011-0.077-0.018-0.166-0.018-0.256v-0c0-0.505-0.41-0.915-0.915-0.915s-0.915 0.41-0.915 0.915v0c0 0.001 0 0.002 0 0.003 0 2.019 1.637 3.656 3.656 3.656 0.001 0 0.002 0 0.003 0h-0c0.001 0 0.001 0 0.002 0 2.020 0 3.657-1.637 3.657-3.657 0-1.092-0.479-2.073-1.238-2.743l-0.004-0.003c0.762-0.674 1.24-1.654 1.24-2.745 0-2.020-1.638-3.658-3.658-3.658-1.77 0-3.247 1.257-3.585 2.927l-0.004 0.023c-0.011 0.053-0.017 0.114-0.017 0.176 0 0.505 0.41 0.915 0.915 0.915 0.443 0 0.812-0.315 0.897-0.733l0.001-0.006c0.172-0.846 0.91-1.475 1.795-1.475 1.011 0 1.83 0.819 1.83 1.83s-0.819 1.83-1.829 1.83v0c-0.505 0-0.915 0.41-0.915 0.915s0.41 0.915 0.915 0.915v0c0.996 0.019 1.796 0.831 1.796 1.829s-0.8 1.81-1.794 1.829l-0.002 0z"></path>
</symbol>
<symbol id="icon-filter" viewBox="0 0 32 32">
<path fill="#2b569f" style="fill: var(--color1, #2b569f)" d="M26.276 0h-20.551c-3.16 0.004-5.72 2.565-5.724 5.724v20.552c0.004 3.16 2.565 5.72 5.724 5.724h20.552c3.16-0.004 5.72-2.565 5.724-5.724v-20.552c-0.004-3.16-2.565-5.72-5.724-5.724h-0zM30.126 26.276c-0.002 2.125-1.725 3.848-3.85 3.85h-20.552c-2.126-0.002-3.848-1.725-3.85-3.85v-20.552c0.003-2.125 1.725-3.847 3.85-3.849h20.552c2.125 0.002 3.848 1.725 3.85 3.85v0z"></path>
<path fill="#2b569f" style="fill: var(--color1, #2b569f)" d="M27.073 7.023h-14.313c-0.413-1.17-1.51-1.993-2.799-1.993s-2.385 0.823-2.792 1.972l-0.006 0.021h-2.234c-0.514 0-0.931 0.417-0.931 0.931s0.417 0.931 0.931 0.931v0h2.235c0.413 1.17 1.51 1.993 2.799 1.993s2.385-0.823 2.792-1.972l0.006-0.021h14.313c0.514 0 0.931-0.417 0.931-0.931s-0.417-0.931-0.931-0.931v0zM9.961 9.020c-0.583-0.006-1.053-0.48-1.053-1.063 0-0.587 0.476-1.063 1.063-1.063s1.063 0.476 1.063 1.063v0c-0.004 0.588-0.481 1.063-1.070 1.063-0.001 0-0.003 0-0.004 0h0z"></path>
<path fill="#2b569f" style="fill: var(--color1, #2b569f)" d="M27.073 15.069h-2.235c-0.413-1.17-1.51-1.993-2.799-1.993s-2.385 0.823-2.792 1.972l-0.006 0.021h-14.313c-0.514 0-0.931 0.417-0.931 0.931s0.417 0.931 0.931 0.931v0h14.313c0.413 1.17 1.51 1.993 2.799 1.993s2.385-0.823 2.792-1.972l0.006-0.021h2.235c0.514 0 0.931-0.417 0.931-0.931s-0.417-0.931-0.931-0.931v0zM22.044 17.063c-0.583-0.006-1.053-0.48-1.053-1.063 0-0.587 0.476-1.063 1.063-1.063s1.063 0.476 1.063 1.063v0c-0.004 0.588-0.481 1.063-1.070 1.063-0.003 0-0.006 0-0.009-0h0z"></path>
<path fill="#2b569f" style="fill: var(--color1, #2b569f)" d="M27.073 23.116h-10.288c-0.413-1.17-1.51-1.993-2.799-1.993s-2.385 0.823-2.792 1.972l-0.006 0.021h-6.26c-0.514 0-0.931 0.417-0.931 0.931s0.417 0.931 0.931 0.931v0h6.26c0.413 1.17 1.51 1.993 2.799 1.993s2.385-0.823 2.792-1.972l0.006-0.021h10.288c0.514 0 0.931-0.417 0.931-0.931s-0.417-0.931-0.931-0.931v0zM13.984 25.11c-0.583-0.006-1.053-0.48-1.053-1.063 0-0.587 0.476-1.063 1.063-1.063s1.063 0.476 1.063 1.063v0c-0.004 0.588-0.481 1.063-1.070 1.063-0.001 0-0.003 0-0.004 0h0z"></path>
</symbol>
<symbol id="icon-phone-call" viewBox="0 0 32 32">
<path fill="#2b569f" style="fill: var(--color1, #2b569f)" d="M0.822 24.872l5.304-5.304c0.509-0.509 1.212-0.825 1.989-0.825s1.48 0.315 1.989 0.825l1.325 1.326c0.509 0.508 1.213 0.823 1.989 0.823 0.779 0 1.484-0.316 1.994-0.827l0-0 5.554-5.48c0.508-0.509 0.823-1.213 0.823-1.989s-0.314-1.48-0.823-1.989l-1.326-1.326c-0.508-0.509-0.823-1.213-0.823-1.989s0.314-1.48 0.823-1.989l5.304-5.303c0.509-0.508 1.213-0.823 1.989-0.823s1.48 0.314 1.989 0.823l1.326 1.326c1.721 1.721 2.227 5.516 1.321 9.903-1.077 5.042-3.504 9.403-6.881 12.822l0.003-0.003c-3.384 3.355-7.727 5.747-12.582 6.728l-0.16 0.027c-3.046 0.588-7.623 0.728-9.802-1.45l-1.325-1.326c-0.508-0.509-0.823-1.213-0.823-1.989s0.314-1.48 0.823-1.989l-0 0zM27.597 2.148c-0.17-0.169-0.404-0.274-0.663-0.274s-0.493 0.105-0.663 0.274l-5.304 5.304c-0.169 0.17-0.274 0.404-0.274 0.663s0.105 0.493 0.274 0.663l0.66 0.66 6.63-6.63zM11.597 29.785c4.633-0.931 8.645-3.14 11.772-6.241l-0.002 0.002c3.125-3.164 5.372-7.203 6.34-11.716l0.028-0.156c0.709-3.432 0.414-6.012-0.275-7.414l-6.575 6.572c0.487 0.728 0.777 1.624 0.777 2.588 0 1.297-0.525 2.471-1.375 3.321l0-0-5.554 5.48c-0.849 0.847-2.022 1.371-3.316 1.371-0.964 0-1.859-0.29-2.605-0.788l0.017 0.011-6.578 6.578c2.004 1.016 5.121 0.822 7.341 0.394zM2.148 27.524l0.66 0.66 6.63-6.63-0.66-0.66c-0.17-0.17-0.404-0.275-0.663-0.275s-0.493 0.105-0.663 0.275v0l-5.304 5.304c-0.169 0.17-0.274 0.404-0.274 0.663s0.105 0.493 0.274 0.663l-0-0z"></path>
<path fill="#2b569f" style="fill: var(--color1, #2b569f)" d="M14.024 0.001c0.007-0 0.016-0 0.024-0 0.516 0 0.935 0.419 0.935 0.935s-0.419 0.935-0.935 0.935c-0.009 0-0.017-0-0.026-0l0.001 0c-6.708 0.008-12.144 5.444-12.152 12.152v0.001c-0.014 0.506-0.427 0.911-0.935 0.911s-0.921-0.405-0.935-0.909l-0-0.001c0.009-7.74 6.281-14.013 14.021-14.022h0.001z"></path>
<path fill="#2b569f" style="fill: var(--color1, #2b569f)" d="M14.021 3.74c0.007-0 0.016-0 0.024-0 0.516 0 0.935 0.419 0.935 0.935s-0.419 0.935-0.935 0.935c-0.009 0-0.017-0-0.026-0l0.001 0c-4.644 0.005-8.408 3.769-8.413 8.413v0.001c0 0.007 0 0.016 0 0.024 0 0.516-0.419 0.935-0.935 0.935s-0.935-0.419-0.935-0.935c0-0.009 0-0.017 0-0.026l-0 0.001c0.007-5.676 4.606-10.276 10.282-10.283h0.001z"></path>
<path fill="#2b569f" style="fill: var(--color1, #2b569f)" d="M14.053 7.509c0.007-0 0.016-0 0.024-0 0.516 0 0.935 0.419 0.935 0.935s-0.419 0.935-0.935 0.935c-0.009 0-0.017-0-0.026-0l0.001 0c-2.579 0.004-4.668 2.093-4.672 4.672v0c0 0.007 0 0.016 0 0.024 0 0.516-0.419 0.935-0.935 0.935s-0.935-0.419-0.935-0.935c0-0.009 0-0.017 0-0.026l-0 0.001c0.005-3.611 2.931-6.536 6.541-6.541h0.001z"></path>
<path fill="#2b569f" style="fill: var(--color1, #2b569f)" d="M14.063 11.257c0.007-0 0.016-0 0.024-0 0.516 0 0.935 0.419 0.935 0.935s-0.419 0.935-0.935 0.935c-0.009 0-0.017-0-0.026-0l0.001 0c-0.516 0-0.935 0.419-0.935 0.935v0c-0.014 0.506-0.427 0.911-0.935 0.911s-0.921-0.405-0.935-0.909l-0-0.001c0.002-1.548 1.256-2.803 2.804-2.804h0z"></path>
</symbol>
<symbol id="icon-searching" viewBox="0 0 32 32">
<path fill="#2b569f" style="fill: var(--color1, #2b569f)" d="M4.022 4.023c2.486-2.488 5.922-4.026 9.717-4.026 7.588 0 13.739 6.151 13.739 13.739 0 0.001 0 0.002 0 0.004v-0c0 0.011 0 0.025 0 0.039 0 3.451-1.282 6.603-3.396 9.005l0.013-0.015 7.63 7.631c0.17 0.17 0.275 0.405 0.275 0.664 0 0.518-0.42 0.938-0.938 0.938-0.259 0-0.494-0.105-0.663-0.275l-7.633-7.631c-2.4 2.1-5.564 3.381-9.027 3.381-7.587 0-13.738-6.15-13.739-13.738v-0c-0-0.012-0-0.026-0-0.040 0-3.782 1.538-7.204 4.022-9.676l0.001-0.001zM5.351 22.126c2.145 2.143 5.108 3.469 8.38 3.469 6.548 0 11.856-5.308 11.856-11.856s-5.308-11.856-11.856-11.856c-3.272 0-6.235 1.326-8.38 3.469l0-0c-2.143 2.148-3.469 5.113-3.469 8.388s1.325 6.24 3.469 8.388l-0-0z"></path>
</symbol>
<symbol id="icon-statistics" viewBox="0 0 32 32">
<path fill="#2b569f" style="fill: var(--color1, #2b569f)" d="M27.384 0h-18.194c-1.040 0-1.883 0.843-1.884 1.882v21.706h-3.137c-1.040 0.001-1.883 0.844-1.883 1.884 0 0.001 0 0.001 0 0.002v-0 3.075c0.003 1.905 1.546 3.448 3.451 3.45h20.078c1.905-0.002 3.449-1.546 3.451-3.451v-26.666c-0.001-1.039-0.843-1.881-1.882-1.883h-0zM7.305 28.549c-0.021 0.85-0.715 1.531-1.568 1.531s-1.547-0.681-1.568-1.529l-0-0.002v-3.074c0.006 0 0.379 0 3.139 0zM27.384 28.549c-0.001 0.866-0.703 1.568-1.569 1.569h-17.006c0.249-0.503 0.394-1.095 0.394-1.721 0-0.123-0.006-0.245-0.017-0.365l0.001 0.015v-26.164h18.194z"></path>
<path fill="#2b569f" style="fill: var(--color1, #2b569f)" d="M12.010 10.937h12.226c0.515-0.016 0.926-0.438 0.926-0.955s-0.411-0.939-0.924-0.955l-0.002-0h-12.226c-0.515 0.016-0.926 0.438-0.926 0.955s0.411 0.939 0.924 0.955l0.002 0z"></path>
<path fill="#2b569f" style="fill: var(--color1, #2b569f)" d="M12.21 26.483h7.131c0.515-0.016 0.926-0.438 0.926-0.955s-0.411-0.939-0.924-0.955l-0.002-0h-7.131c-0.009-0-0.019-0-0.030-0-0.528 0-0.955 0.428-0.955 0.955s0.428 0.955 0.955 0.955c0.010 0 0.021-0 0.031-0l-0.002 0z"></path>
<path fill="#2b569f" style="fill: var(--color1, #2b569f)" d="M12.010 6.925h12.226c0.009 0 0.019 0 0.030 0 0.528 0 0.955-0.428 0.955-0.955s-0.428-0.955-0.955-0.955c-0.010 0-0.021 0-0.031 0l0.002-0h-12.226c-0.515 0.016-0.926 0.438-0.926 0.955s0.411 0.939 0.924 0.955l0.002 0z"></path>
<path fill="#2b569f" style="fill: var(--color1, #2b569f)" d="M12.010 22.522h12.226c0.009 0 0.019 0 0.030 0 0.528 0 0.955-0.428 0.955-0.955s-0.428-0.955-0.955-0.955c-0.010 0-0.021 0-0.031 0l0.002-0h-11.271v-1.99l3.679-1.635 2.705 0.901c0.090 0.031 0.194 0.049 0.302 0.049 0.234 0 0.448-0.084 0.614-0.223l-0.001 0.001 3.056-2.547c0.202-0.176 0.329-0.434 0.329-0.721 0-0.528-0.428-0.955-0.955-0.955-0.227 0-0.435 0.079-0.598 0.211l0.002-0.001-2.651 2.206-2.552-0.85c-0.090-0.031-0.194-0.049-0.303-0.049-0.14 0-0.274 0.030-0.394 0.085l0.006-0.002-3.241 1.441v-2.606c-0.016-0.515-0.438-0.926-0.955-0.926s-0.939 0.411-0.955 0.924l-0 0.002v7.64c0 0.528 0.428 0.955 0.955 0.955v0z"></path>
</symbol>
<symbol id="icon-writing" viewBox="0 0 32 32">
<path fill="#2b569f" style="fill: var(--color1, #2b569f)" d="M31.999 21.356v-16.093c0-2.907-2.357-5.263-5.263-5.263s-5.263 2.357-5.263 5.263v0 16.093c-0 0.005-0 0.010-0 0.016 0 0.139 0.030 0.272 0.084 0.391l-0.002-0.006 3.737 8.367h-22.468c-0.517-0.014-0.931-0.436-0.931-0.955s0.414-0.941 0.93-0.955l0.001-0h11.030c1.541-0.024 2.781-1.279 2.781-2.823s-1.24-2.799-2.778-2.823l-0.002-0h-5.88c-0.518 0-0.938 0.42-0.938 0.938s0.42 0.938 0.938 0.938h5.88c0.523 0 0.948 0.424 0.948 0.948s-0.424 0.948-0.948 0.948h-11.030c-1.563 0-2.83 1.267-2.83 2.83s1.267 2.83 2.83 2.83h23.913c0 0 0 0 0 0 0.387 0 0.719-0.235 0.861-0.57l0.002-0.006 4.319-9.665c0.051-0.113 0.081-0.245 0.081-0.384 0-0.007-0-0.014-0-0.021l0 0.001zM28.71 24.344h-3.948l-0.907-2.031h5.76zM26.736 28.764l-1.137-2.545h2.273zM25.799 6.957v13.48h-2.451v-13.48zM30.125 6.957v13.48h-2.451v-13.48zM26.736 1.875c1.807 0.002 3.283 1.417 3.383 3.199l0 0.009h-6.767c0.1-1.791 1.576-3.205 3.383-3.208h0z"></path>
</symbol>
<symbol id="icon-computer" viewBox="0 0 37 32">
<path fill="#f6b452" style="fill: var(--color2, #f6b452)" d="M5.719 19.554h13.911c0.597-0 1.081-0.484 1.082-1.082v-12.753c0-0.598-0.485-1.082-1.082-1.082v0h-13.91c-0.598 0-1.082 0.485-1.082 1.082v12.753c0 0.598 0.485 1.082 1.082 1.082v0zM11.438 11.516c0-0.683 0.553-1.236 1.236-1.236s1.236 0.553 1.236 1.236c0 0.683-0.553 1.236-1.236 1.236h-0c-0.682-0.001-1.236-0.554-1.236-1.236v-0zM10.28 17.389v-0.077c0.016-1.311 1.082-2.368 2.395-2.368s2.38 1.057 2.395 2.366v0.080zM6.802 6.802h11.747v10.587h-1.312v-0.078c-0-1.514-0.74-2.856-1.877-3.683l-0.013-0.009c0.456-0.573 0.731-1.308 0.731-2.107 0-1.878-1.523-3.401-3.401-3.401s-3.401 1.523-3.401 3.401c0 0.798 0.275 1.532 0.735 2.112l-0.005-0.007c-1.149 0.836-1.888 2.176-1.888 3.689 0 0.002 0 0.005 0 0.007v-0 0.077h-1.312z"></path>
<path fill="#f6b452" style="fill: var(--color2, #f6b452)" d="M23.918 8.476h6.956c0.598 0 1.082-0.485 1.082-1.082s-0.485-1.082-1.082-1.082h-6.956c-0.598 0-1.082 0.485-1.082 1.082s0.485 1.082 1.082 1.082v0z"></path>
<path fill="#f6b452" style="fill: var(--color2, #f6b452)" d="M23.918 13.067h6.956c0.598 0 1.082-0.485 1.082-1.082s-0.485-1.082-1.082-1.082h-6.956c-0.598 0-1.082 0.485-1.082 1.082s0.485 1.082 1.082 1.082v0z"></path>
<path fill="#f6b452" style="fill: var(--color2, #f6b452)" d="M23.918 17.656h6.956c0.598 0 1.082-0.485 1.082-1.082s-0.485-1.082-1.082-1.082h-6.956c-0.598 0-1.082 0.485-1.082 1.082s0.485 1.082 1.082 1.082v0z"></path>
<path fill="#f6b452" style="fill: var(--color2, #f6b452)" d="M33.225 0h-29.856c-0 0-0.001 0-0.001 0-1.86 0-3.367 1.508-3.367 3.367 0 0 0 0.001 0 0.001v-0 20.67c0 0 0 0 0 0.001 0 1.86 1.508 3.368 3.368 3.368 0 0 0.001 0 0.001 0h13.856v2.449h-4.669c-0.592 0-1.072 0.48-1.072 1.072s0.48 1.072 1.072 1.072v0h11.483c0.592 0 1.072-0.48 1.072-1.072s-0.48-1.072-1.072-1.072v0h-4.669v-2.449h13.856c0 0 0.001 0 0.001 0 1.86 0 3.368-1.508 3.368-3.368 0-0 0-0 0-0.001v0-20.67c0-0 0-0.001 0-0.001 0-1.86-1.508-3.368-3.368-3.368-0 0-0.001 0-0.001 0h0zM2.505 2.503c0.22-0.221 0.525-0.358 0.862-0.358 0.001 0 0.001 0 0.002 0h29.856c0.676 0 1.224 0.548 1.225 1.225v17.3h-32.305v-17.301c0-0.001 0-0.002 0-0.003 0-0.337 0.137-0.643 0.359-0.863l0-0zM33.225 25.263h-29.856c-0.676 0-1.224-0.548-1.225-1.224v-1.225h32.305v1.225c0 0.676-0.548 1.225-1.225 1.225v0z"></path>
</symbol>
<symbol id="icon-backup" viewBox="0 0 32 32">
<path fill="#f6b452" style="fill: var(--color2, #f6b452)" d="M26.944 18.812c2.754-0.003 4.985-2.236 4.985-4.99 0-2.674-2.103-4.857-4.746-4.984l-0.011-0c0.002-0.066 0.003-0.143 0.003-0.221 0-4.759-3.858-8.617-8.617-8.617-3.020 0-5.677 1.553-7.215 3.905l-0.020 0.033c-0.633-0.293-1.373-0.464-2.154-0.464-2.888 0-5.229 2.341-5.229 5.229 0 0.18 0.009 0.358 0.027 0.533l-0.002-0.022c-2.272 0.427-3.969 2.396-3.969 4.761 0 2.673 2.167 4.84 4.84 4.84 0.021 0 0.042-0 0.064-0l-0.003 0h0.791v7.562h-0.938c-0.518 0-0.938 0.42-0.938 0.938v0 3.75c0 0.518 0.42 0.938 0.938 0.938v0h22.5c0.518 0 0.938-0.42 0.938-0.938v0-3.75c0-0.518-0.42-0.938-0.938-0.938v0h-0.938v-7.563zM26.312 30.125h-20.625v-1.875h20.625zM4.897 16.938c-0.007 0-0.015 0-0.024 0-1.64 0-2.973-1.317-2.998-2.951l-0-0.002c0-0.003-0-0.006-0-0.010 0-1.636 1.326-2.963 2.963-2.963 0 0 0.001 0 0.001 0h0.272c0.518-0 0.937-0.42 0.937-0.938 0-0.108-0.018-0.213-0.052-0.31l0.002 0.007c-0.114-0.323-0.18-0.695-0.18-1.082 0-1.846 1.497-3.343 3.343-3.343 0.736 0 1.417 0.238 1.969 0.641l-0.009-0.007c0.152 0.112 0.344 0.179 0.551 0.179 0.367 0 0.684-0.21 0.838-0.517l0.002-0.005c1.125-2.247 3.41-3.763 6.048-3.763 3.724 0 6.742 3.019 6.742 6.742 0 0.359-0.028 0.711-0.082 1.054l0.005-0.038c-0.007 0.042-0.010 0.090-0.010 0.139 0 0.518 0.42 0.938 0.938 0.938 0 0 0 0 0 0h0.793c1.72 0 3.115 1.395 3.115 3.115s-1.395 3.115-3.115 3.115v0h-0.633v-2.814c0-0.518-0.42-0.938-0.938-0.938v0h-6.565v-1.875h0.938c0.517-0.001 0.936-0.421 0.936-0.938 0-0.258-0.104-0.492-0.273-0.662l-3.747-3.75c-0.17-0.17-0.404-0.275-0.663-0.275s-0.493 0.105-0.663 0.275l-3.748 3.748c-0.169 0.17-0.273 0.403-0.273 0.662 0 0.517 0.419 0.937 0.936 0.938h0.933v1.877h-6.56c-0.518 0-0.938 0.42-0.938 0.938v0 2.813zM16.935 10.375v8.437h-1.875v-8.439c0 0 0 0 0 0 0-0.398-0.249-0.739-0.599-0.875l-0.006-0.002 1.545-1.545 1.545 1.546c-0.359 0.137-0.609 0.478-0.609 0.878v0zM14.122 20.687h3.75c0.518 0 0.938-0.42 0.938-0.938v0-4.687h5.628v11.25h-16.875v-11.25h5.622v4.688c0 0.518 0.42 0.937 0.938 0.937v0z"></path>
</symbol>
<symbol id="icon-binoculars" viewBox="0 0 33 32">
<path fill="#f6b452" style="fill: var(--color2, #f6b452)" d="M31.865 26.447l-1.945-17.26c-0.058-0.501-0.48-0.885-0.991-0.885-0 0-0.001 0-0.001 0h-0.326v-3.902c-0.001-0.523-0.405-0.952-0.919-0.992l-0.003-0v-1.6c-0.001-0.997-0.809-1.806-1.806-1.807h-3.342c-0.997 0.001-1.805 0.809-1.806 1.806v1.6c-0.517 0.040-0.921 0.469-0.922 0.992v3.903h-6.451v-3.902c-0.001-0.523-0.405-0.952-0.918-0.992l-0.003-0v-1.6c-0.001-0.998-0.809-1.806-1.807-1.807h-3.341c-0.997 0.001-1.805 0.809-1.806 1.806v1.6c-0.517 0.040-0.921 0.469-0.922 0.992v3.903h-0.326c-0.511 0-0.933 0.385-0.99 0.881l-0 0.005-1.947 17.26c-0.746 0.184-1.291 0.847-1.292 1.638v2.232c0.001 0.93 0.754 1.683 1.684 1.684h12.438c0.93-0.001 1.683-0.754 1.684-1.684v-2.231c-0.001-0.754-0.496-1.391-1.179-1.607l-0.012-0.003v-1.302h3.926v1.302c-0.695 0.219-1.19 0.857-1.191 1.61v2.232c0.001 0.93 0.754 1.683 1.684 1.684h12.438c0.93-0.001 1.683-0.755 1.684-1.684v-2.231c-0.001-0.79-0.546-1.453-1.28-1.635l-0.012-0.002zM29.854 26.4h-9.319v-16.105h7.502zM14.615 14.378h3.926v4.718h-3.926zM22.72 1.994h2.966v1.408h-2.966zM21.798 5.396h4.811v2.905h-4.811zM18.541 12.384h-3.926v-2.089h3.926zM7.471 1.994h2.966v1.408h-2.966zM6.548 5.396h4.812v2.905h-4.812zM5.12 10.295h7.502v16.105h-9.318zM13.813 30.007h-11.819v-1.613h11.819zM14.616 23.178v-2.090h3.926v2.090zM31.163 30.006h-11.819v-1.613h11.819z"></path>
</symbol>
<symbol id="icon-cloud" viewBox="0 0 36 32">
<path fill="#f6b452" style="fill: var(--color2, #f6b452)" d="M25.57 21.306h4.316c0 0 0.001 0 0.001 0 3.52 0 6.374-2.854 6.374-6.374 0-3.188-2.341-5.83-5.398-6.3l-0.036-0.005c-0.489-4.863-4.561-8.628-9.512-8.628-3.218 0-6.065 1.591-7.797 4.029l-0.020 0.030c-0.8-0.505-1.774-0.805-2.818-0.805-2.946 0-5.334 2.388-5.334 5.334 0 0.019 0 0.037 0 0.056l-0-0.003c-3.052 0.511-5.35 3.133-5.35 6.291 0 3.52 2.854 6.374 6.374 6.374 0.001 0 0.001 0 0.002 0h4.316v2.747l-1.856 1.856c-0.39-0.183-0.846-0.289-1.328-0.289-1.764 0-3.194 1.43-3.194 3.194s1.43 3.194 3.194 3.194c1.764 0 3.194-1.43 3.194-3.194 0-0.521-0.125-1.012-0.346-1.447l0.008 0.018 2.14-2.14c0.192-0.192 0.311-0.458 0.311-0.751v0-3.188h4.253v4.496c-1.25 0.451-2.128 1.627-2.128 3.008 0 1.762 1.428 3.19 3.19 3.19s3.19-1.428 3.19-3.19c0-1.381-0.878-2.558-2.106-3.001l-0.022-0.007v-4.496h4.253v3.187c0 0 0 0 0 0 0 0.293 0.119 0.559 0.311 0.751l2.14 2.14c-0.213 0.416-0.337 0.908-0.337 1.429 0 1.764 1.43 3.194 3.194 3.194s3.194-1.43 3.194-3.194c0-1.764-1.43-3.194-3.194-3.194-0.482 0-0.938 0.107-1.348 0.297l0.020-0.008-1.856-1.856zM7.51 29.876c-0.589 0-1.066-0.477-1.066-1.066s0.477-1.066 1.066-1.066c0.589 0 1.066 0.477 1.066 1.066v0c-0.001 0.588-0.478 1.065-1.066 1.066h-0zM18.13 29.876c-0.589 0-1.066-0.477-1.066-1.066s0.477-1.066 1.066-1.066c0.589 0 1.066 0.477 1.066 1.066v0c-0.001 0.588-0.478 1.065-1.066 1.066h-0zM2.124 14.932c0.003-2.346 1.904-4.247 4.249-4.249h0.165c0.587-0 1.062-0.476 1.062-1.063 0-0.092-0.012-0.181-0.034-0.266l0.002 0.007c-0.061-0.235-0.097-0.504-0.097-0.781 0-1.771 1.434-3.206 3.204-3.209h0c0.003 0 0.007-0 0.011-0 0.913 0 1.736 0.385 2.315 1.002l0.002 0.002c0.194 0.205 0.469 0.333 0.773 0.333 0.408 0 0.762-0.23 0.94-0.567l0.003-0.006c1.265-2.4 3.743-4.008 6.596-4.008 4.103 0 7.43 3.325 7.432 7.428v0.059c0 0.002-0 0.004-0 0.006 0 0.587 0.476 1.063 1.062 1.063h0.077c2.347 0 4.249 1.902 4.249 4.249s-1.902 4.249-4.249 4.249v0h-23.514c-2.346-0.003-4.247-1.904-4.249-4.249v-0zM29.815 28.81c0 0.589-0.477 1.066-1.066 1.066s-1.066-0.477-1.066-1.066c0-0.589 0.477-1.066 1.066-1.066v0c0.588 0.001 1.065 0.477 1.066 1.066v0z"></path>
</symbol>
<symbol id="icon-headphones" viewBox="0 0 28 32">
<path fill="#f6b452" style="fill: var(--color2, #f6b452)" d="M14.062 0c-7.762 0.010-14.052 6.3-14.062 14.061v7.626c0.002 1.552 1.26 2.81 2.812 2.812h1.099c0.397 1.103 1.434 1.878 2.652 1.878 1.553 0 2.812-1.259 2.812-2.812 0-0.001 0-0.002 0-0.003v0-7.627c0-0 0-0.001 0-0.001 0-1.553-1.259-2.812-2.812-2.812-1.217 0-2.254 0.773-2.645 1.856l-0.006 0.020h-1.1c-0.001 0-0.003 0-0.005 0-0.334 0-0.655 0.059-0.952 0.166l0.020-0.006v-1.096c0-6.731 5.457-12.188 12.188-12.188s12.188 5.457 12.188 12.188v0 1.099c-0.278-0.101-0.598-0.16-0.933-0.16-0.002 0-0.003 0-0.005 0h-1.099c-0.398-1.101-1.434-1.874-2.651-1.874-1.552 0-2.81 1.257-2.812 2.809v7.627c0 0 0 0 0 0 0 1.553 1.259 2.812 2.812 2.812 0.291 0 0.572-0.044 0.837-0.127l-0.020 0.005c-0.362 1.164-1.43 1.995-2.691 1.996h-2.974c-0.398-1.102-1.434-1.875-2.652-1.875-1.553 0-2.812 1.259-2.812 2.812s1.259 2.812 2.812 2.812c1.217 0 2.254-0.773 2.645-1.855l0.006-0.020h2.974c2.587-0.003 4.684-2.1 4.687-4.687v-0.938h0.938c1.552-0.002 2.81-1.26 2.812-2.812v-7.625c-0.010-7.762-6.3-14.052-14.061-14.062h-0.001zM5.625 15.936c0.010-0.51 0.426-0.92 0.937-0.92s0.928 0.41 0.937 0.919v7.627c-0.010 0.51-0.426 0.92-0.937 0.92s-0.928-0.41-0.937-0.919v-0.001zM2.812 16.874h0.938v5.75h-0.938c-0.518-0.001-0.937-0.42-0.938-0.938v-3.874c0.001-0.518 0.42-0.937 0.938-0.938h0zM14.062 30.125c-0.518 0-0.938-0.42-0.938-0.938s0.42-0.938 0.938-0.938c0.518 0 0.938 0.42 0.938 0.938v0c-0.001 0.518-0.42 0.937-0.938 0.938h-0zM22.5 23.563c-0.010 0.51-0.426 0.92-0.937 0.92s-0.928-0.41-0.937-0.919v-7.627c0.010-0.51 0.426-0.92 0.937-0.92s0.928 0.41 0.937 0.919v0.001zM26.25 21.688c-0.001 0.518-0.42 0.937-0.938 0.938h-0.938v-5.75h0.938c0.518 0.001 0.937 0.42 0.938 0.938v0z"></path>
</symbol>
<symbol id="icon-padlock" viewBox="0 0 24 32">
<path fill="#f6b452" style="fill: var(--color2, #f6b452)" d="M22.5 13.411v-3.099c-0.033-5.671-4.637-10.255-10.312-10.255s-10.28 4.584-10.312 10.252v3.102c-1.102 0.399-1.875 1.435-1.875 2.653v3.749c0 6.731 5.457 12.188 12.188 12.188s12.188-5.457 12.188-12.188v0-3.748c-0.001-1.217-0.773-2.254-1.855-2.647l-0.020-0.006zM3.75 10.313c0-4.66 3.778-8.437 8.437-8.437s8.437 3.778 8.437 8.437v2.938h-1.875v-2.938c0-3.624-2.938-6.563-6.563-6.563s-6.563 2.938-6.563 6.563v0 2.938h-1.875zM16.875 10.313v2.938h-9.376v-2.938c0-2.589 2.099-4.688 4.688-4.688s4.688 2.099 4.688 4.688v0zM22.5 19.813c0 0.017 0 0.037 0 0.057 0 5.695-4.617 10.313-10.313 10.313s-10.313-4.617-10.313-10.313c0-0.020 0-0.040 0-0.061v0.003-3.749c0.001-0.518 0.42-0.937 0.938-0.938h18.75c0.518 0.001 0.937 0.42 0.938 0.938v0z"></path>
<path fill="#f6b452" style="fill: var(--color2, #f6b452)" d="M12.188 17c-0 0-0.001 0-0.001 0-1.553 0-2.812 1.259-2.812 2.812 0 1.217 0.773 2.254 1.856 2.645l0.020 0.006v2.974c0.010 0.51 0.426 0.92 0.937 0.92s0.928-0.41 0.937-0.919v-2.975c1.102-0.398 1.875-1.434 1.875-2.652 0-1.553-1.259-2.812-2.812-2.812-0 0-0 0-0 0h0zM12.188 20.75c-0.518 0-0.938-0.42-0.938-0.938s0.42-0.938 0.938-0.938c0.518 0 0.938 0.42 0.938 0.938v0c-0.001 0.518-0.42 0.937-0.938 0.938h-0z"></path>
</symbol>
<symbol id="icon-surface1" viewBox="0 0 27 32">
<path fill="#f6b452" style="fill: var(--color2, #f6b452)" d="M27.218 8.683v-0.025c-0.014-0.308-0.023-0.633-0.029-0.995-0.034-1.776-1.429-3.216-3.184-3.322l-0.009-0c-3.68-0.205-6.525-1.405-8.957-3.776l-0.022-0.020c-0.364-0.338-0.854-0.546-1.392-0.546s-1.028 0.208-1.393 0.547l0.001-0.001-0.021 0.020c-2.432 2.37-5.278 3.57-8.957 3.776-1.764 0.107-3.159 1.547-3.193 3.32l-0 0.003c-0.005 0.359-0.015 0.684-0.030 0.994v0.058c-0.071 3.752-0.16 8.421 1.402 12.659 0.868 2.36 2.186 4.372 3.864 6.019l0.002 0.002c1.943 1.896 4.489 3.402 7.564 4.476 0.084 0.031 0.188 0.060 0.295 0.082l0.015 0.003c0.135 0.028 0.291 0.045 0.45 0.045s0.315-0.016 0.465-0.047l-0.015 0.003c0.122-0.025 0.227-0.054 0.328-0.090l-0.016 0.005c3.072-1.075 5.616-2.581 7.557-4.477 1.68-1.651 2.998-3.664 3.83-5.913l0.036-0.112c1.568-4.25 1.479-8.929 1.408-12.687zM24.048 20.72c-1.648 4.467-5.011 7.534-10.281 9.378-0.016 0.006-0.036 0.011-0.056 0.015l-0.003 0.001c-0.025 0.005-0.053 0.008-0.083 0.008s-0.058-0.003-0.085-0.009l0.003 0c-0.023-0.005-0.043-0.010-0.062-0.017l0.003 0.001c-5.276-1.84-8.64-4.906-10.288-9.373-1.44-3.907-1.358-8.192-1.286-11.974v-0.021c0.015-0.325 0.024-0.665 0.030-1.039 0.016-0.789 0.637-1.429 1.417-1.475l0.004-0c2.036-0.088 3.946-0.532 5.7-1.271l-0.108 0.040c1.768-0.765 3.279-1.796 4.558-3.063l-0.001 0.001c0.031-0.028 0.071-0.045 0.116-0.045s0.086 0.017 0.116 0.045l-0-0c1.278 1.265 2.789 2.297 4.462 3.025l0.095 0.037c1.646 0.699 3.556 1.142 5.558 1.229l0.034 0.001c0.785 0.045 1.407 0.685 1.422 1.474l0 0.002c0.006 0.376 0.015 0.716 0.030 1.039 0.070 3.786 0.15 8.075-1.294 11.99z"></path>
<path fill="#f6b452" style="fill: var(--color2, #f6b452)" d="M13.625 8.161c-4.45 0-8.071 3.517-8.071 7.84s3.62 7.84 8.071 7.84 8.071-3.517 8.071-7.84-3.621-7.84-8.071-7.84zM13.625 21.995c-3.403 0-6.17-2.688-6.17-5.994s2.768-5.994 6.17-5.994 6.17 2.688 6.17 5.994-2.768 5.994-6.17 5.994z"></path>
<path fill="#f6b452" style="fill: var(--color2, #f6b452)" d="M15.876 13.575l-3.641 3.641-0.988-0.988c-0.167-0.167-0.398-0.27-0.653-0.27-0.51 0-0.923 0.413-0.923 0.923 0 0.255 0.103 0.486 0.27 0.653v0l1.641 1.641c0.167 0.167 0.398 0.27 0.652 0.27s0.485-0.103 0.652-0.27l4.294-4.294c0.17-0.167 0.275-0.4 0.275-0.657 0-0.51-0.413-0.923-0.923-0.923-0.257 0-0.49 0.105-0.657 0.275l-0 0z"></path>
</symbol>
<symbol id="icon-transfer" viewBox="0 0 32 32">
<path fill="#f6b452" style="fill: var(--color2, #f6b452)" d="M17.036 11.042v-8.834c-0.002-1.219-0.989-2.206-2.208-2.208h-12.62c-1.219 0.002-2.206 0.989-2.208 2.208v8.832c0.002 1.219 0.989 2.206 2.208 2.208h2.84v1.893h-0.316c-0.005-0-0.011-0-0.017-0-0.523 0-0.947 0.424-0.947 0.947s0.424 0.947 0.947 0.947c0.006 0 0.012-0 0.018-0h7.571c0.005 0 0.011 0 0.017 0 0.523 0 0.947-0.424 0.947-0.947s-0.424-0.947-0.947-0.947c-0.006 0-0.012 0-0.018 0h-0.315v-1.891h2.839c1.219-0.001 2.207-0.989 2.208-2.208v-0zM10.095 15.143h-3.155v-1.893h3.155zM15.143 11.042c-0 0.174-0.141 0.315-0.316 0.316h-12.62c-0.174-0-0.315-0.141-0.316-0.316v-0.947h13.251zM15.143 8.203h-13.251v-5.995c0-0.174 0.141-0.315 0.315-0.315h12.62c0.174 0 0.315 0.141 0.316 0.316v0z"></path>
<path fill="#f6b452" style="fill: var(--color2, #f6b452)" d="M29.792 14.964h-12.62c-1.219 0.002-2.206 0.989-2.208 2.208v8.832c0.002 1.219 0.989 2.206 2.208 2.208h2.84v1.893h-0.316c-0.515 0.010-0.929 0.43-0.929 0.946s0.414 0.937 0.928 0.946h7.573c0.005 0 0.011 0 0.017 0 0.523 0 0.947-0.424 0.947-0.947s-0.424-0.947-0.947-0.947c-0.006 0-0.012 0-0.018 0h-0.315v-1.893h2.839c1.219-0.002 2.206-0.989 2.208-2.208v-8.832c-0.002-1.219-0.989-2.206-2.208-2.208h-0zM25.060 30.107h-3.155v-1.893h3.155zM30.107 26.006c-0 0.174-0.141 0.315-0.316 0.316h-12.62c-0.174-0-0.315-0.141-0.316-0.316v-0.947h13.25zM30.107 23.166h-13.251v-5.995c0-0.174 0.141-0.315 0.316-0.316h12.619c0.174 0 0.315 0.141 0.316 0.316v0z"></path>
<path fill="#f6b452" style="fill: var(--color2, #f6b452)" d="M19.633 8.189h7.256v1.816l-0.277-0.277c-0.172-0.176-0.412-0.284-0.677-0.284-0.523 0-0.947 0.424-0.947 0.947 0 0.265 0.109 0.505 0.284 0.676l1.893 1.893c0.171 0.171 0.408 0.277 0.669 0.277s0.498-0.106 0.669-0.277l1.893-1.893c0.176-0.172 0.285-0.412 0.285-0.677 0-0.523-0.424-0.947-0.947-0.947-0.265 0-0.505 0.109-0.676 0.284l-0.277 0.277v-2.763c-0-0.523-0.424-0.946-0.946-0.946h-8.203c-0.005-0-0.011-0-0.017-0-0.523 0-0.947 0.424-0.947 0.947s0.424 0.947 0.947 0.947c0.006 0 0.012-0 0.018-0h-0.001z"></path>
<path fill="#f6b452" style="fill: var(--color2, #f6b452)" d="M12.367 25.058h-7.256v-1.816l0.277 0.277c0.171 0.167 0.404 0.27 0.662 0.27 0.523 0 0.947-0.424 0.947-0.947 0-0.258-0.103-0.492-0.27-0.662l-1.893-1.893c-0.171-0.171-0.408-0.277-0.669-0.277s-0.498 0.106-0.669 0.277l-1.893 1.893c-0.176 0.172-0.284 0.412-0.284 0.677 0 0.523 0.424 0.947 0.947 0.947 0.265 0 0.505-0.109 0.676-0.284l0.277-0.277v2.763c0 0.523 0.424 0.947 0.947 0.947v0h8.203c0.005 0 0.011 0 0.017 0 0.523 0 0.947-0.424 0.947-0.947s-0.424-0.947-0.947-0.947c-0.006 0-0.012 0-0.018 0h0.001z"></path>
</symbol>
<symbol id="icon-check" viewBox="0 0 20 20">
<path d="M0 11l2-2 5 5 11-11 2 2-13 13z"></path>
</symbol>
</defs>
</svg>
