<svg xmlns="http://www.w3.org/2000/svg" width="80" height="80" viewBox="0 0 80 80"><defs><style>.a{fill:#2b569f;}</style></defs><path class="a" d="M77.656,0H68.281a2.344,2.344,0,0,0-2.344,2.344V4.688H46.628a7.03,7.03,0,0,0-13.256,0H14.063V2.344A2.344,2.344,0,0,0,11.719,0H2.344A2.344,2.344,0,0,0,0,2.344v9.375a2.344,2.344,0,0,0,2.344,2.344h9.375a2.344,2.344,0,0,0,2.344-2.344V9.344h9.746A30.792,30.792,0,0,0,9.595,33.35a7.028,7.028,0,1,0,4.7.047A26.17,26.17,0,0,1,33.7,10.153a7.027,7.027,0,0,0,12.6,0A26.17,26.17,0,0,1,65.708,33.4a7.034,7.034,0,1,0,4.7-.047A30.737,30.737,0,0,0,56.191,9.375h9.746v2.344a2.344,2.344,0,0,0,2.344,2.344h9.375A2.344,2.344,0,0,0,80,11.719V2.344A2.344,2.344,0,0,0,77.656,0ZM9.375,9.375H4.688V4.688H9.375Zm2.5,32.969A2.344,2.344,0,1,1,14.219,40,2.346,2.346,0,0,1,11.875,42.344ZM40,9.375a2.344,2.344,0,1,1,2.344-2.344A2.346,2.346,0,0,1,40,9.375ZM68.125,37.656A2.344,2.344,0,1,1,65.781,40,2.346,2.346,0,0,1,68.125,37.656ZM75.313,9.375H70.625V4.688h4.688Z"/><g transform="translate(18.906 18.908)"><path class="a" d="M162.794,150.177l-18.75-28.125,0,0-.021-.029c-.032-.047-.066-.092-.1-.136a2.344,2.344,0,0,0-3.753.136l-.021.029,0,0-18.75,28.125a2.344,2.344,0,0,0,.293,2.957,29.694,29.694,0,0,1,8.463,17.328,12.078,12.078,0,0,0-1.048.95,11.88,11.88,0,0,0-3.414,8.345,2.344,2.344,0,0,0,2.344,2.344h28.125a2.344,2.344,0,0,0,2.344-2.344,11.881,11.881,0,0,0-3.414-8.346,12.082,12.082,0,0,0-1.049-.95,29.69,29.69,0,0,1,8.463-17.328A2.344,2.344,0,0,0,162.794,150.177Zm-20.7-1.044a2.344,2.344,0,1,1-2.344,2.344A2.346,2.346,0,0,1,142.094,149.134Zm-11.319,28.281a7.159,7.159,0,0,1,6.632-4.844h9.375a7.159,7.159,0,0,1,6.632,4.844Zm18.857-9.175a11.515,11.515,0,0,0-2.851-.357h-9.375a11.508,11.508,0,0,0-2.851.357,34.393,34.393,0,0,0-8.227-17.015l13.421-20.132v13.756a7.031,7.031,0,1,0,4.688,0V131.093l13.421,20.132A34.387,34.387,0,0,0,149.632,168.24Z" transform="translate(-121 -121.01)"/></g></svg>