<svg xmlns="http://www.w3.org/2000/svg" width="80" height="80" viewBox="0 0 80 80"><defs><style>.a{fill:#2b569f;}</style></defs><path class="a" d="M80,53.39V13.159a13.159,13.159,0,0,0-26.317,0V53.39a2.381,2.381,0,0,0,.2,1l9.342,20.919H7.058a2.388,2.388,0,0,1,0-4.777H34.633a7.057,7.057,0,0,0,0-14.114h-14.7a2.344,2.344,0,0,0,0,4.688h14.7a2.37,2.37,0,0,1,0,4.739H7.058A7.076,7.076,0,0,0,7.058,80H66.842A2.34,2.34,0,0,0,69,78.567L79.8,54.393a2.379,2.379,0,0,0,.2-1Zm-8.224,7.47H61.907l-2.268-5.078h14.4ZM66.842,71.908,64,65.547h5.682ZM64.5,17.394v33.7H58.37v-33.7Zm10.815,0v33.7H69.185v-33.7ZM66.842,4.687A8.482,8.482,0,0,1,75.3,12.707H58.383A8.482,8.482,0,0,1,66.842,4.687Z" transform="translate(-0.001)"/></svg>