<!-- Generated by IcoMoon.io -->
<svg version="1.1" xmlns="http://www.w3.org/2000/svg" width="32" height="32" viewBox="0 0 32 32">
<title>backup</title>
<path fill="#f6b452" d="M26.944 18.812c2.754-0.003 4.985-2.236 4.985-4.99 0-2.674-2.103-4.857-4.746-4.984l-0.011-0c0.002-0.066 0.003-0.143 0.003-0.221 0-4.759-3.858-8.617-8.617-8.617-3.020 0-5.677 1.553-7.215 3.905l-0.020 0.033c-0.633-0.293-1.373-0.464-2.154-0.464-2.888 0-5.229 2.341-5.229 5.229 0 0.18 0.009 0.358 0.027 0.533l-0.002-0.022c-2.272 0.427-3.969 2.396-3.969 4.761 0 2.673 2.167 4.84 4.84 4.84 0.021 0 0.042-0 0.064-0l-0.003 0h0.791v7.562h-0.938c-0.518 0-0.938 0.42-0.938 0.938v0 3.75c0 0.518 0.42 0.938 0.938 0.938v0h22.5c0.518 0 0.938-0.42 0.938-0.938v0-3.75c0-0.518-0.42-0.938-0.938-0.938v0h-0.938v-7.563zM26.312 30.125h-20.625v-1.875h20.625zM4.897 16.938c-0.007 0-0.015 0-0.024 0-1.64 0-2.973-1.317-2.998-2.951l-0-0.002c0-0.003-0-0.006-0-0.010 0-1.636 1.326-2.963 2.963-2.963 0 0 0.001 0 0.001 0h0.272c0.518-0 0.937-0.42 0.937-0.938 0-0.108-0.018-0.213-0.052-0.31l0.002 0.007c-0.114-0.323-0.18-0.695-0.18-1.082 0-1.846 1.497-3.343 3.343-3.343 0.736 0 1.417 0.238 1.969 0.641l-0.009-0.007c0.152 0.112 0.344 0.179 0.551 0.179 0.367 0 0.684-0.21 0.838-0.517l0.002-0.005c1.125-2.247 3.41-3.763 6.048-3.763 3.724 0 6.742 3.019 6.742 6.742 0 0.359-0.028 0.711-0.082 1.054l0.005-0.038c-0.007 0.042-0.010 0.090-0.010 0.139 0 0.518 0.42 0.938 0.938 0.938 0 0 0 0 0 0h0.793c1.72 0 3.115 1.395 3.115 3.115s-1.395 3.115-3.115 3.115v0h-0.633v-2.814c0-0.518-0.42-0.938-0.938-0.938v0h-6.565v-1.875h0.938c0.517-0.001 0.936-0.421 0.936-0.938 0-0.258-0.104-0.492-0.273-0.662l-3.747-3.75c-0.17-0.17-0.404-0.275-0.663-0.275s-0.493 0.105-0.663 0.275l-3.748 3.748c-0.169 0.17-0.273 0.403-0.273 0.662 0 0.517 0.419 0.937 0.936 0.938h0.933v1.877h-6.56c-0.518 0-0.938 0.42-0.938 0.938v0 2.813zM16.935 10.375v8.437h-1.875v-8.439c0 0 0 0 0 0 0-0.398-0.249-0.739-0.599-0.875l-0.006-0.002 1.545-1.545 1.545 1.546c-0.359 0.137-0.609 0.478-0.609 0.878v0zM14.122 20.687h3.75c0.518 0 0.938-0.42 0.938-0.938v0-4.687h5.628v11.25h-16.875v-11.25h5.622v4.688c0 0.518 0.42 0.937 0.938 0.937v0z"></path>
</svg>
