<!-- Generated by IcoMoon.io -->
<svg version="1.1" xmlns="http://www.w3.org/2000/svg" width="33" height="32" viewBox="0 0 33 32">
<title>binoculars</title>
<path fill="#f6b452" d="M31.865 26.447l-1.945-17.26c-0.058-0.501-0.48-0.885-0.991-0.885-0 0-0.001 0-0.001 0h-0.326v-3.902c-0.001-0.523-0.405-0.952-0.919-0.992l-0.003-0v-1.6c-0.001-0.997-0.809-1.806-1.806-1.807h-3.342c-0.997 0.001-1.805 0.809-1.806 1.806v1.6c-0.517 0.040-0.921 0.469-0.922 0.992v3.903h-6.451v-3.902c-0.001-0.523-0.405-0.952-0.918-0.992l-0.003-0v-1.6c-0.001-0.998-0.809-1.806-1.807-1.807h-3.341c-0.997 0.001-1.805 0.809-1.806 1.806v1.6c-0.517 0.040-0.921 0.469-0.922 0.992v3.903h-0.326c-0.511 0-0.933 0.385-0.99 0.881l-0 0.005-1.947 17.26c-0.746 0.184-1.291 0.847-1.292 1.638v2.232c0.001 0.93 0.754 1.683 1.684 1.684h12.438c0.93-0.001 1.683-0.754 1.684-1.684v-2.231c-0.001-0.754-0.496-1.391-1.179-1.607l-0.012-0.003v-1.302h3.926v1.302c-0.695 0.219-1.19 0.857-1.191 1.61v2.232c0.001 0.93 0.754 1.683 1.684 1.684h12.438c0.93-0.001 1.683-0.755 1.684-1.684v-2.231c-0.001-0.79-0.546-1.453-1.28-1.635l-0.012-0.002zM29.854 26.4h-9.319v-16.105h7.502zM14.615 14.378h3.926v4.718h-3.926zM22.72 1.994h2.966v1.408h-2.966zM21.798 5.396h4.811v2.905h-4.811zM18.541 12.384h-3.926v-2.089h3.926zM7.471 1.994h2.966v1.408h-2.966zM6.548 5.396h4.812v2.905h-4.812zM5.12 10.295h7.502v16.105h-9.318zM13.813 30.007h-11.819v-1.613h11.819zM14.616 23.178v-2.090h3.926v2.090zM31.163 30.006h-11.819v-1.613h11.819z"></path>
</svg>
