<!-- Generated by IcoMoon.io -->
<svg version="1.1" xmlns="http://www.w3.org/2000/svg" width="36" height="32" viewBox="0 0 36 32">
<title>cloud</title>
<path fill="#f6b452" d="M25.57 21.306h4.316c0 0 0.001 0 0.001 0 3.52 0 6.374-2.854 6.374-6.374 0-3.188-2.341-5.83-5.398-6.3l-0.036-0.005c-0.489-4.863-4.561-8.628-9.512-8.628-3.218 0-6.065 1.591-7.797 4.029l-0.020 0.030c-0.8-0.505-1.774-0.805-2.818-0.805-2.946 0-5.334 2.388-5.334 5.334 0 0.019 0 0.037 0 0.056l-0-0.003c-3.052 0.511-5.35 3.133-5.35 6.291 0 3.52 2.854 6.374 6.374 6.374 0.001 0 0.001 0 0.002 0h4.316v2.747l-1.856 1.856c-0.39-0.183-0.846-0.289-1.328-0.289-1.764 0-3.194 1.43-3.194 3.194s1.43 3.194 3.194 3.194c1.764 0 3.194-1.43 3.194-3.194 0-0.521-0.125-1.012-0.346-1.447l0.008 0.018 2.14-2.14c0.192-0.192 0.311-0.458 0.311-0.751v0-3.188h4.253v4.496c-1.25 0.451-2.128 1.627-2.128 3.008 0 1.762 1.428 3.19 3.19 3.19s3.19-1.428 3.19-3.19c0-1.381-0.878-2.558-2.106-3.001l-0.022-0.007v-4.496h4.253v3.187c0 0 0 0 0 0 0 0.293 0.119 0.559 0.311 0.751l2.14 2.14c-0.213 0.416-0.337 0.908-0.337 1.429 0 1.764 1.43 3.194 3.194 3.194s3.194-1.43 3.194-3.194c0-1.764-1.43-3.194-3.194-3.194-0.482 0-0.938 0.107-1.348 0.297l0.020-0.008-1.856-1.856zM7.51 29.876c-0.589 0-1.066-0.477-1.066-1.066s0.477-1.066 1.066-1.066c0.589 0 1.066 0.477 1.066 1.066v0c-0.001 0.588-0.478 1.065-1.066 1.066h-0zM18.13 29.876c-0.589 0-1.066-0.477-1.066-1.066s0.477-1.066 1.066-1.066c0.589 0 1.066 0.477 1.066 1.066v0c-0.001 0.588-0.478 1.065-1.066 1.066h-0zM2.124 14.932c0.003-2.346 1.904-4.247 4.249-4.249h0.165c0.587-0 1.062-0.476 1.062-1.063 0-0.092-0.012-0.181-0.034-0.266l0.002 0.007c-0.061-0.235-0.097-0.504-0.097-0.781 0-1.771 1.434-3.206 3.204-3.209h0c0.003 0 0.007-0 0.011-0 0.913 0 1.736 0.385 2.315 1.002l0.002 0.002c0.194 0.205 0.469 0.333 0.773 0.333 0.408 0 0.762-0.23 0.94-0.567l0.003-0.006c1.265-2.4 3.743-4.008 6.596-4.008 4.103 0 7.43 3.325 7.432 7.428v0.059c0 0.002-0 0.004-0 0.006 0 0.587 0.476 1.063 1.062 1.063h0.077c2.347 0 4.249 1.902 4.249 4.249s-1.902 4.249-4.249 4.249v0h-23.514c-2.346-0.003-4.247-1.904-4.249-4.249v-0zM29.815 28.81c0 0.589-0.477 1.066-1.066 1.066s-1.066-0.477-1.066-1.066c0-0.589 0.477-1.066 1.066-1.066v0c0.588 0.001 1.065 0.477 1.066 1.066v0z"></path>
</svg>
