<!-- Generated by IcoMoon.io -->
<svg version="1.1" xmlns="http://www.w3.org/2000/svg" width="28" height="32" viewBox="0 0 28 32">
<title>headphones</title>
<path fill="#f6b452" d="M14.062 0c-7.762 0.010-14.052 6.3-14.062 14.061v7.626c0.002 1.552 1.26 2.81 2.812 2.812h1.099c0.397 1.103 1.434 1.878 2.652 1.878 1.553 0 2.812-1.259 2.812-2.812 0-0.001 0-0.002 0-0.003v0-7.627c0-0 0-0.001 0-0.001 0-1.553-1.259-2.812-2.812-2.812-1.217 0-2.254 0.773-2.645 1.856l-0.006 0.020h-1.1c-0.001 0-0.003 0-0.005 0-0.334 0-0.655 0.059-0.952 0.166l0.020-0.006v-1.096c0-6.731 5.457-12.188 12.188-12.188s12.188 5.457 12.188 12.188v0 1.099c-0.278-0.101-0.598-0.16-0.933-0.16-0.002 0-0.003 0-0.005 0h-1.099c-0.398-1.101-1.434-1.874-2.651-1.874-1.552 0-2.81 1.257-2.812 2.809v7.627c0 0 0 0 0 0 0 1.553 1.259 2.812 2.812 2.812 0.291 0 0.572-0.044 0.837-0.127l-0.020 0.005c-0.362 1.164-1.43 1.995-2.691 1.996h-2.974c-0.398-1.102-1.434-1.875-2.652-1.875-1.553 0-2.812 1.259-2.812 2.812s1.259 2.812 2.812 2.812c1.217 0 2.254-0.773 2.645-1.855l0.006-0.020h2.974c2.587-0.003 4.684-2.1 4.687-4.687v-0.938h0.938c1.552-0.002 2.81-1.26 2.812-2.812v-7.625c-0.010-7.762-6.3-14.052-14.061-14.062h-0.001zM5.625 15.936c0.010-0.51 0.426-0.92 0.937-0.92s0.928 0.41 0.937 0.919v7.627c-0.010 0.51-0.426 0.92-0.937 0.92s-0.928-0.41-0.937-0.919v-0.001zM2.812 16.874h0.938v5.75h-0.938c-0.518-0.001-0.937-0.42-0.938-0.938v-3.874c0.001-0.518 0.42-0.937 0.938-0.938h0zM14.062 30.125c-0.518 0-0.938-0.42-0.938-0.938s0.42-0.938 0.938-0.938c0.518 0 0.938 0.42 0.938 0.938v0c-0.001 0.518-0.42 0.937-0.938 0.938h-0zM22.5 23.563c-0.010 0.51-0.426 0.92-0.937 0.92s-0.928-0.41-0.937-0.919v-7.627c0.010-0.51 0.426-0.92 0.937-0.92s0.928 0.41 0.937 0.919v0.001zM26.25 21.688c-0.001 0.518-0.42 0.937-0.938 0.938h-0.938v-5.75h0.938c0.518 0.001 0.937 0.42 0.938 0.938v0z"></path>
</svg>
