<!-- Generated by IcoMoon.io -->
<svg version="1.1" xmlns="http://www.w3.org/2000/svg" width="24" height="32" viewBox="0 0 24 32">
<title>padlock</title>
<path fill="#f6b452" d="M22.5 13.411v-3.099c-0.033-5.671-4.637-10.255-10.312-10.255s-10.28 4.584-10.312 10.252v3.102c-1.102 0.399-1.875 1.435-1.875 2.653v3.749c0 6.731 5.457 12.188 12.188 12.188s12.188-5.457 12.188-12.188v0-3.748c-0.001-1.217-0.773-2.254-1.855-2.647l-0.020-0.006zM3.75 10.313c0-4.66 3.778-8.437 8.437-8.437s8.437 3.778 8.437 8.437v2.938h-1.875v-2.938c0-3.624-2.938-6.563-6.563-6.563s-6.563 2.938-6.563 6.563v0 2.938h-1.875zM16.875 10.313v2.938h-9.376v-2.938c0-2.589 2.099-4.688 4.688-4.688s4.688 2.099 4.688 4.688v0zM22.5 19.813c0 0.017 0 0.037 0 0.057 0 5.695-4.617 10.313-10.313 10.313s-10.313-4.617-10.313-10.313c0-0.020 0-0.040 0-0.061v0.003-3.749c0.001-0.518 0.42-0.937 0.938-0.938h18.75c0.518 0.001 0.937 0.42 0.938 0.938v0z"></path>
<path fill="#f6b452" d="M12.188 17c-0 0-0.001 0-0.001 0-1.553 0-2.812 1.259-2.812 2.812 0 1.217 0.773 2.254 1.856 2.645l0.020 0.006v2.974c0.010 0.51 0.426 0.92 0.937 0.92s0.928-0.41 0.937-0.919v-2.975c1.102-0.398 1.875-1.434 1.875-2.652 0-1.553-1.259-2.812-2.812-2.812-0 0-0 0-0 0h0zM12.188 20.75c-0.518 0-0.938-0.42-0.938-0.938s0.42-0.938 0.938-0.938c0.518 0 0.938 0.42 0.938 0.938v0c-0.001 0.518-0.42 0.937-0.938 0.938h-0z"></path>
</svg>
