<!-- Generated by IcoMoon.io -->
<svg version="1.1" xmlns="http://www.w3.org/2000/svg" width="27" height="32" viewBox="0 0 27 32">
<title>surface1</title>
<path fill="#f6b452" d="M27.218 8.683v-0.025c-0.014-0.308-0.023-0.633-0.029-0.995-0.034-1.776-1.429-3.216-3.184-3.322l-0.009-0c-3.68-0.205-6.525-1.405-8.957-3.776l-0.022-0.020c-0.364-0.338-0.854-0.546-1.392-0.546s-1.028 0.208-1.393 0.547l0.001-0.001-0.021 0.020c-2.432 2.37-5.278 3.57-8.957 3.776-1.764 0.107-3.159 1.547-3.193 3.32l-0 0.003c-0.005 0.359-0.015 0.684-0.030 0.994v0.058c-0.071 3.752-0.16 8.421 1.402 12.659 0.868 2.36 2.186 4.372 3.864 6.019l0.002 0.002c1.943 1.896 4.489 3.402 7.564 4.476 0.084 0.031 0.188 0.060 0.295 0.082l0.015 0.003c0.135 0.028 0.291 0.045 0.45 0.045s0.315-0.016 0.465-0.047l-0.015 0.003c0.122-0.025 0.227-0.054 0.328-0.090l-0.016 0.005c3.072-1.075 5.616-2.581 7.557-4.477 1.68-1.651 2.998-3.664 3.83-5.913l0.036-0.112c1.568-4.25 1.479-8.929 1.408-12.687zM24.048 20.72c-1.648 4.467-5.011 7.534-10.281 9.378-0.016 0.006-0.036 0.011-0.056 0.015l-0.003 0.001c-0.025 0.005-0.053 0.008-0.083 0.008s-0.058-0.003-0.085-0.009l0.003 0c-0.023-0.005-0.043-0.010-0.062-0.017l0.003 0.001c-5.276-1.84-8.64-4.906-10.288-9.373-1.44-3.907-1.358-8.192-1.286-11.974v-0.021c0.015-0.325 0.024-0.665 0.030-1.039 0.016-0.789 0.637-1.429 1.417-1.475l0.004-0c2.036-0.088 3.946-0.532 5.7-1.271l-0.108 0.040c1.768-0.765 3.279-1.796 4.558-3.063l-0.001 0.001c0.031-0.028 0.071-0.045 0.116-0.045s0.086 0.017 0.116 0.045l-0-0c1.278 1.265 2.789 2.297 4.462 3.025l0.095 0.037c1.646 0.699 3.556 1.142 5.558 1.229l0.034 0.001c0.785 0.045 1.407 0.685 1.422 1.474l0 0.002c0.006 0.376 0.015 0.716 0.030 1.039 0.070 3.786 0.15 8.075-1.294 11.99z"></path>
<path fill="#f6b452" d="M13.625 8.161c-4.45 0-8.071 3.517-8.071 7.84s3.62 7.84 8.071 7.84 8.071-3.517 8.071-7.84-3.621-7.84-8.071-7.84zM13.625 21.995c-3.403 0-6.17-2.688-6.17-5.994s2.768-5.994 6.17-5.994 6.17 2.688 6.17 5.994-2.768 5.994-6.17 5.994z"></path>
<path fill="#f6b452" d="M15.876 13.575l-3.641 3.641-0.988-0.988c-0.167-0.167-0.398-0.27-0.653-0.27-0.51 0-0.923 0.413-0.923 0.923 0 0.255 0.103 0.486 0.27 0.653v0l1.641 1.641c0.167 0.167 0.398 0.27 0.652 0.27s0.485-0.103 0.652-0.27l4.294-4.294c0.17-0.167 0.275-0.4 0.275-0.657 0-0.51-0.413-0.923-0.923-0.923-0.257 0-0.49 0.105-0.657 0.275l-0 0z"></path>
</svg>
