<!-- Generated by IcoMoon.io -->
<svg version="1.1" xmlns="http://www.w3.org/2000/svg" width="32" height="32" viewBox="0 0 32 32">
<title>transfer</title>
<path fill="#f6b452" d="M17.036 11.042v-8.834c-0.002-1.219-0.989-2.206-2.208-2.208h-12.62c-1.219 0.002-2.206 0.989-2.208 2.208v8.832c0.002 1.219 0.989 2.206 2.208 2.208h2.84v1.893h-0.316c-0.005-0-0.011-0-0.017-0-0.523 0-0.947 0.424-0.947 0.947s0.424 0.947 0.947 0.947c0.006 0 0.012-0 0.018-0h7.571c0.005 0 0.011 0 0.017 0 0.523 0 0.947-0.424 0.947-0.947s-0.424-0.947-0.947-0.947c-0.006 0-0.012 0-0.018 0h-0.315v-1.891h2.839c1.219-0.001 2.207-0.989 2.208-2.208v-0zM10.095 15.143h-3.155v-1.893h3.155zM15.143 11.042c-0 0.174-0.141 0.315-0.316 0.316h-12.62c-0.174-0-0.315-0.141-0.316-0.316v-0.947h13.251zM15.143 8.203h-13.251v-5.995c0-0.174 0.141-0.315 0.315-0.315h12.62c0.174 0 0.315 0.141 0.316 0.316v0z"></path>
<path fill="#f6b452" d="M29.792 14.964h-12.62c-1.219 0.002-2.206 0.989-2.208 2.208v8.832c0.002 1.219 0.989 2.206 2.208 2.208h2.84v1.893h-0.316c-0.515 0.010-0.929 0.43-0.929 0.946s0.414 0.937 0.928 0.946h7.573c0.005 0 0.011 0 0.017 0 0.523 0 0.947-0.424 0.947-0.947s-0.424-0.947-0.947-0.947c-0.006 0-0.012 0-0.018 0h-0.315v-1.893h2.839c1.219-0.002 2.206-0.989 2.208-2.208v-8.832c-0.002-1.219-0.989-2.206-2.208-2.208h-0zM25.060 30.107h-3.155v-1.893h3.155zM30.107 26.006c-0 0.174-0.141 0.315-0.316 0.316h-12.62c-0.174-0-0.315-0.141-0.316-0.316v-0.947h13.25zM30.107 23.166h-13.251v-5.995c0-0.174 0.141-0.315 0.316-0.316h12.619c0.174 0 0.315 0.141 0.316 0.316v0z"></path>
<path fill="#f6b452" d="M19.633 8.189h7.256v1.816l-0.277-0.277c-0.172-0.176-0.412-0.284-0.677-0.284-0.523 0-0.947 0.424-0.947 0.947 0 0.265 0.109 0.505 0.284 0.676l1.893 1.893c0.171 0.171 0.408 0.277 0.669 0.277s0.498-0.106 0.669-0.277l1.893-1.893c0.176-0.172 0.285-0.412 0.285-0.677 0-0.523-0.424-0.947-0.947-0.947-0.265 0-0.505 0.109-0.676 0.284l-0.277 0.277v-2.763c-0-0.523-0.424-0.946-0.946-0.946h-8.203c-0.005-0-0.011-0-0.017-0-0.523 0-0.947 0.424-0.947 0.947s0.424 0.947 0.947 0.947c0.006 0 0.012-0 0.018-0h-0.001z"></path>
<path fill="#f6b452" d="M12.367 25.058h-7.256v-1.816l0.277 0.277c0.171 0.167 0.404 0.27 0.662 0.27 0.523 0 0.947-0.424 0.947-0.947 0-0.258-0.103-0.492-0.27-0.662l-1.893-1.893c-0.171-0.171-0.408-0.277-0.669-0.277s-0.498 0.106-0.669 0.277l-1.893 1.893c-0.176 0.172-0.284 0.412-0.284 0.677 0 0.523 0.424 0.947 0.947 0.947 0.265 0 0.505-0.109 0.676-0.284l0.277-0.277v2.763c0 0.523 0.424 0.947 0.947 0.947v0h8.203c0.005 0 0.011 0 0.017 0 0.523 0 0.947-0.424 0.947-0.947s-0.424-0.947-0.947-0.947c-0.006 0-0.012 0-0.018 0h0.001z"></path>
</svg>
